<svg width="25" height="24" viewBox="0 0 25 24" fill="none" xmlns="http://www.w3.org/2000/svg">
<path d="M9.23458 11.5154C8.65642 10.0733 8.59391 8.47581 9.05762 6.99295C9.52133 5.5101 10.4828 4.23282 11.7795 3.37703C13.0763 2.52124 14.6287 2.13942 16.1745 2.29612C17.7202 2.45281 19.1644 3.13841 20.2631 4.23702C21.3617 5.33563 22.0473 6.77987 22.2039 8.32562C22.3606 9.87137 21.9788 11.4238 21.123 12.7205C20.2672 14.0173 18.99 14.9787 17.5071 15.4424C16.0242 15.9062 14.4268 15.8436 12.9847 15.2655L12.9847 15.2653L11.7502 16.4998H9.50024V18.7498H7.25024V20.9998H3.50024V17.2498L9.23474 11.5153L9.23458 11.5154Z" stroke="white" stroke-width="1.5" stroke-linecap="round" stroke-linejoin="round"/>
<path d="M17.375 8.625C18.2034 8.625 18.875 7.95343 18.875 7.125C18.875 6.29657 18.2034 5.625 17.375 5.625C16.5466 5.625 15.875 6.29657 15.875 7.125C15.875 7.95343 16.5466 8.625 17.375 8.625Z" fill="white"/>
</svg>
