<svg width="25" height="25" viewBox="0 0 25 25" fill="none" xmlns="http://www.w3.org/2000/svg">
<path d="M21.7398 17.9687L18.9169 13.0937C19.4946 12.0328 19.7955 10.8434 19.7919 9.63542C19.7919 7.70155 19.0237 5.84688 17.6562 4.47943C16.2888 3.11198 14.4341 2.34375 12.5002 2.34375C10.5664 2.34375 8.7117 3.11198 7.34425 4.47943C5.9768 5.84688 5.20857 7.70155 5.20857 9.63542C5.20499 10.8434 5.50592 12.0328 6.08357 13.0937L3.26066 17.9687C3.16905 18.1274 3.12091 18.3074 3.12109 18.4906C3.12128 18.6738 3.16977 18.8537 3.26169 19.0122C3.3536 19.1707 3.48569 19.3021 3.64462 19.3933C3.80355 19.4844 3.9837 19.532 4.16691 19.5312H7.15649L8.67732 22.0937C8.72859 22.1787 8.79173 22.2558 8.86482 22.3229C9.05792 22.509 9.31537 22.6135 9.58357 22.6146H9.72941C9.88667 22.5931 10.0369 22.5359 10.1687 22.4474C10.3005 22.359 10.4103 22.2416 10.4898 22.1042L12.5002 18.6458L14.5107 22.1354C14.5913 22.2709 14.7017 22.3862 14.8334 22.4729C14.9651 22.5595 15.1148 22.615 15.2711 22.6354H15.4169C15.6887 22.637 15.9504 22.5324 16.1461 22.3438C16.2161 22.2805 16.2759 22.2067 16.3232 22.125L17.844 19.5625H20.8336C21.0171 19.5632 21.1976 19.5154 21.3568 19.424C21.5159 19.3325 21.648 19.2006 21.7398 19.0417C21.8372 18.8797 21.8886 18.6942 21.8886 18.5052C21.8886 18.3162 21.8372 18.1308 21.7398 17.9687ZM9.57316 19.5625L8.64607 18.0104C8.55478 17.8564 8.42535 17.7286 8.27026 17.6392C8.11517 17.5498 7.93966 17.5018 7.76066 17.5H5.95857L7.44816 14.9167C8.47391 15.9051 9.76672 16.5714 11.1669 16.8333L9.57316 19.5625ZM12.5002 14.8438C11.4701 14.8438 10.4632 14.5383 9.60664 13.966C8.75014 13.3937 8.08257 12.5803 7.68837 11.6286C7.29416 10.6769 7.19102 9.62964 7.39198 8.61932C7.59295 7.609 8.08899 6.68097 8.81739 5.95257C9.54579 5.22417 10.4738 4.72812 11.4841 4.52716C12.4945 4.3262 13.5417 4.42934 14.4934 4.82354C15.4451 5.21775 16.2585 5.88532 16.8308 6.74182C17.4031 7.59833 17.7086 8.60531 17.7086 9.63542C17.7086 11.0168 17.1598 12.3415 16.1831 13.3183C15.2063 14.295 13.8816 14.8437 12.5002 14.8438ZM17.2398 17.5C17.0608 17.5018 16.8853 17.5498 16.7302 17.6392C16.5751 17.7286 16.4457 17.8564 16.3544 18.0104L15.4273 19.5625L13.844 16.8021C15.2393 16.5348 16.5273 15.8691 17.5523 14.8854L19.0419 17.4688L17.2398 17.5Z" fill="#A0E7F8"/>
</svg>
