<svg width="25" height="25" viewBox="0 0 25 25" fill="none" xmlns="http://www.w3.org/2000/svg">
<path d="M21.0945 7.03125H3.90701C3.47554 7.03125 3.12576 7.38103 3.12576 7.8125V20.3125C3.12576 20.744 3.47554 21.0938 3.90701 21.0938H21.0945C21.526 21.0938 21.8758 20.744 21.8758 20.3125V7.8125C21.8758 7.38103 21.526 7.03125 21.0945 7.03125Z" stroke="#FDA4AF" stroke-width="2" stroke-linecap="round" stroke-linejoin="round"/>
<path d="M16.4062 7.03125V5.46875C16.4062 5.05435 16.2416 4.65692 15.9486 4.3639C15.6556 4.07087 15.2582 3.90625 14.8438 3.90625H10.1562C9.74185 3.90625 9.34442 4.07087 9.0514 4.3639C8.75837 4.65692 8.59375 5.05435 8.59375 5.46875V7.03125" stroke="#FDA4AF" stroke-width="2" stroke-linecap="round" stroke-linejoin="round"/>
<path d="M21.8758 12.335C19.0265 13.9834 15.7918 14.849 12.5 14.8438C9.20873 14.849 5.97463 13.9837 3.12564 12.3358" stroke="#FDA4AF" stroke-width="2" stroke-linecap="round" stroke-linejoin="round"/>
<path d="M11.3281 11.7188H13.6719" stroke="#FDA4AF" stroke-width="2" stroke-linecap="round" stroke-linejoin="round"/>
</svg>
