<svg width="35" height="35" viewBox="0 0 35 35" fill="none" xmlns="http://www.w3.org/2000/svg">
<g clip-path="url(#clip0_479_22910)">
<path d="M3.50116 17.0696C3.80708 17.0696 4.05635 16.8203 4.05635 16.5144C4.05635 9.10424 10.0162 3.12172 17.3697 3.12172C24.7232 3.12172 30.6831 9.11557 30.6831 16.5144C30.6831 16.8203 30.9324 17.0696 31.2383 17.0696C31.5442 17.0696 31.7935 16.8203 31.7935 16.5144C31.7935 8.50372 25.3351 2 17.3697 2C9.40436 2 2.93463 8.50372 2.93463 16.5144C2.93463 16.8203 3.1839 17.0696 3.48983 17.0696H3.50116Z" fill="#353E64"/>
<path fill-rule="evenodd" clip-rule="evenodd" d="M4.55635 16.5144C4.55635 17.0965 4.08322 17.5696 3.50116 17.5696H3.48983C2.90776 17.5696 2.43463 17.0965 2.43463 16.5144C2.43463 8.23013 9.12568 1.5 17.3697 1.5C25.6143 1.5 32.2935 8.23065 32.2935 16.5144C32.2935 17.0965 31.8204 17.5696 31.2383 17.5696C30.6562 17.5696 30.1831 17.0965 30.1831 16.5144C30.1831 9.38895 24.4443 3.62172 17.3697 3.62172C10.2948 3.62172 4.55635 9.37789 4.55635 16.5144ZM4.05635 16.5144C4.05635 16.8203 3.80708 17.0696 3.50116 17.0696H3.48983C3.1839 17.0696 2.93463 16.8203 2.93463 16.5144C2.93463 8.50372 9.40436 2 17.3697 2C25.3351 2 31.7935 8.50372 31.7935 16.5144C31.7935 16.8203 31.5442 17.0696 31.2383 17.0696C30.9324 17.0696 30.6831 16.8203 30.6831 16.5144C30.6831 9.11557 24.7232 3.12172 17.3697 3.12172C10.0162 3.12172 4.05635 9.10424 4.05635 16.5144Z" fill="#353E64"/>
<g clip-path="url(#clip1_479_22910)">
<path d="M34.61 24.4199C34.61 24.4199 33.88 24.4499 33.52 24.4999C33.02 24.5699 32.58 24.8099 32.17 25.0999C32.22 24.5999 32.27 24.1299 32.33 23.6399C32.33 23.5799 32.38 23.5299 32.41 23.4699C33.12 22.0499 32.84 20.3499 31.71 19.2199C31.39 18.8999 31.2 18.9299 31.01 19.3199C30.33 20.6699 30.56 22.2699 31.59 23.4299C31.64 23.4899 31.71 23.5499 31.7 23.6099C31.67 24.0299 31.62 24.4599 31.58 24.8799H31.52C31.52 24.8799 31.47 24.7799 31.45 24.7299C31.08 23.9699 30.51 23.4299 29.74 23.0999C29.46 22.9799 29.28 23.0799 29.24 23.3699C29.12 24.5599 29.49 25.5499 30.4 26.3399C30.56 26.4799 30.73 26.5899 30.9 26.7099C30.62 27.2499 30.28 27.7599 29.85 28.2199C29.84 28.1899 29.83 28.1899 29.83 28.1699V28.0499C29.89 27.1999 29.66 26.4299 29.13 25.7499C28.98 25.5599 28.73 25.5599 28.59 25.7499C28.44 25.9399 28.32 26.1499 28.22 26.3599C28 26.8299 27.9 27.3199 27.91 27.8199C27.91 28.8699 28.46 29.2399 28.28 29.4899C27.82 29.7799 27.33 30.0399 26.81 30.2099H26.73C27.26 29.4699 27.48 28.6799 27.35 27.7899C27.3 27.4599 27.13 27.3599 26.83 27.4799C25.81 27.9299 25.16 28.6999 24.93 29.7899C24.87 30.0399 24.86 30.2999 24.82 30.6099C24.22 30.5599 23.61 30.5099 23 30.4599V30.3899C23.06 30.3699 23.1 30.3299 23.16 30.3099C23.91 29.9399 24.44 29.3599 24.75 28.5799C24.85 28.3299 24.75 28.1499 24.49 28.1199C23.62 28.0099 22.82 28.1999 22.11 28.7099C21.71 28.9899 21.41 29.3599 21.16 29.7999C20.79 29.6099 20.45 29.3899 20.12 29.1499C20 29.0599 19.83 29.0699 19.72 29.1799C19.58 29.3199 19.61 29.5399 19.78 29.6599C20.11 29.8799 20.45 30.0899 20.78 30.2799C20.9 30.3599 20.94 30.4299 20.94 30.5599C20.87 31.9699 21.7 33.2699 22.99 33.7899C23.24 33.8899 23.48 33.7399 23.5 33.4699C23.58 32.6799 23.4 31.9399 22.96 31.2599C22.91 31.1799 22.86 31.1099 22.84 31.0699C23.49 31.0999 24.13 31.1499 24.78 31.1699C24.93 31.1699 25 31.1999 25.06 31.3399C25.71 32.6099 27.07 33.3199 28.46 33.1299C28.71 33.0999 28.83 32.8699 28.73 32.6299C28.53 32.1499 28.24 31.7199 27.83 31.4099C27.55 31.1799 27.23 30.9999 26.93 30.7999C26.96 30.7899 27.02 30.7699 27.08 30.7399C27.6 30.4899 28.12 30.2599 28.63 29.9999C28.75 29.9399 28.83 29.9299 28.96 30.0099C30.17 30.7999 31.62 30.7599 32.78 29.9099C33.01 29.7399 33.02 29.5199 32.79 29.3499C32.34 28.9899 31.83 28.7599 31.25 28.6799C30.94 28.6299 30.63 28.6499 30.3 28.6299C30.35 28.5699 30.4 28.5099 30.45 28.4399C30.77 27.9799 31.1 27.5199 31.4 27.0599C31.48 26.9399 31.55 26.8799 31.71 26.8899C33.13 26.9799 34.42 26.1799 34.94 24.8799C35.05 24.6099 34.94 24.3999 34.67 24.3899L34.61 24.4199Z" fill="#353E64"/>
<path d="M15.26 29.2199H15.21C15.11 29.1099 14.94 29.0799 14.81 29.1699C14.49 29.4099 14.14 29.6099 13.78 29.7999C13.75 29.7399 13.72 29.7199 13.71 29.6899C12.96 28.5199 11.89 27.9999 10.5 28.1299C10.19 28.1599 10.08 28.3499 10.21 28.6399C10.53 29.4099 11.05 29.9799 11.8 30.3399C11.85 30.3599 11.9 30.3999 11.95 30.4199V30.4899C11.35 30.5399 10.74 30.5799 10.13 30.6299C10.13 30.5199 10.13 30.4599 10.12 30.3899C10.03 29.0199 9.35998 28.0399 8.10998 27.4899C7.86998 27.3899 7.65998 27.4999 7.61998 27.7499C7.51998 28.4299 7.61998 29.0899 7.92998 29.6999C8.01998 29.8799 8.12998 30.0499 8.23998 30.2199L8.18998 30.2699C7.64998 30.0199 7.10998 29.7599 6.56998 29.5099C6.58998 29.4499 6.58998 29.4399 6.58998 29.4299C6.60998 29.3799 6.63998 29.3299 6.65998 29.2799C7.24998 28.0699 7.15998 26.9099 6.40998 25.8099C6.20998 25.4999 5.99998 25.4999 5.77998 25.7999C5.27998 26.4699 5.06998 27.2199 5.11998 28.0499C5.11998 28.0999 5.13998 28.1499 5.14998 28.1999C4.68998 27.7799 4.37998 27.2899 4.07998 26.7699C3.92998 26.4099 4.38998 26.5299 4.93998 25.9299C4.93998 25.9299 4.95998 25.9299 4.96998 25.9199C5.01998 25.8699 5.04998 25.8299 5.08998 25.7699C5.11998 25.7199 5.13998 25.6799 5.16998 25.6299C5.22998 25.5399 5.28998 25.4599 5.34998 25.3599H5.33998C5.66998 24.7499 5.80998 24.0799 5.71998 23.3499C5.68998 23.0799 5.48998 22.9499 5.25998 23.0799C4.91998 23.2599 4.58998 23.4699 4.28998 23.6999C3.89998 24.0099 3.63998 24.4299 3.41998 24.8799C3.34998 24.5099 3.31998 24.1299 3.26998 23.7699C3.25998 23.6299 3.28998 23.5299 3.38998 23.4199C4.43998 22.2299 4.64998 20.5799 3.91998 19.2399C3.79998 18.9999 3.51998 18.9699 3.32998 19.1499C2.21998 20.1999 1.86998 21.7899 2.44998 23.1999C2.58998 23.5199 2.66998 23.8199 2.68998 24.1599C2.70998 24.4799 2.76998 24.7799 2.80998 25.1099C2.05998 24.5699 1.25998 24.3299 0.349977 24.4499C0.0199766 24.4999 -0.0700234 24.6699 0.0599766 24.9699C0.589977 26.2599 1.86998 27.0399 3.28998 26.9499C3.40998 26.9499 3.51998 27.0099 3.57998 27.1099C3.73998 27.3899 3.90998 27.6799 4.09998 27.9399C4.27998 28.1999 4.48998 28.4399 4.67998 28.6999C4.66998 28.7099 4.65998 28.7199 4.65998 28.7199H4.53998C3.74998 28.6499 3.00998 28.8599 2.34998 29.3099C2.16998 29.4299 2.00998 29.5699 2.05998 29.8199L2.25998 30.0199H2.30998C3.56998 30.8499 4.83998 30.8499 6.11998 30.0399C6.17998 30.0099 6.27998 30.0199 6.34998 30.0399C6.88998 30.2899 7.43998 30.5499 7.97998 30.8099C8.02998 30.8299 8.05998 30.8399 8.13998 30.8799C8.05998 30.9099 8.01998 30.9399 7.95998 30.9599C7.18998 31.3199 6.62998 31.8899 6.28998 32.6699C6.16998 32.9599 6.26998 33.1499 6.57998 33.1899C7.96998 33.3599 9.30998 32.6599 9.94998 31.3899C10.02 31.2499 10.1 31.2299 10.23 31.2199C10.83 31.1899 11.42 31.1299 12.02 31.0799C12.08 31.0799 12.13 31.0699 12.22 31.0599C11.66 31.7999 11.42 32.5899 11.49 33.4699C11.51 33.7599 11.77 33.9199 12.05 33.7999C13.33 33.2599 14.12 31.9799 14.06 30.5899C14.06 30.4499 14.08 30.3699 14.22 30.3099C14.54 30.1399 14.83 29.9499 15.14 29.7399C15.17 29.7199 15.2 29.6899 15.23 29.6799C15.39 29.5699 15.41 29.3399 15.28 29.1999L15.26 29.2199Z" fill="#353E64"/>
</g>
<path d="M17.5 27C23.299 27 28 22.299 28 16.5C28 10.701 23.299 6 17.5 6C11.701 6 7 10.701 7 16.5C7 22.299 11.701 27 17.5 27Z" fill="#8B91A7"/>
</g>
<defs>
<clipPath id="clip0_479_22910">
<rect width="35" height="35" fill="white"/>
</clipPath>
<clipPath id="clip1_479_22910">
<rect width="34.93" height="14.86" fill="white" transform="translate(0 19)"/>
</clipPath>
</defs>
</svg>
