<svg width="45" height="45" viewBox="0 0 45 45" fill="none" xmlns="http://www.w3.org/2000/svg">
<rect x="0.5" y="0.5" width="44" height="44" rx="22" fill="#0094F6"/>
<path opacity="0.4" d="M32.9166 26.6043C32.9166 29.5106 30.5833 31.8647 27.677 31.8752H27.6666H17.3437C14.4478 31.8752 12.0833 29.5314 12.0833 26.6252V26.6147C12.0833 26.6147 12.0895 22.0043 12.0978 19.6856C12.0989 19.2502 12.5989 19.0064 12.9395 19.2772C15.4145 21.2408 19.8405 24.821 19.8958 24.8679C20.6353 25.4606 21.5728 25.795 22.5312 25.795C23.4895 25.795 24.427 25.4606 25.1666 24.8564C25.2218 24.82 29.5489 21.347 32.0614 19.3512C32.403 19.0793 32.9051 19.3231 32.9062 19.7575C32.9166 22.0585 32.9166 26.6043 32.9166 26.6043Z" fill="white"/>
<path d="M32.3708 15.9101C31.4687 14.2101 29.6937 13.1246 27.7395 13.1246H17.3437C15.3895 13.1246 13.6145 14.2101 12.7125 15.9101C12.5104 16.2903 12.6062 16.7642 12.9427 17.033L20.677 23.2194C21.2187 23.6569 21.875 23.8746 22.5312 23.8746C22.5354 23.8746 22.5385 23.8746 22.5416 23.8746C22.5448 23.8746 22.5489 23.8746 22.552 23.8746C23.2083 23.8746 23.8645 23.6569 24.4062 23.2194L32.1406 17.033C32.477 16.7642 32.5729 16.2903 32.3708 15.9101Z" fill="white"/>
<rect x="0.5" y="0.5" width="44" height="44" rx="22" stroke="#EFF0F5"/>
</svg>
