<svg width="52" height="39" viewBox="0 0 52 39" fill="none" xmlns="http://www.w3.org/2000/svg">
<g id="3 User">
<path id="Stroke 1 (Stroke)" fill-rule="evenodd" clip-rule="evenodd" d="M37.9153 3.69336C37.9153 2.96849 38.5029 2.38086 39.2278 2.38086C43.6963 2.38086 47.3323 5.98784 47.3323 10.4515C47.3323 14.9152 43.6963 18.5221 39.2278 18.5221C38.5029 18.5221 37.9153 17.9345 37.9153 17.2096C37.9153 16.4848 38.5029 15.8971 39.2278 15.8971C42.2592 15.8971 44.7073 13.4528 44.7073 10.4515C44.7073 7.45024 42.2592 5.00586 39.2278 5.00586C38.5029 5.00586 37.9153 4.41823 37.9153 3.69336Z" fill="#9D174D"/>
<path id="Stroke 3 (Stroke)" fill-rule="evenodd" clip-rule="evenodd" d="M41.0416 24.4649C41.0912 23.7417 41.7177 23.1957 42.4409 23.2453C43.618 23.3261 44.7914 23.492 45.9497 23.7504C46.7657 23.9105 47.724 24.1677 48.5946 24.6C49.4629 25.0312 50.3698 25.6999 50.8714 26.7461L50.8722 26.7477C51.4596 27.9772 51.459 29.4069 50.8728 30.6369L50.8721 30.6382C50.3714 31.686 49.4634 32.3541 48.5969 32.7858C47.7217 33.2218 46.7575 33.4827 45.9437 33.6493C45.2335 33.7946 44.54 33.3368 44.3947 32.6266C44.2493 31.9165 44.7072 31.2229 45.4173 31.0776C46.1266 30.9324 46.8411 30.7278 47.4264 30.4362C48.0199 30.1406 48.3539 29.8193 48.5033 29.5071C48.7491 28.991 48.7486 28.3928 48.5041 27.8802C48.3533 27.5664 48.0181 27.2446 47.4271 26.9511C46.8443 26.6617 46.1327 26.4605 45.4295 26.3234C45.4175 26.3211 45.4055 26.3186 45.3936 26.3159C44.3651 26.0856 43.3177 25.9367 42.2611 25.8642C41.5379 25.8145 40.9919 25.188 41.0416 24.4649Z" fill="#9D174D"/>
<path id="Stroke 5 (Stroke)" fill-rule="evenodd" clip-rule="evenodd" d="M12.7711 5.00586C9.73969 5.00586 7.29163 7.45024 7.29163 10.4515C7.29163 13.4528 9.73969 15.8971 12.7711 15.8971C13.496 15.8971 14.0836 16.4848 14.0836 17.2096C14.0836 17.9345 13.496 18.5221 12.7711 18.5221C8.30263 18.5221 4.66663 14.9152 4.66663 10.4515C4.66663 5.98784 8.30263 2.38086 12.7711 2.38086C13.496 2.38086 14.0836 2.96849 14.0836 3.69336C14.0836 4.41823 13.496 5.00586 12.7711 5.00586Z" fill="#9D174D"/>
<path id="Stroke 7 (Stroke)" fill-rule="evenodd" clip-rule="evenodd" d="M10.9579 24.4649C11.0076 25.188 10.4616 25.8145 9.73841 25.8642C8.68181 25.9367 7.63439 26.0856 6.60591 26.3159C6.59399 26.3186 6.58204 26.3211 6.57006 26.3234C5.86683 26.4605 5.15532 26.6617 4.57287 26.951C3.98168 27.2447 3.64758 27.5664 3.49797 27.8794L3.49691 27.8816C3.25124 28.3933 3.25064 28.99 3.49746 29.5053L3.4987 29.5079L3.49869 29.5079C3.64704 29.8193 3.97995 30.1404 4.57361 30.4363C5.15846 30.7278 5.87285 30.9324 6.5822 31.0776C7.29235 31.2229 7.75022 31.9165 7.60487 32.6266C7.45952 33.3368 6.766 33.7946 6.05585 33.6493C5.24203 33.4827 4.27773 33.2218 3.4027 32.7857C2.53684 32.3542 1.62909 31.686 1.12942 30.638C0.540382 29.4073 0.539801 27.9766 1.13003 26.7465C1.63054 25.7 2.53718 25.0312 3.40505 24.6001C4.27549 24.1677 5.23386 23.9105 6.04988 23.7504C7.20814 23.492 8.38157 23.3261 9.55865 23.2453C10.2818 23.1957 10.9083 23.7417 10.9579 24.4649Z" fill="#9D174D"/>
<path id="Stroke 9" fill-rule="evenodd" clip-rule="evenodd" d="M25.9889 26.0098C33.5875 26.0098 40.0792 27.1543 40.0792 31.7344C40.0792 36.3125 33.6304 37.4997 25.9889 37.4997C18.3881 37.4997 11.8986 36.3552 11.8986 31.775C11.8986 27.1948 18.3473 26.0098 25.9889 26.0098Z" fill="white"/>
<path id="Stroke 9 (Stroke)" fill-rule="evenodd" clip-rule="evenodd" d="M13.973 29.8502C13.4784 30.3662 13.2111 30.9756 13.2111 31.775C13.2111 32.5716 13.4788 33.1768 13.9745 33.689C14.5017 34.2337 15.3345 34.7179 16.509 35.1099C18.8709 35.8983 22.2162 36.1872 25.9889 36.1872C29.7797 36.1872 33.1236 35.8878 35.4788 35.0906C36.6498 34.6942 37.4795 34.2062 38.0048 33.6583C38.4995 33.1423 38.7667 32.5332 38.7667 31.7344C38.7667 30.9379 38.499 30.3328 38.0031 29.8206C37.4757 29.2757 36.6427 28.7916 35.468 28.3995C33.1058 27.6112 29.7605 27.3223 25.9889 27.3223C22.1979 27.3223 18.854 27.6211 16.4988 28.4181C15.3279 28.8143 14.4983 29.3023 13.973 29.8502ZM15.6574 25.9316C18.437 24.991 22.1383 24.6973 25.9889 24.6973C29.8159 24.6973 33.5157 24.9806 36.2991 25.9095C37.6971 26.3761 38.9619 27.0369 39.8892 27.9948C40.848 28.9853 41.3917 30.2409 41.3917 31.7344C41.3917 33.2247 40.8528 34.4808 39.8996 35.475C38.977 36.4372 37.7169 37.1043 36.3205 37.577C33.5409 38.5179 29.8396 38.8122 25.9889 38.8122C22.1608 38.8122 18.461 38.5288 15.6779 37.5999C14.2799 37.1333 13.0153 36.4725 12.0882 35.5145C11.1295 34.5239 10.5861 33.2684 10.5861 31.775C10.5861 30.2844 11.1248 29.028 12.0781 28.0336C13.0008 27.0712 14.261 26.4041 15.6574 25.9316Z" fill="#9D174D"/>
<path id="Stroke 11" fill-rule="evenodd" clip-rule="evenodd" d="M25.9883 19.4769C20.9769 19.4769 16.9587 15.4775 16.9587 10.4874C16.9587 5.49937 20.9769 1.5 25.9883 1.5C30.9997 1.5 35.0179 5.49937 35.0179 10.4874C35.0179 15.4775 30.9997 19.4769 25.9883 19.4769Z" fill="#F9A8D4"/>
<path id="Stroke 11 (Stroke)" fill-rule="evenodd" clip-rule="evenodd" d="M25.9883 2.8125C21.696 2.8125 18.2712 6.23003 18.2712 10.4874C18.2712 14.747 21.6962 18.1644 25.9883 18.1644C30.2805 18.1644 33.7054 14.747 33.7054 10.4874C33.7054 6.23003 30.2807 2.8125 25.9883 2.8125ZM15.6462 10.4874C15.6462 4.7687 20.2578 0.1875 25.9883 0.1875C31.7188 0.1875 36.3304 4.7687 36.3304 10.4874C36.3304 16.208 31.719 20.7894 25.9883 20.7894C20.2576 20.7894 15.6462 16.208 15.6462 10.4874Z" fill="#9D174D"/>
</g>
</svg>
