<svg width="45" height="45" viewBox="0 0 45 45" fill="none" xmlns="http://www.w3.org/2000/svg">
<rect width="45" height="45" rx="22.5" fill="#0077B5"/>
<path d="M34.9922 33.1172C33.5156 33.0821 32.0742 33.0821 30.5977 33.1172C30.2812 33.1172 30.2109 33.0469 30.2109 32.7305C30.2109 30.1289 30.2109 27.4922 30.2109 24.8907C30.2109 24.293 30.1758 23.6954 30 23.1329C29.4727 21.3047 27.3633 20.6368 25.8516 21.8672C25.043 22.5 24.7266 23.3789 24.7266 24.4336C24.7266 26.8946 24.7266 29.3555 24.7266 31.8164C24.7266 32.1329 24.6914 32.4493 24.7266 32.8008C24.7617 33.0821 24.6211 33.1524 24.375 33.1172C22.8633 33.1172 21.3867 33.1172 19.875 33.1172C19.5938 33.1172 19.5234 33.0469 19.5234 32.7657C19.5586 30.5508 19.5586 28.336 19.5586 26.086C19.5586 23.3438 19.5586 20.6016 19.5234 17.8946C19.5234 17.5782 19.5938 17.5079 19.875 17.5079C21.3867 17.5079 22.8633 17.5079 24.375 17.5079C24.6562 17.5079 24.7266 17.5782 24.7266 17.8594C24.7266 18.4219 24.7266 18.9844 24.7266 19.6524C24.832 19.5469 24.8672 19.5118 24.9023 19.4766C26.2734 17.4727 28.207 16.9102 30.4922 17.2618C33.1289 17.6836 34.8164 19.5118 35.2383 22.3243C35.3437 22.9922 35.3789 23.6602 35.3789 24.3282C35.3789 27.1407 35.3789 29.918 35.3789 32.7305C35.3789 33.0118 35.3086 33.1172 34.9922 33.1172Z" fill="white"/>
<path d="M16.711 25.3125C16.711 27.7734 16.711 30.2344 16.711 32.6953C16.711 33.0117 16.6406 33.1172 16.3242 33.1172C14.8477 33.082 13.3711 33.1172 11.8945 33.1172C11.6133 33.1172 11.543 33.0469 11.543 32.7656C11.543 27.8086 11.543 22.8164 11.543 17.8594C11.543 17.6133 11.6133 17.5078 11.8945 17.5078C13.4063 17.5078 14.918 17.5078 16.4297 17.5078C16.7461 17.5078 16.7813 17.6133 16.7813 17.8945C16.711 20.3555 16.711 22.8164 16.711 25.3125Z" fill="white"/>
<path d="M16.957 13.4296C16.6055 14.8359 15.1641 15.6445 13.5117 15.3632C11.7539 15.082 10.7695 13.3593 11.4024 11.6718C11.8242 10.6171 12.8438 9.9843 14.1445 10.0195C16.1133 9.9843 17.4141 11.5663 16.957 13.4296Z" fill="white"/>
<rect x="0.5" y="0.5" width="44" height="44" rx="22" stroke="#EFF0F5"/>
</svg>
