<svg width="28" height="31" viewBox="0 0 28 31" fill="none" xmlns="http://www.w3.org/2000/svg">
<g clip-path="url(#clip0_1919_10501)">
<path d="M27.9156 5.00779L27.9124 4.10136L27.8866 4.08654C23.5848 1.69234 18.7512 0.49683 13.9704 0.500006C9.16156 0.503183 4.40441 1.71881 0.0886355 4.1469L0.0854059 5.00779L0.0714111 8.48208C0.0714111 12.1554 0.732395 15.563 2.03606 18.6159C3.09321 21.0916 4.5745 23.3386 6.43581 25.2955C9.42208 28.433 12.474 29.8774 13.36 30.2533L13.9704 30.5011L14.5808 30.2543C15.4711 29.8774 18.5381 28.432 21.5362 25.2955C23.4061 23.3386 24.8928 21.0916 25.9553 18.6159C27.2643 15.5641 27.9286 12.1565 27.9286 8.48843L27.9146 5.00885L27.9156 5.00779ZM5.22687 5.13274H5.22364L3.03185 16.7268C2.14049 14.2034 1.68727 11.4375 1.68727 8.4842L1.70126 5.08827C2.94034 4.44657 4.22571 3.90441 5.54337 3.46496L5.22795 5.13274H5.22687ZM7.58446 24.2069C7.09141 23.6912 6.27218 22.8706 5.69624 22.1018L7.18937 14.2002L7.30348 13.6093H7.30456L7.37884 13.2165L12.9875 28.3112C11.7183 27.6473 9.64061 26.3597 7.58338 24.2069H7.58446ZM13.9725 21.0101L7.25827 2.95562C9.44576 2.38487 11.7043 2.09049 13.9725 2.08837H13.9898C16.2601 2.08837 18.5133 2.3764 20.6922 2.93127L13.9704 21.0101H13.9725ZM20.3617 24.2069C18.3045 26.3597 16.2278 27.6473 14.9576 28.3112L20.5662 13.2165L20.6405 13.6093H20.6416L20.7557 14.2002L22.2488 22.1018C21.6729 22.8706 20.8547 23.6902 20.3606 24.2069H20.3617ZM24.9638 16.7278L22.772 5.1338H22.7688L22.4534 3.46602C23.771 3.90546 25.0564 4.44763 26.2955 5.08933L26.3095 8.48525C26.3095 11.4386 25.8563 14.2044 24.9649 16.7278H24.9638Z" fill="#FFDD00"/>
<path d="M13.9715 21.0101L20.6922 2.93127C18.5133 2.3764 16.2601 2.08838 13.9898 2.08838H13.9725C11.7043 2.08944 9.44576 2.38382 7.25827 2.95563L13.9704 21.0101H13.9715Z" fill="#1A5632"/>
<path d="M7.18937 14.2003L7.30348 13.6094H7.30456L7.37884 13.2166L12.9875 28.3113C11.7183 27.6474 9.64061 26.3598 7.58338 24.207C7.09033 23.6913 6.2711 22.8706 5.69516 22.1019L7.1883 14.2003H7.18937Z" fill="#00953B"/>
<path d="M5.2258 5.13263L5.54122 3.46484C4.22356 3.90429 2.93819 4.44645 1.69911 5.08815L1.68512 8.48408C1.68512 11.4374 2.13834 14.2033 3.0297 16.7266L5.22257 5.13263H5.2258Z" fill="#006937"/>
<path d="M22.7677 5.13263L22.4523 3.46484C23.77 3.90429 25.0553 4.44645 26.2944 5.08815L26.3084 8.48408C26.3084 11.4374 25.8552 14.2033 24.9638 16.7266L22.772 5.13263H22.7688H22.7677Z" fill="#00953B"/>
<path d="M20.7546 14.2003L20.6405 13.6094H20.6394L20.5652 13.2166L14.9565 28.3113C16.2257 27.6474 18.3034 26.3598 20.3606 24.207C20.8537 23.6913 21.6729 22.8706 22.2488 22.1019L20.7557 14.2003H20.7546Z" fill="#006937"/>
</g>
<defs>
<clipPath id="clip0_1919_10501">
<rect width="27.8571" height="30" fill="white" transform="translate(0.0714111 0.5)"/>
</clipPath>
</defs>
</svg>
