<svg width="187" height="160" viewBox="0 0 187 160" fill="none" xmlns="http://www.w3.org/2000/svg">
<g clip-path="url(#clip0_1924_10544)">
<path d="M128.032 11.386V9.09091L127.972 9.0611C117.281 3.01043 105.279 0 93.4256 0C81.483 0 69.6894 3.07004 58.968 9.21013V11.386V20.149C58.9382 29.4188 60.5762 38.0328 63.8224 45.7526C66.4432 52.0119 70.1362 57.6751 74.7524 62.623C82.168 70.5514 89.7326 74.1878 91.9365 75.1416L93.4553 75.7675L94.9742 75.1416C97.1781 74.1878 104.802 70.5514 112.248 62.623C116.894 57.6751 120.587 52.0119 123.207 45.7526C126.454 38.0328 128.121 29.4486 128.121 20.1788V11.386H128.032ZM71.6848 11.7139L66.2348 41.0134C64.0309 34.6349 62.8992 27.6602 62.8992 20.1788V11.5946C65.9965 9.9851 69.2129 8.61401 72.4592 7.48137L71.6848 11.6841V11.7139ZM77.5221 59.8808C76.301 58.5693 74.2758 56.5127 72.8463 54.5753L76.5393 34.6051L76.8073 33.1148L76.986 32.1311L90.8941 70.2533C87.7372 68.5842 82.585 65.3353 77.4923 59.8808H77.5221ZM93.366 51.8033L76.7477 6.1997C82.168 4.769 87.7968 4.02385 93.4256 4.02385H93.4553C99.0841 4.02385 104.683 4.73919 110.103 6.14009L93.4256 51.8033H93.366ZM109.24 59.8808C104.147 65.3055 98.965 68.5842 95.8379 70.2533L109.746 32.1311L109.925 33.1148L110.193 34.6051L113.886 54.5753C112.456 56.5127 110.431 58.5991 109.21 59.8808H109.24ZM120.676 40.9836L115.226 11.6841L114.452 7.48137C117.728 8.5842 120.914 9.95529 123.982 11.5946V20.1788C124.011 27.6304 122.88 34.6349 120.676 41.0134V40.9836Z" fill="#FFDD00"/>
<path d="M56.1983 134.545C54.322 132.042 52.1182 131.803 50.9567 131.803C47.5913 131.803 46.549 133.92 46.549 135.559C46.549 136.334 46.7872 137.049 47.5615 137.705C48.3359 138.42 49.3782 138.808 51.4034 139.523C53.9051 140.387 56.2578 141.252 57.866 142.742C59.2956 144.024 60.606 146.2 60.606 149.478C60.606 155.708 56.1089 160 49.4676 160C43.5708 160 40.1161 156.393 38.4483 153.949L42.5284 150.075C44.0771 153.204 46.9957 154.337 49.2591 154.337C52.0884 154.337 54.2029 152.608 54.2029 149.925C54.2029 148.763 53.8157 147.869 52.952 147.034C51.7608 145.931 49.825 145.306 48.0083 144.68C46.3405 144.113 44.3153 143.338 42.6773 141.908C41.635 140.984 40.1459 139.225 40.1459 135.946C40.1459 131.237 43.3027 126.528 50.4206 126.528C52.4458 126.528 56.228 126.915 59.4743 130.283L56.1983 134.545Z" fill="#006937"/>
<path d="M101.228 152.548H88.3328L85.5036 159.285H78.7431L92.5023 127.273H97.3865L110.759 159.285H104.028L101.199 152.548H101.228ZM99.4117 147.452L94.8551 135.917L90.2984 147.452H99.4117Z" fill="#006937"/>
<path d="M148.135 132.638H136.609V139.791H147.628V145.156H136.609V153.89H148.135V159.255H130.385V127.243H148.135V132.608V132.638Z" fill="#006937"/>
<path d="M75.7054 132.638V159.285H69.481V132.638H61.3207V127.273H83.806V132.638H75.7054Z" fill="#006937"/>
<path d="M120.05 132.638V159.285H113.826V132.638H105.666V127.273H128.151V132.638H120.05Z" fill="#006937"/>
<path d="M55.7516 87.7197C45.6853 87.7197 38.6866 94.7242 38.6866 104.471C38.6866 114.217 45.6853 121.192 55.7516 121.192C65.8178 121.192 72.8165 114.217 72.8165 104.471C72.8165 94.7242 65.8178 87.7197 55.7516 87.7197ZM55.7516 115.529C49.5272 115.529 45.0897 110.969 45.0897 104.501C45.0897 98.0327 49.4974 93.4127 55.7516 93.4127C62.0057 93.4127 66.4134 98.0327 66.4134 104.501C66.4134 110.969 62.0057 115.529 55.7516 115.529Z" fill="#006937"/>
<path d="M131.1 87.7197C121.033 87.7197 114.035 94.7242 114.035 104.471C114.035 114.217 121.033 121.192 131.1 121.192C141.166 121.192 148.165 114.217 148.165 104.471C148.165 94.7242 141.166 87.7197 131.1 87.7197ZM131.1 115.529C124.875 115.529 120.438 110.969 120.438 104.501C120.438 98.0327 124.845 93.4127 131.1 93.4127C137.354 93.4127 141.761 98.0327 141.761 104.501C141.761 110.969 137.354 115.529 131.1 115.529Z" fill="#006937"/>
<path d="M5.95636 88.4351H10.4534L18.9412 108.793L27.8162 88.4351H32.3133L32.7302 90.9686L37.674 120.477H34.7852C32.7898 120.477 31.122 119.016 30.8242 117.049L28.4416 100.745L20.2814 119.523C20.0134 120.119 19.4475 120.477 18.8221 120.477C18.1669 120.477 17.6011 120.089 17.3628 119.493L9.55996 100.745L6.84982 117.138C6.52222 119.076 4.85444 120.477 2.91862 120.477H0L5.95636 88.4649V88.4351Z" fill="#006937"/>
<path d="M181.073 120.447H176.576L168.089 100.089L159.214 120.447H154.716L154.3 117.913L149.356 88.4053H152.245C154.24 88.4053 155.908 89.8658 156.206 91.833L158.588 108.137L166.748 89.3591C167.016 88.7629 167.582 88.4053 168.208 88.4053C168.863 88.4053 169.429 88.7928 169.667 89.3889L177.47 108.137L180.18 91.7436C180.508 89.8062 182.175 88.4053 184.111 88.4053H187.06L181.103 120.417L181.073 120.447Z" fill="#006937"/>
<path d="M69.8086 88.6139C71.3572 90.0148 73.0846 92.0118 74.0972 93.8002H78.2368V120.447H84.4612V93.8002H92.5619V88.4351H69.8681C69.8681 88.4351 69.7192 88.5543 69.8086 88.6139Z" fill="#006937"/>
<path d="M112.724 115.082H101.02V88.4351H94.7955V120.447H117.132C117.132 120.447 117.191 120.387 117.162 120.358C115.405 118.867 113.915 117.109 112.754 115.082H112.724Z" fill="#006937"/>
<path d="M93.4256 51.8034L110.103 6.14017C104.683 4.73928 99.1139 4.02393 93.4553 4.02393H93.4256C87.7968 4.02393 82.1978 4.76908 76.7477 6.19978L93.3958 51.8034H93.4256Z" fill="#1A5632"/>
<path d="M76.5988 34.605L76.8669 33.1147L77.0456 32.1311L90.9537 70.2533C87.7968 68.5842 82.6445 65.3353 77.5518 59.8807C76.3308 58.5693 74.3056 56.5126 72.8761 54.5752L76.569 34.605H76.5988Z" fill="#00953B"/>
<path d="M71.7146 11.7139L72.4889 7.51123C69.2129 8.61406 66.0263 9.98515 62.9588 11.6245V20.2087C62.929 27.6603 64.0607 34.6647 66.2645 41.0433L71.7146 11.7437V11.7139Z" fill="#006937"/>
<path d="M115.256 11.7139L114.481 7.51123C117.757 8.61406 120.944 9.98515 124.011 11.6245V20.2087C124.041 27.6603 122.91 34.6647 120.706 41.0433L115.256 11.7437V11.7139Z" fill="#00953B"/>
<path d="M110.252 34.605L109.984 33.1147L109.806 32.1311L95.8974 70.2533C99.0543 68.5842 104.207 65.3353 109.299 59.8807C110.52 58.5693 112.545 56.5126 113.975 54.5752L110.282 34.605H110.252Z" fill="#006937"/>
</g>
<defs>
<clipPath id="clip0_1924_10544">
<rect width="187" height="160" fill="white"/>
</clipPath>
</defs>
</svg>
