<svg width="40" height="40" viewBox="0 0 40 40" fill="none" xmlns="http://www.w3.org/2000/svg">
<path d="M28.7158 9.30664H18.2523C17.4594 9.30664 16.699 9.62181 16.1383 10.1828C15.5777 10.7438 15.2627 11.5047 15.2627 12.2981V36.2297C15.2627 37.0231 15.5777 37.784 16.1383 38.345C16.699 38.906 17.4594 39.2212 18.2523 39.2212H36.1898C36.9827 39.2212 37.7431 38.906 38.3037 38.345C38.8644 37.784 39.1794 37.0231 39.1794 36.2297V19.7767L28.7158 9.30664Z" fill="black" fill-opacity="0.1"/>
<path d="M24.6152 3.11816H14.1517C13.3588 3.11816 12.5984 3.43333 12.0377 3.99434C11.4771 4.55535 11.1621 5.31623 11.1621 6.10962V32.0412C11.1621 32.8346 11.4771 33.5955 12.0377 34.1565C12.5984 34.7175 13.3588 35.0327 14.1517 35.0327H32.0892C32.8821 35.0327 33.6425 34.7175 34.2031 34.1565C34.7638 33.5955 35.0788 32.8346 35.0788 32.0412V13.5882L24.6152 3.11816Z" fill="white"/>
<path d="M29.7838 28.5205L19.5088 28.5205" stroke="#353E64" stroke-width="2" stroke-linecap="round" stroke-linejoin="round"/>
<path d="M29.7838 23.3926H23.6338" stroke="#353E64" stroke-width="2" stroke-linecap="round" stroke-linejoin="round"/>
<path d="M24.6152 2.11914V14.0005H35.4995" fill="#E2E3E9"/>
<path d="M24.6152 3.11914V14.5892H35.0788" stroke="#353E64" stroke-width="2" stroke-linecap="round" stroke-linejoin="round"/>
<rect x="3" y="10" width="17" height="17" rx="8.5" fill="white"/>
<rect x="3" y="10" width="17" height="17" rx="8.5" stroke="#10B981" stroke-width="2"/>
<path d="M15.6002 15.6006L10.0002 21.2003L7.2002 18.4006" stroke="#10B981" stroke-width="2" stroke-linecap="round" stroke-linejoin="round"/>
<path d="M11.333 6.50046V6.11059C11.333 5.31721 11.648 4.55632 12.2086 3.99532C12.7693 3.43431 13.5297 3.11914 14.3226 3.11914H24.7861L35.2497 13.5892V32.0422C35.2497 32.8356 34.9347 33.5965 34.374 34.1575C33.8134 34.7185 33.053 35.0337 32.2601 35.0337H14.3226C13.5297 35.0337 12.7693 34.7185 12.2086 34.1575C11.648 33.5965 11.333 32.8356 11.333 32.0422V30.5005" stroke="#353E64" stroke-width="2" stroke-linecap="round" stroke-linejoin="round"/>
</svg>
