<svg width="30" height="30" viewBox="0 0 30 30" fill="none" xmlns="http://www.w3.org/2000/svg">
<path d="M21.5367 6.97949H13.6891C13.0944 6.97949 12.5241 7.21587 12.1036 7.63662C11.6831 8.05738 11.4469 8.62804 11.4469 9.22308V27.1718C11.4469 27.7668 11.6831 28.3375 12.1036 28.7583C12.5241 29.179 13.0944 29.4154 13.6891 29.4154H27.1422C27.7369 29.4154 28.3072 29.179 28.7277 28.7583C29.1482 28.3375 29.3844 27.7668 29.3844 27.1718V14.8321L21.5367 6.97949Z" fill="black" fill-opacity="0.1"/>
<path d="M18.4618 2.33887H10.6141C10.0195 2.33887 9.44916 2.57524 9.02867 2.996C8.60818 3.41675 8.37195 3.98742 8.37195 4.58246V24.0312C8.37195 24.6262 8.60818 25.1969 9.02867 25.6176C9.44916 26.0384 10.0195 26.2748 10.6141 26.2748H24.0673C24.6619 26.2748 25.2322 26.0384 25.6527 25.6176C26.0732 25.1969 26.3094 24.6262 26.3094 24.0312V10.1914L18.4618 2.33887Z" fill="white"/>
<path d="M22.3376 21.3906L14.6313 21.3906" stroke="#353E64" stroke-width="2" stroke-linecap="round" stroke-linejoin="round"/>
<path d="M22.3376 17.5439H17.7251" stroke="#353E64" stroke-width="2" stroke-linecap="round" stroke-linejoin="round"/>
<path d="M18.4618 1.58887V10.4999H26.625" fill="#E2E3E9"/>
<path d="M18.4618 2.33887V10.9414H26.3094" stroke="#353E64" stroke-width="2" stroke-linecap="round" stroke-linejoin="round"/>
<rect x="2" y="7.25" width="13.25" height="13.25" rx="6.625" fill="white"/>
<rect x="2" y="7.25" width="13.25" height="13.25" rx="6.625" stroke="#353E64" stroke-width="2"/>
<path d="M8.40002 10.7998V15.0351L10.2 16.7998" stroke="#353E64" stroke-width="2" stroke-linecap="round" stroke-linejoin="round"/>
<path d="M8.5 4.87485V4.58246C8.5 3.98742 8.73623 3.41675 9.15672 2.996C9.57721 2.57524 10.1475 2.33887 10.7422 2.33887H18.5898L26.4375 10.1914V24.0312C26.4375 24.6262 26.2013 25.1969 25.7808 25.6176C25.3603 26.0384 24.79 26.2748 24.1953 26.2748H10.7422C10.1475 26.2748 9.57721 26.0384 9.15672 25.6176C8.73623 25.1969 8.5 24.6262 8.5 24.0312V22.8749" stroke="#353E64" stroke-width="2" stroke-linecap="round" stroke-linejoin="round"/>
</svg>
