<svg width="40" height="40" viewBox="0 0 40 40" fill="none" xmlns="http://www.w3.org/2000/svg">
<path d="M28.7158 9.30664H18.2523C17.4594 9.30664 16.699 9.62181 16.1383 10.1828C15.5777 10.7438 15.2627 11.5047 15.2627 12.2981V36.2297C15.2627 37.0231 15.5777 37.784 16.1383 38.345C16.699 38.906 17.4594 39.2212 18.2523 39.2212H36.1898C36.9827 39.2212 37.7431 38.906 38.3037 38.345C38.8644 37.784 39.1794 37.0231 39.1794 36.2297V19.7767L28.7158 9.30664Z" fill="black" fill-opacity="0.1"/>
<path d="M24.6152 3.11816H14.1517C13.3588 3.11816 12.5984 3.43333 12.0377 3.99434C11.4771 4.55535 11.1621 5.31623 11.1621 6.10962V32.0412C11.1621 32.8346 11.4771 33.5955 12.0377 34.1565C12.5984 34.7175 13.3588 35.0327 14.1517 35.0327H32.0892C32.8821 35.0327 33.6425 34.7175 34.2031 34.1565C34.7638 33.5955 35.0788 32.8346 35.0788 32.0412V13.5882L24.6152 3.11816Z" fill="white"/>
<path d="M29.7838 28.5205L19.5088 28.5205" stroke="#353E64" stroke-width="2" stroke-linecap="round" stroke-linejoin="round"/>
<path d="M29.7838 23.3926H23.6338" stroke="#353E64" stroke-width="2" stroke-linecap="round" stroke-linejoin="round"/>
<path d="M24.6152 2.11914V14.0005H35.4995" fill="#E2E3E9"/>
<path d="M24.6152 3.11914V14.5892H35.0788" stroke="#353E64" stroke-width="2" stroke-linecap="round" stroke-linejoin="round"/>
<rect x="3" y="10" width="17" height="17" rx="8.5" fill="white"/>
<rect x="3" y="10" width="17" height="17" rx="8.5" stroke="#353E64" stroke-width="2"/>
<path d="M10.6004 22.2498H8.50039C8.40756 22.2498 8.31854 22.2129 8.2529 22.1472C8.18727 22.0816 8.15039 21.9926 8.15039 21.8998V19.9447C8.15039 19.8988 8.15944 19.8533 8.17703 19.8108C8.19462 19.7683 8.2204 19.7297 8.2529 19.6972L13.5029 14.4472C13.5685 14.3816 13.6576 14.3447 13.7504 14.3447C13.8432 14.3447 13.9322 14.3816 13.9979 14.4472L15.9529 16.4023C16.0185 16.4679 16.0554 16.5569 16.0554 16.6498C16.0554 16.7426 16.0185 16.8316 15.9529 16.8972L10.6004 22.2498Z" fill="#8B91A7"/>
<path d="M8.95059 20.1309V21.4496H10.2693L15.0686 16.6496L13.7498 15.3309L8.95059 20.1309ZM16.8553 16.6496C16.8553 16.9546 16.7342 17.2472 16.5186 17.4629L11.1662 22.816C11.0162 22.9659 10.8127 23.0496 10.6006 23.0496H8.50059C8.19559 23.0496 7.90297 22.9286 7.6873 22.7129C7.47174 22.4972 7.35059 22.2045 7.35059 21.8996V19.9449C7.35059 19.794 7.38035 19.6445 7.43809 19.5051L7.48652 19.4027C7.53973 19.3032 7.60721 19.2117 7.6873 19.1316L12.9373 13.8816L13.0217 13.8051C13.2263 13.6375 13.4837 13.5449 13.7506 13.5449C14.0174 13.5449 14.2749 13.6375 14.4795 13.8051L14.5639 13.8816L16.5186 15.8371C16.7341 16.0527 16.8552 16.3448 16.8553 16.6496Z" fill="#8B91A7"/>
<path d="M16.3318 19.2006L15.2006 20.3318L10.0693 15.2006L11.2006 14.0693L16.3318 19.2006Z" fill="white"/>
<path d="M11.333 6.50046V6.11059C11.333 5.31721 11.648 4.55632 12.2086 3.99532C12.7693 3.43431 13.5297 3.11914 14.3226 3.11914H24.7861L35.2497 13.5892V32.0422C35.2497 32.8356 34.9347 33.5965 34.374 34.1575C33.8134 34.7185 33.053 35.0337 32.2601 35.0337H14.3226C13.5297 35.0337 12.7693 34.7185 12.2086 34.1575C11.648 33.5965 11.333 32.8356 11.333 32.0422V30.5005" stroke="#353E64" stroke-width="2" stroke-linecap="round" stroke-linejoin="round"/>
</svg>
