<svg width="84" height="16" viewBox="0 0 84 16" fill="none" xmlns="http://www.w3.org/2000/svg">
<g clip-path="url(#clip0_1904_9752)">
<path fill-rule="evenodd" clip-rule="evenodd" d="M42.2346 13.4029C41.6841 13.4029 41.1795 13.2882 40.7209 13.0589C40.462 12.9266 40.2372 12.7694 40.0463 12.5872C39.9256 12.4722 39.6812 12.5502 39.6812 12.7151V12.9612C39.6812 13.073 39.5885 13.1636 39.4742 13.1636H38.4814C38.3672 13.1636 38.2745 13.073 38.2745 12.9612V2.6574C38.2745 2.5456 38.3672 2.45496 38.4814 2.45496H39.4695C39.5838 2.45496 39.6765 2.5456 39.6765 2.6574V6.28394C39.6765 6.44879 39.9216 6.52736 40.0425 6.41261C40.235 6.23014 40.4617 6.07264 40.7209 5.94012C41.1795 5.7108 41.6841 5.59615 42.2346 5.59615C43.2233 5.59615 44.0592 5.97501 44.7421 6.73276C45.4454 7.50046 45.7971 8.42277 45.7971 9.4995C45.7971 10.5863 45.4454 11.5085 44.7421 12.2663C44.0592 13.024 43.2233 13.4029 42.2346 13.4029ZM42.0052 12.1467C42.678 12.1467 43.2437 11.8974 43.7024 11.3989C44.1611 10.9104 44.3905 10.2772 44.3905 9.4995C44.3905 8.73183 44.1611 8.0987 43.7024 7.60018C43.2437 7.10166 42.678 6.8524 42.0052 6.8524C41.3222 6.8524 40.7515 7.10166 40.2927 7.60018C39.8442 8.0987 39.62 8.73183 39.62 9.4995C39.62 10.2772 39.8442 10.9153 40.2927 11.4138C40.7515 11.9024 41.3222 12.1467 42.0052 12.1467ZM33.4409 13.4029C32.34 13.4029 31.4328 13.034 30.7193 12.2962C30.0058 11.5584 29.649 10.6262 29.649 9.4995C29.649 8.38285 29.9955 7.45559 30.6887 6.7178C31.3819 5.97002 32.2686 5.59614 33.3492 5.59614C34.4602 5.59614 35.3419 5.95009 35.9943 6.65798C36.6973 7.39853 37.0334 8.51237 36.9894 9.5254C36.9837 9.65531 36.8716 9.75379 36.7387 9.75379H31.339C31.2005 9.75379 31.0883 9.86577 31.1027 10.0004C31.167 10.6053 31.4062 11.1013 31.8201 11.4886C32.289 11.9273 32.8497 12.1467 33.502 12.1467C34.3343 12.1467 34.9999 11.769 35.4987 11.0136C35.5654 10.9126 35.6981 10.8716 35.8086 10.9243L36.649 11.3253C36.7675 11.3819 36.815 11.5237 36.7463 11.6337C36.4215 12.1548 35.9924 12.5701 35.4591 12.8795C34.8679 13.2284 34.1952 13.4029 33.4409 13.4029ZM31.2747 8.32833C31.2249 8.47422 31.3424 8.61718 31.4997 8.61718H35.2239C35.3672 8.61718 35.4818 8.49711 35.4527 8.35983C35.3692 7.96566 35.1675 7.63266 34.8475 7.3609C34.4704 7.0219 33.9607 6.8524 33.3186 6.8524C32.7885 6.8524 32.3298 7.01192 31.9425 7.33096C31.6354 7.59072 31.4128 7.9232 31.2747 8.32833ZM29.2178 6.11653C29.2635 5.97765 29.1576 5.83543 29.0085 5.83543H28.0377C27.9402 5.83543 27.8543 5.89825 27.8267 5.98974L26.3948 10.744C26.3374 10.9347 26.0627 10.9387 25.9995 10.7497L24.4061 5.98367C24.3765 5.89524 24.2922 5.83543 24.1971 5.83543H23.063C22.9681 5.83543 22.8839 5.895 22.8542 5.98317L21.2463 10.7529C21.1827 10.9415 20.9085 10.9372 20.8512 10.7467L19.4185 5.98974C19.3909 5.89825 19.305 5.83543 19.2075 5.83543H18.2061C18.057 5.83543 17.9511 5.97765 17.9969 6.11653L20.2709 13.0145C20.3001 13.1034 20.3847 13.1636 20.4801 13.1636H21.5817C21.6772 13.1636 21.7618 13.1034 21.7911 13.0144L23.3958 8.13672C23.4573 7.94974 23.7277 7.94942 23.7897 8.13627L25.408 13.0149C25.4374 13.1036 25.5219 13.1636 25.6172 13.1636H26.7345C26.83 13.1636 26.9145 13.1034 26.9438 13.0145L29.2178 6.11653ZM72.8003 12.7299C73.2079 13.0989 73.7172 13.2833 74.329 13.2833C74.734 13.2833 75.0966 13.2389 75.4174 13.1502C75.527 13.12 75.5824 13.0042 75.5446 12.8992L75.2446 12.0689C75.2042 11.9576 75.0757 11.9039 74.9603 11.9395C74.929 11.9491 74.897 11.9584 74.8644 11.9672C74.762 11.9872 74.655 11.9971 74.5429 11.9971C74.2983 11.9971 74.0792 11.9124 73.8855 11.7429C73.6918 11.5634 73.5953 11.2294 73.5953 10.7409V7.29411C73.5953 7.18233 73.6879 7.09168 73.802 7.09168H75.2231C75.3372 7.09168 75.4298 7.00106 75.4298 6.88925V6.03788C75.4298 5.92607 75.3372 5.83543 75.2231 5.83543H73.802C73.6879 5.83543 73.5953 5.7448 73.5953 5.63299V2.6574C73.5953 2.5456 73.5027 2.45496 73.3879 2.45496H72.3953C72.2811 2.45496 72.1885 2.5456 72.1885 2.6574V5.63299C72.1885 5.7448 72.0959 5.83543 71.9811 5.83543H71.0805C70.9663 5.83543 70.8737 5.92607 70.8737 6.03788V6.88925C70.8737 7.00106 70.9663 7.09168 71.0805 7.09168H71.9811C72.0959 7.09168 72.1885 7.18233 72.1885 7.29411V11.1895C72.1983 11.8475 72.4024 12.361 72.8003 12.7299ZM52.7108 12.5056C53.3937 11.9074 53.7352 11.1596 53.7352 10.2623C53.7352 9.71387 53.5772 9.22037 53.2612 8.78166C53.1158 8.57309 52.9069 8.30792 52.2942 7.97192C52.1647 7.90096 52.1614 7.71183 52.2838 7.62972C53.017 7.13824 53.3835 6.39413 53.3835 5.52137C53.3835 4.69383 53.0727 4.02083 52.4509 3.50237C51.8189 2.96397 51.0391 2.69477 50.1115 2.69477C49.3674 2.69477 48.7201 2.88919 48.1697 3.27804C47.6792 3.62453 47.3142 4.06601 47.0746 4.60249C47.025 4.71365 47.082 4.84063 47.1962 4.88794L48.0654 5.24801C48.1885 5.299 48.3291 5.23771 48.3843 5.11864C48.7268 4.38012 49.3025 4.01086 50.1115 4.01086C50.662 4.01086 51.1054 4.15045 51.4417 4.42962C51.7781 4.70878 51.9463 5.0727 51.9463 5.52137C51.9463 6.00991 51.7679 6.40873 51.4111 6.71781C51.0544 7.01691 50.5957 7.16648 50.035 7.16648H49.4729C49.3442 7.16648 49.24 7.26842 49.24 7.39422V8.2249C49.24 8.3507 49.3442 8.45263 49.4729 8.45263H50.1421C50.7333 8.45263 51.2378 8.62716 51.6558 8.97607C52.0839 9.32505 52.2979 9.75379 52.2979 10.2623C52.2979 10.7707 52.0941 11.2045 51.6863 11.5634C51.2684 11.9124 50.7741 12.0868 50.2032 12.0868C49.6834 12.0868 49.2349 11.9373 48.8577 11.6382C48.5454 11.3751 48.3069 11.0181 48.1422 10.5672C48.0953 10.4384 47.949 10.3684 47.82 10.421L46.9695 10.7676C46.8605 10.812 46.8021 10.9296 46.8403 11.0389C47.078 11.7185 47.4906 12.2772 48.078 12.715C48.7099 13.1736 49.4184 13.4029 50.2032 13.4029C51.2022 13.4029 52.038 13.1038 52.7108 12.5056ZM56.2313 10.9203C56.2313 10.5215 56.4199 10.1875 56.797 9.91827C57.1844 9.64911 57.6634 9.5145 58.2342 9.5145C58.9665 9.5145 59.548 9.66203 59.9786 9.95714C60.037 9.99711 60.0698 10.0636 60.0661 10.1332C60.038 10.6655 59.8045 11.1322 59.3657 11.5335C58.907 11.9622 58.3821 12.1765 57.7908 12.1765C57.3729 12.1765 57.006 12.0569 56.6899 11.8177C56.3841 11.5784 56.2313 11.2792 56.2313 10.9203ZM60.5124 6.41869C59.911 5.87033 59.0905 5.59615 58.0508 5.59615C56.7973 5.59615 55.8312 6.01787 55.1526 6.86132C55.0795 6.95214 55.107 7.0834 55.207 7.14496L56.0942 7.69135C56.188 7.74907 56.3109 7.7237 56.3802 7.63905C56.8255 7.09468 57.4079 6.82249 58.1272 6.82249C58.647 6.82249 59.1006 6.99199 59.488 7.33096C59.8778 7.66207 60.0158 8.06009 60.0553 8.50957C60.069 8.66407 59.8965 8.76398 59.7502 8.70424C59.2661 8.50657 58.6843 8.40777 58.0049 8.40777C57.0263 8.40777 56.2414 8.63211 55.6502 9.08081C55.0692 9.52944 54.7787 10.1326 54.7787 10.8904C54.7787 11.6082 55.054 12.2065 55.6044 12.685C56.165 13.1636 56.8581 13.4029 57.6838 13.4029C58.6521 13.4029 59.4268 12.9841 60.0079 12.1467V12.9612C60.0079 13.073 60.1005 13.1636 60.2148 13.1636H61.2075C61.3219 13.1636 61.4145 13.073 61.4145 12.9612V8.64705C61.4145 7.6999 61.1138 6.9571 60.5124 6.41869ZM69.5759 12.9485C69.5759 13.0674 69.4774 13.1636 69.3561 13.1636H68.389C68.2677 13.1636 68.1692 13.0674 68.1692 12.9485V12.7083C68.1692 12.5533 67.9292 12.479 67.8163 12.5877C67.639 12.7584 67.4257 12.9105 67.1753 13.044C66.737 13.2833 66.2785 13.4029 65.7992 13.4029C64.8818 13.4029 64.1733 13.1487 63.6738 12.6402C63.1845 12.1217 62.9399 11.3889 62.9399 10.4417V6.05053C62.9399 5.93173 63.0384 5.83543 63.1598 5.83543H64.1267C64.2481 5.83543 64.3466 5.93173 64.3466 6.05053V10.352C64.3772 11.5484 64.9939 12.1467 66.1963 12.1467C66.7572 12.1467 67.2261 11.9273 67.6031 11.4886C67.9807 11.0399 68.1692 10.5065 68.1692 9.8884V6.05053C68.1692 5.93173 68.2677 5.83543 68.389 5.83543H69.3561C69.4774 5.83543 69.5759 5.93173 69.5759 6.05053V12.9485ZM76.8424 2.6574C76.8424 2.5456 76.935 2.45496 77.0498 2.45496H78.0424C78.1566 2.45496 78.2492 2.5456 78.2492 2.6574V6.29079C78.2492 6.44577 78.4879 6.51946 78.6 6.41002C78.7748 6.23985 78.9842 6.0882 79.2281 5.95508C79.6761 5.71579 80.1398 5.59615 80.6192 5.59615C81.5368 5.59615 82.2398 5.85537 82.729 6.37383C83.2285 6.88232 83.4783 7.61016 83.4783 8.55731V12.9612C83.4783 13.073 83.3857 13.1636 83.2716 13.1636H82.279C82.1642 13.1636 82.0716 13.073 82.0716 12.9612V8.82653C82.0716 7.51044 81.4755 6.8524 80.2826 6.8524C79.712 6.8524 79.2281 7.08672 78.8303 7.55531C78.4429 8.01392 78.2492 8.55235 78.2492 9.17048V12.9612C78.2492 13.073 78.1566 13.1636 78.0424 13.1636H77.0498C76.935 13.1636 76.8424 13.073 76.8424 12.9612V2.6574Z" fill="#6F7590"/>
<path d="M12.4679 12.002C12.5498 12.3059 12.9834 12.3059 13.0653 12.002L15.4224 3.25335C15.5309 2.85053 15.2257 2.45496 14.8063 2.45496H13.3531C13.0644 2.45496 12.8118 2.64776 12.737 2.92504L11.4078 7.85857C11.3894 7.92698 11.3894 7.99905 11.4078 8.06746L12.4679 12.002Z" fill="#6F7590"/>
<path d="M4.2304 7.85218C4.24883 7.92059 4.24883 7.99266 4.2304 8.06107L3.17034 11.9956C3.08847 12.2995 2.65488 12.2995 2.57301 11.9956L0.217638 3.25335C0.109108 2.85053 0.414313 2.45496 0.83364 2.45496H2.28692C2.57556 2.45496 2.82821 2.64776 2.90292 2.92504L4.2304 7.85218Z" fill="#6F7590"/>
<path d="M6.21737 13.9251C6.14522 14.1937 5.90122 14.3804 5.62247 14.3804H4.13527C3.73031 14.3804 3.43556 13.9972 3.54037 13.607L6.40224 2.95299C6.48114 2.65922 6.74802 2.45496 7.05291 2.45496H8.78267C9.0875 2.45496 9.35443 2.65922 9.43335 2.95299L12.2952 13.607C12.4 13.9972 12.1052 14.3804 11.7003 14.3804H10.2131C9.93435 14.3804 9.6903 14.1937 9.61817 13.9251L8.20596 8.66759C8.12691 8.37352 7.70861 8.37352 7.62963 8.66759L6.21737 13.9251Z" fill="#6F7590"/>
<path d="M7.39546 12.8164C7.28903 12.8164 7.21155 12.7209 7.23914 12.6236L7.7614 10.7794C7.80425 10.6281 8.0312 10.6281 8.07412 10.7794L8.59638 12.6236C8.62397 12.7209 8.54649 12.8164 8.44005 12.8164H7.39546Z" fill="#6F7590"/>
</g>
<defs>
<clipPath id="clip0_1904_9752">
<rect width="83.4783" height="15" fill="white" transform="translate(0 0.5)"/>
</clipPath>
</defs>
</svg>
