<svg width="45" height="45" viewBox="0 0 45 45" fill="none" xmlns="http://www.w3.org/2000/svg">
<rect width="45" height="45" rx="22.5" fill="#0DC143"/>
<path d="M32.5788 12.3858C30.1666 9.90266 26.8322 8.55469 23.4268 8.55469C16.1903 8.55469 10.3727 14.4432 10.4436 21.6087C10.4436 23.879 11.0822 26.0783 12.1464 28.0648L10.3018 34.8047L17.1835 33.031C19.0991 34.0952 21.2274 34.5919 23.3558 34.5919C30.5214 34.5919 36.3389 28.7033 36.3389 21.5378C36.3389 18.0614 34.9909 14.7979 32.5788 12.3858ZM23.4268 32.3925C21.5112 32.3925 19.5957 31.8959 17.9639 30.9027L17.5382 30.6898L13.4234 31.754L14.4876 27.7101L14.2038 27.2844C11.0822 22.2473 12.572 15.5783 17.6801 12.4567C22.7882 9.33509 29.3862 10.825 32.5078 15.9331C35.6295 21.0412 34.1396 27.6391 29.0315 30.7608C27.3997 31.825 25.4132 32.3925 23.4268 32.3925ZM29.67 24.5175L28.8896 24.1628C28.8896 24.1628 27.7545 23.6662 27.045 23.3114C26.9741 23.3114 26.9031 23.2405 26.8322 23.2405C26.6193 23.2405 26.4774 23.3114 26.3355 23.3824C26.3355 23.3824 26.2646 23.4533 25.2714 24.5885C25.2004 24.7304 25.0585 24.8013 24.9166 24.8013H24.8457C24.7747 24.8013 24.6328 24.7304 24.5619 24.6594L24.2072 24.5175C23.4268 24.1628 22.7173 23.7371 22.1497 23.1696C22.0078 23.0277 21.795 22.8858 21.6531 22.7439C21.1565 22.2473 20.6599 21.6797 20.3051 21.0412L20.2342 20.8993C20.1632 20.8283 20.1632 20.7574 20.0923 20.6155C20.0923 20.4736 20.0923 20.3317 20.1632 20.2608C20.1632 20.2608 20.447 19.906 20.6599 19.6932C20.8018 19.5513 20.8727 19.3385 21.0146 19.1966C21.1565 18.9837 21.2274 18.7 21.1565 18.4871C21.0855 18.1324 20.2342 16.2168 20.0214 15.7912C19.8795 15.5783 19.7376 15.5074 19.5247 15.4364H19.3119C19.17 15.4364 18.9572 15.4364 18.7443 15.4364C18.6024 15.4364 18.4605 15.5074 18.3187 15.5074L18.2477 15.5783C18.1058 15.6493 17.9639 15.7912 17.822 15.8621C17.6801 16.004 17.6092 16.1459 17.4673 16.2878C16.9707 16.9263 16.6869 17.7067 16.6869 18.4871C16.6869 19.0547 16.8288 19.6223 17.0416 20.1189L17.1126 20.3317C17.7511 21.6797 18.6024 22.8858 19.7376 23.95L20.0214 24.2337C20.2342 24.4466 20.447 24.5885 20.5889 24.8013C22.0788 26.0783 23.7815 27.0006 25.697 27.4973C25.9099 27.5682 26.1937 27.5682 26.4065 27.6391C26.6193 27.6391 26.9031 27.6391 27.1159 27.6391C27.4707 27.6391 27.8964 27.4973 28.1801 27.3554C28.393 27.2135 28.5349 27.2135 28.6768 27.0716L28.8187 26.9297C28.9605 26.7878 29.1024 26.7169 29.2443 26.575C29.3862 26.4331 29.5281 26.2912 29.5991 26.1493C29.7409 25.8655 29.8119 25.5108 29.8828 25.156C29.8828 25.0141 29.8828 24.8013 29.8828 24.6594C29.8828 24.6594 29.8119 24.5885 29.67 24.5175Z" fill="white"/>
<rect x="0.5" y="0.5" width="44" height="44" rx="22" stroke="#EFF0F5"/>
</svg>
