<svg width="70" height="70" viewBox="0 0 70 70" fill="none" xmlns="http://www.w3.org/2000/svg">
<g clip-path="url(#clip0_180_46155)">
<path fill-rule="evenodd" clip-rule="evenodd" d="M63 29.7226L35.0001 7L7 29.7226L18.1666 63H51.8334L63 29.7226Z" fill="#E1D9CC"/>
<path d="M20.6409 46.6667C18.4314 46.6667 16.4123 47.9185 15.7084 50.0129C15.3362 51.1204 14.9454 52.4585 14.622 53.9583H13.5477C11.2353 53.9583 9.1598 55.3335 8.54063 57.5615C8.13691 59.0142 7.69799 60.8803 7.33624 63.1117C6.99262 65.2314 8.68098 67.0833 10.8283 67.0833H58.2509C60.3983 67.0833 62.0866 65.2314 61.743 63.1117C61.3812 60.8803 60.9422 59.0142 60.5385 57.5615C59.9193 55.3335 57.8438 53.9583 55.5315 53.9583H54.4592C54.1357 52.4585 53.745 51.1204 53.3729 50.0129C52.6689 47.9185 50.6499 46.6667 48.4404 46.6667H20.6409Z" fill="#F7F4EE"/>
<path d="M14.622 53.9583C14.9454 52.4585 15.3362 51.1204 15.7084 50.0129C16.4123 47.9185 18.4314 46.6667 20.6409 46.6667H48.4404C50.6499 46.6667 52.6689 47.9185 53.3729 50.0129C53.745 51.1204 54.1357 52.4585 54.4592 53.9583M14.622 53.9583H13.5477C11.2353 53.9583 9.1598 55.3335 8.54063 57.5615C8.13691 59.0142 7.69799 60.8803 7.33624 63.1117C6.99262 65.2314 8.68098 67.0833 10.8283 67.0833H58.2509C60.3982 67.0833 62.0866 65.2314 61.743 63.1117C61.3812 60.8803 60.9422 59.0142 60.5385 57.5615C59.9193 55.3335 57.8438 53.9583 55.5315 53.9583H54.4592M14.622 53.9583H54.4592" stroke="#5A4D3B" stroke-width="3" stroke-linejoin="round"/>
<path d="M31.5576 4.79892C33.0809 1.84301 37.2821 1.84301 38.8054 4.79892L42.3132 11.6057L49.9001 13.1092C53.009 13.7253 54.2657 17.5162 52.147 19.8876L46.7209 25.9612L47.706 33.9945C48.1048 37.2472 44.7448 39.6376 41.8313 38.1739L35.1815 34.8335L28.5317 38.1739C25.6181 39.6376 22.2581 37.2472 22.657 33.9945L23.6418 25.9612L18.2157 19.8876C16.097 17.5162 17.3538 13.7253 20.4627 13.1092L28.0496 11.6057L31.5576 4.79892Z" fill="white"/>
<path d="M31.5576 4.79892C33.0809 1.84301 37.2821 1.84301 38.8054 4.79892L42.3132 11.6057L49.9001 13.1092C53.009 13.7253 54.2657 17.5162 52.147 19.8876L46.7209 25.9612L47.706 33.9945C48.1048 37.2472 44.7448 39.6376 41.8313 38.1739L35.1815 34.8335L28.5317 38.1739C25.6181 39.6376 22.2581 37.2472 22.657 33.9945L23.6418 25.9612L18.2157 19.8876C16.097 17.5162 17.3538 13.7253 20.4627 13.1092L28.0496 11.6057L31.5576 4.79892Z" stroke="#5A4D3B" stroke-width="3" stroke-linejoin="round"/>
</g>
<defs>
<clipPath id="clip0_180_46155">
<rect width="70" height="70" fill="white"/>
</clipPath>
</defs>
</svg>
