<svg width="70" height="70" viewBox="0 0 70 70" fill="none" xmlns="http://www.w3.org/2000/svg">
<path d="M63.0933 50.05V19.95L35.0015 4.89999L6.90666 19.95V50.05L35.0015 65.1L63.0933 50.05Z" fill="#F4DADD"/>
<path d="M39.6453 54.6352C43.5411 53.3854 46.9381 50.9282 49.3446 47.6194C51.751 44.3105 53.042 40.3217 53.0307 36.2303C53.0307 31.3491 51.0916 26.6677 47.64 23.2161C44.1884 19.7645 39.5071 17.8255 34.6258 17.8255C29.7445 17.8255 25.0632 19.7645 21.6116 23.2161C18.16 26.6677 16.2209 31.3491 16.2209 36.2303C16.2096 40.3217 17.5006 44.3105 19.907 47.6194C22.3134 50.9282 25.7104 53.3854 29.6063 54.6352" fill="white"/>
<path d="M39.6453 54.6352C43.5411 53.3854 46.9381 50.9282 49.3446 47.6194C51.751 44.3105 53.042 40.3217 53.0307 36.2303C53.0307 31.3491 51.0916 26.6677 47.64 23.2161C44.1884 19.7645 39.5071 17.8255 34.6258 17.8255C29.7445 17.8255 25.0632 19.7645 21.6116 23.2161C18.16 26.6677 16.2209 31.3491 16.2209 36.2303C16.2096 40.3217 17.5006 44.3105 19.907 47.6194C22.3134 50.9282 25.7104 53.3854 29.6063 54.6352" stroke="#751E24" stroke-width="3" stroke-linecap="round" stroke-linejoin="round"/>
<path d="M32.1683 29.8255L34.0191 25.3306C34.1236 25.0769 34.3711 24.9112 34.6453 24.9112C34.9196 24.9112 35.1671 25.0769 35.2716 25.3306L37.1224 29.8255C37.8593 31.6148 39.2801 33.0357 41.0695 33.7725L45.5642 35.6233C45.8182 35.7278 45.9836 35.9751 45.9836 36.2495C45.9836 36.524 45.8182 36.7713 45.5642 36.8757L41.0695 38.7266C39.2801 39.4634 37.8593 40.8842 37.1224 42.6736L35.2716 47.1684C35.1671 47.4222 34.9196 47.5878 34.6453 47.5878C34.3711 47.5878 34.1236 47.4222 34.0191 47.1684L32.1683 42.6736C31.4315 40.8842 30.0106 39.4634 28.2213 38.7266L23.7264 36.8757C23.4727 36.7713 23.3071 36.524 23.3071 36.2495C23.3071 35.9751 23.4727 35.7278 23.7264 35.6233L28.2213 33.7725C30.0106 33.0357 31.4315 31.6148 32.1683 29.8255Z" fill="#C3323C"/>
<path d="M39.6288 62.4791C39.6288 63.088 39.1047 63.672 38.1718 64.1026C37.2389 64.5332 35.9735 64.7751 34.6542 64.7751C33.3348 64.7751 32.0695 64.5332 31.1365 64.1026C30.2036 63.672 29.6795 63.088 29.6795 62.4791V58.6524C33.5625 59.4273 35.7409 59.4331 39.6288 58.6524V62.4791Z" fill="white" stroke="#751E24" stroke-width="3" stroke-linecap="round" stroke-linejoin="round"/>
<path d="M42.69 57.0573C42.69 57.6663 41.8434 58.2503 40.3363 58.6808C38.8293 59.1114 36.7853 59.3533 34.654 59.3533C32.5227 59.3533 30.4787 59.1114 28.9717 58.6808C27.4647 58.2503 26.618 57.6663 26.618 57.0573V53.2307C32.6877 54.9111 36.2025 54.946 42.69 53.2307V57.0573Z" fill="white" stroke="#751E24" stroke-width="3" stroke-linecap="round" stroke-linejoin="round"/>
<path d="M35.3828 4.89999V10.2573" stroke="#751E24" stroke-width="3" stroke-miterlimit="10" stroke-linecap="round" stroke-linejoin="round"/>
<path d="M63.7 33.9828H58.3426" stroke="#751E24" stroke-width="3" stroke-miterlimit="10" stroke-linecap="round" stroke-linejoin="round"/>
<path d="M59.1081 12.5534L54.5161 17.1454" stroke="#751E24" stroke-width="3" stroke-miterlimit="10" stroke-linecap="round" stroke-linejoin="round"/>
<path d="M59.1081 57.708L54.5161 52.3507" stroke="#751E24" stroke-width="3" stroke-miterlimit="10" stroke-linecap="round" stroke-linejoin="round"/>
<path d="M6.3 33.9828H11.6573" stroke="#751E24" stroke-width="3" stroke-miterlimit="10" stroke-linecap="round" stroke-linejoin="round"/>
<path d="M10.8918 12.5534L15.4838 17.1454" stroke="#751E24" stroke-width="3" stroke-miterlimit="10" stroke-linecap="round" stroke-linejoin="round"/>
<path d="M10.8918 57.708L15.4838 52.3507" stroke="#751E24" stroke-width="3" stroke-miterlimit="10" stroke-linecap="round" stroke-linejoin="round"/>
</svg>
