<svg width="70" height="70" viewBox="0 0 70 70" fill="none" xmlns="http://www.w3.org/2000/svg">
<path d="M67.2 35L35 2.8L2.79999 35L35 67.2L67.2 35Z" fill="#F4DADD"/>
<path fill-rule="evenodd" clip-rule="evenodd" d="M35 60.4916C48.821 60.4916 60.025 49.2875 60.025 35.4666C60.025 21.6456 48.821 10.4416 35 10.4416C21.179 10.4416 9.97501 21.6456 9.97501 35.4666C9.97501 49.2875 21.179 60.4916 35 60.4916ZM35 44.8832C40.2007 44.8832 44.4166 40.6671 44.4166 35.4666C44.4166 30.266 40.2007 26.0499 35 26.0499C29.7994 26.0499 25.5834 30.266 25.5834 35.4666C25.5834 40.6671 29.7994 44.8832 35 44.8832Z" fill="#C3323C"/>
<path fill-rule="evenodd" clip-rule="evenodd" d="M41.9726 41.7954C46.6668 45.0234 49.0864 47.3807 52.4616 52.4622V53.3926C47.9526 57.7855 41.7923 60.4916 34.9999 60.4916C28.2074 60.4916 22.0472 57.7855 17.5382 53.3926V52.4622C21.0899 47.2128 23.465 44.6799 28.0103 41.7768C29.7335 43.6844 32.2267 44.8832 34.9999 44.8832C37.7639 44.8832 40.2499 43.6922 41.9726 41.7954ZM41.4194 28.5772C44.6557 23.07 47.1077 20.5143 52.4604 17.5394C47.9515 13.1472 41.7917 10.4416 34.9999 10.4416C28.208 10.4416 22.0481 13.1472 17.5393 17.5395C22.9013 21.078 25.3713 23.4783 28.5801 28.5774C30.2621 27.0094 32.5189 26.0499 34.9999 26.0499C37.4807 26.0499 39.7375 27.0093 41.4194 28.5772Z" fill="white"/>
<path d="M52.4616 52.4622C48.955 47.1827 46.4799 44.8439 41.4135 41.414" stroke="#751E24" stroke-width="3"/>
<path d="M17.5382 17.5387C22.9043 21.0797 25.3742 23.4808 28.5859 28.5864" stroke="#751E24" stroke-width="3"/>
<path d="M17.5383 52.4622C21.2371 46.9954 23.6598 44.4747 28.5866 41.414" stroke="#751E24" stroke-width="3"/>
<path d="M52.4619 17.5387C47.1052 20.5155 44.6533 23.0724 41.4142 28.5864" stroke="#751E24" stroke-width="3"/>
<path d="M60.025 35.4666C60.025 49.2875 48.821 60.4916 35 60.4916C21.179 60.4916 9.97501 49.2875 9.97501 35.4666C9.97501 21.6456 21.179 10.4416 35 10.4416C48.821 10.4416 60.025 21.6456 60.025 35.4666Z" stroke="#751E24" stroke-width="3" stroke-linejoin="round"/>
<path d="M44.4166 35.4666C44.4166 40.6671 40.2007 44.8832 35 44.8832C29.7994 44.8832 25.5834 40.6671 25.5834 35.4666C25.5834 30.266 29.7994 26.0499 35 26.0499C40.2007 26.0499 44.4166 30.266 44.4166 35.4666Z" stroke="#751E24" stroke-width="3" stroke-linejoin="round"/>
</svg>
