<svg width="70" height="70" viewBox="0 0 70 70" fill="none" xmlns="http://www.w3.org/2000/svg">
<path d="M63.175 35L7.17499 65.1L7.17499 4.89997L63.175 35Z" fill="#E2E8F0"/>
<path d="M7.17499 35L63.175 4.89999L63.175 65.1L7.17499 35Z" fill="#E2E8F0"/>
<path d="M55.5857 28.5233C54.952 27.9454 54.712 27.05 54.972 26.2326L55.8061 23.6098C56.3901 21.7571 55.2626 19.7939 53.3712 19.3856L50.6963 18.7967C49.8553 18.6091 49.202 17.9584 49.0204 17.1143L48.4337 14.4258C48.0146 12.5294 46.061 11.3901 44.2157 11.985L41.5993 12.82C40.7792 13.0844 39.8903 12.8427 39.3077 12.2065L37.4614 10.1792C36.1525 8.74436 33.8896 8.73694 32.5939 10.1777L30.7448 12.2132C30.1685 12.8475 29.2749 13.0869 28.4587 12.8258L25.8395 11.9876C23.9894 11.4009 22.0306 12.5283 21.6249 14.4225L21.0396 17.1014C20.8532 17.9437 20.2042 18.5974 19.3617 18.7785L16.6784 19.3636C14.7857 19.7815 13.6502 21.7373 14.2459 23.5864L15.0821 26.208C15.3468 27.0298 15.1064 27.9201 14.4719 28.503L12.4498 30.3504C11.0188 31.6601 11.0136 33.9269 12.4532 35.2262L14.487 37.0805C15.1208 37.6584 15.3607 38.5538 15.1008 39.3712L14.2666 41.994C13.6827 43.8467 14.8102 45.8099 16.7016 46.2182L20.6537 47.3674C20.6537 47.3674 17.8314 55.7135 18.0385 58.9388C18.1366 60.3856 19.6413 61.2211 20.916 60.5336C23.6519 59.064 29.4039 52.3133 29.4039 52.3133L32.6245 55.4323C33.9334 56.8671 36.1963 56.8745 37.492 55.4337L39.3412 53.3982C39.9174 52.7639 40.8111 52.5245 41.6273 52.7856L44.2464 53.6238C46.0965 54.2106 48.0553 53.0831 48.461 51.1889L49.0463 48.51C49.2327 47.6678 49.8817 47.014 50.7242 46.8329L53.4075 46.2478C55.3003 45.8299 56.4357 43.8741 55.84 42.025L55.0039 39.4034C54.7391 38.5816 54.9795 37.6914 55.6141 37.1084L57.6361 35.261C59.0672 33.9513 59.0724 31.6845 57.6327 30.3852L55.5989 28.5309L55.5857 28.5233Z" fill="white" stroke="#1E5378" stroke-width="3" stroke-linejoin="round"/>
<path d="M36.9851 42.1239C35.8347 43.2768 34.053 43.2768 32.9026 42.1239L26.0417 35.2471C21.4519 30.6037 27.4454 20.3446 34.9439 27.9305C42.4291 20.3579 48.4227 30.6172 43.846 35.2471L36.9851 42.1239Z" fill="#66B8FF" stroke="#1E5378" stroke-width="3" stroke-linecap="round" stroke-linejoin="round"/>
</svg>
