<svg width="70" height="70" viewBox="0 0 70 70" fill="none" xmlns="http://www.w3.org/2000/svg">
<circle cx="35" cy="35" r="28" fill="#D6E1E8"/>
<path d="M14.1733 45.998C17.0112 41.5801 19.2512 38.7586 20.8929 36.9724C22.8386 34.856 25.7059 34.8562 27.6514 36.9728C28.9242 38.3574 30.5566 40.3644 32.5485 43.2551C32.8312 42.6986 33.128 42.1308 33.4394 41.5519C36.9176 35.0886 39.5533 31.3098 41.3462 29.1313C42.954 27.1779 45.4597 27.1782 47.0674 29.1316C48.8602 31.31 51.4958 35.0888 54.9743 41.5519C55.7229 42.9427 56.413 44.2506 57.0486 45.4779C53.6391 49.235 48.8727 53.8446 45.4323 54.5876C40.9139 55.5636 32.2073 48.8032 32.2073 48.8032C32.2073 48.8032 24.2724 53.8164 21.6274 53.3022C19.8411 52.9549 15.944 50.2432 12.9907 47.8592C13.3664 47.2611 13.7603 46.6408 14.1733 45.998Z" fill="white"/>
<path d="M43.911 14.8342V21.2485C43.911 21.2485 47.0558 20.6652 52.716 18.3329C53.4128 18.0458 54.0361 17.7764 54.5933 17.5246C57.5186 16.2031 57.5185 13.4655 54.5932 12.1438C54.036 11.8921 53.4128 11.6226 52.716 11.3355C50.2844 10.3333 48.3169 9.65415 46.8636 9.20538C45.3431 8.73581 43.911 9.89535 43.911 11.4982V14.8342Z" fill="#C3323C"/>
<path d="M62.7426 57.4641C63.4834 59.2442 62.5864 61.0654 60.6944 61.3664C57.8664 61.8162 52.8249 62.2985 44.2069 62.2985H30.417H30.4088H24.2723C16.8115 62.2985 12.2086 61.9756 9.45825 61.648C7.38239 61.4007 6.40931 59.4084 7.37459 57.5398C8.47798 55.4037 10.2495 52.2209 12.9906 47.8574C15.944 50.2414 19.8412 52.9531 21.6274 53.3004C24.2723 53.8146 32.2074 48.8013 32.2074 48.8013C32.2074 48.8013 40.9138 55.5618 45.4322 54.5858C48.8727 53.8427 53.639 49.2332 57.0485 45.476C59.9582 51.0947 61.7259 55.0216 62.7426 57.4641Z" fill="#87A4B8"/>
<path d="M43.9108 27.6628V13.5513M12.9906 47.8589C15.944 50.2429 19.8412 52.9546 21.6274 53.3019C24.2723 53.8161 32.2074 48.8028 32.2074 48.8028C32.2074 48.8028 40.9138 55.5633 45.4322 54.5873C48.8727 53.8442 53.639 49.2347 57.0485 45.4775M12.9906 47.8589C13.3664 47.2608 13.7603 46.6404 14.1732 45.9976C17.0112 41.5798 19.2511 38.7581 20.8929 36.9721C22.8385 34.8555 25.7059 34.8558 27.6515 36.9724C28.9242 38.3571 30.5565 40.3641 32.5485 43.2548C32.8312 42.6983 33.1279 42.1305 33.4395 41.5515C36.9175 35.0882 39.5532 31.3093 41.3462 29.131C42.954 27.1776 45.4597 27.1779 47.0673 29.1313C48.8601 31.3097 51.4957 35.0885 54.9744 41.5515C55.7229 42.9423 56.413 44.2503 57.0485 45.4775M12.9906 47.8589C10.2495 52.2224 8.47798 55.4051 7.37459 57.5412C6.40931 59.4099 7.38239 61.4021 9.45825 61.6495C12.2086 61.9771 16.8115 62.3 24.2723 62.3H30.4088H30.417H44.2069C52.8249 62.3 57.8664 61.8177 60.6944 61.3679C62.5864 61.0669 63.4834 59.2456 62.7426 57.4656C61.7259 55.0231 59.9582 51.0962 57.0485 45.4775M43.9108 21.2485V14.8342V11.4982C43.9108 9.89535 45.3429 8.73581 46.8634 9.20538C48.3168 9.65415 50.2842 10.3333 52.7158 11.3355C53.4126 11.6226 54.0358 11.8921 54.593 12.1438C57.5183 13.4655 57.5184 16.2031 54.5932 17.5246C54.0359 17.7764 53.4126 18.0458 52.7158 18.3329C47.0556 20.6652 43.9108 21.2485 43.9108 21.2485Z" stroke="#184463" stroke-width="3" stroke-linecap="round" stroke-linejoin="round"/>
</svg>
