<svg width="70" height="70" viewBox="0 0 70 70" fill="none" xmlns="http://www.w3.org/2000/svg">
<path d="M63.7 50.75V19.25L35.0016 3.5L6.30005 19.25V50.75L35.0016 66.5L63.7 50.75Z" fill="#F4DADD"/>
<path d="M9.75665 49.6602C10.0372 52.7015 12.2188 55.0378 15.12 55.301C18.8862 55.6427 25.1732 55.9999 35 55.9999C44.8268 55.9999 51.1138 55.6427 54.8799 55.301C57.7811 55.0378 59.9627 52.7015 60.2433 49.6602C60.5643 46.1795 60.9 41.0857 60.9 34.9999C60.9 28.9141 60.5643 23.8204 60.2433 20.3397C59.9627 17.2984 57.7811 14.9621 54.8799 14.6989C51.1138 14.3572 44.8268 13.9999 35 13.9999C25.1732 13.9999 18.8862 14.3572 15.12 14.6989C12.2188 14.9621 10.0372 17.2984 9.75665 20.3397C9.43557 23.8204 9.09998 28.9141 9.09998 34.9999C9.09998 41.0857 9.43557 46.1795 9.75665 49.6602Z" fill="white"/>
<path d="M43.2408 25.7353H52.659" stroke="#5B181C" stroke-width="3" stroke-linecap="round" stroke-linejoin="round"/>
<path d="M43.2408 35.0005H52.659" stroke="#5B181C" stroke-width="3" stroke-linecap="round" stroke-linejoin="round"/>
<path d="M43.2408 44.2646H52.659" stroke="#5B181C" stroke-width="3" stroke-linecap="round" stroke-linejoin="round"/>
<path d="M9.75665 49.6602C10.0372 52.7015 12.2188 55.0378 15.12 55.301C18.8862 55.6427 25.1732 55.9999 35 55.9999C44.8268 55.9999 51.1138 55.6427 54.8799 55.301C57.7811 55.0378 59.9627 52.7015 60.2433 49.6602C60.5643 46.1795 60.9 41.0857 60.9 34.9999C60.9 28.9141 60.5643 23.8204 60.2433 20.3397C59.9627 17.2984 57.7811 14.9621 54.8799 14.6989C51.1138 14.3572 44.8268 13.9999 35 13.9999C25.1732 13.9999 18.8862 14.3572 15.12 14.6989C12.2188 14.9621 10.0372 17.2984 9.75665 20.3397C9.43557 23.8204 9.09998 28.9141 9.09998 34.9999C9.09998 41.0857 9.43557 46.1795 9.75665 49.6602Z" stroke="#5B181C" stroke-width="3" stroke-linejoin="round"/>
<path d="M29.9068 41.4087C33.1751 39.6642 35.4148 36.0968 35.4148 31.9795C35.4148 26.143 30.914 21.4113 25.362 21.4113C19.8101 21.4113 15.3094 26.143 15.3094 31.9795C15.3094 36.0981 17.5503 39.6663 20.8201 41.4102C16.5319 42.937 13.1972 46.564 11.9796 51.0947C11.3459 53.4525 12.7456 55.3886 15.0658 55.6216C17.1264 55.8284 20.3476 55.9996 25.3656 55.9996C30.3836 55.9996 33.6048 55.8284 35.6655 55.6216C37.9856 55.3886 39.3853 53.4525 38.7516 51.0947C37.5336 46.5624 34.1971 42.9347 29.9068 41.4087Z" fill="#C3323C"/>
<path d="M29.9068 41.4087C33.1751 39.6642 35.4148 36.0968 35.4148 31.9795C35.4148 26.143 30.914 21.4113 25.362 21.4113C19.8101 21.4113 15.3094 26.143 15.3094 31.9795C15.3094 36.0981 17.5503 39.6663 20.8201 41.4102C16.5319 42.937 13.1972 46.564 11.9796 51.0947C11.3459 53.4525 12.7456 55.3886 15.0658 55.6216C17.1264 55.8284 20.3476 55.9996 25.3656 55.9996C30.3836 55.9996 33.6048 55.8284 35.6655 55.6216C37.9856 55.3886 39.3853 53.4525 38.7516 51.0947C37.5336 46.5624 34.1971 42.9347 29.9068 41.4087Z" stroke="#5B181C" stroke-width="3" stroke-linecap="round" stroke-linejoin="round"/>
</svg>
