<svg width="70" height="70" viewBox="0 0 70 70" fill="none" xmlns="http://www.w3.org/2000/svg">
<path d="M34.825 64.4L4.72498 8.39999L64.925 8.4L34.825 64.4Z" fill="#E1D9CC"/>
<path opacity="0.2" d="M34.75 10.125C37.5569 10.125 40.3364 10.6778 42.9297 11.752C45.523 12.8261 47.8794 14.4009 49.8643 16.3857C51.8491 18.3706 53.4239 20.727 54.498 23.3203C55.5722 25.9136 56.125 28.6931 56.125 31.5L56.1104 32.291C55.9641 36.2414 54.7244 40.0795 52.5225 43.375C50.1737 46.8901 46.8355 49.6302 42.9297 51.248C39.024 52.8658 34.7263 53.2886 30.5801 52.4639C26.4337 51.6391 22.6251 49.6036 19.6357 46.6143C16.6464 43.6249 14.6109 39.8163 13.7861 35.6699C12.9614 31.5237 13.3842 27.226 15.002 23.3203C16.6198 19.4145 19.3599 16.0763 22.875 13.7275C26.3901 11.3789 30.5225 10.125 34.75 10.125ZM44.8662 19.3711L30.084 26.0908L29.5547 26.3311L29.3262 26.8652L23.2607 41.0186L21.7832 44.4648L25.2305 42.9883L39.3828 36.9229L39.9189 36.6934L40.1592 36.1621L46.8535 21.3545L48.4961 17.7207L44.8662 19.3711Z" fill="white" stroke="#5A4D3B" stroke-width="3"/>
<path d="M34.75 54.375C47.3835 54.375 57.625 44.1335 57.625 31.5C57.625 18.8665 47.3835 8.625 34.75 8.625C22.1165 8.625 11.875 18.8665 11.875 31.5C11.875 44.1335 22.1165 54.375 34.75 54.375Z" fill="#F7F4EE" stroke="#5A4D3B" stroke-width="3" stroke-miterlimit="10"/>
<path d="M38.7924 35.5439L45.4867 20.7364L30.7049 27.4561L24.6392 41.6093L38.7924 35.5439Z" fill="#867357" stroke="#867357" stroke-width="3" stroke-linecap="round" stroke-linejoin="round"/>
<path d="M33.7669 28.9504L34.5015 27.1664C34.5429 27.0657 34.6411 27 34.75 27C34.8589 27 34.9571 27.0657 34.9985 27.1664L35.7331 28.9504C36.0256 29.6605 36.5895 30.2245 37.2997 30.5169L39.0835 31.2515C39.1843 31.2929 39.25 31.3911 39.25 31.5C39.25 31.6089 39.1843 31.7071 39.0835 31.7485L37.2997 32.4831C36.5895 32.7755 36.0256 33.3394 35.7331 34.0496L34.9985 35.8336C34.9571 35.9342 34.8589 36 34.75 36C34.6411 36 34.5429 35.9342 34.5015 35.8336L33.7669 34.0496C33.4745 33.3394 32.9105 32.7755 32.2004 32.4831L30.4164 31.7485C30.3157 31.7071 30.25 31.6089 30.25 31.5C30.25 31.3911 30.3157 31.2929 30.4164 31.2515L32.2004 30.5169C32.9105 30.2245 33.4745 29.6605 33.7669 28.9504Z" fill="white"/>
</svg>
