<svg width="70" height="70" viewBox="0 0 70 70" fill="none" xmlns="http://www.w3.org/2000/svg">
<path d="M35 67.6667C35 67.6667 60.375 55.0667 60.375 36.1667V14.1167L35 4.66666L9.625 14.1167V36.1667C9.625 55.0667 35 67.6667 35 67.6667Z" fill="#CED9C9"/>
<path d="M31.0469 19.883C31.0399 19.0819 31.1573 18.2208 31.4025 17.3057C32.5957 12.8529 35.7715 11.0193 40.2244 12.2124C44.6772 13.4056 46.5108 16.5814 45.3177 21.0343C45.0725 21.9493 44.7436 22.7538 44.337 23.4441C46.8787 24.2684 49.402 25.1285 51.1948 25.7487C52.7082 26.2723 53.6793 27.7417 53.6024 29.3413L53.5774 29.8692C53.4711 32.1054 53.2498 34.3361 52.9158 36.5497C53.069 36.5842 53.2238 36.6224 53.3799 36.6642C57.8493 37.8618 59.6896 41.0494 58.4921 45.5186C57.2945 49.9879 54.107 51.8284 49.6375 50.6308C49.4926 50.592 49.3505 50.5509 49.2112 50.508C48.4217 52.5458 47.5294 54.5437 46.5367 56.4912L46.2856 56.9837C45.5583 58.4119 43.9862 59.208 42.411 58.9121C33.093 57.1633 23.926 54.707 14.9819 51.5625C13.47 51.0308 12.5064 49.5553 12.5906 47.9551L12.6195 47.4031C12.7385 45.1252 12.8533 42.9257 13.1326 40.6104C13.7046 40.8958 14.3439 41.1343 15.0488 41.3232C19.5016 42.5163 22.6775 40.6827 23.8706 36.2299C25.0638 31.777 23.2302 28.6011 18.7773 27.408C18.0851 27.2225 17.4238 27.1102 16.7959 27.0695C17.7364 24.8932 18.7652 22.8981 19.8332 20.827L20.0752 20.3575C20.8087 18.9338 22.3843 18.1468 23.9568 18.4501C25.8191 18.8094 28.434 19.3261 31.0469 19.883Z" fill="white" stroke="#4D6343" stroke-width="3" stroke-linecap="round" stroke-linejoin="round"/>
</svg>
