<svg width="70" height="70" viewBox="0 0 70 70" fill="none" xmlns="http://www.w3.org/2000/svg">
<path d="M63 50.05V19.95L35.0015 4.89999L7 19.95V50.05L35.0015 65.1L63 50.05Z" fill="#CED9C9"/>
<path d="M24.7099 7.4156C24.7099 6.79947 25.2044 6.3 25.8144 6.3C30.694 6.3 34.6499 10.2958 34.6499 15.2248C34.6499 15.8409 34.1554 16.3404 33.5454 16.3404C28.6658 16.3404 24.7099 12.3446 24.7099 7.4156Z" fill="#9EB396"/>
<path d="M24.7099 7.4156C24.7099 6.79947 25.2044 6.3 25.8144 6.3C30.694 6.3 34.6499 10.2958 34.6499 15.2248C34.6499 15.8409 34.1554 16.3404 33.5454 16.3404C28.6658 16.3404 24.7099 12.3446 24.7099 7.4156Z" stroke="#4D6343" stroke-width="3"/>
<path d="M34.65 59.4994C32.0481 60.7842 29.1211 61.523 25.9516 61.523C17.7174 61.523 9.79999 51.4827 9.79999 39.0798C9.79999 26.6771 17.7174 21.3616 25.9516 21.3616C28.5687 21.3616 31.6559 22.0312 34.65 23.3008C37.644 22.0312 40.7313 21.3616 43.3484 21.3616C51.5825 21.3616 59.5 26.6771 59.5 39.0798C59.5 51.4827 51.5825 61.523 43.3484 61.523C40.1789 61.523 37.2519 60.7842 34.65 59.4994Z" fill="white"/>
<path d="M34.65 59.4994C32.0481 60.7842 29.1211 61.523 25.9516 61.523C17.7174 61.523 9.79999 51.4827 9.79999 39.0798C9.79999 26.6771 17.7174 21.3616 25.9516 21.3616C28.5687 21.3616 31.6559 22.0312 34.65 23.3008C37.644 22.0312 40.7313 21.3616 43.3484 21.3616C51.5825 21.3616 59.5 26.6771 59.5 39.0798C59.5 51.4827 51.5825 61.523 43.3484 61.523C40.1789 61.523 37.2519 60.7842 34.65 59.4994Z" stroke="#4D6343" stroke-width="3" stroke-linejoin="round"/>
<path d="M34.65 23.2453V19.2699C34.65 12.8012 38.4396 7.55728 44.59 7.55728" stroke="#4D6343" stroke-width="3" stroke-linecap="round" stroke-linejoin="round"/>
<path d="M43.3474 27.6367C48.0393 27.6367 52.5658 30.6742 53.2874 37.6771" stroke="#4D6343" stroke-width="3" stroke-linecap="round" stroke-linejoin="round"/>
</svg>
