<svg xmlns="http://www.w3.org/2000/svg" width="45" height="45" viewBox="0 0 45 45" fill="none">
<rect width="45" height="45" rx="22.5" fill="black"/>
<path d="M22.6786 15.6982C21.5677 15.6982 19.848 14.435 18.037 14.4807C15.6477 14.5111 13.4562 15.8656 12.2236 18.0113C9.74296 22.3182 11.5844 28.6794 14.0041 32.1797C15.1911 33.8841 16.5912 35.8016 18.4479 35.7408C20.2284 35.6647 20.898 34.5842 23.0591 34.5842C25.2048 34.5842 25.8136 35.7408 27.7007 35.6951C29.6182 35.6647 30.8356 33.9602 32.0075 32.2405C33.3619 30.2622 33.925 28.3446 33.9554 28.2381C33.9098 28.2229 30.2269 26.8076 30.1813 22.5464C30.1508 18.9853 33.088 17.2809 33.2249 17.2048C31.5509 14.7546 28.979 14.4807 28.0811 14.4198C25.7375 14.2372 23.7743 15.6982 22.6786 15.6982V15.6982ZM26.6354 12.1066C27.6246 10.9196 28.279 9.26077 28.0963 7.61719C26.681 7.67806 24.9766 8.56073 23.9569 9.74776C23.0438 10.7978 22.2525 12.4871 22.4655 14.1002C24.033 14.222 25.6462 13.2936 26.6354 12.1066" fill="white"/>
</svg>