<svg width="45" height="45" viewBox="0 0 45 45" fill="none" xmlns="http://www.w3.org/2000/svg">
<rect width="45" height="45" rx="22.5" fill="black"/>
<path fill-rule="evenodd" clip-rule="evenodd" d="M29.4586 43.902C27.2671 44.6148 24.9283 45.0001 22.5 45.0001C20.0701 45.0001 17.7298 44.6143 15.537 43.9006C16.5499 44.022 16.9242 43.3625 16.9242 42.7931C16.9242 42.5452 16.92 42.108 16.9143 41.5231C16.9078 40.8463 16.8993 39.9718 16.8933 38.9641C10.6341 40.3247 9.3136 35.9456 9.3136 35.9456C8.29125 33.3451 6.8161 32.6527 6.8161 32.6527C4.77282 31.2552 6.97078 31.2836 6.97078 31.2836C9.22781 31.4427 10.4161 33.6041 10.4161 33.6041C12.4242 37.0448 15.6825 36.0514 16.965 35.4742C17.1689 34.0193 17.7511 33.0269 18.3938 32.4642C13.3973 31.8958 8.145 29.965 8.145 21.3373C8.145 18.8788 9.0211 16.8695 10.4611 15.2947C10.2291 14.7249 9.45703 12.4367 10.6805 9.33657C10.6805 9.33657 12.5705 8.73139 16.868 11.6444C18.6638 11.1447 20.5875 10.8959 22.5014 10.8858C24.4125 10.8956 26.3377 11.1447 28.1348 11.6444C32.4295 8.73139 34.3153 9.33657 34.3153 9.33657C35.543 12.4367 34.7709 14.7249 34.5389 15.2947C35.9817 16.8695 36.8522 18.8788 36.8522 21.3373C36.8522 29.986 31.5914 31.8902 26.5795 32.4473C27.3867 33.1426 28.1067 34.5159 28.1067 36.617C28.1067 38.6297 28.0941 40.3819 28.0858 41.543C28.0817 42.1184 28.0786 42.5486 28.0786 42.7934C28.0786 43.3655 28.4438 44.0263 29.4586 43.902Z" fill="white"/>
<rect x="0.5" y="0.5" width="44" height="44" rx="22" stroke="#EFF0F5"/>
</svg>
