<svg width="45" height="45" viewBox="0 0 45 45" fill="none" xmlns="http://www.w3.org/2000/svg">
<rect width="45" height="45" rx="22.5" fill="white"/>
<path d="M37.4999 23.1539C37.5012 22.1109 37.4131 21.0698 37.2364 20.042H22.8036V25.9363H31.07C30.9009 26.8777 30.5428 27.7751 30.0175 28.5744C29.4922 29.3737 28.8105 30.0583 28.0134 30.5871V34.4132H32.9469C35.8356 31.7498 37.4999 27.8111 37.4999 23.1539Z" fill="#4285F4"/>
<path d="M22.8037 38.1096C26.9337 38.1096 30.4112 36.7535 32.9471 34.4153L28.0135 30.5892C26.6404 31.5203 24.8719 32.0517 22.8037 32.0517C18.8118 32.0517 15.4236 29.3606 14.212 25.7344H9.12973V29.6774C10.4035 32.2121 12.3568 34.3429 14.7714 35.8319C17.186 37.3209 19.9669 38.1095 22.8037 38.1096Z" fill="#34A853"/>
<path d="M14.2119 25.7345C13.5714 23.8343 13.5714 21.7765 14.2119 19.8763V15.9333H9.12964C8.05807 18.0657 7.5 20.419 7.5 22.8054C7.5 25.1918 8.05807 27.5452 9.12964 29.6775L14.2119 25.7345Z" fill="#FBBC04"/>
<path d="M22.8037 13.559C24.9862 13.5233 27.0952 14.3479 28.6746 15.8546L33.0427 11.4865C30.2729 8.88493 26.6035 7.45662 22.8037 7.501C19.9669 7.50113 17.186 8.28972 14.7714 9.77872C12.3568 11.2677 10.4035 13.3985 9.12973 15.9333L14.212 19.8762C15.4236 16.25 18.8118 13.559 22.8037 13.559Z" fill="#EA4335"/>
<rect x="0.5" y="0.5" width="44" height="44" rx="22" stroke="#EFF0F5"/>
</svg>
