<svg width="31" height="30" viewBox="0 0 31 30" fill="none" xmlns="http://www.w3.org/2000/svg">
<path d="M21.8625 3.52499C20.7129 2.57948 19.3666 1.90253 17.9221 1.54355C16.4775 1.18457 14.971 1.15261 13.5125 1.44999C11.5705 1.84227 9.78874 2.80259 8.39335 4.20909C6.99797 5.6156 6.05184 7.40491 5.675 9.34999C5.39981 10.8084 5.44981 12.3096 5.82145 13.7464C6.19309 15.1833 6.8772 16.5204 7.825 17.6625C8.70461 18.6551 9.20879 19.9244 9.25 21.25V25C9.25 25.9946 9.64509 26.9484 10.3484 27.6516C11.0516 28.3549 12.0054 28.75 13 28.75H18C18.9946 28.75 19.9484 28.3549 20.6517 27.6516C21.3549 26.9484 21.75 25.9946 21.75 25V21.4875C21.792 20.024 22.3296 18.618 23.275 17.5C24.9314 15.451 25.7122 12.831 25.4477 10.2095C25.1832 7.58803 23.8948 5.17685 21.8625 3.49999V3.52499ZM19.25 25C19.25 25.3315 19.1183 25.6495 18.8839 25.8839C18.6495 26.1183 18.3315 26.25 18 26.25H13C12.6685 26.25 12.3505 26.1183 12.1161 25.8839C11.8817 25.6495 11.75 25.3315 11.75 25V23.75H19.25V25ZM21.3375 15.95C20.0806 17.4407 19.3473 19.3025 19.25 21.25H16.75V17.5C16.75 17.1685 16.6183 16.8505 16.3839 16.6161C16.1495 16.3817 15.8315 16.25 15.5 16.25C15.1685 16.25 14.8505 16.3817 14.6161 16.6161C14.3817 16.8505 14.25 17.1685 14.25 17.5V21.25H11.75C11.717 19.3351 11.0087 17.4934 9.75 16.05C8.91955 15.055 8.36111 13.8618 8.12914 12.5867C7.89716 11.3116 7.99956 9.99814 8.42636 8.77441C8.85315 7.55067 9.58978 6.45842 10.5644 5.60415C11.539 4.74988 12.7184 4.16274 13.9875 3.89999C15.0782 3.67542 16.2052 3.69655 17.2867 3.96183C18.3682 4.22711 19.3771 4.7299 20.2401 5.43368C21.103 6.13747 21.7985 7.02459 22.2759 8.03064C22.7532 9.03669 23.0006 10.1364 23 11.25C23.0093 12.9623 22.4214 14.6243 21.3375 15.95Z" fill="#A5B4FC"/>
</svg>
