<svg xmlns="http://www.w3.org/2000/svg" width="26" height="25" viewBox="0 0 26 25" fill="none">
<path d="M22.1769 15.4706L17.6029 13.5103C17.3641 13.4075 17.1034 13.3661 16.8444 13.3899C16.5855 13.4137 16.3367 13.5019 16.1206 13.6465L13.675 15.2767C12.1803 14.5497 10.9706 13.3453 10.237 11.8539L10.2372 11.8537L11.8617 9.37144C12.0031 9.15595 12.0889 8.90877 12.1114 8.65201C12.1339 8.39525 12.0924 8.13691 11.9906 7.90011L10.0285 3.32219C9.89498 3.01144 9.66436 2.75231 9.3712 2.58361C9.07804 2.4149 8.73812 2.3457 8.40234 2.38635C7.08287 2.556 5.87029 3.20021 4.99113 4.19862C4.11196 5.19704 3.62635 6.48138 3.625 7.81171C3.625 15.5658 9.93336 21.8742 17.6875 21.8742C19.0178 21.8729 20.3022 21.3872 21.3006 20.508C22.299 19.6289 22.9432 18.4163 23.1129 17.0968C23.1534 16.761 23.0841 16.4211 22.9154 16.128C22.7467 15.8348 22.4876 15.6042 22.1769 15.4706V15.4706Z" fill="white"/>
</svg>