<svg xmlns="http://www.w3.org/2000/svg" width="50" height="50" viewBox="0 0 50 50" fill="none">
<g clip-path="url(#clip0_9976_45302)">
<path d="M24.2852 26.4315C24.2852 27.7792 24.2852 28.985 24.2981 30.0683H25.7038C25.7167 28.985 25.7167 27.7856 25.7167 26.4315C25.7167 18.3131 25.5748 12.9675 25.0009 10.2656C24.427 12.9739 24.2852 18.3131 24.2852 26.4315Z" fill="white"/>
<path d="M25 0C11.1942 0 0 11.1942 0 25C0 38.8058 11.1942 50 25 50C38.8058 50 50 38.8058 50 25C50 11.1942 38.8058 0 25 0ZM16.9461 38.4124C14.8182 38.4124 13.7671 36.5682 14.341 35.0142C15.1599 35.5558 16.082 35.7751 16.9654 35.5365C18.0616 35.2334 18.8354 34.3113 19.1965 33.099H21.0085C20.5184 36.7488 18.7839 38.4124 16.9396 38.4124M25 43.8161C22.066 42.3459 19.9574 39.8568 19.9574 39.8568C21.4728 37.9353 22.2595 35.7815 22.5239 33.0926H24.3487C24.439 36.5682 24.6389 38.4447 25 40.3405C25.3676 38.4511 25.561 36.5682 25.6513 33.0926H27.4761C27.7405 35.7815 28.5272 37.9353 30.0426 39.8568C30.0426 39.8568 27.9275 42.3459 25 43.8161ZM33.0539 38.4124C31.2161 38.4124 29.4751 36.7488 28.985 33.099H30.797C31.1646 34.3113 31.9319 35.2334 33.0281 35.5365C33.918 35.7815 34.8401 35.5623 35.6526 35.0142C36.2265 36.5682 35.1754 38.4124 33.0475 38.4124M37.6967 31.1259C38.8509 28.8174 37.8514 26.4509 35.5945 25.9995C33.602 25.6061 31.2806 26.9925 30.6874 30.0619H32.5767C32.7637 30.3069 32.8862 30.61 32.8862 30.9518C32.8862 31.2935 32.7637 31.5966 32.5767 31.8416H17.4297C17.2298 31.5837 17.1266 31.2742 17.1202 30.9518C17.1202 30.61 17.2427 30.3069 17.4297 30.0619H19.3191C18.7258 26.9925 16.4044 25.6061 14.4119 25.9995C12.155 26.4509 11.1555 28.8109 12.3098 31.1259C9.2017 30.7841 6.79004 28.1726 6.79004 25C6.79004 21.5953 9.56925 18.8354 12.9933 18.8354C17.7521 18.8354 20.8666 23.9554 21.131 30.0619H22.6206C22.3755 23.0204 18.5969 20.2734 18.5969 15.6048C18.5969 10.5494 23.7942 5.9969 25 4.79752C26.2058 5.99046 31.4031 10.5494 31.4031 15.6048C31.4031 20.2799 27.6309 23.0204 27.3794 30.0619H28.869C29.1398 23.9554 32.2479 18.8354 37.0067 18.8354C40.4372 18.8354 43.21 21.5953 43.21 25C43.21 28.1726 40.7918 30.7841 37.6902 31.1259" fill="white"/>
</g>
<defs>
<clipPath id="clip0_9976_45302">
<rect width="50" height="50" fill="white"/>
</clipPath>
</defs>
</svg>