<svg xmlns="http://www.w3.org/2000/svg" width="135" height="20" viewBox="0 0 135 20" fill="none">
<path d="M128.773 19.9732C126.896 19.9732 125.421 19.5998 124.346 18.853C123.29 18.0879 122.725 16.9859 122.652 15.547H126.587C126.696 16.4759 127.479 16.9404 128.936 16.9404C129.538 16.9404 130.02 16.822 130.385 16.5852C130.749 16.3484 130.931 16.0297 130.931 15.6289C130.931 14.9732 130.394 14.5907 129.319 14.4814L127.188 14.2628C125.931 14.1171 124.929 13.6799 124.182 12.9513C123.454 12.2045 123.09 11.2573 123.09 10.1098C123.09 8.72547 123.6 7.64168 124.62 6.85843C125.64 6.05698 127.024 5.65625 128.773 5.65625C130.539 5.65625 131.933 6.02055 132.953 6.74915C133.973 7.47774 134.528 8.56153 134.62 10.0005H130.849C130.794 9.1262 130.084 8.68904 128.718 8.68904C128.117 8.68904 127.643 8.79833 127.297 9.01691C126.969 9.21727 126.805 9.50871 126.805 9.89122C126.805 10.5287 127.379 10.9204 128.527 11.0661L130.712 11.312C131.969 11.4395 132.953 11.8767 133.663 12.6235C134.392 13.3521 134.756 14.281 134.756 15.4103C134.756 16.8129 134.219 17.924 133.144 18.7437C132.069 19.5634 130.612 19.9732 128.773 19.9732Z" fill="white"/>
<path d="M115.005 19.9732C113.129 19.9732 111.653 19.5998 110.579 18.853C109.522 18.0879 108.958 16.9859 108.885 15.547H112.819C112.928 16.4759 113.712 16.9404 115.169 16.9404C115.77 16.9404 116.253 16.822 116.617 16.5852C116.981 16.3484 117.163 16.0297 117.163 15.6289C117.163 14.9732 116.626 14.5907 115.551 14.4814L113.42 14.2628C112.163 14.1171 111.162 13.6799 110.415 12.9513C109.686 12.2045 109.322 11.2573 109.322 10.1098C109.322 8.72547 109.832 7.64168 110.852 6.85843C111.872 6.05698 113.256 5.65625 115.005 5.65625C116.772 5.65625 118.165 6.02055 119.185 6.74915C120.205 7.47774 120.761 8.56153 120.852 10.0005H117.081C117.027 9.1262 116.316 8.68904 114.95 8.68904C114.349 8.68904 113.876 8.79833 113.53 9.01691C113.202 9.21727 113.038 9.50871 113.038 9.89122C113.038 10.5287 113.612 10.9204 114.759 11.0661L116.945 11.312C118.202 11.4395 119.185 11.8767 119.896 12.6235C120.624 13.3521 120.989 14.281 120.989 15.4103C120.989 16.8129 120.451 17.924 119.377 18.7437C118.302 19.5634 116.845 19.9732 115.005 19.9732Z" fill="white"/>
<path d="M99.2128 19.9716C97.6281 19.9716 96.3712 19.589 95.4423 18.824C94.5133 18.059 94.0488 17.0116 94.0488 15.6819C94.0488 14.334 94.486 13.2502 95.3603 12.4306C96.2528 11.6109 97.537 11.2011 99.2128 11.2011H102.437V10.8186C102.437 10.3267 102.3 9.97156 102.027 9.75298C101.754 9.51618 101.326 9.39779 100.743 9.39779H95.3876V6.06445H100.743C102.419 6.06445 103.721 6.46518 104.65 7.26664C105.579 8.04988 106.043 9.16099 106.043 10.6V16.1464C106.043 16.4014 106.171 16.5289 106.426 16.5289H107.628V19.5617H104.896C104.422 19.5617 104.04 19.4433 103.748 19.2065C103.475 18.9697 103.329 18.6419 103.311 18.2229C102.929 18.7694 102.373 19.1974 101.644 19.5071C100.934 19.8167 100.124 19.9716 99.2128 19.9716ZM97.8466 15.518C97.8466 15.9552 98.0106 16.2921 98.3384 16.5289C98.6663 16.7657 99.1308 16.8841 99.7319 16.8841C100.533 16.8841 101.18 16.6747 101.672 16.2557C102.182 15.8368 102.437 15.2357 102.437 14.4524V14.2339H99.4313C98.9213 14.2339 98.5297 14.3614 98.2565 14.6164C97.9833 14.8532 97.8466 15.1537 97.8466 15.518Z" fill="white"/>
<path d="M78.0234 0.4375H86.3568C88.3968 0.4375 90.0089 0.974841 91.1928 2.04952C92.395 3.1242 92.9961 4.59961 92.9961 6.47575C92.9961 8.35189 92.395 9.83641 91.1928 10.9293C90.0089 12.004 88.3968 12.5413 86.3568 12.5413H81.9579V19.5632H78.0234V0.4375ZM86.1655 8.82548C87.058 8.82548 87.7502 8.61601 88.242 8.19706C88.752 7.77812 89.007 7.20435 89.007 6.47575C89.007 5.74715 88.752 5.17338 88.242 4.75444C87.7502 4.3355 87.058 4.12603 86.1655 4.12603H81.9579V8.82548H86.1655Z" fill="white"/>
<path d="M70.7992 19.5626C69.5424 19.5626 68.6226 19.2894 68.0397 18.7429C67.475 18.1782 67.1927 17.2584 67.1927 15.9833V9.39864H63.832V6.06531H67.1927V2.1582H71.0178V6.06531H75.0342V9.39864H71.0178V15.0544C71.0178 15.4551 71.1089 15.7557 71.2911 15.956C71.4732 16.1382 71.7737 16.2292 72.1927 16.2292H75.0342V19.5626H70.7992Z" fill="white"/>
<path d="M54.6228 19.9716C52.9835 19.9716 51.6902 19.4706 50.743 18.4688C49.7959 17.4488 49.3223 16.0462 49.3223 14.2612V6.06445H53.1201V13.8513C53.1201 15.6364 53.8851 16.5289 55.4152 16.5289C56.1984 16.5289 56.8086 16.283 57.2458 15.7912C57.6829 15.2812 57.9015 14.5982 57.9015 13.742V6.06445H61.7266V19.5617H58.366V18.4688C57.947 18.9606 57.4097 19.334 56.754 19.589C56.0982 19.8441 55.3878 19.9716 54.6228 19.9716Z" fill="white"/>
<path d="M39.5784 19.9732C38.1941 19.9732 36.9555 19.6818 35.8626 19.0989C34.7879 18.4978 33.95 17.6599 33.3489 16.5852C32.7478 15.4923 32.4473 14.2355 32.4473 12.8147C32.4473 11.4122 32.7478 10.1736 33.3489 9.09887C33.95 8.00598 34.7879 7.15898 35.8626 6.55789C36.9555 5.9568 38.1941 5.65625 39.5784 5.65625C40.9627 5.65625 42.1923 5.9568 43.2669 6.55789C44.3598 7.15898 45.2068 8.00598 45.8079 9.09887C46.409 10.1736 46.7096 11.4122 46.7096 12.8147C46.7096 14.2355 46.409 15.4923 45.8079 16.5852C45.2068 17.6599 44.3598 18.4978 43.2669 19.0989C42.1923 19.6818 40.9627 19.9732 39.5784 19.9732ZM39.5784 16.5306C40.5256 16.5306 41.2906 16.1936 41.8735 15.5196C42.4746 14.8275 42.7751 13.9258 42.7751 12.8147C42.7751 11.7036 42.4746 10.8111 41.8735 10.1371C41.2906 9.44496 40.5256 9.09887 39.5784 9.09887C38.6312 9.09887 37.8571 9.44496 37.256 10.1371C36.6731 10.8111 36.3817 11.7036 36.3817 12.8147C36.3817 13.9258 36.6731 14.8275 37.256 15.5196C37.8571 16.1936 38.6312 16.5306 39.5784 16.5306Z" fill="white"/>
<path d="M24.2018 19.9732C22.8356 19.9732 21.6426 19.6726 20.6225 19.0716C19.6025 18.4522 18.8192 17.6052 18.2728 16.5306C17.7263 15.4559 17.4531 14.2355 17.4531 12.8694C17.4531 11.4668 17.7446 10.2191 18.3274 9.1262C18.9103 8.0333 19.7209 7.1863 20.7591 6.58521C21.8156 5.9659 23.036 5.65625 24.4203 5.65625C26.1872 5.65625 27.6353 6.12984 28.7646 7.07701C29.9121 8.00598 30.5497 9.24459 30.6772 10.7929H26.8247C26.7154 10.3193 26.4422 9.91855 26.005 9.59068C25.5861 9.26281 25.0396 9.09887 24.3657 9.09887C23.4549 9.09887 22.7263 9.43585 22.1799 10.1098C21.6517 10.7655 21.3875 11.6763 21.3875 12.842C21.3875 13.9896 21.6517 14.8912 22.1799 15.547C22.7263 16.2027 23.4458 16.5306 24.3384 16.5306C25.0305 16.5306 25.5952 16.3575 26.0324 16.0114C26.4877 15.6471 26.7701 15.1644 26.8794 14.5634H30.7318C30.6225 15.5287 30.2947 16.4213 29.7482 17.2409C29.2018 18.0606 28.4458 18.7255 27.4804 19.2355C26.5333 19.7273 25.4404 19.9732 24.2018 19.9732Z" fill="white"/>
<path d="M7.9235 20C5.4827 20 3.55191 19.4353 2.13115 18.306C0.728597 17.1585 0.0182149 15.5829 0 13.5792H4.01639C4.03461 14.4718 4.3898 15.1822 5.08197 15.7104C5.79235 16.2386 6.73953 16.5027 7.9235 16.5027C8.94353 16.5027 9.7541 16.275 10.3552 15.8197C10.9745 15.3461 11.2842 14.7177 11.2842 13.9344C11.2842 13.2605 11.0656 12.7413 10.6284 12.377C10.1913 12.0128 9.49909 11.7668 8.55191 11.6393L6.3388 11.3661C4.40801 11.1293 2.95993 10.5464 1.99454 9.61749C1.04736 8.67031 0.57377 7.40437 0.57377 5.81967C0.57377 4.65392 0.874317 3.63388 1.47541 2.75956C2.0765 1.88525 2.91439 1.21129 3.98907 0.737706C5.08197 0.245902 6.32969 0 7.73224 0C10.0091 0 11.7942 0.510018 13.0874 1.53005C14.3807 2.55009 15.0455 3.94353 15.082 5.71038H11.0929C11.0565 5 10.7377 4.44444 10.1366 4.04372C9.55373 3.64299 8.75228 3.44262 7.73224 3.44262C6.80328 3.44262 6.04736 3.64299 5.46448 4.04372C4.89982 4.42623 4.61749 4.93625 4.61749 5.57377C4.61749 6.19308 4.85428 6.67577 5.32787 7.02186C5.80146 7.34973 6.54827 7.57741 7.56831 7.70492L9.61749 7.95082C13.4426 8.44262 15.3552 10.3461 15.3552 13.6612C15.3552 14.9362 15.0546 16.0565 14.4536 17.0219C13.8707 17.969 13.0146 18.7067 11.8852 19.235C10.7741 19.745 9.45355 20 7.9235 20Z" fill="white"/>
</svg>