<svg width="40" height="41" viewBox="0 0 40 41" fill="none" xmlns="http://www.w3.org/2000/svg">
<path d="M12.6566 16.9449H1.32324L5.32324 23.6115L1.32324 30.2782H11.3232L14.4344 35.1671L19.101 36.5004L25.9899 35.1671L28.6566 30.2782H38.4343L34.6566 23.6115L38.4343 16.9449H27.3232L25.9899 14.9449L24.2121 15.8338V10.5004L23.5455 7.83377H20.4344L19.7677 5.1671L17.7677 4.72266L16.6566 6.94488H15.101L12.6566 7.83377V16.9449Z" fill="white"/>
<path fill-rule="evenodd" clip-rule="evenodd" d="M27.92 19.2098V17.7412H36.5012L33.314 23.4422L36.5012 29.1433H28.9217C28.9264 29.0319 28.9382 28.9223 28.9382 28.8094V21.3306C28.9382 20.4902 28.5551 19.7148 27.92 19.2098ZM21.4152 35.0283H18.5522C15.7798 35.0283 13.3579 33.112 12.6631 30.3685L11.5318 25.904C11.3332 25.0926 11.4667 24.258 11.9078 23.5537C12.3493 22.849 13.0347 22.3752 13.8389 22.2196L20.4632 20.9389C20.8338 20.8675 21.2091 20.9496 21.5181 21.1699C21.8276 21.391 22.0323 21.722 22.0946 22.1023C22.2144 22.8372 21.7527 23.5474 21.0443 23.7199L16.6718 24.784C16.254 24.8856 15.9082 25.1713 15.7237 25.5678C15.5387 25.9647 15.5391 26.4193 15.7323 26.8302L16.7171 28.8123L18.0006 28.1454L17.4047 26.9471C18.9231 27.4154 20.0325 28.8568 20.0325 30.5598H21.4717C21.4717 28.4802 20.2789 26.6849 18.5587 25.8371L21.3771 25.1511C22.571 24.8609 23.4172 23.8196 23.5356 22.622C23.9742 23.251 24.6921 23.6637 25.5035 23.6637C26.3318 23.6637 27.0632 23.2352 27.499 22.5841V28.8094C27.499 32.2385 24.7698 35.0283 21.4152 35.0283ZM3.35929 29.1433L6.54655 23.4422L3.35929 17.7412H12.2273V21.2777C11.6138 21.6315 11.0885 22.1328 10.6956 22.7603C10.0389 23.8093 9.83996 25.0525 10.1368 26.2667L10.8658 29.1433H3.35929ZM14.7568 8.05228C15.3581 8.05228 15.8471 8.50062 15.8471 9.05124V17.7242H17.2863V6.96977C17.2863 6.41916 17.7757 5.97081 18.377 5.97081C18.9778 5.97081 19.4672 6.41916 19.4672 6.96977V17.7242H20.9065V9.74529C20.9065 9.19467 21.3954 8.74633 21.9967 8.74633C22.5983 8.74633 23.0873 9.19467 23.0873 9.74529V17.0236L23.0869 17.0309V20.7473C22.8923 20.4442 22.6422 20.1779 22.3421 19.9638C21.7125 19.5144 20.9503 19.347 20.1954 19.4934L13.6666 20.7558V9.05124C13.6666 8.50062 14.1556 8.05228 14.7568 8.05228ZM25.5035 16.0316C26.0421 16.0316 26.4807 16.4795 26.4807 17.0309V21.1934C26.4807 21.744 26.0421 22.1924 25.5035 22.1924C24.9648 22.1924 24.5262 21.744 24.5262 21.1934V17.3774L24.5265 17.0273C24.5287 16.4778 24.9659 16.0316 25.5035 16.0316ZM34.972 23.4422L38.9811 16.2699H27.8016C27.4868 15.279 26.5765 14.5603 25.5035 14.5603C25.1559 14.5603 24.8256 14.6372 24.5265 14.7729V9.74529C24.5265 8.38328 23.3917 7.27508 21.9967 7.27508C21.6059 7.27508 21.2371 7.36448 20.9065 7.51969V6.96977C20.9065 5.60776 19.7716 4.49957 18.377 4.49957C17.0305 4.49957 15.9298 5.53274 15.8546 6.82928C15.5218 6.67186 15.1505 6.58104 14.7568 6.58104C13.3618 6.58104 12.2273 7.68923 12.2273 9.05124V16.2699H0.879449L4.88851 23.4422L0.879449 30.6146H11.2382L11.2695 30.7371C12.1287 34.1301 15.1238 36.4996 18.5522 36.4996H21.4152C24.9544 36.4996 27.9225 33.9856 28.7202 30.6146H38.9811L34.972 23.4422Z" fill="#6F7590"/>
<path fill-rule="evenodd" clip-rule="evenodd" d="M15.668 6.51312C15.8905 5.24227 17.0221 4.27734 18.377 4.27734C19.8893 4.27734 21.1287 5.48009 21.1287 6.96977V7.19247C21.4013 7.1026 21.6928 7.05286 21.9967 7.05286C23.5094 7.05286 24.7488 8.25558 24.7488 9.74529V14.4515C24.9878 14.3781 25.2411 14.3381 25.5035 14.3381C26.622 14.3381 27.5743 15.0506 27.959 16.0477H38.9811C39.0599 16.0477 39.1329 16.0895 39.1728 16.1575C39.2126 16.2255 39.2135 16.3095 39.1751 16.3783L35.2266 23.4422L39.1751 30.5061C39.2135 30.575 39.2126 30.659 39.1728 30.727C39.1329 30.795 39.0599 30.8368 38.9811 30.8368H28.894C28.0154 34.2159 25.0032 36.7218 21.4152 36.7218H18.5522C15.0344 36.7218 11.9642 34.3014 11.0656 30.8368H0.879449C0.800608 30.8368 0.72767 30.795 0.687776 30.727C0.647882 30.659 0.647005 30.575 0.685473 30.5061L4.63393 23.4422L0.685473 16.3783C0.647005 16.3095 0.647882 16.2255 0.687776 16.1575C0.72767 16.0895 0.800608 16.0477 0.879449 16.0477H12.0051V9.05124C12.0051 7.56158 13.2441 6.35881 14.7568 6.35881C15.0768 6.35881 15.3831 6.41402 15.668 6.51312ZM18.377 4.72179C17.1449 4.72179 16.1447 5.66649 16.0765 6.84215C16.0722 6.9159 16.0316 6.9827 15.968 7.02039C15.9045 7.05809 15.8264 7.06175 15.7596 7.03017C15.4549 6.88601 15.1158 6.80326 14.7568 6.80326C13.4796 6.80326 12.4495 7.81689 12.4495 9.05124V16.2699C12.4495 16.3926 12.35 16.4921 12.2273 16.4921H1.25824L5.08248 23.3338C5.12015 23.4012 5.12015 23.4833 5.08248 23.5507L1.25824 30.3924H11.2382C11.3397 30.3924 11.4283 30.4612 11.4535 30.5595L11.4849 30.6825C12.3199 33.9799 15.2285 36.2773 18.5522 36.2773H21.4152C24.8453 36.2773 27.7286 33.8401 28.504 30.5634C28.5277 30.4632 28.6172 30.3924 28.7202 30.3924H38.6023L34.778 23.5507C34.7404 23.4833 34.7404 23.4012 34.778 23.3338L38.6023 16.4921H27.8016C27.7048 16.4921 27.6191 16.4295 27.5898 16.3372C27.3025 15.4328 26.4737 14.7826 25.5035 14.7826C25.189 14.7826 24.8899 14.852 24.6184 14.9753C24.5496 15.0065 24.4697 15.0006 24.4062 14.9597C24.3427 14.9188 24.3043 14.8485 24.3043 14.7729V9.74529C24.3043 8.51097 23.274 7.4973 21.9967 7.4973C21.6402 7.4973 21.3036 7.57877 21.0009 7.72085C20.9321 7.75316 20.8515 7.74804 20.7873 7.70726C20.7231 7.66649 20.6842 7.59573 20.6842 7.51969V6.96977C20.6842 5.73544 19.6539 4.72179 18.377 4.72179ZM18.377 6.19304C17.8797 6.19304 17.5086 6.55983 17.5086 6.96977V17.7242C17.5086 17.847 17.4091 17.9465 17.2863 17.9465H15.8471C15.7244 17.9465 15.6249 17.847 15.6249 17.7242V9.05124C15.6249 8.64121 15.254 8.2745 14.7568 8.2745C14.2597 8.2745 13.8888 8.64121 13.8888 9.05124V20.4865L20.1531 19.2753C20.1532 19.2753 20.1531 19.2753 20.1531 19.2753C20.9683 19.1172 21.7924 19.2984 22.4712 19.783C22.4713 19.783 22.4712 19.7829 22.4712 19.783C22.6129 19.884 22.7443 19.9959 22.8647 20.1171V20.7473H23.0869L23.2739 20.6272C23.1561 20.4438 23.0194 20.2728 22.8647 20.1171V17.0309C22.8647 17.0273 22.8648 17.0238 22.865 17.0202L22.8651 17.0182V17.0236H23.0873L22.8653 17.0129L22.8651 17.0182V9.74529C22.8651 9.3353 22.4943 8.96855 21.9967 8.96855C21.4995 8.96855 21.1287 9.33525 21.1287 9.74529V17.7242C21.1287 17.847 21.0292 17.9465 20.9065 17.9465H19.4672C19.3445 17.9465 19.245 17.847 19.245 17.7242V6.96977C19.245 6.55979 18.8738 6.19304 18.377 6.19304ZM17.0641 6.96977C17.0641 6.27848 17.6717 5.74859 18.377 5.74859C19.0819 5.74859 19.6894 6.27853 19.6894 6.96977V17.502H20.6842V9.74529C20.6842 9.0541 21.2913 8.52411 21.9967 8.52411C22.7023 8.52411 23.3095 9.05404 23.3095 9.74529V17.0236C23.3095 17.0271 23.3094 17.0307 23.3093 17.0342L23.3092 17.0363V20.7473C23.3092 20.8459 23.2441 20.9327 23.1495 20.9605C23.0549 20.9883 22.9533 20.9504 22.9 20.8674C22.7202 20.5874 22.4896 20.342 22.2131 20.1447C21.6326 19.7304 20.9323 19.5769 20.2378 19.7116L13.7088 20.9739C13.6436 20.9865 13.5763 20.9694 13.5251 20.9272C13.474 20.8849 13.4444 20.8221 13.4444 20.7558V9.05124C13.4444 8.36004 14.0515 7.83006 14.7568 7.83006C15.4622 7.83006 16.0693 8.36004 16.0693 9.05124V17.502H17.0641V6.96977ZM24.7488 17.0281C24.7488 17.0282 24.7488 17.028 24.7488 17.0281L24.7484 17.3774V21.1934C24.7484 21.6259 25.0921 21.9702 25.5035 21.9702C25.9148 21.9702 26.2585 21.626 26.2585 21.1934V17.0309C26.2585 16.5977 25.9148 16.2538 25.5035 16.2538C25.0933 16.2538 24.7506 16.5963 24.7488 17.0281ZM24.3043 17.0264C24.3069 16.3594 24.8387 15.8094 25.5035 15.8094C26.1694 15.8094 26.7029 16.3614 26.7029 17.0309V21.1934C26.7029 21.8621 26.1694 22.4147 25.5035 22.4147C24.8375 22.4147 24.304 21.8621 24.304 21.1934V17.3774L24.3043 17.027L24.3043 17.0264ZM3.16761 17.6287C3.2075 17.5607 3.28045 17.5189 3.35929 17.5189H12.2273C12.35 17.5189 12.4495 17.6184 12.4495 17.7412V21.2777C12.4495 21.3571 12.4071 21.4305 12.3383 21.4702C11.7564 21.8058 11.2576 22.2815 10.884 22.8782C10.2596 23.8757 10.0701 25.0569 10.3524 26.213C10.3525 26.2133 10.3526 26.2136 10.3527 26.2139L11.0812 29.0887C11.098 29.1552 11.0833 29.2257 11.0412 29.2798C10.9991 29.3339 10.9343 29.3655 10.8658 29.3655H3.35929C3.28045 29.3655 3.2075 29.3238 3.16761 29.2558C3.12772 29.1878 3.12685 29.1037 3.16532 29.0349L6.29196 23.4422L3.16532 17.8496C3.12685 17.7808 3.12772 17.6967 3.16761 17.6287ZM3.73812 17.9634L6.74052 23.3338C6.77819 23.4012 6.77819 23.4833 6.74052 23.5507L3.73812 28.9211H10.5802L9.92139 26.3213L9.92094 26.3195C9.60996 25.0475 9.81847 23.7427 10.5072 22.6424C10.8955 22.0223 11.4078 21.5187 12.0051 21.1514V17.9634H3.73812ZM27.6978 17.7412C27.6978 17.6184 27.7973 17.5189 27.92 17.5189H36.5012C36.5801 17.5189 36.653 17.5607 36.6929 17.6287C36.7328 17.6967 36.7337 17.7808 36.6952 17.8496L33.5686 23.4422L36.6952 29.0349C36.7337 29.1037 36.7328 29.1878 36.6929 29.2558C36.653 29.3238 36.5801 29.3655 36.5012 29.3655H28.9217C28.8612 29.3655 28.8032 29.3408 28.7613 29.2971C28.7194 29.2534 28.6972 29.1945 28.6997 29.134C28.702 29.0795 28.7051 29.0338 28.708 28.9913C28.7123 28.9295 28.716 28.8746 28.716 28.8094V21.3306C28.716 20.5583 28.364 19.8469 27.7817 19.3838C27.7287 19.3416 27.6978 19.2776 27.6978 19.2098V17.7412ZM28.1422 17.9634V19.1052C28.7796 19.6524 29.1605 20.4596 29.1605 21.3306V28.8094C29.1605 28.8451 29.1592 28.8831 29.1574 28.9211H36.1224L33.12 23.5507C33.0823 23.4833 33.0823 23.4012 33.12 23.3338L36.1224 17.9634H28.1422ZM20.5053 21.1571C20.8159 21.0973 21.1294 21.1657 21.3892 21.3509ZM20.5053 21.1571L13.8811 22.4378C13.8811 22.4378 13.8812 22.4378 13.8811 22.4378C13.1385 22.5815 12.5055 23.0182 12.0961 23.6717C11.6872 24.3246 11.5633 25.0972 11.7474 25.8503C11.7475 25.8506 11.7476 25.8509 11.7476 25.8512L12.8785 30.3139C13.5491 32.9618 15.8845 34.8061 18.5522 34.8061H21.4152C24.6425 34.8061 27.2768 32.1204 27.2768 28.8094V23.185C26.8088 23.6194 26.187 23.8859 25.5035 23.8859C24.7902 23.8859 24.1447 23.5947 23.6709 23.1262C23.3918 24.2029 22.5562 25.0931 21.4297 25.367C21.4296 25.367 21.4297 25.367 21.4297 25.367L19.1588 25.9197C20.6789 26.8848 21.6939 28.602 21.6939 30.5598C21.6939 30.6825 21.5944 30.782 21.4717 30.782H20.0325C19.9097 30.782 19.8102 30.6825 19.8102 30.5598C19.8102 29.1588 19.0138 27.9479 17.8633 27.3703L18.1996 28.0465C18.2535 28.155 18.2106 28.2868 18.103 28.3426L16.8196 29.0095C16.7666 29.037 16.7049 29.042 16.6482 29.0236C16.5915 29.0051 16.5446 28.9646 16.5181 28.9112L15.5312 26.9248C15.3104 26.4553 15.309 25.9317 15.5222 25.4741C15.7347 25.0175 16.1346 24.6859 16.6192 24.5681C16.6193 24.5681 16.6192 24.5681 16.6192 24.5681L20.9917 23.504C21.5838 23.3599 21.977 22.7621 21.8753 22.1381C21.8224 21.8155 21.6496 21.537 21.3892 21.3509M20.4211 20.7207C20.8517 20.6378 21.2888 20.7335 21.6471 20.989C22.0054 21.2449 22.2422 21.6286 22.3139 22.0664C22.4518 22.9122 21.9217 23.735 21.0968 23.9359L16.7243 25C16.3735 25.0852 16.0818 25.3252 15.9251 25.6616C15.7688 25.997 15.7678 26.3818 15.9324 26.7335L16.8154 28.5108L17.7044 28.0489L17.2057 27.0461C17.1662 26.9665 17.1778 26.871 17.2354 26.8033C17.2929 26.7355 17.3853 26.7086 17.4702 26.7348C19.0148 27.2111 20.1568 28.6343 20.2487 30.3376H21.2447C21.1634 28.4396 20.0451 26.8173 18.4604 26.0364C18.3766 25.9951 18.3276 25.9057 18.3378 25.8128C18.348 25.7198 18.4153 25.6432 18.5061 25.6211L21.3246 24.9352C22.4212 24.6686 23.2048 23.7096 23.3145 22.6002C23.3236 22.5076 23.3895 22.4305 23.4795 22.407C23.5695 22.3835 23.6647 22.4186 23.7179 22.4949C24.1179 23.0686 24.7698 23.4415 25.5035 23.4415C26.2528 23.4415 26.917 23.0541 27.3143 22.4605C27.3687 22.3792 27.4699 22.3431 27.5636 22.3715C27.6572 22.3999 27.7212 22.4863 27.7212 22.5841V28.8094C27.7212 32.3566 24.8971 35.2505 21.4152 35.2505H18.5522C15.6751 35.2505 13.1667 33.2623 12.4477 30.4231L11.3164 25.9586L11.3159 25.9568C11.1031 25.0875 11.2463 24.1913 11.7195 23.4357C12.1931 22.6797 12.9309 22.169 13.7967 22.0015L20.4211 20.7207Z" fill="#6F7590"/>
</svg>
