<svg width="45" height="45" viewBox="0 0 45 45" fill="none" xmlns="http://www.w3.org/2000/svg">
<rect width="45" height="45" rx="22.5" fill="#1DA1F2"/>
<path d="M33.5273 17.6367C33.5273 17.8828 33.5273 18.1289 33.5273 18.3398C33.5273 25.6172 27.9727 34.0195 17.8477 34.0195C14.7188 34.0195 11.8359 33.1055 9.375 31.5586C9.79688 31.5938 10.2539 31.6289 10.6758 31.6289C13.2422 31.6289 15.6328 30.75 17.5312 29.2734C15.1055 29.2383 13.0664 27.6211 12.3984 25.4414C12.75 25.5117 13.0664 25.5469 13.4531 25.5469C13.9453 25.5469 14.4375 25.4766 14.8945 25.3359C12.3633 24.8438 10.4648 22.6289 10.4648 19.957C10.4648 19.9219 10.4648 19.9219 10.4648 19.8867C11.2031 20.3086 12.0469 20.5547 12.9609 20.5898C11.4844 19.6055 10.5 17.918 10.5 15.9844C10.5 14.9648 10.7812 14.0156 11.2383 13.207C13.9453 16.5469 18.0234 18.7266 22.5938 18.9727C22.4883 18.5859 22.4531 18.1289 22.4531 17.707C22.4531 14.6484 24.9141 12.1875 27.9727 12.1875C29.5547 12.1875 30.9961 12.8555 31.9805 13.9102C33.2461 13.6641 34.4062 13.207 35.4961 12.5742C35.0742 13.875 34.1953 14.9297 33.0703 15.6328C34.1953 15.4922 35.25 15.2109 36.2344 14.7539C35.5312 15.8789 34.6172 16.8633 33.5273 17.6367Z" fill="white"/>
<rect x="0.5" y="0.5" width="44" height="44" rx="22" stroke="#EFF0F5"/>
</svg>
