<svg width="46" height="45" viewBox="0 0 46 45" fill="none" xmlns="http://www.w3.org/2000/svg">
<g id="Scouting Logo - Brandmark" clip-path="url(#clip0_10392_43878)">
<path id="Ellipse 266" d="M43.6998 22.5008C43.6998 33.9331 34.4321 43.2008 22.9998 43.2008C11.5675 43.2008 2.2998 33.9331 2.2998 22.5008C2.2998 11.0685 11.5675 1.80078 22.9998 1.80078C34.4321 1.80078 43.6998 11.0685 43.6998 22.5008Z" fill="white"/>
<path id="Vector" d="M22.3564 23.7875C22.3564 25.0005 22.3564 26.0857 22.3681 27.0607H23.6332C23.6448 26.0857 23.6448 25.0063 23.6448 23.7875C23.6448 16.481 23.5171 11.6699 23.0006 9.23828C22.4841 11.6757 22.3564 16.481 22.3564 23.7875Z" fill="#622599"/>
<path id="Vector_2" d="M23 0C10.5748 0 0.5 10.0748 0.5 22.5C0.5 34.9252 10.5748 45 23 45C35.4252 45 45.5 34.9252 45.5 22.5C45.5 10.0748 35.4252 0 23 0ZM15.7515 34.5712C13.8363 34.5712 12.8904 32.9114 13.4069 31.5128C14.1439 32.0003 14.9738 32.1976 15.7689 31.9828C16.7555 31.7101 17.4519 30.8802 17.7769 29.7891H19.4077C18.9666 33.0739 17.4055 34.5712 15.7457 34.5712M23 39.4345C20.3594 38.1113 18.4617 35.8712 18.4617 35.8712C19.8255 34.1417 20.5335 32.2034 20.7715 29.7833H22.4139C22.4951 32.9114 22.675 34.6002 23 36.3064C23.3308 34.606 23.5049 32.9114 23.5861 29.7833H25.2285C25.4665 32.2034 26.1745 34.1417 27.5383 35.8712C27.5383 35.8712 25.6348 38.1113 23 39.4345ZM30.2485 34.5712C28.5945 34.5712 27.0276 33.0739 26.5865 29.7891H28.2173C28.5481 30.8802 29.2387 31.7101 30.2253 31.9828C31.0262 32.2034 31.8561 32.0061 32.5873 31.5128C33.1038 32.9114 32.1579 34.5712 30.2427 34.5712M34.427 28.0133C35.4658 25.9356 34.5663 23.8058 32.5351 23.3995C30.7418 23.0455 28.6526 24.2933 28.1186 27.0557H29.8191C29.9874 27.2762 30.0976 27.549 30.0976 27.8566C30.0976 28.1642 29.9874 28.4369 29.8191 28.6575H16.1867C16.0068 28.4253 15.914 28.1468 15.9082 27.8566C15.9082 27.549 16.0184 27.2762 16.1867 27.0557H17.8872C17.3532 24.2933 15.264 23.0455 13.4707 23.3995C11.4395 23.8058 10.54 25.9298 11.5788 28.0133C8.78153 27.7057 6.61104 25.3553 6.61104 22.5C6.61104 19.4358 9.11233 16.9519 12.194 16.9519C16.4769 16.9519 19.28 21.5598 19.5179 27.0557H20.8585C20.638 20.7183 17.2372 18.2461 17.2372 14.0444C17.2372 9.49446 21.9148 5.39721 23 4.31777C24.0852 5.39141 28.7628 9.49446 28.7628 14.0444C28.7628 18.2519 25.3678 20.7183 25.1415 27.0557H26.4821C26.7258 21.5598 29.5231 16.9519 33.806 16.9519C36.8935 16.9519 39.389 19.4358 39.389 22.5C39.389 25.3553 37.2127 27.7057 34.4212 28.0133" fill="#622599"/>
</g>
<defs>
<clipPath id="clip0_10392_43878">
<rect width="45" height="45" fill="white" transform="translate(0.5)"/>
</clipPath>
</defs>
</svg>
