<svg width="24" height="30" viewBox="0 0 24 30" fill="none" xmlns="http://www.w3.org/2000/svg">
<path id="Vector" d="M12.1786 9.01847C11.0677 9.01847 9.34797 7.75534 7.53698 7.80099C5.1477 7.83143 2.95625 9.18587 1.72356 11.3317C-0.757039 15.6385 1.08439 21.9998 3.50411 25.5C4.69114 27.2044 6.09124 29.122 7.94788 29.0611C9.72843 28.985 10.398 27.9045 12.5591 27.9045C14.7048 27.9045 15.3136 29.0611 17.2007 29.0154C19.1182 28.985 20.3356 27.2805 21.5075 25.5609C22.8619 23.5825 23.425 21.6649 23.4554 21.5584C23.4098 21.5432 19.7269 20.1279 19.6813 15.8667C19.6508 12.3056 22.588 10.6012 22.7249 10.5251C21.0509 8.07492 18.479 7.80099 17.5811 7.74012C15.2375 7.5575 13.2743 9.01847 12.1786 9.01847ZM16.1354 5.42693C17.1246 4.23989 17.779 2.58109 17.5963 0.9375C16.181 0.998374 14.4766 1.88104 13.4569 3.06807C12.5438 4.11814 11.7525 5.80739 11.9655 7.42054C13.533 7.54228 15.1462 6.61396 16.1354 5.42693Z" fill="black"/>
</svg>
