<svg width="45" height="45" viewBox="0 0 45 45" fill="none" xmlns="http://www.w3.org/2000/svg">
<rect width="45" height="45" rx="22.5" fill="white"/>
<path d="M22.6784 15.6982C21.5675 15.6982 19.8478 14.435 18.0368 14.4807C15.6475 14.5111 13.4561 15.8656 12.2234 18.0113C9.74279 22.3182 11.5842 28.6794 14.0039 32.1797C15.191 33.8841 16.5911 35.8016 18.4477 35.7408C20.2283 35.6647 20.8979 34.5842 23.0589 34.5842C25.2047 34.5842 25.8134 35.7408 27.7005 35.6951C29.618 35.6647 30.8355 33.9602 32.0073 32.2405C33.3617 30.2622 33.9248 28.3446 33.9553 28.2381C33.9096 28.2229 30.2267 26.8076 30.1811 22.5464C30.1507 18.9853 33.0878 17.2809 33.2248 17.2048C31.5507 14.7546 28.9788 14.4807 28.081 14.4198C25.7373 14.2372 23.7742 15.6982 22.6784 15.6982ZM26.6352 12.1066C27.6244 10.9196 28.2788 9.26077 28.0962 7.61719C26.6809 7.67806 24.9764 8.56073 23.9568 9.74776C23.0437 10.7978 22.2523 12.4871 22.4654 14.1002C24.0329 14.222 25.646 13.2936 26.6352 12.1066Z" fill="black"/>
<rect x="0.5" y="0.5" width="44" height="44" rx="22" stroke="#EFF0F5"/>
</svg>
