<svg width="21" height="20" viewBox="0 0 21 20" fill="none" xmlns="http://www.w3.org/2000/svg">
<path d="M10.8858 18.0774C10.7716 18.0301 10.674 17.95 10.6053 17.8472C10.5367 17.7444 10.5 17.6236 10.5 17.5V14.375H4.25C3.9186 14.3746 3.60087 14.2428 3.36654 14.0085C3.1322 13.7741 3.00038 13.4564 3 13.125V6.87499C3.00038 6.54358 3.1322 6.22586 3.36654 5.99152C3.60087 5.75718 3.9186 5.62537 4.25 5.62499H10.5V2.49999C10.5 2.37638 10.5367 2.25554 10.6054 2.15277C10.674 2.04999 10.7716 1.96989 10.8858 1.92258C11 1.87528 11.1257 1.8629 11.2469 1.887C11.3682 1.91111 11.4796 1.97062 11.567 2.05802L19.067 9.55802C19.1841 9.67526 19.25 9.83423 19.25 9.99999C19.25 10.1657 19.1841 10.3247 19.067 10.442L11.567 17.942C11.4795 18.0293 11.3682 18.0889 11.2469 18.113C11.1257 18.1371 11 18.1247 10.8858 18.0774Z" fill="#353E64"/>
</svg>
