<svg width="32" height="36" viewBox="0 0 32 36" fill="none" xmlns="http://www.w3.org/2000/svg">
<path d="M29.26 18.4C26.756 17.5416 25.384 15.8592 24.38 13.536C23.1344 10.6608 21.7192 7.8488 19.6672 5.424C17.812 3.2312 15.4336 2.1376 12.5848 2.0152C12.3536 2.0048 12.12 1.9992 11.8896 1.992C9.83121 1.9248 9.3776 0.191198 7.44721 0.635998C6.47521 0.859998 6.02401 1.5488 5.80881 2.6008C5.66241 3.3208 5.00881 4.0256 4.42161 4.548C2.50161 6.2448 0.981606 8.1664 0.501606 10.752C0.114406 12.8376 0.319206 14.9192 0.730406 16.9704C1.18401 19.2376 1.72161 21.4888 2.25761 23.7384C2.56321 25.0184 2.47121 26.2376 1.85361 27.4064C1.61361 27.8624 1.35761 28.3096 1.13361 28.7712C0.240005 30.5688 0.592805 33.36 3.21361 34.4256C5.01601 35.1576 6.89361 35.4656 8.79681 35.4352C16.0448 35.3224 22.4496 32.9176 27.9288 28.148C29.376 26.8888 30.62 25.4392 31.3688 23.6392C32.24 21.536 31.4144 19.1376 29.26 18.4ZM18.9112 30.24C10.0264 33.7528 4.14321 31.4544 4.14321 31.4544C3.77441 30.4904 4.46321 29.2144 5.90801 27.864C6.78729 29.0876 8.08135 29.9499 9.54917 30.2903C11.017 30.6308 12.5585 30.4261 13.8866 29.7144C15.2147 29.0027 16.2389 27.8326 16.7684 26.4219C17.2979 25.0112 17.2966 23.4562 16.7648 22.0464C22.7952 20.0792 27.9752 20.0256 28.7504 22.0552C28.7504 22.0536 27.7832 26.7304 18.9112 30.24Z" fill="#4F46E5"/>
</svg>
