<svg width="20" height="20" viewBox="0 0 20 20" fill="none" xmlns="http://www.w3.org/2000/svg">
<path d="M11.2495 17.4985V3.12354C11.2495 2.95777 11.1837 2.7988 11.0665 2.68159C10.9492 2.56438 10.7903 2.49854 10.6245 2.49854H3.12451C2.95875 2.49854 2.79978 2.56438 2.68257 2.68159C2.56536 2.7988 2.49951 2.95777 2.49951 3.12354V17.4985" stroke="#00BA88" stroke-width="2" stroke-linecap="round" stroke-linejoin="round"/>
<path d="M17.4995 17.4985V8.12354C17.4995 7.95777 17.4337 7.7988 17.3165 7.68159C17.1992 7.56438 17.0403 7.49854 16.8745 7.49854H11.2495" stroke="#00BA88" stroke-width="2" stroke-linecap="round" stroke-linejoin="round"/>
<path d="M4.99951 5.62354H7.49951" stroke="#00BA88" stroke-width="2" stroke-linecap="round" stroke-linejoin="round"/>
<path d="M6.24951 11.8735H8.74951" stroke="#00BA88" stroke-width="2" stroke-linecap="round" stroke-linejoin="round"/>
<path d="M4.99951 14.9985H7.49951" stroke="#00BA88" stroke-width="2" stroke-linecap="round" stroke-linejoin="round"/>
<path d="M13.7495 13.7485H14.9995" stroke="#00BA88" stroke-width="2" stroke-linecap="round" stroke-linejoin="round"/>
<path d="M13.7495 10.6235H14.9995" stroke="#00BA88" stroke-width="2" stroke-linecap="round" stroke-linejoin="round"/>
</svg>
