<svg width="35" height="35" viewBox="0 0 35 35" fill="none" xmlns="http://www.w3.org/2000/svg">
<g clip-path="url(#clip0_562_8719)">
<path d="M31.8962 27.8773L30.5212 22.5698L26.19 6.63353C26.0964 6.282 25.8673 5.98188 25.5529 5.79891C25.2385 5.61593 24.8644 5.565 24.5125 5.65728L19.1912 7.03228C19.0643 6.89154 18.9095 6.77858 18.7368 6.7005C18.5641 6.62241 18.377 6.58089 18.1875 6.57853H4.4375C4.07283 6.57853 3.72309 6.7234 3.46523 6.98126C3.20737 7.23912 3.0625 7.58886 3.0625 7.95353V29.9535C3.0625 30.3182 3.20737 30.6679 3.46523 30.9258C3.72309 31.1837 4.07283 31.3285 4.4375 31.3285H18.1875C18.5522 31.3285 18.9019 31.1837 19.1598 30.9258C19.4176 30.6679 19.5625 30.3182 19.5625 29.9535V18.9535L22.5875 30.256C22.6681 30.556 22.8478 30.8199 23.0975 31.0046C23.3472 31.1894 23.6521 31.2842 23.9625 31.2735C24.0813 31.287 24.2012 31.287 24.32 31.2735L30.9613 29.4998C31.1368 29.4528 31.3014 29.3716 31.4453 29.2606C31.5893 29.1497 31.7098 29.0113 31.8 28.8535C31.945 28.5493 31.9791 28.204 31.8962 27.8773ZM9.89625 28.6335H5.77125V25.8835H9.89625V28.6335ZM9.89625 23.1335H5.77125V14.8835H9.89625V23.1335ZM9.89625 12.1335H5.77125V9.38353H9.89625V12.1335ZM16.7713 28.6335H12.6463V25.8835H16.7713V28.6335ZM16.7713 23.1335H12.6463V14.8835H16.7713V23.1335ZM16.7713 12.1335H12.6463V9.38353H16.7713V12.1335ZM19.865 9.74103L23.8525 8.66853L24.5675 11.3223L20.58 12.3948L19.865 9.74103ZM23.4262 23.0235L21.295 15.0485L25.2825 13.976L27.4137 21.951L23.4262 23.0235ZM24.8012 28.331L24.0863 25.6773L28.0738 24.6048L28.7887 27.2585L24.8012 28.331Z" fill="#353E64"/>
</g>
<defs>
<clipPath id="clip0_562_8719">
<rect width="35" height="31.6122" fill="white" transform="translate(0 2)"/>
</clipPath>
</defs>
</svg>
