<svg width="45" height="45" viewBox="0 0 45 45" fill="none" xmlns="http://www.w3.org/2000/svg">
<rect width="45" height="45" rx="22.5" fill="#7289DA"/>
<path d="M33.7844 14.7936C31.7202 13.1423 29.2431 12.3166 26.6284 12.179L26.2156 12.5918C28.555 13.1423 30.6193 14.2432 32.5459 15.7569C30.2064 14.5184 27.5917 13.6927 24.8395 13.4175C24.0138 13.2799 23.3257 13.2799 22.5 13.2799C21.6743 13.2799 20.9862 13.2799 20.1606 13.4175C17.4083 13.6927 14.7936 14.5184 12.4541 15.7569C14.3807 14.2432 16.445 13.1423 18.7844 12.5918L18.3716 12.179C15.7569 12.3166 13.2798 13.1423 11.2156 14.7936C8.87615 19.1973 7.63761 24.1514 7.5 29.2432C9.56422 31.445 12.4541 32.8212 15.4817 32.8212C15.4817 32.8212 16.445 31.7202 17.133 30.7569C15.344 30.3441 13.6927 29.3808 12.5917 27.867C13.555 28.4175 14.5183 28.9679 15.4817 29.3808C16.7202 29.9312 17.9587 30.2065 19.1972 30.4817C20.2982 30.6193 21.3991 30.7569 22.5 30.7569C23.6009 30.7569 24.7018 30.6193 25.8028 30.4817C27.0413 30.2065 28.2798 29.9312 29.5183 29.3808C30.4817 28.9679 31.445 28.4175 32.4083 27.867C31.3073 29.3808 29.656 30.3441 27.867 30.7569C28.555 31.7202 29.5183 32.8212 29.5183 32.8212C32.5459 32.8212 35.4358 31.445 37.5 29.2432C37.3624 24.1514 36.1239 19.1973 33.7844 14.7936ZM17.9587 26.7661C16.5826 26.7661 15.344 25.5276 15.344 24.0138C15.344 22.5001 16.5826 21.2615 17.9587 21.2615C19.3349 21.2615 20.5734 22.5001 20.5734 24.0138C20.5734 25.5276 19.3349 26.7661 17.9587 26.7661ZM27.0413 26.7661C25.6651 26.7661 24.4266 25.5276 24.4266 24.0138C24.4266 22.5001 25.6651 21.2615 27.0413 21.2615C28.4174 21.2615 29.656 22.5001 29.656 24.0138C29.656 25.5276 28.4174 26.7661 27.0413 26.7661Z" fill="white"/>
<rect x="0.5" y="0.5" width="44" height="44" rx="22" stroke="#EFF0F5"/>
</svg>
