<svg width="38" height="42" viewBox="0 0 38 42" fill="none" xmlns="http://www.w3.org/2000/svg">
<path fill-rule="evenodd" clip-rule="evenodd" d="M10.5208 0.166626L27.9812 0.166626C34.4167 0.166626 38 3.87496 38 10.2291L38 31.75C38 38.2083 34.4167 41.8333 27.9812 41.8333H10.5208C4.1875 41.8333 0.5 38.2083 0.5 31.75L0.5 10.2291C0.5 3.87496 4.1875 0.166626 10.5208 0.166626ZM11.0833 9.87496V9.85413H17.3104C18.2083 9.85413 18.9375 10.5833 18.9375 11.477C18.9375 12.3958 18.2083 13.125 17.3104 13.125H11.0833C10.1854 13.125 9.45833 12.3958 9.45833 11.5C9.45833 10.6041 10.1854 9.87496 11.0833 9.87496ZM11.0833 22.5416L27.4167 22.5416C28.3125 22.5416 29.0417 21.8125 29.0417 20.9166C29.0417 20.0208 28.3125 19.2895 27.4167 19.2895L11.0833 19.2895C10.1854 19.2895 9.45833 20.0208 9.45833 20.9166C9.45833 21.8125 10.1854 22.5416 11.0833 22.5416ZM11.0833 32.0625H27.4167C28.2479 31.9791 28.875 31.2687 28.875 30.4375C28.875 29.5833 28.2479 28.875 27.4167 28.7916L11.0833 28.7916C10.4583 28.7291 9.85417 29.0208 9.52083 29.5625C9.1875 30.0833 9.1875 30.7708 9.52083 31.3125C9.85417 31.8333 10.4583 32.1458 11.0833 32.0625Z" fill="white"/>
</svg>
