<svg width="22" height="25" viewBox="0 0 22 25" fill="none" xmlns="http://www.w3.org/2000/svg">
<path d="M19.3536 7.10852C19.3494 6.65707 19.2647 6.21125 19.1047 5.79784C18.9447 5.38443 18.7126 5.01195 18.4225 4.70279C17.2634 3.45868 15.3864 3.5055 14.2384 4.80716L12.4236 6.86485C12.0461 6.475 11.5509 6.26484 11.0404 6.27797C10.53 6.29109 10.0436 6.5265 9.68218 6.93535L9.10092 7.59439C8.85319 7.87591 8.71406 8.25735 8.71406 8.65503C8.71406 9.05271 8.85319 9.43415 9.10092 9.71567L9.27118 9.90871L5.10848 14.6284C4.72798 15.0615 4.44624 15.5932 4.28761 16.1775C4.12898 16.7618 4.09825 17.3811 4.19805 17.9819L3.38917 20.0827C3.29684 20.3199 3.27016 20.5832 3.31264 20.838C3.35512 21.0927 3.46477 21.3268 3.62709 21.5093C3.74925 21.6489 3.89454 21.7597 4.05459 21.8353C4.21465 21.911 4.38631 21.9501 4.55972 21.9503C4.74291 21.95 4.92408 21.9068 5.09185 21.8234L6.82816 20.964C7.35804 21.0772 7.90426 21.0423 8.4196 20.8624C8.93494 20.6826 9.40388 20.3631 9.7859 19.9317L13.9486 15.212L14.1188 15.405C14.3671 15.6859 14.7035 15.8437 15.0543 15.8437C15.405 15.8437 15.7414 15.6859 15.9897 15.405L16.571 14.746C16.9316 14.3362 17.1392 13.7847 17.1508 13.206C17.1624 12.6273 16.977 12.0657 16.6332 11.6378L18.4821 9.54149C18.7644 9.22346 18.9872 8.84401 19.137 8.42592C19.2868 8.00782 19.3604 7.55972 19.3536 7.10852ZM8.85044 18.871C8.60363 19.1497 8.29667 19.3502 7.9602 19.4524C7.62374 19.5546 7.26951 19.5551 6.93285 19.4536C6.78822 19.4099 6.63478 19.423 6.49758 19.4909L4.72223 20.3697L5.49729 18.3567C5.55716 18.2012 5.56875 18.0272 5.53015 17.8632C5.44071 17.4815 5.4411 17.0799 5.53125 16.6984C5.62141 16.3169 5.7982 15.9689 6.04399 15.689L10.2066 10.9693L13.0131 14.1513L8.85044 18.871Z" fill="#18224E"/>
</svg>
