<svg width="32" height="32" viewBox="0 0 32 32" fill="none" xmlns="http://www.w3.org/2000/svg">
<path d="M16 21C20.9706 21 25 16.9706 25 12C25 7.02944 20.9706 3 16 3C11.0294 3 7 7.02944 7 12C7 16.9706 11.0294 21 16 21Z" stroke="black" stroke-width="2" stroke-miterlimit="10"/>
<path d="M8.64844 17.193L9.71481 16.5492C9.82906 16.4803 9.91966 16.3782 9.97462 16.2566C10.0296 16.135 10.0463 15.9996 10.0225 15.8682L9.41693 12.5178C9.39034 12.3707 9.4146 12.2188 9.48572 12.0873L10.4875 10.235C10.529 10.1582 10.5854 10.0905 10.6534 10.0356L12.1868 8.79904C12.2884 8.71702 12.4122 8.66711 12.5424 8.65564C12.6725 8.64417 12.8031 8.67166 12.9176 8.73462L13.592 9.10556C13.7314 9.18219 13.8383 9.30664 13.893 9.45593L14.0218 9.80721C14.0651 9.92514 14.1411 10.0282 14.241 10.1044C14.341 10.1805 14.4606 10.2265 14.5857 10.2368C14.7109 10.2472 14.8365 10.2216 14.9475 10.163C15.0586 10.1044 15.1507 10.0152 15.2127 9.90599L15.6554 9.12736C15.6997 9.04947 15.7594 8.98143 15.8309 8.92741C15.9024 8.87339 15.9841 8.83453 16.0712 8.8132C16.1582 8.79186 16.2486 8.78851 16.337 8.80335C16.4254 8.81818 16.5098 8.85089 16.5851 8.89947L17.9364 9.77147C18.0481 9.84351 18.1789 9.8801 18.3117 9.87644C18.4445 9.87277 18.5731 9.82902 18.6806 9.75092C18.7881 9.67283 18.8695 9.56405 18.914 9.43888C18.9586 9.3137 18.9642 9.17797 18.9302 9.04953V9.04953C18.8909 8.90115 18.9047 8.74372 18.9692 8.60442C19.0336 8.46512 19.1447 8.35271 19.2832 8.2866L21.1456 7.39776C21.2763 7.33536 21.3828 7.23162 21.4486 7.10258C21.5144 6.97354 21.5358 6.8264 21.5096 6.68395L21.1258 4.60205" stroke="black" stroke-width="2" stroke-linecap="round" stroke-linejoin="round"/>
<path d="M21.9464 18.755L20.5806 17.3865C20.5195 17.3252 20.4468 17.2766 20.3668 17.2434C20.2868 17.2102 20.2011 17.1932 20.1145 17.1932H19.0424C18.9478 17.1932 18.8543 17.1728 18.7683 17.1334C18.6823 17.094 18.6058 17.0366 18.5439 16.965C18.4821 16.8934 18.4364 16.8093 18.41 16.7185C18.3836 16.6276 18.377 16.5322 18.3908 16.4386L18.614 14.9228C18.6292 14.8198 18.6685 14.7219 18.7288 14.6371C18.7891 14.5522 18.8687 14.4829 18.961 14.4348L21.1981 13.2676C21.3166 13.2057 21.4512 13.1814 21.5839 13.1979C21.7165 13.2143 21.8411 13.2708 21.9409 13.3597L24.3071 15.4678" stroke="black" stroke-width="2" stroke-linecap="round" stroke-linejoin="round"/>
<path d="M25.1924 21.1914C22.7544 23.6294 19.4478 24.999 16 24.999C12.5522 24.999 9.24559 23.6294 6.80761 21.1914C4.36964 18.7534 3 15.4468 3 11.999C3 8.55121 4.36964 5.24461 6.80761 2.80664" stroke="black" stroke-width="2" stroke-linecap="round" stroke-linejoin="round"/>
<path d="M12 28.999H20" stroke="black" stroke-width="2" stroke-linecap="round" stroke-linejoin="round"/>
<path d="M16 24.999V28.999" stroke="black" stroke-width="2" stroke-linecap="round" stroke-linejoin="round"/>
</svg>
