<svg width="31" height="32" viewBox="0 0 31 32" fill="none" xmlns="http://www.w3.org/2000/svg">
<g id="Group">
<path id="Vector" d="M30.5001 16.3492C30.5014 15.3063 30.4132 14.2652 30.2365 13.2373H15.8037V19.1316H24.0702C23.901 20.073 23.543 20.9704 23.0177 21.7697C22.4923 22.569 21.8106 23.2537 21.0136 23.7824V27.6085H25.9471C28.8358 24.9451 30.5001 21.0064 30.5001 16.3492Z" fill="#4285F4"/>
<path id="Vector_2" d="M15.8039 31.3049C19.9339 31.3049 23.4114 29.9488 25.9472 27.6106L21.0137 23.7846C19.6406 24.7156 17.8721 25.247 15.8039 25.247C11.812 25.247 8.42378 22.556 7.21219 18.9297H2.12988V22.8727C3.40368 25.4074 5.35692 27.5382 7.77152 29.0272C10.1861 30.5162 12.9671 31.3048 15.8039 31.3049Z" fill="#34A853"/>
<path id="Vector_3" d="M7.21194 18.93C6.57142 17.0299 6.57142 14.9721 7.21194 13.0719V9.12891H2.12964C1.05807 11.2612 0.5 13.6146 0.5 16.001C0.5 18.3874 1.05807 20.7407 2.12964 22.873L7.21194 18.93Z" fill="#FBBC04"/>
<path id="Vector_4" d="M15.8039 6.75427C17.9864 6.71862 20.0953 7.54325 21.6748 9.04992L26.0429 4.68181C23.273 2.08024 19.6036 0.651936 15.8039 0.696317C12.9671 0.696446 10.1861 1.48503 7.77152 2.97403C5.35692 4.46303 3.40368 6.59384 2.12988 9.12857L7.21219 13.0716C8.42378 9.44528 11.812 6.75427 15.8039 6.75427Z" fill="#EA4335"/>
</g>
</svg>
