<svg width="25" height="25" viewBox="0 0 25 25" fill="none" xmlns="http://www.w3.org/2000/svg">
<path d="M22.3854 10.6145L21.3437 10.0416L11.9687 4.83325H11.8542C11.7903 4.80625 11.724 4.78532 11.6562 4.77075H11.4583H11.2708C11.1997 4.78533 11.1299 4.80625 11.0625 4.83325H10.9479L1.57292 10.0416C1.41261 10.1324 1.27926 10.2642 1.18649 10.4234C1.09372 10.5826 1.04485 10.7636 1.04485 10.9478C1.04485 11.1321 1.09372 11.3131 1.18649 11.4723C1.27926 11.6315 1.41261 11.7632 1.57292 11.8541L4.16667 13.2916V18.2291C4.16667 19.0579 4.49591 19.8527 5.08196 20.4388C5.66801 21.0248 6.46286 21.3541 7.29167 21.3541H15.625C16.4538 21.3541 17.2487 21.0248 17.8347 20.4388C18.4208 19.8527 18.75 19.0579 18.75 18.2291V13.2916L20.8333 12.1249V15.1041C20.8333 15.3804 20.9431 15.6453 21.1384 15.8407C21.3338 16.036 21.5987 16.1458 21.875 16.1458C22.1513 16.1458 22.4162 16.036 22.6116 15.8407C22.8069 15.6453 22.9167 15.3804 22.9167 15.1041V11.5208C22.9163 11.3362 22.867 11.155 22.7736 10.9958C22.6803 10.8365 22.5463 10.7049 22.3854 10.6145ZM16.6667 18.2291C16.6667 18.5054 16.5569 18.7703 16.3616 18.9657C16.1662 19.161 15.9013 19.2708 15.625 19.2708H7.29167C7.0154 19.2708 6.75045 19.161 6.5551 18.9657C6.35975 18.7703 6.25 18.5054 6.25 18.2291V14.4478L10.9479 17.052L11.1042 17.1145H11.1979C11.2844 17.1254 11.3719 17.1254 11.4583 17.1145C11.5448 17.1254 11.6323 17.1254 11.7188 17.1145H11.8125C11.8678 17.1028 11.9207 17.0817 11.9687 17.052L16.6667 14.4478V18.2291ZM11.4583 14.9583L4.22917 10.9374L11.4583 6.91659L18.6875 10.9374L11.4583 14.9583Z" fill="#80E0C6"/>
</svg>
