<svg width="35" height="35" viewBox="0 0 35 35" fill="none" xmlns="http://www.w3.org/2000/svg">
<rect y="5" width="35" height="25" rx="5" fill="#353E64"/>
<path d="M17.5 27C22.7467 27 27 22.7467 27 17.5C27 12.2533 22.7467 8 17.5 8C12.2533 8 8 12.2533 8 17.5C8 22.7467 12.2533 27 17.5 27Z" fill="#8B91A7"/>
<path fill-rule="evenodd" clip-rule="evenodd" d="M17.4999 13.0297C15.3248 13.0297 13.5614 14.793 13.5614 16.9682C13.5614 19.1434 15.3248 20.9067 17.4999 20.9067C19.6751 20.9067 21.4385 19.1434 21.4385 16.9682C21.4385 14.793 19.6751 13.0297 17.4999 13.0297ZM12.3452 16.9682C12.3452 14.1213 14.6531 11.8135 17.4999 11.8135C20.3468 11.8135 22.6547 14.1213 22.6547 16.9682C22.6547 19.8151 20.3468 22.1229 17.4999 22.1229C14.6531 22.1229 12.3452 19.8151 12.3452 16.9682Z" fill="#353E64"/>
<path fill-rule="evenodd" clip-rule="evenodd" d="M12.0952 16.9682C12.0952 13.9833 14.515 11.5635 17.4999 11.5635C20.4849 11.5635 22.9047 13.9833 22.9047 16.9682C22.9047 19.9531 20.4849 22.3729 17.4999 22.3729C14.515 22.3729 12.0952 19.9531 12.0952 16.9682ZM17.4999 12.0635C14.7911 12.0635 12.5952 14.2594 12.5952 16.9682C12.5952 19.677 14.7911 21.8729 17.4999 21.8729C20.2087 21.8729 22.4047 19.677 22.4047 16.9682C22.4047 14.2594 20.2087 12.0635 17.4999 12.0635ZM17.4999 13.2797C15.4628 13.2797 13.8114 14.9311 13.8114 16.9682C13.8114 19.0053 15.4628 20.6567 17.4999 20.6567C19.5371 20.6567 21.1885 19.0053 21.1885 16.9682C21.1885 14.9311 19.5371 13.2797 17.4999 13.2797ZM13.3114 16.9682C13.3114 14.6549 15.1867 12.7797 17.4999 12.7797C19.8132 12.7797 21.6885 14.6549 21.6885 16.9682C21.6885 19.2815 19.8132 21.1567 17.4999 21.1567C15.1867 21.1567 13.3114 19.2815 13.3114 16.9682Z" fill="#353E64"/>
<path fill-rule="evenodd" clip-rule="evenodd" d="M17.5 22.1229C16.21 22.1229 14.9426 22.4624 13.8253 23.1073C12.708 23.7521 11.7801 24.6796 11.1347 25.7967C10.9667 26.0875 10.5948 26.187 10.304 26.019C10.0132 25.851 9.91365 25.4791 10.0817 25.1883C10.8338 23.8864 11.9152 22.8054 13.2174 22.0539C14.5196 21.3024 15.9966 20.9067 17.5 20.9067C19.0035 20.9068 20.4805 21.3024 21.7827 22.054C23.0848 22.8056 24.1663 23.8866 24.9183 25.1884C25.0863 25.4792 24.9868 25.8512 24.696 26.0192C24.4052 26.1872 24.0332 26.0876 23.8652 25.7968C23.2199 24.6798 22.292 23.7522 21.1747 23.1073C20.0574 22.4624 18.7901 22.123 17.5 22.1229Z" fill="#353E64"/>
<path fill-rule="evenodd" clip-rule="evenodd" d="M13.0924 21.8374C14.4326 21.0639 15.9527 20.6567 17.5 20.6567C19.0474 20.6568 20.5675 21.064 21.9076 21.8375C23.2478 22.611 24.3608 23.7235 25.1348 25.0634C25.3719 25.4737 25.2314 25.9986 24.821 26.2356C24.4107 26.4727 23.8858 26.3322 23.6488 25.9219C23.0254 24.8428 22.129 23.9468 21.0497 23.3239C19.9704 22.7009 18.7462 22.373 17.5 22.3729C16.2538 22.3729 15.0296 22.7009 13.9503 23.3238C12.871 23.9467 11.9746 24.8427 11.3512 25.9217C11.1141 26.3321 10.5893 26.4726 10.1789 26.2355C9.76856 25.9984 9.62809 25.4736 9.86517 25.0632C10.6392 23.7234 11.7522 22.6109 13.0924 21.8374ZM17.5 21.1567C16.0404 21.1567 14.6065 21.5408 13.3423 22.2704C12.0782 23 11.0283 24.0495 10.2981 25.3133C10.1992 25.4846 10.2578 25.7036 10.429 25.8025L10.3059 26.0157L10.429 25.8025C10.6003 25.9015 10.8193 25.8429 10.9183 25.6716C11.5855 24.5166 12.545 23.5575 13.7004 22.8907C14.8557 22.2239 16.1661 21.8729 17.5 21.8729C18.8339 21.873 20.1444 22.224 21.2997 22.8908C22.455 23.5576 23.4144 24.5167 24.0817 25.6717C24.1806 25.843 24.3997 25.9016 24.5709 25.8027C24.7422 25.7038 24.8008 25.4847 24.7018 25.3135C23.9717 24.0496 22.9218 23.0002 21.6577 22.2705C20.3935 21.5409 18.9596 21.1568 17.5 21.1567Z" fill="#353E64"/>
</svg>
