<svg width="40" height="40" viewBox="0 0 40 40" fill="none" xmlns="http://www.w3.org/2000/svg">
<path d="M32.4991 12.5H26.8741V8.125C26.8741 6.30164 26.1498 4.55295 24.8605 3.26364C23.5712 1.97433 21.8225 1.25 19.9991 1.25C18.1758 1.25 16.4271 1.97433 15.1378 3.26364C13.8485 4.55295 13.1241 6.30164 13.1241 8.125V12.5H7.49915C6.83634 12.5008 6.20089 12.7644 5.73222 13.2331C5.26354 13.7017 4.9999 14.3372 4.99915 15V32.5C4.9999 33.1628 5.26354 33.7983 5.73222 34.2669C6.20089 34.7356 6.83634 34.9992 7.49915 35H32.4991C33.162 34.9992 33.7974 34.7356 34.2661 34.2669C34.7348 33.7983 34.9984 33.1628 34.9991 32.5V15C34.9984 14.3372 34.7348 13.7017 34.2661 13.2331C33.7974 12.7644 33.162 12.5008 32.4991 12.5V12.5ZM15.6241 8.125C15.6241 6.96468 16.0851 5.85188 16.9056 5.03141C17.726 4.21094 18.8388 3.75 19.9991 3.75C21.1595 3.75 22.2723 4.21094 23.0927 5.03141C23.9132 5.85188 24.3741 6.96468 24.3741 8.125V12.5H15.6241V8.125Z" fill="#4F46E5"/>
</svg>
