<svg width="240" height="20" viewBox="0 0 240 20" fill="none" xmlns="http://www.w3.org/2000/svg">
<g clip-path="url(#clip0_1917_10351)">
<path d="M0 19.5139V0.290527H5.25074L10.2063 7.29859L15.1354 0.290527H20.3282V19.5139H14.8666V13.2451C14.8666 11.7295 14.8929 10.0606 14.9193 8.72978L14.8666 8.70337C14.0705 9.92331 13.1954 11.1749 12.3466 12.3949L10.0692 15.6322L7.7654 12.3949C6.89028 11.1749 6.04152 9.92331 5.24547 8.70337L5.19275 8.72978C5.21911 10.0553 5.24547 11.7295 5.24547 13.2451V19.5139H0Z" fill="white"/>
<path d="M28.6524 0.290527H41.1624V4.91152H34.114V7.35668H40.0764V11.7136H34.114V14.8981H41.484V19.5191H28.6576V0.290527H28.6524Z" fill="white"/>
<path d="M54.0679 4.91152H47.9736V0.290527H65.6237V4.91152H59.5295V19.5139H54.0679V4.91152Z" fill="white"/>
<path d="M76.4679 0.290527H81.8504L89.6158 19.5139H83.6797L82.3302 15.5847H75.7562L74.3486 19.5139H68.7025L76.4679 0.290527ZM79.0669 6.13146C78.6979 7.3514 78.3236 8.46572 77.8755 9.71735L77.2112 11.5499H80.9226L80.2847 9.71735C79.8313 8.41819 79.4886 7.325 79.1196 6.13146H79.0669Z" fill="white"/>
<path d="M92.4785 0.290527H98.3355L100.987 7.80558C101.546 9.40048 102.073 10.9373 102.579 12.4794H102.632C103.164 10.9109 103.744 9.26845 104.303 7.75277L107.034 0.290527H112.654L105.31 19.5139H99.8221L92.4785 0.290527Z" fill="white"/>
<path d="M119.27 0.290527H131.78V4.91152H124.731V7.35668H130.694V11.7136H124.731V14.8981H132.101V19.5191H119.275V0.290527H119.27Z" fill="white"/>
<path d="M139.841 0.290527H146.546C148.876 0.290527 150.6 0.58099 151.929 1.24641C153.785 2.14949 155.029 3.77079 155.029 6.26349C155.029 8.62415 153.89 10.4303 151.502 11.439L156.589 19.5086H150.416L146.151 12.2048H145.302V19.5086H139.841V0.290527ZM146.652 8.471C147.659 8.471 148.376 8.33897 148.797 8.07492C149.303 7.78445 149.567 7.27747 149.567 6.55923C149.567 5.73537 149.198 5.23367 148.639 4.96433C148.191 4.75308 147.553 4.64746 146.309 4.64746H145.302V8.471H146.652Z" fill="white"/>
<path d="M162.82 13.3033C165.203 14.6816 167.908 15.2678 169.236 15.2678C170.349 15.2678 171.145 14.8718 171.145 13.8895C171.145 12.5111 169.605 12.5111 167.17 11.6608C164.254 10.6521 162.241 9.21567 162.241 6.11036C162.241 2.36604 165.129 0.00537109 169.421 0.00537109C171.408 0.00537109 173.875 0.51236 175.678 1.41015V6.45363C173.369 5.15448 170.828 4.54186 169.473 4.54186C168.467 4.54186 167.776 4.85873 167.776 5.70899C167.776 6.95534 169.263 6.95534 171.593 7.7792C174.587 8.8407 176.68 10.33 176.68 13.5673C176.68 17.4437 173.633 19.8096 169.178 19.8096C167.217 19.8096 164.75 19.3607 162.815 18.4312V13.3085L162.82 13.3033Z" fill="white"/>
<path d="M184.103 0.290527H189.564V19.5139H184.103V0.290527Z" fill="white"/>
<path d="M202.628 4.91152H196.534V0.290527H214.189V4.91152H208.095V19.5139H202.633V4.91152H202.628Z" fill="white"/>
<path d="M227.121 10.9109L219.672 0.290527H226.035L227.785 2.99975C228.502 4.08766 229.245 5.25479 229.904 6.34799H229.957C230.648 5.23367 231.333 4.11935 232.024 3.05784L233.8 0.295808H240L232.577 10.8105V19.5191H227.116V10.9109H227.121Z" fill="white"/>
</g>
<defs>
<clipPath id="clip0_1917_10351">
<rect width="240" height="19.8095" fill="white"/>
</clipPath>
</defs>
</svg>
