<svg width="320" height="202" viewBox="0 0 320 202" fill="none" xmlns="http://www.w3.org/2000/svg">
<g clip-path="url(#clip0_2084_9796)">
<path d="M320 0H0V201.657H320V0Z" fill="white"/>
<path d="M-5.75933 216.029V162.196H326.298V216.029H-5.75933ZM150.927 108.692C140.408 104.155 103.498 86.4563 67.5477 48.0474C45.1808 24.1552 27.3899 -3.28731 14.6877 -33.5306C-0.95986 -70.7561 -8.88885 -112.321 -8.88885 -157.055L-8.67847 -211.545L-6.70608 -212.676C44.05 -241.696 101.578 -257.068 159.645 -257.107H159.869C218.291 -257.107 275.858 -241.999 326.364 -213.425L328.665 -212.124L328.876 -157.028C328.876 -112.321 320.907 -70.7824 305.194 -33.5437C292.439 -3.3136 274.569 24.142 252.11 48.0342C216.016 86.4168 178.935 104.142 168.429 108.652L159.645 112.268L150.914 108.679L150.927 108.692Z" fill="#006937"/>
<path d="M159.882 -253.149C216.423 -253.149 273.57 -238.764 324.431 -209.98L324.747 -209.809L324.786 -198.895L324.944 -157.002C324.944 -112.847 317.081 -71.8211 301.578 -35.069C288.994 -5.27281 271.4 21.7883 249.257 45.3386C213.754 83.1033 177.436 100.513 166.89 105.036L159.671 108.008L152.439 105.036C141.946 100.513 105.799 83.1164 70.4405 45.3386C48.3761 21.8015 30.8481 -5.25967 18.3301 -35.0559C2.8797 -71.808 -4.9441 -112.82 -4.9441 -157.055L-4.78631 -198.882L-4.74686 -209.244C46.3642 -238.475 102.696 -253.11 159.645 -253.149C159.724 -253.149 159.79 -253.149 159.869 -253.149M322.354 166.141V212.084H-1.81458V166.141H322.354ZM159.882 -261.039H159.645C100.894 -260.999 42.6956 -245.457 -8.65219 -216.095L-12.6101 -213.833V-209.283L-12.6627 -198.922L-12.8205 -157.094C-12.8205 -111.808 -4.78631 -69.7304 11.0717 -32.0052C23.9316 -1.32804 41.9724 26.5089 64.668 50.743C101.144 89.7042 138.672 107.705 149.297 112.281L149.362 112.308L149.428 112.334L156.66 115.306L159.658 116.542L162.656 115.306L169.875 112.334L169.928 112.308L169.98 112.281C180.657 107.692 218.37 89.6779 254.977 50.7298C277.765 26.4958 295.884 -1.35435 308.823 -32.0184C324.747 -69.7436 332.821 -111.795 332.821 -157.015L332.663 -198.948L332.623 -209.862V-214.438L328.626 -216.7L328.31 -216.87C277.226 -245.786 218.974 -261.065 159.869 -261.065L159.882 -261.039ZM330.243 158.251H-9.70413V219.974H330.243V158.251Z" fill="#FFDD00"/>
<path d="M159.882 -253.149C216.423 -253.149 273.57 -238.764 324.431 -209.98L324.747 -209.809L324.786 -198.895L324.944 -157.002C324.944 -112.847 317.081 -71.8211 301.578 -35.069C288.994 -5.2728 271.4 21.7883 249.257 45.3386C213.754 83.1033 177.436 100.513 166.89 105.036L159.671 108.008L152.439 105.036C141.946 100.513 105.799 83.1164 70.4405 45.3386C48.3761 21.8015 30.8481 -5.25966 18.3301 -35.0558C2.87971 -71.808 -4.94409 -112.82 -4.94409 -157.055L-4.7863 -198.882L-4.74685 -209.244C46.3643 -238.475 102.696 -253.11 159.645 -253.149C159.724 -253.149 159.79 -253.149 159.869 -253.149M322.354 166.141V212.084H-1.81457V166.141H322.354ZM159.882 -257.094H159.658C101.591 -257.055 44.0631 -241.696 -6.69294 -212.663L-8.66533 -211.532V-209.257L-8.71793 -198.895L-8.87572 -157.068C-8.88887 -112.321 -0.95987 -70.756 14.6877 -33.5305C27.3899 -3.28727 45.1808 24.1552 67.5477 48.0474C103.498 86.4563 140.408 104.155 150.861 108.665H150.888L150.914 108.692L158.146 111.663L159.645 112.281L161.144 111.663L168.363 108.692C178.922 104.155 216.016 86.43 252.097 48.0474C274.569 24.1552 292.426 -3.30042 305.181 -33.5305C320.894 -70.7692 328.863 -112.308 328.863 -156.989L328.705 -198.895L328.665 -209.809V-212.097L326.667 -213.228L326.351 -213.399C275.858 -241.972 218.277 -257.081 159.855 -257.081L159.882 -257.094ZM326.298 162.196H-5.75935V216.029H326.298V162.196Z" fill="#0C3027"/>
<path d="M175.253 20.5391V19.5266L175.227 19.5135C170.506 16.8442 165.22 15.5161 159.974 15.5161C154.701 15.5161 149.494 16.8705 144.76 19.5792V20.5391V24.405C144.747 28.4944 145.47 32.2945 146.903 35.7002C148.061 38.4615 149.691 40.9599 151.729 43.1427C155.003 46.6404 158.343 48.2446 159.316 48.6654L159.987 48.9415L160.658 48.6654C161.631 48.2446 164.997 46.6404 168.284 43.1427C170.335 40.9599 171.966 38.4615 173.123 35.7002C174.556 32.2945 175.293 28.5076 175.293 24.4182V20.5391H175.253ZM150.375 20.6838L147.968 33.6095C146.995 30.7955 146.496 27.7186 146.496 24.4182V20.6312C147.863 19.9211 149.283 19.3162 150.717 18.8166L150.375 20.6706V20.6838ZM152.952 41.9329C152.413 41.3544 151.519 40.4471 150.888 39.5924L152.518 30.7824L152.636 30.1249L152.715 29.691L158.856 46.5089C157.462 45.7725 155.187 44.3393 152.939 41.9329H152.952ZM159.947 38.3695L152.597 18.2512C154.99 17.62 157.475 17.2913 159.961 17.2913H159.974C162.459 17.2913 164.931 17.6068 167.324 18.2249L159.961 38.3695H159.947ZM166.956 41.9329C164.707 44.3261 162.42 45.7725 161.039 46.5089L167.18 29.691L167.258 30.1249L167.377 30.7824L169.007 39.5924C168.376 40.4471 167.482 41.3675 166.943 41.9329H166.956ZM172.005 33.5963L169.599 20.6706L169.257 18.8166C170.704 19.3031 172.11 19.908 173.465 20.6312V24.4182C173.478 27.7055 172.978 30.7955 172.005 33.6095V33.5963Z" fill="#FFDD00"/>
<path d="M143.524 74.8719C142.696 73.7673 141.723 73.6621 141.21 73.6621C139.724 73.6621 139.264 74.5957 139.264 75.3189C139.264 75.6608 139.369 75.9764 139.711 76.2657C140.053 76.5813 140.513 76.7522 141.407 77.0678C142.512 77.4491 143.55 77.8304 144.26 78.4879C144.892 79.0533 145.47 80.0132 145.47 81.4596C145.47 84.2078 143.485 86.1013 140.552 86.1013C137.949 86.1013 136.423 84.5103 135.687 83.432L137.489 81.7226C138.172 83.1033 139.461 83.603 140.46 83.603C141.709 83.603 142.643 82.8403 142.643 81.6569C142.643 81.1441 142.472 80.7496 142.091 80.3814C141.565 79.8949 140.71 79.6187 139.908 79.3426C139.172 79.0928 138.278 78.7509 137.554 78.1197C137.094 77.7121 136.437 76.9363 136.437 75.4899C136.437 73.4123 137.83 71.3347 140.973 71.3347C141.867 71.3347 143.537 71.5057 144.97 72.9915L143.524 74.8719Z" fill="#FFDD00"/>
<path d="M163.419 82.8139H157.725L156.476 85.7856H153.491L159.566 71.6633H161.723L167.627 85.7856H164.655L163.406 82.8139H163.419ZM162.617 80.5654L160.605 75.4766L158.593 80.5654H162.617Z" fill="#FFDD00"/>
<path d="M184.116 74.0304H179.027V77.1862H183.892V79.5531H179.027V83.4058H184.116V85.7727H176.279V71.6504H184.116V74.0173V74.0304Z" fill="#FFDD00"/>
<path d="M152.137 74.0302V85.7856H149.389V74.0302H145.786V71.6633H155.713V74.0302H152.137Z" fill="#FFDD00"/>
<path d="M171.716 74.0302V85.7856H168.968V74.0302H165.365V71.6633H175.293V74.0302H171.716Z" fill="#FFDD00"/>
<path d="M143.34 54.2012C138.895 54.2012 135.805 57.2912 135.805 61.591C135.805 65.8908 138.895 68.9678 143.34 68.9678C147.784 68.9678 150.874 65.8908 150.874 61.591C150.874 57.2912 147.784 54.2012 143.34 54.2012ZM143.34 66.4694C140.592 66.4694 138.633 64.4576 138.633 61.6042C138.633 58.7508 140.579 56.7127 143.34 56.7127C146.101 56.7127 148.047 58.7508 148.047 61.6042C148.047 64.4576 146.101 66.4694 143.34 66.4694Z" fill="#FFDD00"/>
<path d="M176.594 54.2012C172.15 54.2012 169.06 57.2912 169.06 61.591C169.06 65.8908 172.15 68.9678 176.594 68.9678C181.039 68.9678 184.129 65.8908 184.129 61.591C184.129 57.2912 181.039 54.2012 176.594 54.2012ZM176.594 66.4694C173.846 66.4694 171.887 64.4576 171.887 61.6042C171.887 58.7508 173.833 56.7127 176.594 56.7127C179.356 56.7127 181.302 58.7508 181.302 61.6042C181.302 64.4576 179.356 66.4694 176.594 66.4694Z" fill="#FFDD00"/>
<path d="M121.341 54.5298H123.327L127.074 63.5107L130.993 54.5298H132.978L133.162 55.6475L135.345 68.6652H134.07C133.189 68.6652 132.452 68.0209 132.321 67.1531L131.269 59.9604L127.666 68.2444C127.548 68.5074 127.298 68.6652 127.022 68.6652C126.732 68.6652 126.483 68.4943 126.377 68.2313L122.932 59.9604L121.736 67.1925C121.591 68.0472 120.855 68.6652 120 68.6652H118.698L121.328 54.5429L121.341 54.5298Z" fill="#FFDD00"/>
<path d="M198.659 68.6523H196.673L192.926 59.6714L189.007 68.6523H187.022L186.838 67.5346L184.655 54.5168H185.93C186.811 54.5168 187.548 55.1612 187.679 56.029L188.731 63.2216L192.334 54.9376C192.452 54.6746 192.702 54.5168 192.978 54.5168C193.268 54.5168 193.517 54.6878 193.623 54.9508L197.068 63.2216L198.264 55.9896C198.409 55.1349 199.145 54.5168 200 54.5168H201.302L198.672 68.6391L198.659 68.6523Z" fill="#FFDD00"/>
<path d="M149.546 54.6087C150.23 55.2267 150.993 56.1077 151.44 56.8966H153.268V68.6521H156.016V56.8966H159.592V54.5298H149.573C149.573 54.5298 149.507 54.5824 149.546 54.6087Z" fill="#FFDD00"/>
<path d="M168.481 66.2852H163.314V54.5298H160.565V68.6521H170.427C170.427 68.6521 170.454 68.6258 170.441 68.6126C169.665 67.9552 169.007 67.1794 168.494 66.2852H168.481Z" fill="#FFDD00"/>
<path d="M159.961 38.3695L167.324 18.2249C164.931 17.6068 162.472 17.2913 159.974 17.2913H159.961C157.475 17.2913 155.003 17.62 152.597 18.2512L159.947 38.3695H159.961Z" fill="#1A5632"/>
<path d="M152.531 30.7823L152.65 30.1248L152.728 29.6909L158.869 46.5088C157.475 45.7724 155.201 44.3392 152.952 41.9329C152.413 41.3543 151.519 40.447 150.888 39.5923L152.518 30.7823H152.531Z" fill="#00953B"/>
<path d="M150.375 20.6839L150.717 18.8298C149.27 19.3164 147.863 19.9212 146.509 20.6444V24.4314C146.496 27.7187 146.995 30.8088 147.968 33.6227L150.375 20.697V20.6839Z" fill="#006937"/>
<path d="M169.599 20.6839L169.257 18.8298C170.703 19.3164 172.11 19.9212 173.465 20.6444V24.4314C173.478 27.7187 172.978 30.8088 172.005 33.6227L169.599 20.697V20.6839Z" fill="#00953B"/>
<path d="M167.403 30.7823L167.285 30.1248L167.206 29.6909L161.065 46.5088C162.459 45.7724 164.734 44.3392 166.982 41.9329C167.521 41.3543 168.415 40.447 169.047 39.5923L167.416 30.7823H167.403Z" fill="#006937"/>
<path d="M253.255 160.855L253.268 160.842H253.255V160.855Z" fill="#FFDD00"/>
<path d="M279.487 70.743C278.159 70.8481 276.831 70.7693 275.503 70.7035C274.346 70.6378 273.189 70.5326 272.032 70.3748C271.427 70.2959 270.822 70.217 270.23 70.0723C269.967 70.0066 269.941 69.9671 270.046 69.7305C270.243 69.2571 270.454 68.7969 270.677 68.3498C270.743 68.2314 270.822 68.1789 270.953 68.1657C271.584 68.1263 272.216 68.0868 272.834 67.9816C274.214 67.7581 275.516 67.311 276.713 66.6009C276.765 66.5615 276.857 66.5615 276.857 66.4563C275.201 66.4037 273.557 66.3643 271.874 66.1933C273.044 64.2341 274.306 62.38 275.687 60.5786C275.621 60.5786 275.608 60.5523 275.582 60.5654C275.542 60.5654 275.503 60.5917 275.45 60.6049C274.017 61.0651 272.755 61.8146 271.65 62.8271C270.743 63.6687 269.98 64.6286 269.323 65.6673C269.204 65.8514 269.086 65.8909 268.889 65.8646C267.758 65.6805 266.627 65.4833 265.51 65.2071C265.155 65.1151 264.799 65.023 264.458 64.9178C264.247 64.8521 264.234 64.7995 264.326 64.6023C264.352 64.5365 264.392 64.4839 264.418 64.4313C264.721 63.9185 265.023 63.432 265.365 62.9455C267.009 60.5654 268.981 58.4747 271.19 56.6075C271.269 56.5418 271.374 56.4892 271.427 56.384C271.387 56.3708 271.374 56.3445 271.348 56.3445C271.19 56.3708 271.045 56.384 270.888 56.4103C269.375 56.6733 267.995 57.2781 266.732 58.146C265.273 59.1453 264.076 60.4076 262.998 61.8015C262.88 61.9593 262.788 62.1302 262.59 62.288C262.63 62.1565 262.643 62.0645 262.669 61.9724C262.906 61.1835 263.195 60.4076 263.537 59.645C264.3 57.883 265.26 56.2262 266.259 54.5957C266.325 54.5036 266.404 54.4116 266.417 54.2538C266.312 54.3064 266.246 54.3327 266.18 54.3721C264.681 55.1348 263.445 56.1867 262.419 57.5148C261.013 59.3557 260.197 61.4464 259.711 63.695C259.606 64.1552 259.619 64.1552 259.145 64.1289C257.817 64.05 256.489 64.1552 255.201 64.5234C255.135 64.5365 255.056 64.5891 254.977 64.5234C254.977 64.3393 254.977 64.1552 255.016 63.9711C255.266 62.6693 255.621 61.3938 256.082 60.1447C257.055 57.4754 258.527 55.0954 260.329 52.9126C260.684 52.4787 261.052 52.0579 261.42 51.624C261.381 51.6108 261.368 51.5977 261.341 51.5977C261.275 51.6108 261.21 51.624 261.144 51.6502C260.408 51.8869 259.724 52.2157 259.08 52.6233C257.633 53.5174 256.437 54.7009 255.437 56.0684C253.189 59.1453 251.913 62.6036 251.506 66.3906C251.335 67.9816 251.506 69.5201 252.058 71.0322C252.071 71.0848 252.124 71.1243 252.058 71.2032C250.546 70.5852 249.02 69.9934 247.403 69.6253C247.403 69.6779 247.377 69.7173 247.377 69.7436C247.442 71.0059 247.535 72.2551 247.798 73.5043C248.205 75.4372 249.218 76.9625 250.888 78.0408C250.927 78.0671 250.966 78.0802 250.953 78.1723C250.927 78.2249 250.874 78.3038 250.835 78.3827C249.546 80.5654 248.455 82.8271 247.745 85.2597C247.061 87.6003 246.588 89.9803 246.259 92.3998C246.206 92.8205 246.114 93.215 245.759 93.5174C245.628 93.6226 245.536 93.7673 245.431 93.8856C243.734 95.8186 242.472 98.0145 241.512 100.395C241.446 100.565 241.341 100.697 241.21 100.828C240 102.104 238.817 103.406 237.712 104.786C237.594 104.931 237.475 105.036 237.318 105.141C235.871 106.101 234.398 107.022 232.926 107.942C232.86 107.982 232.807 108.047 232.715 108.008C232.61 107.798 232.544 107.574 232.479 107.35C232.242 106.469 232.137 105.575 232.018 104.668C231.887 103.695 231.729 102.722 231.479 101.762C230.677 98.6851 228.692 96.7653 225.694 95.8317C225.47 95.766 225.47 95.766 225.378 95.9764C225.194 96.3708 225.023 96.7653 224.852 97.1598C224.484 97.9882 224.103 98.8166 223.826 99.6713C223.445 100.855 223.287 102.064 223.406 103.3C223.511 104.418 223.84 105.483 224.3 106.509C224.471 106.903 224.392 107.14 224.024 107.364C223.8 107.495 223.563 107.561 223.314 107.627C223.011 107.705 223.011 107.705 223.169 107.982C223.524 108.6 224.024 109.047 224.642 109.375C224.734 109.428 224.852 109.441 224.931 109.546C224.721 109.823 224.497 110.099 224.3 110.388C224.076 110.69 223.918 111.032 223.787 111.387C223.748 111.519 223.734 111.598 223.905 111.611C223.958 111.611 224.011 111.611 224.076 111.624C224.707 111.716 225.312 111.874 225.851 112.216C225.97 112.281 226.101 112.347 226.193 112.466C226.128 112.518 226.088 112.571 226.036 112.61C225.141 113.373 224.379 114.267 223.682 115.214C223.563 115.371 223.471 115.556 223.406 115.74C223.116 116.515 222.853 117.304 222.617 118.093C221.775 120.881 221.17 123.721 220.552 126.562C220.171 128.323 219.803 130.085 219.29 131.821C219.027 132.728 218.725 133.636 218.251 134.477C218.12 134.714 217.949 134.898 217.712 135.043C216.923 135.529 216.16 136.068 215.49 136.726C215.293 136.923 215.161 137.147 215.082 137.423C214.609 139.172 214.109 140.92 213.557 142.643C212.873 144.721 212.097 146.772 211.072 148.705C210.151 150.427 209.047 152.032 207.903 153.596C207.824 153.702 207.758 153.807 207.692 153.899C207.719 153.938 207.732 153.965 207.745 153.978C208.323 154.438 208.376 154.609 208.1 155.279C208.1 155.279 208.1 155.293 208.087 155.306C207.521 156.726 206.89 158.12 206.298 159.513C206.246 159.632 206.18 159.75 206.167 159.895H213.517C213.517 159.895 213.531 159.79 213.517 159.75C213.149 157.738 213.11 155.727 213.439 153.702C214.07 149.901 215.7 146.575 218.37 143.787C218.619 143.537 218.922 143.314 219.106 143.024C219.29 142.722 219.369 142.341 219.5 142.012C219.816 141.197 220.184 140.434 220.75 139.75C221.302 139.093 221.933 138.527 222.59 137.975C223.695 137.055 224.865 136.2 225.983 135.319C226.93 134.583 227.824 133.807 228.521 132.807C229.231 131.769 229.98 130.743 230.611 129.652C230.73 129.441 230.743 129.441 230.966 129.533C231.243 129.652 231.519 129.783 231.795 129.862C231.992 129.928 232.045 130.046 232.071 130.217C232.176 131.177 232.347 132.124 232.439 133.084C232.505 133.833 232.36 134.504 231.9 135.109C231.519 135.608 231.137 136.108 230.717 136.581C230.204 137.16 229.678 137.725 229.204 138.343C228.797 138.882 228.429 139.448 228.205 140.092C228.139 140.302 228.139 140.487 228.205 140.697C229.099 143.379 229.717 146.128 229.849 148.968C229.915 150.467 229.849 151.953 229.652 153.439C229.573 154.043 229.467 154.661 229.375 155.293C229.494 155.319 229.612 155.332 229.73 155.345C230.256 155.424 230.454 155.634 230.467 156.147C230.467 157.278 230.414 158.409 230.309 159.527C230.27 159.961 230.309 159.869 230.611 159.869C232.505 159.869 234.398 159.869 236.292 159.869C236.384 159.869 236.489 159.895 236.581 159.842C236.581 159.724 236.515 159.632 236.463 159.54C235.306 157.002 234.385 154.372 233.846 151.624C233.412 149.481 233.215 147.311 233.346 145.128C233.386 144.352 233.583 143.629 233.925 142.932C234.28 142.222 234.74 141.591 235.253 140.999C236.371 139.711 237.541 138.475 238.738 137.252C238.777 137.212 238.817 137.133 238.935 137.147C240.013 142.617 239.803 148.034 238.343 153.412C238.869 153.649 238.961 153.767 238.922 154.359C238.895 154.819 238.83 155.279 238.751 155.74C238.554 157.081 238.291 158.396 238.001 159.711C238.001 159.763 237.975 159.816 238.014 159.855H244.957C244.918 159.737 244.892 159.645 244.852 159.553C244.523 158.527 244.208 157.515 243.918 156.476C243.3 154.175 242.906 151.834 242.84 149.441C242.814 148.231 242.867 147.035 242.945 145.825C243.051 144.405 243.248 142.985 243.537 141.591C243.813 140.25 244.195 138.948 244.589 137.646C244.655 137.423 244.694 137.199 244.707 136.963C244.721 136.358 244.76 135.74 244.773 135.135C244.799 134.28 244.957 133.452 245.273 132.65C245.628 131.755 245.983 130.861 246.351 129.98C246.43 129.77 246.561 129.665 246.772 129.599C247.771 129.244 248.771 128.889 249.77 128.521C250.309 128.323 250.848 128.126 251.374 127.942C251.44 128.021 251.427 128.087 251.427 128.153C251.427 128.534 251.453 128.902 251.453 129.283C251.453 129.467 251.492 129.625 251.558 129.796C252.084 131.137 252.505 132.505 252.768 133.925C252.913 134.714 253.044 135.516 252.978 136.331C252.913 137.133 252.873 137.949 252.873 138.751C252.873 138.961 252.899 139.172 252.965 139.369C253.399 140.802 253.702 142.262 253.767 143.761C253.833 145.365 253.833 146.969 253.715 148.573C253.609 150.059 253.36 151.519 253.018 152.965C252.939 153.294 252.834 153.623 252.807 153.978C253.149 153.991 253.465 154.017 253.767 154.122C254.109 154.241 254.32 154.464 254.359 154.846C254.438 155.529 254.451 156.213 254.438 156.897C254.438 157.791 254.438 158.685 254.346 159.579C254.346 159.632 254.346 159.684 254.346 159.75C254.346 159.842 254.372 159.895 254.477 159.895C254.543 159.895 254.609 159.895 254.675 159.895C256.792 159.895 258.909 159.895 261.013 159.895C261.105 159.895 261.21 159.921 261.302 159.869C261.328 159.737 261.236 159.658 261.197 159.566C260.671 158.514 260.145 157.475 259.671 156.397C258.843 154.53 258.199 152.61 257.83 150.598C257.581 149.244 257.449 147.89 257.37 146.509C257.239 144.247 257.344 141.999 257.765 139.763C257.909 138.988 258.001 138.212 257.988 137.423C257.975 136.647 257.962 135.871 257.922 135.095C257.922 134.924 257.922 134.74 257.975 134.569C258.567 132.439 259.066 130.283 259.513 128.113C259.737 127.061 260 126.022 260.487 125.062C260.618 124.813 260.697 124.55 260.815 124.3C261.262 123.248 261.552 122.17 261.631 121.039C261.631 120.894 261.709 120.789 261.788 120.684C262.183 120.158 262.564 119.632 262.919 119.08C263.813 117.725 264.576 116.305 265.049 114.753C265.181 114.333 265.312 113.912 265.352 113.465C265.404 112.65 265.325 111.847 265.194 111.045C264.931 109.507 264.51 108.008 263.984 106.535C263.892 106.285 263.892 106.088 263.984 105.838C264.721 104.063 265.194 102.209 265.339 100.289C265.47 98.5142 265.312 96.7785 264.865 95.0559C264.536 93.8199 264.116 92.6101 263.748 91.3741C263.537 90.6641 263.34 89.954 263.287 89.2045C263.248 88.5339 263.314 88.4418 263.958 88.2314C263.997 88.2183 264.037 88.2052 264.089 88.192C264.55 88.0868 264.997 88.0605 265.47 88.0868C265.851 88.1 266.18 88.2446 266.483 88.455C266.851 88.7048 267.206 88.9678 267.561 89.2308C267.876 89.4543 268.205 89.6647 268.573 89.7962C268.731 89.8488 268.889 89.862 269.06 89.8225C269.744 89.6516 270.362 89.336 270.953 88.9678C271.322 88.7443 271.519 88.4418 271.558 88.0079C271.585 87.6266 271.611 87.6266 271.979 87.6003C272.097 87.6003 272.216 87.5608 272.347 87.5608C272.479 87.5608 272.544 87.5082 272.571 87.3899C272.794 86.6535 273.189 86.0224 273.702 85.457C273.899 85.2466 273.899 85.3123 273.754 85.0099C273.36 84.1289 272.728 83.4451 271.992 82.8403C271.085 82.0908 270.243 81.2755 269.52 80.3419C269.218 79.9474 268.915 79.5529 268.573 79.1848C268.166 78.7508 267.863 78.2643 267.732 77.6726C267.653 77.2781 267.403 77.002 267.061 76.7785C266.088 76.121 265.115 75.4635 264.234 74.6877C264.089 74.5562 263.932 74.4773 263.748 74.4116C263.011 74.1618 262.288 73.8988 261.565 73.6489C261.381 73.5832 261.328 73.4911 261.341 73.3071C261.354 73.0309 261.46 72.7942 261.644 72.597C261.88 72.3472 262.17 72.2025 262.485 72.0842C263.09 71.8606 263.734 71.7817 264.379 71.7554C265.404 71.7028 266.417 71.8212 267.416 71.9658C268.481 72.1236 269.546 72.334 270.625 72.4918C271.979 72.689 273.333 72.7548 274.688 72.6233C276.423 72.4524 278.028 71.8738 279.487 70.927C279.54 70.8876 279.645 70.8876 279.619 70.7693C279.54 70.7693 279.461 70.7693 279.382 70.7693L279.487 70.743ZM265.628 80.1578C265.628 80.1578 265.694 80.0789 265.707 80.0263C265.694 80.0789 265.667 80.1184 265.628 80.1578ZM257.962 76.3051C257.87 76.3051 257.778 76.3051 257.686 76.2656C257.778 76.2919 257.87 76.3051 257.962 76.3051ZM255.424 79.0401C255.424 79.0401 255.385 79.0401 255.371 79.027C255.371 79.027 255.411 79.027 255.424 79.0401ZM255.477 86.1539C255.332 86.0224 255.214 85.8777 255.108 85.7199C255.214 85.8777 255.345 86.0224 255.477 86.1539ZM258.554 68.7969C258.304 68.5339 258.159 68.2709 257.975 68.0211C257.659 67.574 257.673 67.574 257.37 68.0342C257.212 68.284 257.081 68.547 256.963 68.8232C256.936 68.9021 256.936 69.0073 256.805 69.0467C256.581 68.455 256.423 67.837 256.292 67.219C256.792 66.956 257.357 66.8771 257.909 66.7982C258.146 66.7719 258.396 66.7719 258.632 66.7587C258.54 67.4162 258.593 68.0737 258.554 68.7837V68.7969ZM259.014 76.4366C258.843 76.4629 258.685 76.476 258.514 76.4629C258.672 76.476 258.843 76.4629 259.014 76.4366C259.053 76.3971 259.093 76.3708 259.132 76.3314C259.093 76.3708 259.053 76.3971 259.014 76.4366C259.119 76.4366 259.224 76.4366 259.329 76.4234C259.224 76.4366 259.132 76.4366 259.014 76.4366ZM255.043 66.9823V66.956V66.9823ZM266.943 68.5865C266.824 68.8232 266.824 68.8232 266.575 68.7969C265.904 68.718 265.233 68.6785 264.563 68.6785C264.037 68.6785 263.511 68.7311 262.985 68.7969C262.893 68.7969 262.814 68.81 262.722 68.8232C262.512 68.8232 262.512 68.8232 262.498 68.6128C262.498 68.1131 262.498 67.6134 262.551 67.1269C264.116 67.4162 265.68 67.6923 267.258 67.9816C267.153 68.192 267.061 68.4024 266.956 68.6128L266.943 68.5865ZM256.818 134.701C257.002 134.083 257.186 133.478 257.357 132.86C257.186 133.478 257.002 134.083 256.818 134.701ZM262.143 109.375C262.064 109.441 261.986 109.494 261.907 109.533C261.999 109.494 262.064 109.441 262.143 109.375ZM262.564 108.863C262.446 109.034 262.354 109.165 262.262 109.257C262.354 109.165 262.446 109.034 262.564 108.863ZM266.114 85.904C266.483 85.9961 266.864 86.075 267.232 86.167C266.864 86.075 266.483 85.9961 266.114 85.904ZM228.718 121.565C228.784 121.959 228.849 122.354 228.915 122.735C228.849 122.341 228.784 121.946 228.718 121.565ZM239.158 123.708C239.158 124.523 239.158 125.352 239.158 126.167C239.198 126.43 239.224 126.68 239.237 126.943C239.224 126.68 239.211 126.43 239.158 126.167C239.158 125.352 239.158 124.523 239.158 123.708ZM209.139 156.7C209.139 156.621 209.139 156.542 209.178 156.476C209.152 156.542 209.139 156.621 209.139 156.7ZM261.788 118.646C261.723 118.79 261.644 118.935 261.552 119.066C261.644 118.935 261.723 118.803 261.788 118.646C261.867 118.619 261.907 118.554 261.946 118.488C261.907 118.554 261.867 118.619 261.788 118.646Z" fill="#FFDD00"/>
</g>
<defs>
<clipPath id="clip0_2084_9796">
<rect width="320" height="201.657" fill="white"/>
</clipPath>
</defs>
</svg>
