<svg width="45" height="45" viewBox="0 0 45 45" fill="none" xmlns="http://www.w3.org/2000/svg">
<rect x="0.5" y="0.5" width="44" height="44" rx="22" fill="#0094F6"/>
<path d="M31.6769 25.4713L27.1029 23.511C26.8641 23.4082 26.6034 23.3668 26.3444 23.3906C26.0855 23.4144 25.8367 23.5026 25.6206 23.6472L23.175 25.2774C21.6803 24.5505 20.4706 23.346 19.737 21.8546L19.7372 21.8544L21.3617 19.3722C21.5031 19.1567 21.5889 18.9095 21.6114 18.6527C21.6339 18.396 21.5924 18.1376 21.4906 17.9008L19.5285 13.3229C19.395 13.0122 19.1644 12.753 18.8712 12.5843C18.578 12.4156 18.2381 12.3464 17.9023 12.3871C16.5829 12.5567 15.3703 13.2009 14.4911 14.1994C13.612 15.1978 13.1263 16.4821 13.125 17.8124C13.125 25.5666 19.4334 31.8749 27.1875 31.8749C28.5178 31.8736 29.8022 31.388 30.8006 30.5088C31.799 29.6296 32.4432 28.417 32.6129 27.0975C32.6534 26.7617 32.5841 26.4218 32.4154 26.1287C32.2467 25.8356 31.9876 25.6049 31.6769 25.4713Z" fill="white"/>
<rect x="0.5" y="0.5" width="44" height="44" rx="22" stroke="#EFF0F5"/>
</svg>
