<svg width="25" height="26" viewBox="0 0 25 26" fill="none" xmlns="http://www.w3.org/2000/svg">
<g id="Phone">
<path id="Vector" d="M21.6769 15.9715L17.1029 14.0113C16.8641 13.9085 16.6034 13.8671 16.3444 13.8909C16.0855 13.9146 15.8367 14.0029 15.6206 14.1475L13.175 15.7777C11.6803 15.0507 10.4706 13.8463 9.73701 12.3548L9.7372 12.3546L11.3617 9.87241C11.5031 9.65692 11.5889 9.40974 11.6114 9.15298C11.6339 8.89622 11.5924 8.63789 11.4906 8.40109L9.52854 3.82317C9.39498 3.51242 9.16436 3.25329 8.8712 3.08458C8.57804 2.91588 8.23812 2.84667 7.90234 2.88733C6.58287 3.05698 5.37029 3.70118 4.49113 4.6996C3.61196 5.69802 3.12635 6.98236 3.125 8.31268C3.125 16.0668 9.43336 22.3752 17.1875 22.3752C18.5178 22.3738 19.8022 21.8882 20.8006 21.009C21.799 20.1298 22.4432 18.9172 22.6129 17.5978C22.6534 17.262 22.5841 16.9221 22.4154 16.6289C22.2467 16.3358 21.9876 16.1052 21.6769 15.9715Z" fill="#FFFFFF"/>
</g>
</svg>
