<svg width="45" height="45" viewBox="0 0 45 45" fill="none" xmlns="http://www.w3.org/2000/svg">
<rect width="45" height="45" rx="22.5" fill="#FF4500"/>
<path fill-rule="evenodd" clip-rule="evenodd" d="M36.9147 20.7347C37.2785 21.2536 37.4844 21.8668 37.5075 22.5001C37.5171 23.12 37.351 23.7301 37.0285 24.2596C36.706 24.7892 36.2402 25.2166 35.685 25.4926C35.7103 25.8221 35.7103 26.1531 35.685 26.4826C35.685 31.5226 29.8125 35.6176 22.5675 35.6176C15.3225 35.6176 9.45001 31.5226 9.45001 26.4826C9.42467 26.1531 9.42467 25.8221 9.45001 25.4926C9.01724 25.2938 8.63288 25.0032 8.32357 24.6411C8.01425 24.2789 7.78738 23.8539 7.65867 23.3953C7.52996 22.9368 7.5025 22.4558 7.57818 21.9856C7.65386 21.5154 7.83087 21.0672 8.09695 20.6722C8.36304 20.2772 8.71182 19.9448 9.11914 19.698C9.52647 19.4512 9.98258 19.296 10.4559 19.243C10.9292 19.19 11.4083 19.2405 11.8602 19.3911C12.312 19.5417 12.7256 19.7887 13.0725 20.1151C15.6651 18.3568 18.7152 17.3948 21.8475 17.3476L23.5125 9.54009C23.5312 9.4497 23.5677 9.36393 23.6197 9.28773C23.6718 9.21154 23.7385 9.14644 23.816 9.09621C23.8934 9.04598 23.98 9.01162 24.0709 8.99512C24.1617 8.97862 24.2549 8.98031 24.345 9.00009L29.8575 10.1026C30.1267 9.64007 30.552 9.28865 31.0569 9.11141C31.5619 8.93417 32.1135 8.94271 32.6127 9.13551C33.1119 9.3283 33.5261 9.69272 33.7808 10.1634C34.0356 10.634 34.1142 11.18 34.0027 11.7034C33.8911 12.2268 33.5967 12.6933 33.1722 13.0192C32.7477 13.3451 32.2209 13.509 31.6865 13.4815C31.152 13.454 30.6449 13.2369 30.2561 12.8692C29.8673 12.5014 29.6222 12.0072 29.565 11.4751L24.75 10.4626L23.2875 17.4826C26.3817 17.549 29.3905 18.5102 31.95 20.2501C32.4072 19.8112 32.9817 19.514 33.604 19.3943C34.2263 19.2745 34.87 19.3374 35.4575 19.5752C36.0449 19.813 36.551 20.2157 36.9147 20.7347ZM27.6855 26.9972C28.9274 26.9972 29.9341 25.9905 29.9341 24.7486C29.9341 23.5068 28.9274 22.5001 27.6855 22.5001C26.4437 22.5001 25.437 23.5068 25.437 24.7486C25.437 25.9905 26.4437 26.9972 27.6855 26.9972ZM19.5117 24.7486C19.5117 25.9905 18.505 26.9972 17.2632 26.9972C16.0214 26.9972 15.0147 25.9905 15.0147 24.7486C15.0147 23.5068 16.0214 22.5001 17.2632 22.5001C18.505 22.5001 19.5117 23.5068 19.5117 24.7486ZM22.5222 31.4731L22.5111 31.4732L22.5 31.4731V31.4733C20.8963 31.483 19.7105 31.1237 18.9343 30.7717C18.5433 30.5944 18.2548 30.4183 18.0684 30.2904C17.9752 30.2265 17.9076 30.1748 17.8657 30.1411C17.8447 30.1243 17.8302 30.112 17.8221 30.105L17.8155 30.0993C17.5676 29.8731 17.1832 29.8898 16.956 30.1371C16.7282 30.3849 16.7445 30.7704 16.9923 30.9981L16.9933 30.999L16.9944 31L16.9972 31.0025L17.0046 31.0091L17.0271 31.0288C17.0455 31.0447 17.0709 31.0659 17.1031 31.0918C17.1674 31.1434 17.2594 31.2135 17.3791 31.2955C17.6184 31.4597 17.9689 31.6721 18.431 31.8817C19.353 32.2998 20.7136 32.7034 22.5111 32.692C24.3086 32.7034 25.6692 32.2998 26.5912 31.8817C27.0533 31.6721 27.4037 31.4597 27.6431 31.2955C27.7627 31.2135 27.8547 31.1434 27.9191 31.0918C27.9513 31.0659 27.9766 31.0447 27.9951 31.0288L28.0176 31.0091L28.025 31.0025L28.0277 31L28.0289 30.999L28.0298 30.9981C28.2776 30.7704 28.2939 30.3849 28.0662 30.1371C27.8389 29.8898 27.4546 29.8731 27.2067 30.0993L27.2001 30.105C27.192 30.112 27.1774 30.1243 27.1565 30.1411C27.1145 30.1748 27.047 30.2265 26.9538 30.2904C26.7674 30.4183 26.4788 30.5944 26.0878 30.7717C25.3117 31.1237 24.1259 31.483 22.5222 31.4733V31.4731Z" fill="white"/>
<rect x="0.5" y="0.5" width="44" height="44" rx="22" stroke="#EFF0F5"/>
</svg>
