<svg width="30" height="30" viewBox="0 0 30 30" fill="none" xmlns="http://www.w3.org/2000/svg">
<path d="M26.0876 21.5625L22.7001 15.7125C23.3933 14.4394 23.7544 13.0121 23.7501 11.5625C23.7501 9.24186 22.8282 7.01626 21.1873 5.37532C19.5463 3.73437 17.3207 2.8125 15.0001 2.8125C12.6794 2.8125 10.4538 3.73437 8.81291 5.37532C7.17196 7.01626 6.25009 9.24186 6.25009 11.5625C6.24579 13.0121 6.60691 14.4394 7.30009 15.7125L3.91259 21.5625C3.80267 21.7529 3.7449 21.9689 3.74512 22.1887C3.74533 22.4086 3.80353 22.6245 3.91383 22.8147C4.02413 23.0048 4.18263 23.1625 4.37335 23.2719C4.56407 23.3813 4.78025 23.4384 5.00009 23.4375H8.58759L10.4126 26.5125C10.4741 26.6144 10.5499 26.707 10.6376 26.7875C10.8693 27.0109 11.1783 27.1362 11.5001 27.1375H11.6751C11.8638 27.1117 12.0441 27.0431 12.2023 26.9369C12.3604 26.8308 12.4922 26.6899 12.5876 26.525L15.0001 22.375L17.4126 26.5625C17.5094 26.725 17.6418 26.8635 17.7999 26.9674C17.9579 27.0714 18.1375 27.1381 18.3251 27.1625H18.5001C18.8263 27.1645 19.1403 27.0389 19.3751 26.8125C19.4592 26.7366 19.5309 26.648 19.5876 26.55L21.4126 23.475H25.0001C25.2204 23.4759 25.4369 23.4185 25.6279 23.3088C25.8189 23.199 25.9775 23.0408 26.0876 22.85C26.2044 22.6556 26.2661 22.4331 26.2661 22.2062C26.2661 21.9794 26.2044 21.7569 26.0876 21.5625ZM11.4876 23.475L10.3751 21.6125C10.2655 21.4277 10.1102 21.2743 9.92412 21.167C9.73801 21.0597 9.5274 21.0022 9.31259 21H7.15009L8.93759 17.9C10.1685 19.0861 11.7199 19.8857 13.4001 20.2L11.4876 23.475ZM15.0001 17.8125C13.764 17.8125 12.5556 17.4459 11.5278 16.7592C10.5 16.0724 9.69889 15.0963 9.22584 13.9543C8.7528 12.8122 8.62903 11.5556 8.87018 10.3432C9.11134 9.1308 9.7066 8.01716 10.5807 7.14308C11.4548 6.269 12.5684 5.67375 13.7808 5.43259C14.9932 5.19143 16.2498 5.31521 17.3919 5.78825C18.5339 6.2613 19.51 7.06238 20.1968 8.09019C20.8835 9.11799 21.2501 10.3264 21.2501 11.5625C21.2501 13.2201 20.5916 14.8098 19.4195 15.9819C18.2474 17.154 16.6577 17.8125 15.0001 17.8125ZM20.6876 21C20.4728 21.0022 20.2622 21.0597 20.0761 21.167C19.89 21.2743 19.7346 21.4277 19.6251 21.6125L18.5126 23.475L16.6126 20.1625C18.2869 19.8417 19.8326 19.0429 21.0626 17.8625L22.8501 20.9625L20.6876 21Z" fill="#FBFBFC"/>
</svg>
