<svg width="36" height="35" viewBox="0 0 36 35" fill="none" xmlns="http://www.w3.org/2000/svg">
<path d="M20.1875 30.625H15.8125" stroke="#FBFBFC" stroke-width="2" stroke-linecap="round" stroke-linejoin="round"/>
<path d="M17.3124 2.70205C14.7158 4.78211 6.03086 13.0939 13.625 26.2501H22.375C29.8112 13.1032 21.2534 4.79387 18.684 2.70648C18.4903 2.54904 18.2485 2.46272 17.999 2.46192C17.7494 2.46111 17.5071 2.54587 17.3124 2.70205V2.70205Z" stroke="#FBFBFC" stroke-width="2" stroke-linecap="round" stroke-linejoin="round"/>
<path d="M10.599 15.2251L6.3128 20.3685C6.20574 20.497 6.12956 20.6483 6.09013 20.8108C6.0507 20.9733 6.04906 21.1427 6.08533 21.306L7.77558 28.912C7.81587 29.0934 7.90167 29.2614 8.02489 29.4004C8.14811 29.5394 8.30469 29.6447 8.47988 29.7064C8.65506 29.7681 8.84307 29.7842 9.02619 29.7531C9.20931 29.7221 9.38151 29.6449 9.52654 29.5289L13.625 26.2501" stroke="#FBFBFC" stroke-width="2" stroke-linecap="round" stroke-linejoin="round"/>
<path d="M25.3187 15.1265L29.6872 20.3686C29.7943 20.4971 29.8704 20.6484 29.9099 20.8109C29.9493 20.9734 29.9509 21.1428 29.9147 21.3061L28.2244 28.9122C28.1841 29.0935 28.0983 29.2616 27.9751 29.4005C27.8519 29.5395 27.6953 29.6448 27.5201 29.7065C27.3449 29.7682 27.1569 29.7843 26.9738 29.7533C26.7907 29.7222 26.6185 29.645 26.4735 29.529L22.375 26.2502" stroke="#FBFBFC" stroke-width="2" stroke-linecap="round" stroke-linejoin="round"/>
<path d="M18 14.7656C18.9061 14.7656 19.6406 14.0311 19.6406 13.125C19.6406 12.2189 18.9061 11.4844 18 11.4844C17.0939 11.4844 16.3594 12.2189 16.3594 13.125C16.3594 14.0311 17.0939 14.7656 18 14.7656Z" fill="#FBFBFC"/>
</svg>
