<svg width="128" height="19" viewBox="0 0 128 19" fill="none" xmlns="http://www.w3.org/2000/svg">
<path d="M8.025 18.75C6.475 18.75 5.175 18.525 4.125 18.075C3.09167 17.6083 2.3 17.0083 1.75 16.275C1.21667 15.525 0.933333 14.7417 0.9 13.925C0.9 13.775 0.95 13.65 1.05 13.55C1.15 13.45 1.275 13.4 1.425 13.4H3.65C3.86667 13.4 4.025 13.45 4.125 13.55C4.24167 13.6333 4.34167 13.7417 4.425 13.875C4.525 14.1917 4.71667 14.5083 5 14.825C5.28333 15.125 5.66667 15.375 6.15 15.575C6.65 15.775 7.275 15.875 8.025 15.875C9.225 15.875 10.1167 15.675 10.7 15.275C11.3 14.875 11.6 14.3333 11.6 13.65C11.6 13.1667 11.4417 12.7833 11.125 12.5C10.8083 12.2 10.3167 11.9333 9.65 11.7C9 11.45 8.13333 11.1917 7.05 10.925C5.8 10.625 4.75 10.2667 3.9 9.85C3.06667 9.41667 2.43333 8.875 2 8.225C1.58333 7.575 1.375 6.75 1.375 5.75C1.375 4.78333 1.63333 3.925 2.15 3.175C2.68333 2.425 3.43333 1.83333 4.4 1.4C5.38333 0.966666 6.55 0.749999 7.9 0.749999C8.98333 0.749999 9.94167 0.899999 10.775 1.2C11.6083 1.48333 12.3 1.86667 12.85 2.35C13.4 2.81667 13.8167 3.325 14.1 3.875C14.4 4.40833 14.5583 4.93333 14.575 5.45C14.575 5.58333 14.525 5.70833 14.425 5.825C14.3417 5.925 14.2167 5.975 14.05 5.975H11.725C11.5917 5.975 11.4583 5.94167 11.325 5.875C11.1917 5.80833 11.0833 5.68333 11 5.5C10.9 4.98333 10.575 4.54167 10.025 4.175C9.475 3.80833 8.76667 3.625 7.9 3.625C7 3.625 6.275 3.79167 5.725 4.125C5.175 4.45833 4.9 4.975 4.9 5.675C4.9 6.14167 5.03333 6.53333 5.3 6.85C5.58333 7.15 6.025 7.41667 6.625 7.65C7.24167 7.88333 8.05 8.13333 9.05 8.4C10.4667 8.71667 11.625 9.08333 12.525 9.5C13.425 9.91667 14.0833 10.45 14.5 11.1C14.9167 11.7333 15.125 12.5417 15.125 13.525C15.125 14.625 14.825 15.5667 14.225 16.35C13.6417 17.1167 12.8167 17.7083 11.75 18.125C10.6833 18.5417 9.44167 18.75 8.025 18.75ZM23.315 18.75C22.115 18.75 21.0567 18.525 20.14 18.075C19.24 17.625 18.5317 16.975 18.015 16.125C17.515 15.2583 17.24 14.2167 17.19 13C17.1734 12.75 17.165 12.425 17.165 12.025C17.165 11.6083 17.1734 11.2667 17.19 11C17.24 9.78333 17.515 8.75 18.015 7.9C18.5317 7.03333 19.24 6.375 20.14 5.925C21.0567 5.475 22.115 5.25 23.315 5.25C24.3817 5.25 25.29 5.4 26.04 5.7C26.79 6 27.4067 6.375 27.89 6.825C28.3734 7.275 28.7317 7.75 28.965 8.25C29.215 8.73333 29.3484 9.175 29.365 9.575C29.3817 9.75833 29.3234 9.90833 29.19 10.025C29.0734 10.125 28.9317 10.175 28.765 10.175H26.565C26.3984 10.175 26.265 10.1333 26.165 10.05C26.0817 9.96667 25.9984 9.84167 25.915 9.675C25.665 9.00833 25.3317 8.54167 24.915 8.275C24.515 7.99167 23.9984 7.85 23.365 7.85C22.5317 7.85 21.865 8.11667 21.365 8.65C20.8817 9.16667 20.6234 9.99167 20.59 11.125C20.5567 11.7583 20.5567 12.3417 20.59 12.875C20.6234 14.025 20.8817 14.8583 21.365 15.375C21.865 15.8917 22.5317 16.15 23.365 16.15C24.015 16.15 24.54 16.0167 24.94 15.75C25.34 15.4667 25.665 14.9917 25.915 14.325C25.9984 14.1583 26.0817 14.0333 26.165 13.95C26.265 13.8667 26.3984 13.825 26.565 13.825H28.765C28.9317 13.825 29.0734 13.8833 29.19 14C29.3234 14.1 29.3817 14.2417 29.365 14.425C29.3484 14.725 29.265 15.0667 29.115 15.45C28.9817 15.8167 28.7567 16.2 28.44 16.6C28.14 16.9833 27.7567 17.3417 27.29 17.675C26.8234 17.9917 26.2567 18.25 25.59 18.45C24.94 18.65 24.1817 18.75 23.315 18.75ZM37.7223 18.75C36.3889 18.75 35.2639 18.5167 34.3473 18.05C33.4473 17.5833 32.7556 16.925 32.2723 16.075C31.8056 15.225 31.5389 14.2333 31.4723 13.1C31.4556 12.8 31.4473 12.4333 31.4473 12C31.4473 11.5667 31.4556 11.2 31.4723 10.9C31.5389 9.75 31.8139 8.75833 32.2973 7.925C32.7973 7.075 33.4973 6.41667 34.3973 5.95C35.3139 5.48333 36.4223 5.25 37.7223 5.25C39.0223 5.25 40.1223 5.48333 41.0223 5.95C41.9389 6.41667 42.6389 7.075 43.1223 7.925C43.6223 8.75833 43.9056 9.75 43.9723 10.9C43.9889 11.2 43.9973 11.5667 43.9973 12C43.9973 12.4333 43.9889 12.8 43.9723 13.1C43.9056 14.2333 43.6306 15.225 43.1473 16.075C42.6806 16.925 41.9889 17.5833 41.0723 18.05C40.1723 18.5167 39.0556 18.75 37.7223 18.75ZM37.7223 16.275C38.6056 16.275 39.2889 16 39.7723 15.45C40.2556 14.8833 40.5223 14.0583 40.5723 12.975C40.5889 12.725 40.5973 12.4 40.5973 12C40.5973 11.6 40.5889 11.275 40.5723 11.025C40.5223 9.95833 40.2556 9.14167 39.7723 8.575C39.2889 8.00833 38.6056 7.725 37.7223 7.725C36.8389 7.725 36.1556 8.00833 35.6723 8.575C35.1889 9.14167 34.9223 9.95833 34.8723 11.025C34.8556 11.275 34.8473 11.6 34.8473 12C34.8473 12.4 34.8556 12.725 34.8723 12.975C34.9223 14.0583 35.1889 14.8833 35.6723 15.45C36.1556 16 36.8389 16.275 37.7223 16.275ZM51.5922 18.75C50.5755 18.75 49.6922 18.525 48.9422 18.075C48.2089 17.6083 47.6422 16.9583 47.2422 16.125C46.8422 15.275 46.6422 14.275 46.6422 13.125V6.1C46.6422 5.93333 46.7005 5.79167 46.8172 5.675C46.9339 5.55833 47.0755 5.5 47.2422 5.5H49.4422C49.6255 5.5 49.7672 5.55833 49.8672 5.675C49.9839 5.79167 50.0422 5.93333 50.0422 6.1V12.975C50.0422 15.0417 50.9505 16.075 52.7672 16.075C53.6339 16.075 54.3172 15.8 54.8172 15.25C55.3339 14.7 55.5922 13.9417 55.5922 12.975V6.1C55.5922 5.93333 55.6505 5.79167 55.7672 5.675C55.8839 5.55833 56.0255 5.5 56.1922 5.5H58.3922C58.5589 5.5 58.7005 5.55833 58.8172 5.675C58.9339 5.79167 58.9922 5.93333 58.9922 6.1V17.9C58.9922 18.0667 58.9339 18.2083 58.8172 18.325C58.7005 18.4417 58.5589 18.5 58.3922 18.5H56.3672C56.1839 18.5 56.0339 18.4417 55.9172 18.325C55.8172 18.2083 55.7672 18.0667 55.7672 17.9V16.875C55.3172 17.4583 54.7589 17.9167 54.0922 18.25C53.4255 18.5833 52.5922 18.75 51.5922 18.75ZM68.1695 18.5C67.1695 18.5 66.3279 18.325 65.6445 17.975C64.9612 17.625 64.4529 17.1083 64.1195 16.425C63.7862 15.725 63.6195 14.8583 63.6195 13.825V8.15H61.6445C61.4779 8.15 61.3362 8.09167 61.2195 7.975C61.1029 7.85833 61.0445 7.71667 61.0445 7.55V6.1C61.0445 5.93333 61.1029 5.79167 61.2195 5.675C61.3362 5.55833 61.4779 5.5 61.6445 5.5H63.6195V1.35C63.6195 1.18333 63.6695 1.04167 63.7695 0.925C63.8862 0.808333 64.0362 0.749999 64.2195 0.749999H66.2445C66.4112 0.749999 66.5529 0.808333 66.6695 0.925C66.7862 1.04167 66.8445 1.18333 66.8445 1.35V5.5H69.9695C70.1362 5.5 70.2779 5.55833 70.3945 5.675C70.5112 5.79167 70.5695 5.93333 70.5695 6.1V7.55C70.5695 7.71667 70.5112 7.85833 70.3945 7.975C70.2779 8.09167 70.1362 8.15 69.9695 8.15H66.8445V13.575C66.8445 14.2583 66.9612 14.7917 67.1945 15.175C67.4445 15.5583 67.8695 15.75 68.4695 15.75H70.1945C70.3612 15.75 70.5029 15.8083 70.6195 15.925C70.7362 16.0417 70.7945 16.1833 70.7945 16.35V17.9C70.7945 18.0667 70.7362 18.2083 70.6195 18.325C70.5029 18.4417 70.3612 18.5 70.1945 18.5H68.1695ZM73.9123 18.5C73.7456 18.5 73.604 18.4417 73.4873 18.325C73.3706 18.2083 73.3123 18.0667 73.3123 17.9V1.625C73.3123 1.44167 73.3706 1.29167 73.4873 1.175C73.604 1.05833 73.7456 0.999999 73.9123 0.999999H80.6123C81.9123 0.999999 83.0456 1.20833 84.0123 1.625C84.979 2.025 85.729 2.64167 86.2623 3.475C86.7956 4.29167 87.0623 5.31667 87.0623 6.55C87.0623 7.8 86.7956 8.83333 86.2623 9.65C85.729 10.45 84.979 11.05 84.0123 11.45C83.0456 11.85 81.9123 12.05 80.6123 12.05H76.8873V17.9C76.8873 18.0667 76.829 18.2083 76.7123 18.325C76.6123 18.4417 76.4706 18.5 76.2873 18.5H73.9123ZM76.8373 9.275H80.4873C81.454 9.275 82.1956 9.05 82.7123 8.6C83.229 8.13333 83.4873 7.45 83.4873 6.55C83.4873 5.71667 83.2456 5.05 82.7623 4.55C82.279 4.03333 81.5206 3.775 80.4873 3.775H76.8373V9.275ZM92.9982 18.75C92.1316 18.75 91.3482 18.5833 90.6482 18.25C89.9482 17.9 89.3899 17.4417 88.9732 16.875C88.5732 16.2917 88.3732 15.6417 88.3732 14.925C88.3732 13.7583 88.8399 12.8333 89.7732 12.15C90.7232 11.45 91.9732 10.9833 93.5232 10.75L96.9482 10.25V9.725C96.9482 9.025 96.7732 8.48333 96.4232 8.1C96.0732 7.71667 95.4732 7.525 94.6232 7.525C94.0232 7.525 93.5316 7.65 93.1482 7.9C92.7816 8.13333 92.5066 8.45 92.3232 8.85C92.1899 9.06667 91.9982 9.175 91.7482 9.175H89.7732C89.5899 9.175 89.4482 9.125 89.3482 9.025C89.2649 8.925 89.2232 8.79167 89.2232 8.625C89.2399 8.35833 89.3482 8.03333 89.5482 7.65C89.7482 7.26667 90.0649 6.9 90.4982 6.55C90.9316 6.18333 91.4899 5.875 92.1732 5.625C92.8566 5.375 93.6816 5.25 94.6482 5.25C95.6982 5.25 96.5816 5.38333 97.2982 5.65C98.0316 5.9 98.6149 6.24167 99.0482 6.675C99.4816 7.10833 99.7982 7.61667 99.9982 8.2C100.198 8.78333 100.298 9.4 100.298 10.05V17.9C100.298 18.0667 100.24 18.2083 100.123 18.325C100.007 18.4417 99.8649 18.5 99.6982 18.5H97.6732C97.4899 18.5 97.3399 18.4417 97.2232 18.325C97.1232 18.2083 97.0732 18.0667 97.0732 17.9V16.925C96.8566 17.2417 96.5649 17.5417 96.1982 17.825C95.8316 18.0917 95.3816 18.3167 94.8482 18.5C94.3316 18.6667 93.7149 18.75 92.9982 18.75ZM93.8482 16.375C94.4316 16.375 94.9566 16.25 95.4232 16C95.9066 15.75 96.2816 15.3667 96.5482 14.85C96.8316 14.3167 96.9732 13.65 96.9732 12.85V12.325L94.4732 12.725C93.4899 12.875 92.7566 13.1167 92.2732 13.45C91.7899 13.7833 91.5482 14.1917 91.5482 14.675C91.5482 15.0417 91.6566 15.3583 91.8732 15.625C92.1066 15.875 92.3982 16.0667 92.7482 16.2C93.0982 16.3167 93.4649 16.375 93.8482 16.375ZM108.43 18.75C107.43 18.75 106.572 18.6333 105.855 18.4C105.155 18.1667 104.58 17.875 104.13 17.525C103.68 17.175 103.347 16.825 103.13 16.475C102.914 16.125 102.797 15.8333 102.78 15.6C102.764 15.4167 102.814 15.275 102.93 15.175C103.064 15.0583 103.205 15 103.355 15H105.33C105.397 15 105.455 15.0083 105.505 15.025C105.555 15.0417 105.622 15.0917 105.705 15.175C105.922 15.3583 106.147 15.55 106.38 15.75C106.63 15.95 106.922 16.125 107.255 16.275C107.589 16.4083 108.005 16.475 108.505 16.475C109.155 16.475 109.697 16.35 110.13 16.1C110.58 15.8333 110.805 15.4583 110.805 14.975C110.805 14.625 110.705 14.3417 110.505 14.125C110.322 13.9083 109.972 13.7167 109.455 13.55C108.939 13.3667 108.205 13.175 107.255 12.975C106.322 12.7583 105.547 12.4833 104.93 12.15C104.314 11.8167 103.855 11.4 103.555 10.9C103.255 10.4 103.105 9.81667 103.105 9.15C103.105 8.5 103.297 7.88333 103.68 7.3C104.08 6.7 104.664 6.20833 105.43 5.825C106.214 5.44167 107.18 5.25 108.33 5.25C109.23 5.25 110.014 5.36667 110.68 5.6C111.347 5.81667 111.897 6.09167 112.33 6.425C112.78 6.75833 113.122 7.1 113.355 7.45C113.589 7.78333 113.714 8.075 113.73 8.325C113.747 8.50833 113.697 8.65833 113.58 8.775C113.464 8.875 113.33 8.925 113.18 8.925H111.33C111.247 8.925 111.172 8.90833 111.105 8.875C111.039 8.84167 110.972 8.8 110.905 8.75C110.722 8.58333 110.522 8.40833 110.305 8.225C110.089 8.04167 109.822 7.88333 109.505 7.75C109.205 7.6 108.805 7.525 108.305 7.525C107.672 7.525 107.189 7.66667 106.855 7.95C106.522 8.21667 106.355 8.55833 106.355 8.975C106.355 9.25833 106.43 9.50833 106.58 9.725C106.747 9.925 107.072 10.1167 107.555 10.3C108.039 10.4833 108.772 10.675 109.755 10.875C110.872 11.075 111.755 11.375 112.405 11.775C113.072 12.1583 113.539 12.6083 113.805 13.125C114.089 13.625 114.23 14.1833 114.23 14.8C114.23 15.55 114.005 16.225 113.555 16.825C113.122 17.425 112.472 17.9 111.605 18.25C110.755 18.5833 109.697 18.75 108.43 18.75ZM121.736 18.75C120.736 18.75 119.878 18.6333 119.161 18.4C118.461 18.1667 117.886 17.875 117.436 17.525C116.986 17.175 116.653 16.825 116.436 16.475C116.219 16.125 116.103 15.8333 116.086 15.6C116.069 15.4167 116.119 15.275 116.236 15.175C116.369 15.0583 116.511 15 116.661 15H118.636C118.703 15 118.761 15.0083 118.811 15.025C118.861 15.0417 118.928 15.0917 119.011 15.175C119.228 15.3583 119.453 15.55 119.686 15.75C119.936 15.95 120.228 16.125 120.561 16.275C120.894 16.4083 121.311 16.475 121.811 16.475C122.461 16.475 123.003 16.35 123.436 16.1C123.886 15.8333 124.111 15.4583 124.111 14.975C124.111 14.625 124.011 14.3417 123.811 14.125C123.628 13.9083 123.278 13.7167 122.761 13.55C122.244 13.3667 121.511 13.175 120.561 12.975C119.628 12.7583 118.853 12.4833 118.236 12.15C117.619 11.8167 117.161 11.4 116.861 10.9C116.561 10.4 116.411 9.81667 116.411 9.15C116.411 8.5 116.603 7.88333 116.986 7.3C117.386 6.7 117.969 6.20833 118.736 5.825C119.519 5.44167 120.486 5.25 121.636 5.25C122.536 5.25 123.319 5.36667 123.986 5.6C124.653 5.81667 125.203 6.09167 125.636 6.425C126.086 6.75833 126.428 7.1 126.661 7.45C126.894 7.78333 127.019 8.075 127.036 8.325C127.053 8.50833 127.003 8.65833 126.886 8.775C126.769 8.875 126.636 8.925 126.486 8.925H124.636C124.553 8.925 124.478 8.90833 124.411 8.875C124.344 8.84167 124.278 8.8 124.211 8.75C124.028 8.58333 123.828 8.40833 123.611 8.225C123.394 8.04167 123.128 7.88333 122.811 7.75C122.511 7.6 122.111 7.525 121.611 7.525C120.978 7.525 120.494 7.66667 120.161 7.95C119.828 8.21667 119.661 8.55833 119.661 8.975C119.661 9.25833 119.736 9.50833 119.886 9.725C120.053 9.925 120.378 10.1167 120.861 10.3C121.344 10.4833 122.078 10.675 123.061 10.875C124.178 11.075 125.061 11.375 125.711 11.775C126.378 12.1583 126.844 12.6083 127.111 13.125C127.394 13.625 127.536 14.1833 127.536 14.8C127.536 15.55 127.311 16.225 126.861 16.825C126.428 17.425 125.778 17.9 124.911 18.25C124.061 18.5833 123.003 18.75 121.736 18.75Z" fill="white"/>
</svg>
