<svg width="273" height="315" viewBox="0 0 273 315" fill="none" xmlns="http://www.w3.org/2000/svg">
<g clip-path="url(#clip0_6712_165984)">
<path d="M151.978 263.642C151.978 263.642 144.962 258.198 147.155 255.74L151.978 263.642Z" fill="white"/>
<path d="M127.336 279.268C120.758 276.722 111.725 276.02 106.814 277.952L108.042 280.234L111.375 284.799L115.233 284.448C115.233 284.448 118.215 284.536 120.32 285.589C120.32 285.589 126.634 279.005 127.336 279.268Z" fill="white"/>
<path d="M148.471 0.614062C148.471 0.614062 147.155 1.4042 146.629 2.10654C146.278 2.63329 145.752 3.95018 145.489 4.74032C145.226 5.44266 145.226 6.49617 144.612 7.3741C144.612 7.3741 143.735 8.42761 142.683 9.04216C147.067 9.21774 151.452 9.65671 155.749 10.359H155.574C156.714 9.7445 157.679 8.77878 157.679 8.77878C158.468 7.98865 158.556 7.02293 158.819 6.23279C159.17 5.44266 159.783 4.21356 160.222 3.68681C160.748 3.07226 162.151 2.36992 162.151 2.36992C157.679 1.49199 153.119 0.87744 148.471 0.438477V0.614062Z" fill="white"/>
<path d="M166.098 3.33574C166.098 3.33574 164.695 3.95029 164.081 4.56484C163.643 5.09159 162.941 6.32069 162.59 7.11082C162.24 7.81316 162.064 8.77888 161.363 9.56902C161.363 9.56902 160.398 10.5347 159.258 10.9737C163.555 11.7638 167.852 12.7296 172.062 13.9586H171.974C173.202 13.5197 174.254 12.6418 174.254 12.6418C175.131 11.9394 175.394 10.9737 175.745 10.2714C176.183 9.56902 176.885 8.42771 177.411 7.90096C178.025 7.3742 179.516 6.84745 179.516 6.84745C175.219 5.44276 170.746 4.21367 166.186 3.16016L166.098 3.33574Z" fill="white"/>
<path d="M183.199 8.34072C183.199 8.34072 181.708 8.77969 181.094 9.30644C180.568 9.7454 179.779 10.8867 179.34 11.5891C178.902 12.2036 178.639 13.1693 177.762 13.8717C177.762 13.8717 176.709 14.6618 175.481 15.013C179.691 16.3299 183.813 17.9101 187.759 19.666C188.987 19.3148 190.127 18.6125 190.127 18.6125C191.091 17.9979 191.442 17.12 191.881 16.5054C192.407 15.8031 193.284 14.7496 193.898 14.3984C194.599 13.9595 196.09 13.6083 196.09 13.6083C191.968 11.589 187.759 9.8332 183.374 8.25293H183.286L183.199 8.34072Z" fill="white"/>
<path d="M199.51 15.539C199.51 15.539 198.02 15.8023 197.318 16.2413C196.704 16.5925 195.827 17.646 195.301 18.2605C194.775 18.8751 194.424 19.753 193.459 20.3676C193.459 20.3676 192.232 20.9821 191.004 21.1577C195.038 23.0891 198.897 25.1084 202.58 27.391C203.808 27.2154 205.035 26.6886 205.035 26.6886C206.088 26.2497 206.526 25.3717 207.052 24.7572C207.666 24.1426 208.719 23.2647 209.333 22.9135C210.122 22.5624 211.613 22.4746 211.613 22.4746C207.754 20.0164 203.808 17.646 199.686 15.4512H199.598L199.51 15.539Z" fill="white"/>
<path d="M214.769 24.8457C214.769 24.8457 213.191 24.8457 212.402 25.1969C211.788 25.4603 210.735 26.3382 210.122 26.9527C209.508 27.4795 209.069 28.2696 208.017 28.7964C208.017 28.7964 206.701 29.3231 205.474 29.3231C209.157 31.6935 212.752 34.2395 216.173 36.9611C217.4 36.9611 218.716 36.6099 218.716 36.6099C219.768 36.2587 220.294 35.4686 220.996 35.0297C221.698 34.5029 222.838 33.7128 223.451 33.5372C224.241 33.2738 225.819 33.3616 225.819 33.3616C222.399 30.3766 218.716 27.5673 214.945 24.8457H214.857H214.769Z" fill="white"/>
<path d="M228.713 35.9948C228.713 35.9948 227.134 35.8192 226.345 35.9948C225.643 36.1704 224.503 36.9605 223.802 37.3995C223.188 37.8385 222.574 38.6286 221.434 38.892C221.434 38.892 220.118 39.2431 218.891 39.0676C222.311 41.8769 225.468 44.9497 228.45 48.0224V47.8468C229.59 48.1102 230.993 47.8468 230.993 47.8468C232.133 47.6712 232.834 46.9689 233.448 46.5299C234.238 46.091 235.378 45.4764 236.079 45.3886C236.868 45.2131 238.447 45.5642 238.447 45.5642C235.465 42.1403 232.221 38.892 228.8 35.7314H228.713V35.9948Z" fill="white"/>
<path d="M240.99 48.9005C240.99 48.9005 239.499 48.5494 238.622 48.7249C237.921 48.8127 236.693 49.4273 235.904 49.7785C235.202 50.1296 234.501 50.832 233.361 51.0076C233.361 51.0076 232.045 51.0953 230.817 50.832C233.799 54.0803 236.518 57.5042 239.149 61.0159C240.289 61.2793 241.692 61.2793 241.692 61.2793C242.832 61.2793 243.533 60.577 244.323 60.3136C245.112 59.9624 246.427 59.5234 247.129 59.5234C248.006 59.5234 249.409 59.9624 249.409 59.9624C246.866 56.1873 244.06 52.5 241.078 48.9883H240.99V48.9005Z" fill="white"/>
<path d="M251.602 63.2982C251.602 63.2982 250.111 62.7715 249.322 62.7715C248.621 62.7715 247.305 63.2104 246.516 63.4738C245.814 63.7372 245.025 64.3518 243.885 64.3518C243.885 64.3518 242.482 64.3518 241.342 63.825C243.885 67.4245 246.165 71.1996 248.27 74.9747C249.41 75.4136 250.725 75.5892 250.725 75.5892C251.865 75.677 252.655 75.1502 253.444 74.9747C254.233 74.7991 255.636 74.4479 256.25 74.5357C257.127 74.5357 258.443 75.238 258.443 75.238C256.426 71.1996 254.146 67.1611 251.602 63.2104H251.515L251.602 63.2982Z" fill="white"/>
<path d="M260.108 78.9259C260.108 78.9259 258.705 78.1357 257.916 78.1357C257.214 78.1357 255.899 78.3113 255.022 78.4869C254.232 78.6625 253.356 79.1015 252.303 79.0137C252.303 79.0137 250.988 78.8381 249.848 78.1357C251.865 82.0864 253.706 86.0371 255.285 90.0755C256.337 90.6901 257.653 90.9535 257.653 90.9535C258.793 91.2168 259.67 90.7779 260.371 90.6901C261.248 90.6023 262.564 90.5145 263.265 90.6901C264.055 90.8657 265.37 91.7436 265.37 91.7436C263.879 87.4418 262.125 83.1399 260.196 78.9259H260.108Z" fill="white"/>
<path d="M266.598 95.5183C266.598 95.5183 265.37 94.6403 264.493 94.4647C263.792 94.2892 262.476 94.377 261.599 94.4647C260.81 94.4647 259.933 94.9037 258.793 94.6403C258.793 94.6403 257.477 94.2892 256.513 93.499C258.004 97.6253 259.319 101.839 260.284 106.053V105.878C261.248 106.756 262.476 107.195 262.476 107.195C263.528 107.546 264.493 107.282 265.282 107.282C266.159 107.282 267.475 107.282 268.176 107.634C268.966 107.897 270.106 108.951 270.106 108.951C269.141 104.473 268.001 99.9957 266.598 95.6061H266.51L266.598 95.5183Z" fill="white"/>
<path d="M270.808 112.902C270.808 112.902 269.668 111.848 268.878 111.585C268.264 111.321 266.861 111.233 265.984 111.233C265.195 111.233 264.23 111.409 263.178 110.97C263.178 110.97 261.95 110.443 261.073 109.565C262.038 113.867 262.739 118.169 263.178 122.559C263.967 123.349 265.195 124.051 265.195 124.051C266.16 124.578 267.124 124.402 267.914 124.49C268.791 124.666 270.106 124.841 270.72 125.193C271.509 125.544 272.474 126.685 272.474 126.685C272.123 122.12 271.597 117.555 270.808 112.989H270.72L270.808 112.902Z" fill="white"/>
<path d="M272.736 130.636C272.736 130.636 271.772 129.406 270.983 129.055C270.369 128.704 269.053 128.441 268.176 128.265C267.387 128.09 266.422 128.265 265.458 127.738C265.458 127.738 264.318 127.036 263.528 126.07C263.879 130.46 264.055 134.85 263.967 139.151C264.668 140.117 265.721 140.907 265.721 140.907C266.598 141.522 267.65 141.522 268.352 141.697C269.229 141.961 270.456 142.4 271.07 142.751C271.772 143.19 272.649 144.507 272.649 144.507C272.912 139.942 273 135.376 272.736 130.723H272.649L272.736 130.636Z" fill="white"/>
<path d="M272.387 148.457C272.387 148.457 271.597 147.141 270.896 146.702C270.282 146.263 269.054 145.824 268.265 145.56C267.476 145.297 266.511 145.297 265.634 144.595C265.634 144.595 264.582 143.717 263.968 142.663C263.705 147.053 263.354 151.442 262.652 155.744C263.179 156.798 264.143 157.676 264.143 157.676C265.02 158.378 265.985 158.554 266.686 158.817C267.476 159.168 268.703 159.783 269.23 160.222C269.843 160.748 270.545 162.153 270.545 162.153C271.422 157.676 272.036 153.11 272.474 148.457H272.387Z" fill="white"/>
<path d="M269.668 166.104C269.668 166.104 269.054 164.699 268.44 164.172C267.914 163.733 266.686 163.031 265.897 162.68C265.195 162.329 264.231 162.241 263.441 161.451C263.441 161.451 262.477 160.485 262.038 159.344C261.249 163.646 260.284 167.947 259.057 172.161C259.407 173.215 260.284 174.269 260.284 174.269C260.986 175.146 261.951 175.322 262.652 175.761C263.354 176.2 264.494 176.902 265.02 177.517C265.634 178.131 266.072 179.624 266.072 179.624C267.476 175.322 268.791 170.845 269.756 166.367L269.668 166.104Z" fill="white"/>
<path d="M265.019 183.399C265.019 183.399 264.669 181.907 264.23 181.204C263.792 180.59 262.739 179.712 262.125 179.273C261.511 178.834 260.547 178.483 259.933 177.517C259.933 177.517 259.231 176.376 258.968 175.146C257.302 179.273 255.46 183.223 253.443 187.086H253.531C253.706 188.228 254.32 189.457 254.32 189.457C254.847 190.422 255.723 190.861 256.337 191.388C256.951 192.003 257.916 192.881 258.267 193.495C258.705 194.197 258.881 195.778 258.881 195.778C261.161 191.827 263.265 187.701 265.107 183.487L265.019 183.399Z" fill="white"/>
<path d="M257.478 199.553C257.478 199.553 257.215 198.06 256.776 197.358C256.425 196.744 255.373 195.866 254.759 195.251C254.145 194.724 253.268 194.373 252.654 193.407C252.654 193.407 252.041 192.178 251.865 190.949C250.024 194.9 247.919 198.851 245.639 202.538H245.726C245.726 203.679 246.34 204.996 246.34 204.996C246.866 205.962 247.656 206.489 248.27 207.015C248.883 207.63 249.76 208.596 250.111 209.298C250.462 210 250.55 211.581 250.55 211.581C253.093 207.805 255.373 203.767 257.565 199.728L257.478 199.553Z" fill="white"/>
<path d="M248.182 214.828C248.182 214.828 248.182 213.336 247.831 212.546C247.568 211.931 246.691 210.878 246.078 210.175C245.551 209.649 244.674 209.122 244.236 208.068C244.236 208.068 243.797 206.752 243.71 205.522C241.342 209.21 238.799 212.809 236.08 216.233H236.168C236.168 217.374 236.431 218.691 236.431 218.691C236.782 219.745 237.571 220.359 238.009 220.974C238.536 221.676 239.325 222.818 239.5 223.432C239.763 224.222 239.676 225.803 239.676 225.803C242.657 222.379 245.464 218.691 248.182 214.916V214.828Z" fill="white"/>
<path d="M237.044 228.7C237.044 228.7 237.22 227.208 236.957 226.417C236.781 225.715 235.992 224.574 235.553 223.871C235.115 223.169 234.326 222.555 234.063 221.501C234.063 221.501 233.8 220.184 233.887 218.955C230.993 222.291 228.012 225.54 224.854 228.524H224.942C224.679 229.666 224.942 231.07 224.942 231.07C225.118 232.124 225.819 232.826 226.258 233.529C226.696 234.319 227.31 235.46 227.485 236.162C227.661 236.953 227.31 238.533 227.31 238.533C230.73 235.46 233.975 232.212 237.132 228.788L237.044 228.7Z" fill="white"/>
<path d="M224.066 241.079C224.066 241.079 224.416 239.586 224.329 238.708C224.153 238.006 223.627 236.777 223.276 236.074C222.926 235.372 222.224 234.67 222.049 233.528C222.049 233.528 221.873 232.212 222.224 230.982C218.979 233.967 215.559 236.689 212.051 239.323H212.227C211.788 240.464 211.788 241.781 211.788 241.781C211.788 242.922 212.49 243.712 212.753 244.415C213.104 245.205 213.542 246.522 213.542 247.224C213.542 248.014 213.104 249.507 213.104 249.507C216.874 246.961 220.558 244.151 224.153 241.166L224.066 241.079Z" fill="white"/>
<path d="M209.683 251.614C209.683 251.614 210.209 250.209 210.209 249.331C210.209 248.629 209.771 247.312 209.507 246.522C209.244 245.819 208.63 245.029 208.63 243.888C208.63 243.888 208.63 242.483 209.157 241.342C205.561 243.888 201.79 246.17 198.019 248.277H198.195C197.581 249.331 197.405 250.736 197.405 250.736C197.405 251.789 197.844 252.667 198.019 253.457C198.195 254.247 198.545 255.652 198.458 256.354C198.458 257.144 197.756 258.549 197.756 258.549C201.878 256.53 205.824 254.247 209.771 251.701L209.683 251.614Z" fill="white"/>
<path d="M194.073 260.217C194.073 260.217 194.775 258.812 194.863 258.022C194.863 257.32 194.687 256.003 194.512 255.125C194.337 254.423 193.898 253.545 193.986 252.404C193.986 252.404 194.161 251.087 194.863 249.945C190.916 251.965 186.97 253.808 182.848 255.388H183.024C182.322 256.442 181.884 257.671 181.884 257.671C181.621 258.9 181.621 259.515 181.708 260.48C181.796 261.358 181.533 262.675 181.357 263.378C181.182 264.168 180.48 265.748 180.48 265.748C184.778 264.256 189.864 262.236 194.073 260.305V260.217Z" fill="white"/>
<path d="M176.359 266.539C176.359 266.539 176.709 265.661 176.885 264.871C177.06 264.168 177.236 263.29 177.236 262.412C177.236 261.622 176.622 261.008 176.885 259.954C176.885 259.954 177.674 257.584 178.463 256.618C174.254 258.023 168.203 260.393 164.344 262.5C163.467 262.939 162.59 263.378 162.59 263.378C162.152 264.432 162.064 265.222 161.976 266.012C161.976 266.89 161.801 268.119 161.801 268.997C161.801 270.841 160.135 273.387 160.135 273.387C164.607 272.596 170.308 269.963 174.166 267.768L176.359 266.627V266.539Z" fill="white"/>
<path d="M89.7139 264.694C89.7139 264.694 91.2047 264.255 91.8186 263.729C92.3448 263.29 93.1341 262.148 93.6602 261.446C94.0987 260.832 94.3618 259.866 95.2388 259.163C95.2388 259.163 96.3788 258.373 97.5189 258.022C93.3095 256.705 89.1877 255.125 85.2413 253.369H85.329C84.1013 253.633 82.8735 254.335 82.8735 254.335C81.9089 254.949 81.5581 255.827 81.1196 256.442C80.5934 257.144 79.7165 258.198 79.1026 258.549C78.401 259.076 76.9102 259.339 76.9102 259.339C81.0319 261.358 85.329 263.114 89.6262 264.694H89.7139Z" fill="white"/>
<path d="M73.4022 257.495C73.4022 257.495 74.893 257.232 75.6823 256.793C76.2961 256.442 77.1731 255.388 77.6993 254.774C78.2255 254.159 78.5763 253.281 79.5409 252.667C79.5409 252.667 80.7687 252.052 81.9964 251.789C78.0501 249.945 74.1037 247.838 70.4205 245.556H70.5082C69.2804 245.731 67.965 246.258 67.965 246.258C67.0003 246.697 66.4741 247.575 65.9479 248.189C65.3341 248.804 64.3694 249.682 63.6678 250.033C62.8785 250.384 61.3877 250.472 61.3877 250.472C65.2464 253.018 69.1927 255.301 73.3145 257.495H73.4022Z" fill="white"/>
<path d="M58.143 248.19C58.143 248.19 59.7215 248.19 60.4231 247.838C61.1246 247.575 62.0893 246.697 62.7909 246.083C63.3171 245.556 63.8432 244.678 64.8956 244.239C64.8956 244.239 66.2111 243.8 67.4388 243.712C63.7556 241.342 60.16 238.708 56.8275 236.074C55.5997 236.074 54.2843 236.425 54.2843 236.425C53.2319 236.777 52.6181 237.567 52.0042 238.006C51.3026 238.532 50.1626 239.323 49.5487 239.498C48.7594 239.762 47.2686 239.674 47.2686 239.674C50.7764 242.659 54.372 245.468 58.143 248.19Z" fill="white"/>
<path d="M44.2871 237.04C44.2871 237.04 45.8656 237.216 46.6549 237.04C47.3565 236.777 48.4965 236.162 49.1981 235.636C49.812 235.197 50.4258 234.406 51.4782 234.143C51.4782 234.143 52.7937 233.792 54.0214 233.967C50.6889 231.158 47.4442 228.085 44.4625 225.013C43.2347 224.837 41.9193 225.013 41.9193 225.013C40.8669 225.188 40.1653 225.978 39.4638 226.33C38.6745 226.768 37.5344 227.383 36.8328 227.471C36.0436 227.646 34.5527 227.295 34.5527 227.295C37.6221 230.719 40.8669 234.055 44.2871 237.128H44.3748L44.2871 237.04Z" fill="white"/>
<path d="M31.9218 224.135C31.9218 224.135 33.4127 224.486 34.2896 224.31C34.9912 224.31 36.219 223.608 37.0082 223.257C37.7098 222.906 38.4114 222.203 39.4637 222.028C39.4637 222.028 40.7792 221.852 42.0069 222.203C39.0253 218.955 36.219 215.531 33.6758 212.019V212.195C32.5357 211.756 31.1325 211.756 31.1325 211.756C29.9925 211.756 29.2909 212.458 28.5016 212.722C27.7124 213.073 26.3969 213.512 25.783 213.512C24.9061 213.512 23.5029 213.073 23.5029 213.073C26.0461 216.848 28.8524 220.535 31.8341 224.047H31.9218V224.135Z" fill="white"/>
<path d="M21.3978 209.736C21.3978 209.736 22.8009 210.263 23.6779 210.263C24.3795 210.263 25.6949 209.824 26.4842 209.561C27.1858 209.297 27.975 208.683 29.1151 208.683C29.1151 208.683 30.5182 208.683 31.6583 209.21C29.1151 205.61 26.835 201.835 24.7302 198.06V198.236C23.6779 197.709 22.2747 197.533 22.2747 197.533C21.2224 197.533 20.3454 197.972 19.5561 198.148C18.6792 198.411 17.3637 198.675 16.6621 198.587C15.7852 198.587 14.4697 197.884 14.4697 197.884C16.4868 202.011 18.7669 205.961 21.2224 209.912H21.3101L21.3978 209.736Z" fill="white"/>
<path d="M12.8034 194.11C12.8034 194.11 14.2066 194.812 14.9958 194.9C15.6974 194.9 17.0129 194.724 17.8898 194.549C18.6791 194.373 19.5561 193.934 20.6084 194.022C20.6084 194.022 21.9239 194.285 22.9762 194.812C20.9592 190.861 19.2053 186.911 17.539 182.872V183.048C16.4867 182.345 15.1712 181.994 15.1712 181.994C14.1189 181.731 13.1542 182.17 12.3649 182.258C11.488 182.258 10.1725 182.433 9.47093 182.258C8.68166 182.082 7.36621 181.204 7.36621 181.204C8.85706 185.506 10.611 189.808 12.5403 194.022H12.628L12.8034 194.11Z" fill="white"/>
<path d="M6.40221 177.429C6.40221 177.429 7.62996 178.307 8.50693 178.483C9.2085 178.658 10.524 178.571 11.4009 178.483C12.1902 178.483 13.0672 178.044 14.2072 178.307C14.2072 178.307 15.5227 178.658 16.4873 179.448C14.9965 175.322 13.7687 171.108 12.7164 166.894C11.8394 166.192 10.524 165.665 10.524 165.665C9.47159 165.314 8.50693 165.665 7.71766 165.577C6.84069 165.577 5.52524 165.577 4.82367 165.226C4.03439 164.963 2.89434 163.909 2.89434 163.909H2.80664C3.68361 168.387 4.91136 172.864 6.31451 177.254L6.40221 177.429Z" fill="white"/>
<path d="M2.10452 160.134C2.10452 160.134 3.24458 161.188 4.03385 161.539C4.73542 161.802 6.05087 161.89 6.92784 161.89C7.71711 161.89 8.68178 161.714 9.73414 162.065C9.73414 162.065 10.9619 162.592 11.8389 163.47C10.8742 159.168 10.1726 154.779 9.73414 150.477C8.94487 149.687 7.80481 148.984 7.80481 148.984C6.84014 148.458 5.87548 148.633 5.08621 148.545C4.20924 148.458 2.89379 148.194 2.27991 147.843C1.57834 147.492 0.525979 146.351 0.525979 146.351H0.350586C0.701373 150.916 1.22755 155.481 2.01682 160.046H2.10452V160.134Z" fill="white"/>
<path d="M0.175051 142.4C0.175051 142.4 1.13972 143.541 1.84129 143.98C2.45517 144.331 3.85832 144.594 4.64759 144.77C5.43686 144.946 6.40152 144.77 7.36619 145.385C7.36619 145.385 8.50624 146.087 9.29552 147.053C8.94473 142.663 8.76933 138.273 8.94473 133.884V134.059C8.15546 133.006 7.1031 132.216 7.1031 132.216C6.13843 131.601 5.17377 131.601 4.47219 131.338C3.68292 131.074 2.36747 130.723 1.75359 130.284C1.05202 129.845 0.175051 128.528 0.175051 128.528H0.262747C-0.000342898 133.094 -0.000342898 137.659 0.262747 142.312L0.175051 142.4Z" fill="white"/>
<path d="M0.614064 124.49C0.614064 124.49 1.40333 125.806 2.10491 126.333C2.63109 126.684 3.94654 127.211 4.73581 127.475C5.43739 127.738 6.48975 127.738 7.36671 128.352C7.36671 128.352 8.41908 129.23 9.03295 130.284C9.20835 125.894 9.73453 121.505 10.3484 117.203C9.82222 116.149 8.85756 115.271 8.85756 115.271C7.98059 114.481 7.01593 114.393 6.31435 114.13C5.52508 113.779 4.29733 113.252 3.77115 112.725C3.15727 112.199 2.4557 110.794 2.4557 110.794C1.57873 115.271 0.964851 119.837 0.526367 124.49H0.614064Z" fill="white"/>
<path d="M3.33281 106.931C3.33281 106.931 3.94669 108.336 4.56057 108.863C5.08675 109.389 6.31451 110.004 7.10378 110.355C7.80535 110.706 8.77002 110.794 9.55929 111.584C9.55929 111.584 10.524 112.55 10.9624 113.691C11.7517 109.302 12.7164 105.087 13.9441 100.873C13.5933 99.8199 12.7164 98.6786 12.7164 98.6786C12.0148 97.8007 11.0501 97.6251 10.3486 97.1861C9.64698 96.7472 8.41923 95.957 7.98074 95.4303C7.45456 94.8157 6.92838 93.3232 6.92838 93.3232C5.43754 97.6251 4.29748 102.103 3.24512 106.668L3.33281 106.931Z" fill="white"/>
<path d="M8.33105 89.724C8.33105 89.724 8.76954 91.2165 9.29572 91.831C9.7342 92.3578 10.8743 93.1479 11.5758 93.5869C12.1897 94.0258 13.1544 94.2892 13.8559 95.1671C13.8559 95.1671 14.6452 96.3084 14.996 97.4497C16.3115 93.2357 17.89 89.1094 19.6439 85.1588C19.3808 84.0175 18.6793 82.8761 18.6793 82.8761C18.0654 81.9104 17.1884 81.5593 16.5745 81.1203C15.873 80.5935 14.8206 79.7156 14.4698 79.1011C14.0313 78.3987 13.7683 76.9062 13.7683 76.9062C11.7512 81.0325 9.99729 85.2466 8.41875 89.6362L8.33105 89.724Z" fill="white"/>
<path d="M15.5223 73.4826C15.5223 73.4826 15.7854 74.9751 16.2238 75.6774C16.5746 76.2919 17.627 77.1699 18.2409 77.6966C18.8547 78.2234 19.7317 78.5746 20.3456 79.5403C20.3456 79.5403 20.9595 80.7694 21.1349 81.9107C22.9765 77.96 25.0812 74.0971 27.3613 70.322H27.2736C27.2736 69.1807 26.6598 67.8638 26.6598 67.8638C26.2213 66.8981 25.3443 66.3714 24.8181 65.8446C24.2042 65.2301 23.3273 64.2643 22.9765 63.6498C22.6257 62.8597 22.4503 61.3672 22.4503 61.3672C19.9071 65.1423 17.627 69.1807 15.4346 73.2192L15.5223 73.4826Z" fill="white"/>
<path d="M24.8184 58.2065C24.8184 58.2065 24.8184 59.7868 25.1691 60.4891C25.4322 61.1037 26.3092 62.1572 26.9231 62.8595C27.4493 63.3863 28.3262 63.913 28.7647 64.9665C28.7647 64.9665 29.2032 66.1956 29.2909 67.5125C31.6587 63.8252 34.2019 60.2257 36.9205 56.8018H36.8328C36.9205 55.5727 36.5697 54.3436 36.5697 54.3436C36.2189 53.2901 35.4297 52.6756 34.9912 52.061C34.465 51.3587 33.6757 50.2174 33.5003 49.6028C33.2372 48.8127 33.3249 47.2324 33.3249 47.2324C30.3433 50.6563 27.4493 54.3436 24.8184 58.1187V58.2065Z" fill="white"/>
<path d="M35.9557 44.2478C35.9557 44.2478 35.7803 45.7403 35.9557 46.5304C36.1311 47.2328 36.9203 48.3741 37.3588 49.0764C37.7973 49.691 38.5866 50.3055 38.8497 51.4468C38.8497 51.4468 39.2004 52.7637 39.0251 53.9928C41.919 50.5689 44.9007 47.4084 47.9701 44.4234H47.8824C48.1455 43.1943 47.9701 41.8774 47.9701 41.8774C47.7947 40.8239 47.0055 40.1216 46.6547 39.4192C46.2162 38.7169 45.6023 37.4878 45.4269 36.7854C45.2515 35.9953 45.6023 34.415 45.6023 34.415C42.1821 37.4878 38.9374 40.6483 35.7803 44.0722L35.9557 44.2478Z" fill="white"/>
<path d="M48.8476 31.9563C48.8476 31.9563 48.4968 33.4488 48.6722 34.3267C48.7599 35.0291 49.3737 36.2582 49.7245 37.0483C50.0753 37.7506 50.7769 38.453 50.9523 39.5065C50.9523 39.5065 51.1277 40.8234 50.7769 42.0525C54.0217 39.0675 57.4418 36.2582 60.9497 33.7122H60.862C61.3005 32.5709 61.3005 31.1662 61.3005 31.1662C61.3005 30.0249 60.5989 29.3225 60.3358 28.5324C59.985 27.7423 59.5466 26.4254 59.5466 25.723C59.5466 24.9329 59.985 23.4404 59.985 23.4404C56.2141 25.9864 52.5308 28.7958 48.9352 31.7807L48.8476 31.9563Z" fill="white"/>
<path d="M63.2293 21.4218C63.2293 21.4218 62.7031 22.8265 62.7031 23.7045C62.7031 24.4068 63.1416 25.7237 63.4047 26.5138C63.6678 27.2162 64.2817 28.0063 64.2817 29.1476C64.2817 29.1476 64.2817 30.4645 63.7555 31.6058C67.3511 29.1476 71.122 26.7772 74.893 24.6702H74.8053C75.3315 23.6167 75.5069 22.212 75.5069 22.212C75.5069 21.0707 75.0684 20.2805 74.893 19.4904C74.7176 18.7003 74.4545 17.2956 74.4545 16.5933C74.4545 15.7153 75.2438 14.3984 75.2438 14.3984C71.122 16.4177 67.1757 18.7003 63.2293 21.2463V21.4218Z" fill="white"/>
<path d="M78.927 12.8173C78.927 12.8173 78.1377 14.2219 78.1377 15.0121C78.1377 15.7144 78.3131 17.0313 78.4885 17.9092C78.6639 18.6994 79.1024 19.4895 79.0147 20.6308C79.0147 20.6308 78.8393 21.9477 78.2254 23.089C82.1717 21.0698 86.1181 19.2261 90.2398 17.6459H90.0645C90.766 16.5924 91.1168 15.2755 91.1168 15.2755C91.3799 14.2219 90.9414 13.2562 90.8537 12.4661C90.766 11.5882 90.6783 10.2713 90.8537 9.56894C91.0291 8.7788 91.9061 7.46191 91.9061 7.46191C87.6089 8.95439 83.3118 10.7102 79.1024 12.6417L78.927 12.8173Z" fill="white"/>
<path d="M95.5014 6.40907C95.5014 6.40907 94.6244 7.63816 94.449 8.4283C94.2737 9.13064 94.3613 10.4475 94.449 11.3255C94.449 12.1156 94.8875 12.9935 94.6244 14.047C94.6244 14.047 94.1859 15.3639 93.4844 16.3296C97.6061 14.8372 101.816 13.6081 106.025 12.5546H105.937C106.727 11.5888 107.253 10.3597 107.253 10.3597C107.604 9.30622 107.34 8.34051 107.34 7.63816C107.34 6.76024 107.34 5.44335 107.691 4.74101C107.954 3.95087 108.919 2.80957 108.919 2.80957C104.446 3.77529 99.9739 4.91659 95.5891 6.32128L95.5014 6.40907Z" fill="white"/>
<path d="M112.866 2.19443C112.866 2.19443 111.813 3.33573 111.55 4.12587C111.287 4.74041 111.199 6.1451 111.112 7.02302C111.112 7.81316 111.287 8.77888 110.936 9.83239C110.936 9.83239 110.41 11.0615 109.533 11.9394C113.83 10.9737 118.215 10.2713 122.512 9.83239H122.425C123.389 8.95446 124.003 7.81316 124.003 7.81316C124.529 6.84744 124.354 5.88172 124.442 5.09158C124.529 4.21366 124.792 2.89677 125.143 2.28222C125.494 1.49209 126.634 0.526367 126.634 0.526367C122.074 0.877538 117.514 1.40429 112.953 2.19443H112.866Z" fill="white"/>
<path d="M130.581 0.263323C130.581 0.263323 129.441 1.22904 129.002 1.93138C128.651 2.54593 128.388 3.86282 128.213 4.74075C128.125 5.53088 128.213 6.4966 127.687 7.46232C127.687 7.46232 126.985 8.60363 126.021 9.39376C130.405 9.04259 134.79 8.867 139.175 8.95479H139.087C140.14 8.25245 140.929 7.11115 140.929 7.11115C141.543 6.23322 141.543 5.17971 141.718 4.47737C141.894 3.68724 142.332 2.37035 142.771 1.7558C143.209 1.05346 144.525 0.17553 144.525 0.17553C139.964 -0.0878478 135.316 -0.17564 130.668 0.0877375L130.581 0.263323Z" fill="white"/>
<path d="M97.4307 264.168C97.4307 264.168 98.8338 271.543 103.745 271.718C104.709 268.733 108.831 265.134 111.287 263.378L112.251 262.324C111.462 256.179 114.268 252.843 114.268 252.843L111.55 253.457C105.674 255.038 100.412 259.076 97.4307 264.168Z" fill="white"/>
<path d="M106.201 288.487C107.165 288.223 108.13 287.346 108.481 286.994C105.148 284.361 102.956 280.234 103.044 275.581C96.9049 274.879 95.5018 267.943 95.5018 267.943C94.6248 270.314 94.1863 272.86 94.0986 275.406C94.0986 280.234 95.4141 284.712 97.8696 288.399C97.8696 288.399 102.605 289.453 106.113 288.399L106.201 288.487Z" fill="white"/>
<path d="M119.531 289.716C118.654 289.892 117.777 289.979 116.9 289.892C115.146 289.892 113.567 289.54 111.989 288.926C110.673 293.14 101.114 292.262 101.114 292.262C104.447 295.51 109.095 297.968 114.006 298.671C114.006 298.671 119.443 297.442 119.618 289.716H119.531Z" fill="white"/>
<path d="M122.425 289.189C122.425 289.189 122.513 289.189 122.6 289.102L126.722 289.979C134.352 291.911 135.755 293.14 135.755 293.14C135.755 293.14 127.073 301.305 119.443 299.373C119.443 299.373 125.144 295.247 122.6 289.102" fill="white"/>
<path d="M148.032 287.258C142.244 282.605 136.631 281.815 132.422 280.41L124.003 286.292L134.088 289.628C137.157 290.419 137.947 291.911 141.718 294.369C141.718 294.369 150.575 289.277 148.032 287.17V287.258Z" fill="white"/>
<path d="M165.308 295.774C162.063 299.11 156.626 299.285 156.626 299.285C152.768 299.373 149.172 299.11 144.787 296.388C144.787 296.388 152.241 291.384 151.891 288.926C153.557 289.365 158.731 290.243 160.134 289.277C160.134 289.277 161.976 293.754 165.308 295.861V295.774Z" fill="white"/>
<path d="M151.978 263.642C155.837 260.481 159.169 259.252 161.8 260.042C170.745 256.179 172.148 255.916 172.148 255.916C168.641 251.965 165.045 251.175 158.994 251.438C156.275 251.526 147.856 254.687 146.541 256.53" fill="white"/>
<path d="M149.173 265.485C149.173 265.485 143.297 260.568 144.437 257.057C137.947 262.763 135.229 265.66 129.879 265.66C128.564 265.924 129.704 265.66 129.704 265.66C129.002 266.538 128.564 267.592 128.388 268.382C128.125 269.172 127.862 270.138 127.862 270.84C127.862 273.123 127.95 273.737 127.95 273.737C133.826 274.088 133.475 274.264 138.824 272.859C138.824 272.859 142.508 271.542 146.103 268.031C146.717 267.416 148.471 266.099 149.085 265.397L149.173 265.485Z" fill="white"/>
<path d="M125.144 274.176C125.144 274.176 124.53 274.176 125.144 270.665C125.319 269.611 125.758 268.997 126.021 268.206C126.284 267.504 126.634 266.451 127.424 265.66H125.758C121.373 265.309 119.093 264.958 114.795 264.168C113.392 264.607 111.463 265.836 111.112 266.538C110.761 267.329 109.972 267.592 109.534 268.119C109.183 268.47 107.955 270.05 107.955 270.05C112.428 271.982 120.583 274.44 125.056 274.264L125.144 274.176Z" fill="white"/>
<path d="M119.794 253.632C120.496 252.579 121.899 252.93 122.951 252.755C128.213 252.14 135.755 255.74 137.246 259.163L134.878 261.007C132.861 262.763 129.967 263.114 129.967 263.114L128.651 262.675C126.985 261.973 124.53 261.709 122.6 261.622C120.759 261.622 118.654 261.095 116.988 261.797C115.058 259.69 119.882 253.72 119.882 253.72L119.794 253.632Z" fill="white"/>
<path d="M98.045 292.789C96.1157 294.193 94.9756 295.335 94.9756 295.335L93.0463 297.178H93.134C93.134 297.178 86.9952 289.891 82.1719 294.018C84.1889 291.472 86.0305 289.189 87.0829 288.136C88.1353 287.082 89.363 285.941 91.2923 284.887L90.7662 285.238C91.4677 284.887 92.0816 284.624 92.7832 284.448C92.7832 284.448 94.0986 290.506 98.2204 292.701L98.045 292.789Z" fill="white"/>
<path d="M78.9268 297.968C85.2409 292.789 90.3273 299.636 90.3273 299.636L85.6794 304.202L78.9268 297.968Z" fill="white"/>
<path d="M82.7862 307.011L83.6632 306.045L77.5244 300.075L76.6475 301.041L82.7862 307.011Z" fill="white"/>
<path d="M74.9805 302.183C72.7881 303.587 71.4727 304.816 71.4727 304.816L78.4007 312.893L81.2947 308.592L74.9805 302.183Z" fill="white"/>
<path d="M189.864 304.377C191.968 305.869 193.284 307.186 193.284 307.186L186.093 315L183.374 310.522L189.951 304.377H189.864Z" fill="white"/>
<path d="M187.934 303.411L187.057 302.445L180.655 308.152L181.532 309.118L187.934 303.411Z" fill="white"/>
<path d="M186.093 300.076C180.042 294.632 174.604 301.305 174.604 301.305L179.165 306.045L186.18 300.076H186.093Z" fill="white"/>
<path d="M174.341 286.555C166.098 282.166 161.713 288.487 161.713 288.487C166.799 290.945 170.746 296.563 170.746 296.563L172.061 298.671H171.973C171.973 298.671 178.375 291.559 183.023 295.949C181.006 293.315 179.34 291.033 178.375 290.067C177.586 289.189 176.095 287.96 174.341 286.643V286.555Z" fill="white"/>
<path d="M143.559 273.21C142.858 273.474 147.944 275.317 156.012 274.176C156.012 274.176 157.065 273.035 157.415 272.245C157.679 271.542 158.292 270.05 158.292 269.172C158.292 268.382 158.643 267.943 158.643 266.801C158.643 266.801 158.643 265.748 158.994 264.782C158.117 265.221 153.294 266.889 153.294 266.889C151.978 267.24 151.101 267.416 151.101 267.416C150.4 267.943 149.786 268.645 149.172 269.172C148.733 269.523 147.857 270.313 146.804 271.103C146.278 271.542 143.822 273.035 143.472 273.298L143.559 273.21Z" fill="white"/>
<path d="M177.323 284.624C182.322 278.918 180.217 272.158 179.252 268.909L169.43 273.387C169.605 273.826 171.096 276.635 168.29 279.795C168.29 279.795 177.849 283.922 177.323 284.536V284.624Z" fill="white"/>
<path d="M158.205 287.082C158.205 287.082 164.87 280.936 169.079 282.868L168.115 281.99C164.344 279.18 159.696 277.512 155.136 277.337C151.014 277.161 143.91 278.39 142.244 281.112C142.244 281.112 148.383 282.341 152.242 286.292C152.592 286.643 154.171 286.204 158.117 287.17L158.205 287.082Z" fill="white"/>
<path d="M56.7396 134.059L60.686 126.158L69.368 127.475L63.1415 121.241L67.0879 113.34L59.2828 117.378L52.9687 111.233L54.3718 119.924L46.5668 123.963L55.2488 125.28L56.6519 133.971L56.7396 134.059ZM116.637 157.412H116.461C111.901 157.851 106.113 158.378 100.763 159.519C98.2202 149.51 90.9414 136.605 78.4007 138.449C67.7017 140.029 63.2292 151.003 65.7724 160.748C50.5132 162.855 37.7094 150.476 34.5524 136.429C29.9921 115.359 45.3391 94.1133 67.5263 94.1133C98.7464 94.1133 115.584 135.288 116.637 157.412Z" fill="white"/>
<path d="M216.172 134.059L217.575 125.367L226.345 124.051L218.54 120.012L219.943 111.321L213.629 117.466L205.824 113.428L209.77 121.329L203.456 127.475L212.226 126.158L216.172 134.059ZM156.275 157.412C157.328 135.376 174.166 94.2011 205.386 94.1133C227.661 94.1133 243.008 115.359 238.36 136.429C235.29 150.476 222.399 162.855 207.14 160.748C209.683 151.003 205.21 139.941 194.511 138.449C182.058 136.605 174.779 149.51 172.236 159.431C166.887 158.378 161.011 157.851 156.538 157.412H156.275Z" fill="white"/>
<path d="M136.544 171.546C156.714 171.546 172.938 169.703 172.938 168.386C172.938 167.069 156.627 165.138 136.456 165.138C116.286 165.138 99.8868 167.157 99.8868 168.386C99.8868 169.615 116.374 171.546 136.544 171.546ZM136.456 176.112C113.129 176.112 94.1865 172.688 94.1865 168.386C94.1865 164.084 113.129 160.66 136.456 160.66C159.784 160.66 178.638 164.084 178.638 168.386C178.638 172.688 159.696 176.112 136.456 176.112Z" fill="white"/>
<path d="M170.746 177.517C166.449 178.394 161.538 179.097 156.013 179.624C157.065 188.842 164.695 208.771 177.849 208.771C187.496 208.771 194.95 200.343 195.739 191.124C184.426 196.48 172.938 190.861 170.658 177.429L170.746 177.517Z" fill="white"/>
<path d="M116.725 179.712C111.375 179.185 106.464 178.482 102.167 177.604C99.9746 191.125 88.3986 196.831 76.998 191.476C77.7873 200.694 85.2415 209.122 94.8882 209.122C108.13 209.122 115.848 188.842 116.725 179.624V179.712Z" fill="white"/>
<path fill-rule="evenodd" clip-rule="evenodd" d="M136.456 29.8496C142.068 35.9073 151.452 43.0185 153.294 44.4232C167.676 55.2217 174.429 70.0586 174.516 82.9641C174.692 106.932 154.521 128.002 151.978 156.886C147.856 156.447 143.472 156.183 138.999 156.183C139.525 126.86 138.385 87.0026 136.456 58.2944C134.439 87.0026 133.299 126.773 133.825 156.183C129.265 156.183 124.88 156.447 120.846 156.886C118.303 127.914 98.1324 106.932 98.3078 82.9641C98.3955 70.0586 105.148 55.2217 119.618 44.4232C121.547 43.0185 130.843 35.8195 136.456 29.8496Z" fill="white"/>
<path fill-rule="evenodd" clip-rule="evenodd" d="M136.456 235.635C147.681 230.719 159.257 220.184 164.256 209.385C157.065 199.465 153.469 188.754 152.329 180.062C148.208 180.326 143.823 180.501 139.262 180.501C138.649 188.315 138.736 204.82 136.456 213.775C134.176 204.82 134.176 188.227 133.65 180.501C129.09 180.501 124.705 180.326 120.583 180.062C119.443 188.754 115.847 199.465 108.656 209.385C113.567 220.184 125.143 230.631 136.456 235.635Z" fill="white"/>
</g>
<defs>
<clipPath id="clip0_6712_165984">
<rect width="273" height="315" fill="white"/>
</clipPath>
</defs>
</svg>
