<svg width="40" height="40" viewBox="0 0 40 40" fill="none" xmlns="http://www.w3.org/2000/svg">
<path d="M32.5002 5H7.50024C6.83747 5.00086 6.20208 5.26453 5.73343 5.73319C5.26477 6.20184 5.00111 6.83722 5.00024 7.5V16.6663C5.00024 30.6445 16.8472 35.2795 19.2239 36.0669C19.7273 36.2378 20.2731 36.2378 20.7766 36.0669C23.1521 35.2795 35.0002 30.6458 35.0002 16.6663V7.5C34.9994 6.83722 34.7357 6.20184 34.2671 5.73318C33.7984 5.26453 33.163 5.00086 32.5002 5V5ZM27.7383 15.9045L18.5708 24.6545C18.3382 24.8763 18.0291 25 17.7078 25C17.3864 25 17.0773 24.8763 16.8447 24.6545L12.2622 20.2795C12.1433 20.1662 12.0478 20.0306 11.9813 19.8804C11.9148 19.7302 11.8785 19.5684 11.8746 19.4041C11.8706 19.2399 11.8991 19.0765 11.9584 18.9233C12.0176 18.7701 12.1065 18.63 12.2199 18.5112C12.3333 18.3923 12.469 18.297 12.6193 18.2306C12.7695 18.1642 12.9314 18.1281 13.0956 18.1243C13.2599 18.1206 13.4232 18.1492 13.5764 18.2086C13.7296 18.268 13.8695 18.357 13.9883 18.4705L17.7078 22.0215L26.0122 14.0955C26.131 13.982 26.2709 13.893 26.4241 13.8336C26.5772 13.7742 26.7406 13.7456 26.9048 13.7493C27.0691 13.7531 27.2309 13.7892 27.3812 13.8556C27.5315 13.922 27.6672 14.0173 27.7806 14.1362C27.894 14.255 27.9829 14.3951 28.0421 14.5483C28.1014 14.7015 28.1298 14.8649 28.1259 15.0291C28.122 15.1934 28.0857 15.3552 28.0192 15.5054C27.9527 15.6556 27.8572 15.7912 27.7383 15.9045H27.7383Z" fill="#4F46E5"/>
</svg>
