<svg width="18" height="17" viewBox="0 0 18 17" fill="none" xmlns="http://www.w3.org/2000/svg">
<path d="M2.49549 12.3336C2.49549 12.0087 2.48127 11.683 2.50238 11.3594C2.51082 11.2268 2.46504 11.183 2.36326 11.1272C1.95948 10.9055 1.58835 10.6417 1.31035 10.269C1.11034 10 0.999227 9.70425 1.00434 9.36359C1.01301 8.87088 1.02456 8.37774 1.00256 7.88525C0.965449 7.04246 1.33346 6.41086 1.99081 5.91464C2.57794 5.47079 3.24773 5.19541 3.94909 4.98553C4.06576 4.95048 4.18331 4.9174 4.30221 4.89177C4.38332 4.87424 4.41554 4.84094 4.41332 4.75353C4.40643 4.50181 4.42243 4.24965 4.40888 3.99793C4.36443 3.1639 4.73888 2.53865 5.38668 2.04507C6.00025 1.5769 6.7016 1.2921 7.43851 1.08266C8.31431 0.834009 9.21012 0.712421 10.1193 0.678683C11.5795 0.623475 13.0176 0.74813 14.4105 1.21411C15.0994 1.44436 15.7461 1.7537 16.2848 2.24794C16.6572 2.58948 16.9323 2.99127 16.9903 3.50303C17.011 3.68618 16.9921 3.87371 16.9921 4.05927C16.9921 4.52284 16.9786 4.98707 16.9959 5.44998C17.0132 5.91289 16.8279 6.28467 16.5085 6.6054C16.083 7.03194 15.5658 7.32288 15.0076 7.53823C14.5716 7.7067 14.1191 7.83442 13.6718 7.97398C13.6051 7.99588 13.5829 8.01779 13.5842 8.08351C13.5867 8.48859 13.5876 8.8941 13.5842 9.29896C13.5842 9.36665 13.6151 9.39557 13.6658 9.42515C14.0636 9.65781 14.4267 9.93187 14.7029 10.3037C14.9792 10.6754 15.1101 11.0884 15.0807 11.5629C15.0517 12.0624 15.0517 12.563 15.0807 13.0625C15.1121 13.6349 14.862 14.0613 14.4489 14.4208C13.9122 14.8881 13.2756 15.1775 12.608 15.4066C11.5837 15.7572 10.5248 15.9357 9.44412 15.9839C7.83608 16.0553 6.2587 15.8945 4.73844 15.3424C4.1482 15.1282 3.5913 14.8506 3.12106 14.4289C2.8135 14.1531 2.56771 13.8343 2.51038 13.4154C2.48438 13.2251 2.49838 13.0294 2.49638 12.8362C2.49416 12.6686 2.49549 12.5008 2.49549 12.3336ZM10.9355 5.81584C11.1893 5.79744 11.6664 5.77487 12.1406 5.72624C12.9536 5.64299 13.7458 5.46663 14.5025 5.15488C14.9452 4.97239 15.3645 4.74959 15.7054 4.40651C16.1541 3.95499 16.1623 3.50084 15.7276 3.03771C15.4543 2.74612 15.1154 2.54501 14.7558 2.37719C13.886 1.97124 12.9593 1.77407 12.0102 1.67571C10.9344 1.56101 9.84792 1.58953 8.77988 1.76049C8.00208 1.88624 7.24651 2.08472 6.54182 2.44095C6.17026 2.62869 5.82291 2.85084 5.57135 3.18953C5.31979 3.52823 5.31334 3.87503 5.55891 4.21197C5.62795 4.30691 5.70625 4.39496 5.79269 4.47486C6.1867 4.83722 6.6616 5.06484 7.16051 5.24668C8.30565 5.66468 9.49901 5.80007 10.9355 5.81584ZM12.2911 8.25242L12.276 8.23052C12.2553 8.23052 12.2344 8.22898 12.214 8.23052C11.9229 8.25505 11.6322 8.28945 11.3406 8.30369C10.4607 8.34868 9.57838 8.30574 8.70721 8.17553C7.83052 8.04255 6.97561 7.83048 6.16781 7.45892C5.69202 7.23985 5.24712 6.97695 4.88444 6.59379C4.677 6.38105 4.52602 6.12113 4.44488 5.83709C3.74619 6.03251 3.07328 6.26517 2.50949 6.7191C2.34104 6.85471 2.19593 7.02953 2.07637 7.20983C1.92081 7.44381 1.92303 7.71043 2.0737 7.94659C2.18389 8.12297 2.31962 8.28254 2.4766 8.42024C2.9495 8.82356 3.51863 9.05228 4.10753 9.23521C5.04267 9.52549 6.0047 9.64992 6.98183 9.67336C8.04497 9.69834 9.09656 9.61136 10.1266 9.33905C10.7728 9.16817 11.3948 8.93879 11.9409 8.54533C12.0644 8.45595 12.1751 8.35035 12.2915 8.25242H12.2911ZM3.52974 11.6389C3.60596 11.8523 3.7353 12.0114 3.88708 12.1511C4.28709 12.5201 4.76711 12.751 5.27334 12.9354C6.16226 13.2592 7.08606 13.4119 8.02897 13.4658C9.15078 13.5298 10.2633 13.4674 11.3606 13.2176C12.012 13.0693 12.642 12.8623 13.2189 12.5207C13.5131 12.3466 13.7836 12.1437 13.9745 11.8558C14.1745 11.5535 14.1845 11.2479 13.9774 10.9442C13.792 10.6726 13.5356 10.4791 13.2567 10.3072C13.1778 10.3891 13.1076 10.4691 13.03 10.5413C12.6655 10.8818 12.2395 11.1296 11.7855 11.3316C10.641 11.8398 9.4299 12.0764 8.18542 12.1603C6.89272 12.248 5.6118 12.1573 4.34932 11.8587C4.08109 11.7951 3.81619 11.7163 3.52974 11.6389ZM1.97414 9.25383C1.93103 9.45735 1.98614 9.62626 2.11904 9.77348C2.38749 10.0725 2.73039 10.2673 3.08973 10.4344C3.91731 10.8194 4.79533 11.0284 5.69891 11.1429C7.10317 11.321 8.49899 11.2777 9.87947 10.9609C10.5957 10.7966 11.2873 10.5628 11.9217 10.1873C12.1506 10.0517 12.368 9.90055 12.5344 9.68804C12.6349 9.55966 12.6413 9.41879 12.6198 9.25777C12.5882 9.27968 12.5669 9.29239 12.5467 9.30706C12.2163 9.5421 11.8592 9.73826 11.4826 9.89156C10.5284 10.2874 9.52701 10.4864 8.50032 10.5707C7.15695 10.6813 5.82291 10.6261 4.50555 10.3253C3.61219 10.1212 2.76105 9.8162 2.01503 9.27157C2.00218 9.26436 1.98863 9.25842 1.97459 9.25383H1.97414ZM3.46107 13.0721C3.41663 13.2838 3.47996 13.4621 3.62908 13.6052C3.74862 13.7242 3.87837 13.8329 4.01686 13.93C4.5611 14.2961 5.17023 14.5216 5.80225 14.6846C7.65933 15.1607 9.52338 15.1876 11.3944 14.7654C12.1146 14.6035 12.8078 14.3627 13.4425 13.9798C13.6607 13.8483 13.8676 13.7015 14.0256 13.4978C14.1247 13.3694 14.132 13.2294 14.1076 13.075C13.2902 13.5789 13.0264 13.7103 12.4522 13.8996C11.2102 14.3077 9.92969 14.4473 8.62655 14.4333C7.84569 14.429 7.06697 14.3523 6.3007 14.2041C5.54691 14.0551 4.816 13.8367 4.1362 13.4763C3.90642 13.3545 3.6893 13.2099 3.46152 13.0721H3.46107ZM16.0194 5.39587C15.9961 5.41076 15.9774 5.42084 15.9605 5.43311C15.5927 5.70236 15.1894 5.90807 14.7658 6.07435C13.6031 6.53047 12.3858 6.70968 11.1435 6.74933C10.2256 6.78266 9.30676 6.71861 8.40276 6.55829C7.59141 6.41151 6.80427 6.18827 6.07248 5.8051C5.83558 5.68067 5.61224 5.53148 5.38046 5.39236C5.33179 5.60793 5.41001 5.78495 5.56024 5.94225C5.77158 6.16286 6.02536 6.32607 6.29515 6.46475C7.24762 6.95373 8.2752 7.1853 9.33279 7.30185C10.2197 7.40112 11.1151 7.40281 12.0024 7.30688C12.8591 7.21399 13.6951 7.03545 14.4971 6.7191C14.9661 6.53398 15.4172 6.31687 15.7965 5.97861C15.9672 5.82701 16.0819 5.65175 16.0194 5.39587Z" fill="#00BA88" stroke="#00BA88"/>
</svg>
