<svg width="235" height="55" viewBox="0 0 235 55" fill="none" xmlns="http://www.w3.org/2000/svg">
<g clip-path="url(#clip0_6812_165346)">
<path d="M26.5657 46.0319C26.5657 46.0319 25.3394 45.0816 25.7226 44.6523L26.5657 46.0319Z" fill="white"/>
<path d="M22.2569 48.7607C21.1072 48.3162 19.5283 48.1936 18.6699 48.5308L18.8845 48.9294L19.467 49.7265L20.1415 49.6651C20.1415 49.6651 20.6627 49.6805 21.0306 49.8644C21.0306 49.8644 22.1342 48.7147 22.2569 48.7607Z" fill="white"/>
<path d="M25.9512 0.10683C25.9512 0.10683 25.7212 0.24479 25.6293 0.367421C25.5679 0.459394 25.476 0.689327 25.43 0.827287C25.384 0.949918 25.384 1.13386 25.2767 1.28715C25.2767 1.28715 25.1234 1.4711 24.9395 1.5784C25.7059 1.60906 26.4723 1.6857 27.2235 1.80834H27.1928C27.3921 1.70103 27.5607 1.53242 27.5607 1.53242C27.6986 1.39446 27.714 1.22584 27.76 1.08788C27.8213 0.949918 27.9286 0.735314 28.0052 0.64334C28.0972 0.536038 28.3425 0.413407 28.3425 0.413407C27.5607 0.260118 26.7636 0.152816 25.9512 0.0761719V0.10683Z" fill="white"/>
<path d="M29.0335 0.583392C29.0335 0.583392 28.7883 0.690694 28.681 0.797996C28.6043 0.889969 28.4817 1.10457 28.4204 1.24253C28.3591 1.36516 28.3284 1.53378 28.2058 1.67174C28.2058 1.67174 28.0372 1.84036 27.8379 1.917C28.589 2.05496 29.3401 2.22358 30.0759 2.43819H30.0606C30.2752 2.36154 30.4591 2.20825 30.4591 2.20825C30.6124 2.08562 30.6584 1.917 30.7197 1.79437C30.7964 1.67174 30.919 1.47247 31.011 1.38049C31.1183 1.28852 31.3789 1.19655 31.3789 1.19655C30.6277 0.951285 29.846 0.736681 29.0489 0.552734L29.0335 0.583392Z" fill="white"/>
<path d="M32.0228 1.45674C32.0228 1.45674 31.7622 1.53338 31.6549 1.62535C31.5629 1.702 31.4249 1.90127 31.3483 2.0239C31.2717 2.13121 31.2257 2.29982 31.0724 2.42245C31.0724 2.42245 30.8884 2.56041 30.6738 2.62173C31.4096 2.85166 32.1301 3.12758 32.8199 3.43416C33.0345 3.37284 33.2338 3.25021 33.2338 3.25021C33.4024 3.14291 33.4637 2.98962 33.5403 2.88232C33.6323 2.75969 33.7856 2.57574 33.8929 2.51443C34.0155 2.43778 34.2761 2.37647 34.2761 2.37647C33.5557 2.0239 32.8199 1.71733 32.0534 1.44141H32.0381L32.0228 1.45674Z" fill="white"/>
<path d="M34.8736 2.71259C34.8736 2.71259 34.613 2.75858 34.4904 2.83523C34.3831 2.89654 34.2298 3.08049 34.1378 3.18779C34.0459 3.29509 33.9845 3.44838 33.8159 3.55568C33.8159 3.55568 33.6013 3.66298 33.3867 3.69364C34.0918 4.03088 34.7663 4.38344 35.4101 4.78199C35.6247 4.75133 35.8393 4.65936 35.8393 4.65936C36.0233 4.58272 36.0999 4.42943 36.1919 4.32213C36.2992 4.21482 36.4832 4.06154 36.5905 4.00022C36.7284 3.9389 36.989 3.92358 36.989 3.92358C36.3145 3.49437 35.6247 3.08049 34.9043 2.69727H34.8889L34.8736 2.71259Z" fill="white"/>
<path d="M37.5409 4.33789C37.5409 4.33789 37.265 4.33789 37.127 4.39921C37.0197 4.44519 36.8357 4.59848 36.7284 4.70578C36.6211 4.79776 36.5445 4.93572 36.3606 5.02769C36.3606 5.02769 36.1306 5.11966 35.916 5.11966C36.5598 5.53354 37.1883 5.97808 37.7861 6.45328C38.0007 6.45328 38.2307 6.39196 38.2307 6.39196C38.4146 6.33064 38.5066 6.19268 38.6292 6.11604C38.7519 6.02407 38.9511 5.88611 39.0584 5.85545C39.1964 5.80946 39.4723 5.82479 39.4723 5.82479C38.8745 5.30361 38.2307 4.81309 37.5715 4.33789H37.5562H37.5409Z" fill="white"/>
<path d="M39.9786 6.28427C39.9786 6.28427 39.7026 6.25361 39.5647 6.28427C39.442 6.31493 39.2428 6.45289 39.1201 6.52953C39.0128 6.60617 38.9055 6.74413 38.7063 6.79012C38.7063 6.79012 38.4763 6.85144 38.2617 6.82078C38.8595 7.3113 39.4114 7.84781 39.9326 8.38432V8.35367C40.1318 8.39965 40.3771 8.35367 40.3771 8.35367C40.5764 8.32301 40.699 8.20038 40.8063 8.12373C40.9443 8.04709 41.1435 7.93979 41.2662 7.92446C41.4041 7.8938 41.6801 7.95512 41.6801 7.95512C41.1589 7.35729 40.5917 6.79012 39.9939 6.23828H39.9786V6.28427Z" fill="white"/>
<path d="M42.1239 8.53729C42.1239 8.53729 41.8633 8.47597 41.71 8.50663C41.5873 8.52196 41.3727 8.62926 41.2348 8.69058C41.1121 8.75189 40.9895 8.87452 40.7902 8.90518C40.7902 8.90518 40.5603 8.92051 40.3457 8.87452C40.8669 9.44169 41.3421 10.0395 41.8019 10.6527C42.0012 10.6987 42.2465 10.6987 42.2465 10.6987C42.4458 10.6987 42.5684 10.576 42.7064 10.53C42.8443 10.4687 43.0742 10.3921 43.1969 10.3921C43.3502 10.3921 43.5954 10.4687 43.5954 10.4687C43.1509 9.80959 42.6604 9.16577 42.1392 8.55262H42.1239V8.53729Z" fill="white"/>
<path d="M43.979 11.0529C43.979 11.0529 43.7184 10.9609 43.5805 10.9609C43.4578 10.9609 43.2279 11.0376 43.09 11.0836C42.9673 11.1296 42.8294 11.2369 42.6301 11.2369C42.6301 11.2369 42.3848 11.2369 42.1855 11.1449C42.6301 11.7734 43.0286 12.4325 43.3965 13.0917C43.5958 13.1683 43.8257 13.199 43.8257 13.199C44.025 13.2143 44.163 13.1223 44.3009 13.0917C44.4389 13.061 44.6842 12.9997 44.7915 13.015C44.9447 13.015 45.1747 13.1376 45.1747 13.1376C44.8221 12.4325 44.4236 11.7274 43.979 11.0376H43.9637L43.979 11.0529Z" fill="white"/>
<path d="M45.4654 13.7805C45.4654 13.7805 45.2201 13.6426 45.0821 13.6426C44.9595 13.6426 44.7296 13.6732 44.5763 13.7039C44.4383 13.7346 44.285 13.8112 44.1011 13.7959C44.1011 13.7959 43.8712 13.7652 43.6719 13.6426C44.0244 14.3324 44.3463 15.0222 44.6223 15.7273C44.8062 15.8346 45.0361 15.8806 45.0361 15.8806C45.2354 15.9266 45.3887 15.8499 45.5113 15.8346C45.6646 15.8193 45.8946 15.8039 46.0172 15.8346C46.1552 15.8653 46.3851 16.0186 46.3851 16.0186C46.1245 15.2674 45.8179 14.5163 45.4807 13.7805H45.4654Z" fill="white"/>
<path d="M46.6007 16.6787C46.6007 16.6787 46.3861 16.5254 46.2328 16.4948C46.1102 16.4641 45.8803 16.4795 45.727 16.4948C45.589 16.4948 45.4357 16.5714 45.2364 16.5254C45.2364 16.5254 45.0065 16.4641 44.8379 16.3262C45.0985 17.0466 45.3284 17.7824 45.497 18.5182V18.4875C45.6657 18.6408 45.8803 18.7175 45.8803 18.7175C46.0642 18.7788 46.2328 18.7328 46.3708 18.7328C46.5241 18.7328 46.754 18.7328 46.8766 18.7941C47.0146 18.8401 47.2139 19.0241 47.2139 19.0241C47.0452 18.2423 46.846 17.4605 46.6007 16.6941H46.5854L46.6007 16.6787Z" fill="white"/>
<path d="M47.3363 19.7134C47.3363 19.7134 47.137 19.5294 46.999 19.4834C46.8917 19.4374 46.6465 19.4221 46.4932 19.4221C46.3552 19.4221 46.1866 19.4528 46.0027 19.3761C46.0027 19.3761 45.7881 19.2841 45.6348 19.1309C45.8034 19.882 45.926 20.6331 46.0027 21.3995C46.1406 21.5375 46.3552 21.6601 46.3552 21.6601C46.5238 21.7521 46.6925 21.7214 46.8304 21.7368C46.9837 21.7674 47.2136 21.7981 47.3209 21.8594C47.4589 21.9207 47.6275 22.12 47.6275 22.12C47.5662 21.3229 47.4742 20.5258 47.3363 19.7287H47.3209L47.3363 19.7134Z" fill="white"/>
<path d="M47.672 22.8088C47.672 22.8088 47.5034 22.5942 47.3655 22.5329C47.2582 22.4716 47.0282 22.4256 46.8749 22.3949C46.737 22.3643 46.5684 22.3949 46.3997 22.303C46.3997 22.303 46.2005 22.1803 46.0625 22.0117C46.1238 22.7782 46.1545 23.5446 46.1391 24.2957C46.2618 24.4643 46.4457 24.6023 46.4457 24.6023C46.599 24.7096 46.783 24.7096 46.9056 24.7403C47.0589 24.7862 47.2735 24.8629 47.3808 24.9242C47.5034 25.0009 47.6567 25.2308 47.6567 25.2308C47.7027 24.4337 47.718 23.6366 47.672 22.8242H47.6567L47.672 22.8088Z" fill="white"/>
<path d="M47.6117 25.9219C47.6117 25.9219 47.4737 25.6919 47.3511 25.6153C47.2438 25.5386 47.0292 25.462 46.8912 25.416C46.7532 25.37 46.5846 25.37 46.4313 25.2474C46.4313 25.2474 46.2474 25.0941 46.1401 24.9102C46.0941 25.6766 46.0328 26.443 45.9102 27.1942C46.0021 27.3781 46.1707 27.5314 46.1707 27.5314C46.324 27.654 46.4927 27.6847 46.6153 27.7307C46.7532 27.792 46.9678 27.8993 47.0598 27.9759C47.1671 28.0679 47.2898 28.3132 47.2898 28.3132C47.443 27.5314 47.5503 26.7343 47.627 25.9219H47.6117Z" fill="white"/>
<path d="M47.136 29.0026C47.136 29.0026 47.0287 28.7573 46.9214 28.6654C46.8295 28.5887 46.6149 28.4661 46.4769 28.4048C46.3543 28.3434 46.1857 28.3281 46.0477 28.1902C46.0477 28.1902 45.8791 28.0215 45.8024 27.8223C45.6645 28.5734 45.4959 29.3245 45.2812 30.0603C45.3426 30.2442 45.4959 30.4282 45.4959 30.4282C45.6185 30.5815 45.7871 30.6121 45.9097 30.6888C46.0324 30.7654 46.2316 30.888 46.3236 30.9953C46.4309 31.1026 46.5076 31.3632 46.5076 31.3632C46.7528 30.6121 46.9828 29.8304 47.1514 29.0486L47.136 29.0026Z" fill="white"/>
<path d="M46.3242 32.0229C46.3242 32.0229 46.2629 31.7624 46.1862 31.6397C46.1096 31.5324 45.9256 31.3791 45.8183 31.3025C45.711 31.2258 45.5424 31.1645 45.4351 30.9959C45.4351 30.9959 45.3125 30.7966 45.2665 30.582C44.9753 31.3025 44.6533 31.9923 44.3008 32.6668H44.3161C44.3468 32.866 44.4541 33.0806 44.4541 33.0806C44.546 33.2493 44.6993 33.3259 44.8066 33.4179C44.9139 33.5252 45.0826 33.6785 45.1439 33.7858C45.2205 33.9084 45.2512 34.1843 45.2512 34.1843C45.6497 33.4945 46.0176 32.7741 46.3395 32.0383L46.3242 32.0229Z" fill="white"/>
<path d="M45.0049 34.8421C45.0049 34.8421 44.959 34.5815 44.8823 34.4589C44.821 34.3515 44.6371 34.1983 44.5297 34.091C44.4224 33.999 44.2692 33.9377 44.1619 33.7691C44.1619 33.7691 44.0546 33.5544 44.0239 33.3398C43.702 34.0296 43.3341 34.7194 42.9355 35.3633H42.9509C42.9509 35.5625 43.0582 35.7925 43.0582 35.7925C43.1502 35.9611 43.2881 36.0531 43.3954 36.145C43.5027 36.2523 43.656 36.4209 43.7173 36.5436C43.7786 36.6662 43.794 36.9421 43.794 36.9421C44.2385 36.283 44.6371 35.5779 45.0203 34.8727L45.0049 34.8421Z" fill="white"/>
<path d="M43.381 37.5096C43.381 37.5096 43.381 37.249 43.3197 37.1111C43.2737 37.0038 43.1204 36.8198 43.0131 36.6972C42.9211 36.6052 42.7679 36.5133 42.6912 36.3293C42.6912 36.3293 42.6146 36.0994 42.5992 35.8848C42.1854 36.5286 41.7408 37.1571 41.2656 37.7549H41.281C41.281 37.9542 41.3269 38.1841 41.3269 38.1841C41.3883 38.368 41.5262 38.4753 41.6029 38.5826C41.6948 38.7053 41.8328 38.9046 41.8635 39.0119C41.9094 39.1498 41.8941 39.4257 41.8941 39.4257C42.4153 38.8279 42.9058 38.1841 43.381 37.525V37.5096Z" fill="white"/>
<path d="M41.4347 39.932C41.4347 39.932 41.4653 39.6714 41.4193 39.5334C41.3887 39.4108 41.2507 39.2115 41.1741 39.0889C41.0974 38.9663 40.9595 38.859 40.9135 38.675C40.9135 38.675 40.8675 38.4451 40.8828 38.2305C40.377 38.813 39.8558 39.3801 39.3039 39.9013H39.3193C39.2733 40.1006 39.3193 40.3459 39.3193 40.3459C39.3499 40.5298 39.4726 40.6524 39.5492 40.7751C39.6258 40.913 39.7331 41.1123 39.7638 41.2349C39.7945 41.3729 39.7331 41.6488 39.7331 41.6488C40.331 41.1123 40.8981 40.5451 41.45 39.9473L41.4347 39.932Z" fill="white"/>
<path d="M39.1656 42.0929C39.1656 42.0929 39.2269 41.8323 39.2116 41.679C39.1809 41.5564 39.0889 41.3418 39.0276 41.2192C38.9663 41.0965 38.8437 40.9739 38.813 40.7746C38.813 40.7746 38.7824 40.5447 38.8437 40.3301C38.2765 40.8513 37.6787 41.3265 37.0655 41.7863H37.0962C37.0195 41.9856 37.0195 42.2155 37.0195 42.2155C37.0195 42.4148 37.1422 42.5528 37.1881 42.6754C37.2495 42.8134 37.3261 43.0433 37.3261 43.1659C37.3261 43.3039 37.2495 43.5645 37.2495 43.5645C37.9086 43.1199 38.5524 42.6294 39.1809 42.1082L39.1656 42.0929Z" fill="white"/>
<path d="M36.6519 43.9321C36.6519 43.9321 36.7439 43.6869 36.7439 43.5336C36.7439 43.411 36.6672 43.181 36.6212 43.0431C36.5753 42.9204 36.468 42.7825 36.468 42.5832C36.468 42.5832 36.468 42.3379 36.5599 42.1387C35.9314 42.5832 35.2723 42.9818 34.6132 43.3497H34.6438C34.5365 43.5336 34.5059 43.7789 34.5059 43.7789C34.5059 43.9628 34.5825 44.1161 34.6132 44.2541C34.6438 44.392 34.7051 44.6373 34.6898 44.7599C34.6898 44.8979 34.5672 45.1431 34.5672 45.1431C35.2876 44.7906 35.9774 44.392 36.6672 43.9475L36.6519 43.9321Z" fill="white"/>
<path d="M33.9228 45.4341C33.9228 45.4341 34.0455 45.1888 34.0608 45.0509C34.0608 44.9283 34.0302 44.6983 33.9995 44.545C33.9688 44.4224 33.8922 44.2691 33.9075 44.0698C33.9075 44.0698 33.9382 43.8399 34.0608 43.6406C33.371 43.9932 32.6812 44.3151 31.9608 44.591H31.9914C31.8688 44.775 31.7921 44.9896 31.7921 44.9896C31.7462 45.2042 31.7461 45.3115 31.7615 45.4801C31.7768 45.6334 31.7308 45.8633 31.7002 45.9859C31.6695 46.1239 31.5469 46.3998 31.5469 46.3998C32.298 46.1392 33.1871 45.7867 33.9228 45.4494V45.4341Z" fill="white"/>
<path d="M30.8261 46.5388C30.8261 46.5388 30.8874 46.3855 30.918 46.2476C30.9487 46.1249 30.9794 45.9716 30.9794 45.8183C30.9794 45.6804 30.8721 45.5731 30.918 45.3891C30.918 45.3891 31.056 44.9753 31.194 44.8066C30.4582 45.0519 29.4005 45.4658 28.726 45.8337C28.5727 45.9103 28.4194 45.987 28.4194 45.987C28.3428 46.1709 28.3275 46.3089 28.3121 46.4468C28.3121 46.6001 28.2815 46.8147 28.2815 46.968C28.2815 47.2899 27.9902 47.7345 27.9902 47.7345C28.772 47.5965 29.7684 47.1366 30.4429 46.7534L30.8261 46.5541V46.5388Z" fill="white"/>
<path d="M15.6814 46.2157C15.6814 46.2157 15.942 46.1391 16.0493 46.0471C16.1412 45.9704 16.2792 45.7712 16.3712 45.6485C16.4478 45.5412 16.4938 45.3726 16.6471 45.25C16.6471 45.25 16.8464 45.112 17.0456 45.0507C16.3099 44.8208 15.5894 44.5449 14.8996 44.2383H14.9149C14.7003 44.2843 14.4857 44.4069 14.4857 44.4069C14.3171 44.5142 14.2558 44.6675 14.1791 44.7748C14.0872 44.8974 13.9339 45.0814 13.8266 45.1427C13.704 45.2347 13.4434 45.2806 13.4434 45.2806C14.1638 45.6332 14.9149 45.9398 15.666 46.2157H15.6814Z" fill="white"/>
<path d="M12.8305 44.9597C12.8305 44.9597 13.0911 44.9137 13.2291 44.8371C13.3364 44.7758 13.4897 44.5918 13.5816 44.4845C13.6736 44.3772 13.7349 44.2239 13.9035 44.1166C13.9035 44.1166 14.1182 44.0093 14.3328 43.9634C13.643 43.6414 12.9532 43.2736 12.3093 42.875H12.3247C12.1101 42.9057 11.8801 42.9976 11.8801 42.9976C11.7115 43.0743 11.6195 43.2276 11.5276 43.3349C11.4203 43.4422 11.2517 43.5955 11.129 43.6568C10.9911 43.7181 10.7305 43.7334 10.7305 43.7334C11.4049 44.178 12.0947 44.5765 12.8152 44.9597H12.8305Z" fill="white"/>
<path d="M10.1625 43.3341C10.1625 43.3341 10.4384 43.3341 10.5611 43.2728C10.6837 43.2268 10.8523 43.0735 10.9749 42.9662C11.0669 42.8743 11.1589 42.721 11.3428 42.6443C11.3428 42.6443 11.5728 42.5677 11.7874 42.5524C11.1435 42.1385 10.5151 41.6786 9.93257 41.2188C9.71796 41.2188 9.48803 41.2801 9.48803 41.2801C9.30408 41.3414 9.19678 41.4793 9.08948 41.556C8.96685 41.648 8.76757 41.7859 8.66027 41.8166C8.52231 41.8626 8.26172 41.8472 8.26172 41.8472C8.87487 42.3684 9.50336 42.8589 10.1625 43.3341Z" fill="white"/>
<path d="M7.74057 41.3871C7.74057 41.3871 8.01649 41.4178 8.15445 41.3871C8.27708 41.3411 8.47635 41.2338 8.59898 41.1419C8.70629 41.0652 8.81359 40.9273 8.99754 40.8813C8.99754 40.8813 9.22747 40.82 9.44207 40.8506C8.85958 40.3601 8.29241 39.8236 7.77123 39.2871C7.55662 39.2564 7.32669 39.2871 7.32669 39.2871C7.14274 39.3177 7.02011 39.4557 6.89748 39.517C6.75952 39.5936 6.56024 39.7009 6.43761 39.7163C6.29965 39.7469 6.03906 39.6856 6.03906 39.6856C6.57557 40.2834 7.14274 40.8659 7.74057 41.4024H7.7559L7.74057 41.3871Z" fill="white"/>
<path d="M5.57899 39.134C5.57899 39.134 5.83958 39.1953 5.99287 39.1647C6.1155 39.1647 6.33011 39.0421 6.46807 38.9807C6.5907 38.9194 6.71333 38.7968 6.89728 38.7661C6.89728 38.7661 7.12721 38.7355 7.34181 38.7968C6.82063 38.2296 6.33011 37.6318 5.88557 37.0186V37.0493C5.6863 36.9727 5.44103 36.9727 5.44103 36.9727C5.24176 36.9727 5.11913 37.0953 4.98117 37.1413C4.84321 37.2026 4.61327 37.2792 4.50597 37.2792C4.35268 37.2792 4.10742 37.2026 4.10742 37.2026C4.55196 37.8617 5.04248 38.5055 5.56366 39.1187H5.57899V39.134Z" fill="white"/>
<path d="M3.74028 36.6209C3.74028 36.6209 3.98554 36.7129 4.13883 36.7129C4.26146 36.7129 4.49139 36.6363 4.62935 36.5903C4.75198 36.5443 4.88994 36.437 5.08922 36.437C5.08922 36.437 5.33448 36.437 5.53375 36.529C5.08922 35.9005 4.69067 35.2413 4.32277 34.5822V34.6129C4.13883 34.5209 3.89357 34.4902 3.89357 34.4902C3.70962 34.4902 3.55633 34.5669 3.41837 34.5975C3.26508 34.6435 3.03515 34.6895 2.91252 34.6742C2.75923 34.6742 2.5293 34.5516 2.5293 34.5516C2.88186 35.272 3.28041 35.9618 3.70962 36.6516H3.72495L3.74028 36.6209Z" fill="white"/>
<path d="M2.2375 33.892C2.2375 33.892 2.48276 34.0146 2.62072 34.03C2.74335 34.03 2.97329 33.9993 3.12657 33.9687C3.26453 33.938 3.41782 33.8614 3.60177 33.8767C3.60177 33.8767 3.8317 33.9227 4.01565 34.0146C3.66309 33.3248 3.35651 32.635 3.06526 31.9299V31.9606C2.88131 31.8379 2.65138 31.7766 2.65138 31.7766C2.46743 31.7306 2.29882 31.8073 2.16086 31.8226C2.00757 31.8226 1.77763 31.8533 1.655 31.8226C1.51704 31.792 1.28711 31.6387 1.28711 31.6387C1.5477 32.3898 1.85428 33.1409 2.19151 33.8767H2.20684L2.2375 33.892Z" fill="white"/>
<path d="M1.11872 30.9798C1.11872 30.9798 1.33332 31.1331 1.48661 31.1637C1.60924 31.1944 1.83918 31.1791 1.99246 31.1637C2.13042 31.1637 2.28371 31.0871 2.48299 31.1331C2.48299 31.1331 2.71292 31.1944 2.88154 31.3324C2.62095 30.6119 2.40634 29.8761 2.2224 29.1403C2.06911 29.0177 1.83918 28.9257 1.83918 28.9257C1.65523 28.8644 1.48661 28.9257 1.34865 28.9104C1.19536 28.9104 0.965429 28.9104 0.842798 28.8491C0.704839 28.8031 0.505563 28.6191 0.505563 28.6191H0.490234C0.643523 29.4009 0.858127 30.1827 1.10339 30.9491L1.11872 30.9798Z" fill="white"/>
<path d="M0.367124 27.9594C0.367124 27.9594 0.5664 28.1433 0.70436 28.2046C0.82699 28.2506 1.05692 28.2659 1.21021 28.2659C1.34817 28.2659 1.51679 28.2353 1.70074 28.2966C1.70074 28.2966 1.91534 28.3886 2.06863 28.5419C1.90001 27.7908 1.77738 27.0243 1.70074 26.2732C1.56278 26.1352 1.3635 26.0126 1.3635 26.0126C1.19488 25.9206 1.02627 25.9513 0.888306 25.936C0.735017 25.9206 0.505084 25.8746 0.397782 25.8133C0.275151 25.752 0.0912046 25.5527 0.0912046 25.5527H0.0605469C0.121862 26.3498 0.213836 27.1469 0.351795 27.944H0.367124V27.9594Z" fill="white"/>
<path d="M0.0308799 24.8634C0.0308799 24.8634 0.199498 25.0626 0.322129 25.1393C0.429431 25.2006 0.674693 25.2466 0.812653 25.2772C0.950613 25.3079 1.11923 25.2772 1.28785 25.3845C1.28785 25.3845 1.48712 25.5072 1.62508 25.6758C1.56377 24.9094 1.53311 24.1429 1.56377 23.3765V23.4071C1.42581 23.2232 1.24186 23.0852 1.24186 23.0852C1.07324 22.9779 0.904626 22.9779 0.781995 22.9319C0.644035 22.8859 0.414102 22.8246 0.3068 22.748C0.184169 22.6713 0.0308799 22.4414 0.0308799 22.4414H0.0462087C0.000222088 23.2385 0.000222088 24.0356 0.0462087 24.848L0.0308799 24.8634Z" fill="white"/>
<path d="M0.107126 21.737C0.107126 21.737 0.245086 21.9669 0.367717 22.0589C0.45969 22.1202 0.689623 22.2122 0.827583 22.2582C0.950214 22.3042 1.13416 22.3042 1.28745 22.4115C1.28745 22.4115 1.4714 22.5648 1.5787 22.7487C1.60936 21.9823 1.70133 21.2158 1.80863 20.4647C1.71666 20.2808 1.54804 20.1275 1.54804 20.1275C1.39475 19.9895 1.22613 19.9742 1.1035 19.9282C0.965543 19.8669 0.750939 19.7749 0.658965 19.6829C0.551663 19.591 0.429032 19.3457 0.429032 19.3457C0.275743 20.1275 0.168441 20.9246 0.0917969 21.737H0.107126Z" fill="white"/>
<path d="M0.581735 18.6709C0.581735 18.6709 0.689037 18.9162 0.796339 19.0081C0.888313 19.1001 1.10292 19.2074 1.24088 19.2687C1.36351 19.33 1.53213 19.3454 1.67009 19.4833C1.67009 19.4833 1.8387 19.6519 1.91535 19.8512C2.05331 19.0848 2.22193 18.349 2.43653 17.6132C2.37521 17.4293 2.22193 17.23 2.22193 17.23C2.09929 17.0767 1.93068 17.046 1.80805 16.9694C1.68541 16.8927 1.47081 16.7548 1.39417 16.6628C1.30219 16.5555 1.21022 16.2949 1.21022 16.2949C0.949628 17.046 0.750353 17.8278 0.566406 18.6249L0.581735 18.6709Z" fill="white"/>
<path d="M1.45703 15.6658C1.45703 15.6658 1.53368 15.9263 1.62565 16.0336C1.70229 16.1256 1.90157 16.2636 2.0242 16.3402C2.1315 16.4169 2.30012 16.4629 2.42275 16.6161C2.42275 16.6161 2.56071 16.8154 2.62203 17.0147C2.85196 16.2789 3.12788 15.5584 3.43446 14.8686C3.38847 14.6694 3.26584 14.4701 3.26584 14.4701C3.15854 14.3015 3.00525 14.2402 2.89795 14.1635C2.77531 14.0715 2.59137 13.9183 2.53005 13.811C2.45341 13.6883 2.40742 13.4277 2.40742 13.4277C2.05486 14.1482 1.74828 14.884 1.47236 15.6504L1.45703 15.6658Z" fill="white"/>
<path d="M2.71259 12.8302C2.71259 12.8302 2.75858 13.0908 2.83523 13.2135C2.89654 13.3208 3.08049 13.474 3.18779 13.566C3.29509 13.658 3.44838 13.7193 3.55568 13.8879C3.55568 13.8879 3.66298 14.1025 3.69364 14.3018C4.01555 13.612 4.38344 12.9375 4.78199 12.2784H4.76666C4.76666 12.0791 4.65936 11.8492 4.65936 11.8492C4.58272 11.6806 4.42943 11.5886 4.33746 11.4966C4.23015 11.3893 4.07686 11.2207 4.01555 11.1134C3.95423 10.9754 3.92358 10.7148 3.92358 10.7148C3.47904 11.374 3.08049 12.0791 2.69727 12.7842L2.71259 12.8302Z" fill="white"/>
<path d="M4.33789 10.1622C4.33789 10.1622 4.33789 10.4381 4.39921 10.5608C4.44519 10.6681 4.59848 10.852 4.70578 10.9746C4.79776 11.0666 4.95105 11.1586 5.02769 11.3425C5.02769 11.3425 5.10433 11.5571 5.11966 11.7871C5.53354 11.1433 5.97808 10.5148 6.45328 9.91694H6.43795C6.45327 9.70234 6.39196 9.48773 6.39196 9.48773C6.33064 9.30379 6.19268 9.19648 6.11604 9.08918C6.02407 8.96655 5.88611 8.76728 5.85545 8.65997C5.80946 8.52201 5.82479 8.24609 5.82479 8.24609C5.30361 8.84392 4.79776 9.48773 4.33789 10.1469V10.1622Z" fill="white"/>
<path d="M6.28456 7.7266C6.28456 7.7266 6.25391 7.98719 6.28456 8.12515C6.31522 8.24778 6.45318 8.44706 6.52983 8.56969C6.60647 8.67699 6.74443 8.78429 6.79042 8.98357C6.79042 8.98357 6.85173 9.2135 6.82107 9.42811C7.32693 8.83028 7.84811 8.27844 8.38462 7.75726H8.36929C8.41528 7.54265 8.38462 7.31272 8.38462 7.31272C8.35396 7.12877 8.216 7.00614 8.15469 6.88351C8.07804 6.76088 7.97074 6.54628 7.94008 6.42365C7.90943 6.28569 7.97074 6.00977 7.97074 6.00977C7.37291 6.54628 6.80575 7.09812 6.25391 7.69594L6.28456 7.7266Z" fill="white"/>
<path d="M8.53729 5.58065C8.53729 5.58065 8.47597 5.84124 8.50663 5.99453C8.52196 6.11716 8.62926 6.33177 8.69058 6.46972C8.75189 6.59236 8.87452 6.71499 8.90518 6.89893C8.90518 6.89893 8.93584 7.12887 8.87452 7.34347C9.44169 6.82229 10.0395 6.33177 10.6527 5.88723H10.6373C10.714 5.68795 10.714 5.44269 10.714 5.44269C10.714 5.24342 10.5914 5.12078 10.5454 4.98282C10.4841 4.84486 10.4074 4.61493 10.4074 4.4923C10.4074 4.35434 10.4841 4.09375 10.4841 4.09375C9.82491 4.53829 9.1811 5.02881 8.55262 5.54999L8.53729 5.58065Z" fill="white"/>
<path d="M11.0529 3.73998C11.0529 3.73998 10.9609 3.98524 10.9609 4.13853C10.9609 4.26116 11.0376 4.4911 11.0836 4.62906C11.1296 4.75169 11.2369 4.88965 11.2369 5.08892C11.2369 5.08892 11.2369 5.31885 11.1449 5.51813C11.7734 5.08892 12.4325 4.67504 13.0917 4.30715H13.0763C13.1683 4.1232 13.199 3.87794 13.199 3.87794C13.199 3.67867 13.1223 3.54071 13.0917 3.40275C13.061 3.26479 13.015 3.01952 13.015 2.89689C13.015 2.7436 13.153 2.51367 13.153 2.51367C12.4325 2.86624 11.7427 3.26479 11.0529 3.70932V3.73998Z" fill="white"/>
<path d="M13.7962 2.2378C13.7962 2.2378 13.6582 2.48306 13.6582 2.62102C13.6582 2.74365 13.6889 2.97358 13.7195 3.12687C13.7502 3.26483 13.8268 3.40279 13.8115 3.60207C13.8115 3.60207 13.7808 3.832 13.6735 4.03127C14.3633 3.67871 15.0531 3.3568 15.7736 3.08088H15.7429C15.8656 2.89694 15.9269 2.667 15.9269 2.667C15.9729 2.48306 15.8962 2.31444 15.8809 2.17648C15.8656 2.02319 15.8502 1.79326 15.8809 1.67063C15.9115 1.53267 16.0648 1.30273 16.0648 1.30273C15.3137 1.56333 14.5626 1.8699 13.8268 2.20714L13.7962 2.2378Z" fill="white"/>
<path d="M16.6924 1.11872C16.6924 1.11872 16.5391 1.33332 16.5085 1.47128C16.4778 1.59391 16.4931 1.82385 16.5085 1.97713C16.5085 2.11509 16.5851 2.26838 16.5391 2.45233C16.5391 2.45233 16.4625 2.68226 16.3398 2.85088C17.0603 2.59029 17.7961 2.37569 18.5319 2.19174H18.5165C18.6545 2.02312 18.7465 1.80852 18.7465 1.80852C18.8078 1.62457 18.7618 1.45595 18.7618 1.33332C18.7618 1.18003 18.7618 0.950101 18.8231 0.82747C18.8691 0.68951 19.0377 0.490234 19.0377 0.490234C18.256 0.658852 17.4742 0.858127 16.7077 1.10339L16.6924 1.11872Z" fill="white"/>
<path d="M19.729 0.383045C19.729 0.383045 19.545 0.582321 19.499 0.720281C19.4531 0.827583 19.4377 1.07284 19.4224 1.22613C19.4224 1.36409 19.4531 1.53271 19.3917 1.71666C19.3917 1.71666 19.2998 1.93126 19.1465 2.08455C19.8976 1.91593 20.664 1.7933 21.4152 1.71666H21.3998C21.5684 1.56337 21.6757 1.36409 21.6757 1.36409C21.7677 1.19548 21.7371 1.02686 21.7524 0.888898C21.7677 0.735609 21.8137 0.505676 21.875 0.398374C21.9363 0.260414 22.1356 0.0917969 22.1356 0.0917969C21.3385 0.153112 20.5414 0.245086 19.7443 0.383045H19.729Z" fill="white"/>
<path d="M22.8244 0.0467055C22.8244 0.0467055 22.6252 0.215323 22.5485 0.337954C22.4872 0.445256 22.4412 0.675189 22.4106 0.828478C22.3952 0.966438 22.4106 1.13506 22.3186 1.30367C22.3186 1.30367 22.196 1.50295 22.0273 1.64091C22.7938 1.57959 23.5602 1.54894 24.3267 1.56426H24.3113C24.4953 1.44163 24.6333 1.24236 24.6333 1.24236C24.7406 1.08907 24.7406 0.905122 24.7712 0.782491C24.8019 0.644532 24.8785 0.414599 24.9552 0.307296C25.0318 0.184665 25.2617 0.0313767 25.2617 0.0313767C24.4646 -0.01461 23.6522 -0.0299388 22.8398 0.0160478L22.8244 0.0467055Z" fill="white"/>
<path d="M17.0312 46.1239C17.0312 46.1239 17.2765 47.4115 18.1349 47.4422C18.3035 46.921 19.024 46.2925 19.4532 45.986L19.6218 45.802C19.4839 44.729 19.9744 44.1465 19.9744 44.1465L19.4992 44.2538C18.4722 44.5297 17.5524 45.2348 17.0312 46.1239Z" fill="white"/>
<path d="M18.5627 50.3702C18.7313 50.3242 18.8999 50.1709 18.9612 50.1096C18.3787 49.6497 17.9955 48.9292 18.0108 48.1168C16.9378 47.9942 16.6925 46.7832 16.6925 46.7832C16.5392 47.1971 16.4626 47.6416 16.4473 48.0862C16.4473 48.9292 16.6772 49.711 17.1064 50.3548C17.1064 50.3548 17.9342 50.5388 18.5473 50.3548L18.5627 50.3702Z" fill="white"/>
<path d="M20.8929 50.5852C20.7396 50.6159 20.5863 50.6312 20.433 50.6159C20.1264 50.6159 19.8505 50.5546 19.5746 50.4473C19.3447 51.1831 17.6738 51.0298 17.6738 51.0298C18.2563 51.5969 19.0688 52.0261 19.9272 52.1488C19.9272 52.1488 20.8776 51.9342 20.9082 50.5852H20.8929Z" fill="white"/>
<path d="M21.3981 50.4938C21.3981 50.4938 21.4135 50.4938 21.4288 50.4785L22.1493 50.6318C23.4829 50.969 23.7281 51.1836 23.7281 51.1836C23.7281 51.1836 22.2106 52.6092 20.877 52.272C20.877 52.272 21.8733 51.5515 21.4288 50.4785" fill="white"/>
<path d="M25.8759 50.1566C24.8642 49.3442 23.8831 49.2062 23.1474 48.9609L21.6758 49.988L23.4386 50.5705C23.9751 50.7084 24.1131 50.969 24.7722 51.3982C24.7722 51.3982 26.3204 50.5092 25.8759 50.1413V50.1566Z" fill="white"/>
<path d="M28.8956 51.6429C28.3284 52.2254 27.378 52.2561 27.378 52.2561C26.7035 52.2714 26.075 52.2254 25.3086 51.7502C25.3086 51.7502 26.6115 50.8765 26.5502 50.4473C26.8415 50.5239 27.7459 50.6772 27.9911 50.5086C27.9911 50.5086 28.3131 51.2904 28.8956 51.6582V51.6429Z" fill="white"/>
<path d="M26.5656 46.0333C27.2401 45.4814 27.8226 45.2668 28.2825 45.4048C29.846 44.7303 30.0913 44.6843 30.0913 44.6843C29.4781 43.9945 28.8496 43.8566 27.7919 43.9025C27.3167 43.9179 25.8452 44.4697 25.6152 44.7916" fill="white"/>
<path d="M26.0745 46.3544C26.0745 46.3544 25.0475 45.496 25.2468 44.8828C24.1124 45.8792 23.6372 46.385 22.7022 46.385C22.4722 46.431 22.6715 46.385 22.6715 46.385C22.5489 46.5383 22.4722 46.7223 22.4416 46.8602C22.3956 46.9982 22.3496 47.1668 22.3496 47.2894C22.3496 47.688 22.3649 47.7953 22.3649 47.7953C23.392 47.8566 23.3307 47.8873 24.2657 47.642C24.2657 47.642 24.9095 47.4121 25.538 46.7989C25.6453 46.6916 25.9519 46.4617 26.0592 46.3391L26.0745 46.3544Z" fill="white"/>
<path d="M21.8736 47.8725C21.8736 47.8725 21.7663 47.8725 21.8736 47.2593C21.9043 47.0754 21.9809 46.9681 22.0269 46.8301C22.0729 46.7075 22.1342 46.5236 22.2722 46.3856H21.9809C21.2145 46.3243 20.8159 46.263 20.0648 46.125C19.8195 46.2016 19.4823 46.4162 19.421 46.5389C19.3597 46.6768 19.2217 46.7228 19.1451 46.8148C19.0837 46.8761 18.8691 47.152 18.8691 47.152C19.6509 47.4893 21.0765 47.9185 21.8583 47.8878L21.8736 47.8725Z" fill="white"/>
<path d="M20.9393 44.2845C21.0619 44.1005 21.3072 44.1619 21.4911 44.1312C22.4109 44.0239 23.7291 44.6524 23.9897 45.2502L23.5759 45.5721C23.2233 45.8787 22.7174 45.94 22.7174 45.94L22.4875 45.8634C22.1963 45.7407 21.767 45.6947 21.4298 45.6794C21.1079 45.6794 20.74 45.5874 20.4488 45.7101C20.1115 45.3422 20.9546 44.2998 20.9546 44.2998L20.9393 44.2845Z" fill="white"/>
<path d="M17.1378 51.1223C16.8006 51.3675 16.6013 51.5668 16.6013 51.5668L16.2641 51.8887H16.2794C16.2794 51.8887 15.2064 50.6164 14.3633 51.3369C14.7158 50.8923 15.0378 50.4938 15.2217 50.3098C15.4056 50.1259 15.6202 49.9266 15.9575 49.7427L15.8655 49.804C15.9881 49.7427 16.0954 49.6967 16.2181 49.666C16.2181 49.666 16.448 50.7237 17.1685 51.1069L17.1378 51.1223Z" fill="white"/>
<path d="M13.7969 52.0257C14.9006 51.1213 15.7896 52.317 15.7896 52.317L14.9772 53.1141L13.7969 52.0257Z" fill="white"/>
<path d="M14.4695 53.6055L14.6228 53.4369L13.5498 52.3945L13.3965 52.5631L14.4695 53.6055Z" fill="white"/>
<path d="M13.1053 52.7617C12.7221 53.007 12.4922 53.2216 12.4922 53.2216L13.7032 54.6318L14.209 53.8807L13.1053 52.7617Z" fill="white"/>
<path d="M33.1871 53.1445C33.555 53.4051 33.7849 53.6351 33.7849 53.6351L32.5279 54.9993L32.0527 54.2176L33.2024 53.1445H33.1871Z" fill="white"/>
<path d="M32.8504 52.9772L32.6971 52.8086L31.5781 53.805L31.7314 53.9736L32.8504 52.9772Z" fill="white"/>
<path d="M32.5276 52.3946C31.4699 51.4442 30.5195 52.6092 30.5195 52.6092L31.3166 53.437L32.5429 52.3946H32.5276Z" fill="white"/>
<path d="M30.473 50.0326C29.0321 49.2661 28.2656 50.3698 28.2656 50.3698C29.1547 50.799 29.8445 51.7801 29.8445 51.7801L30.0744 52.148H30.0591C30.0591 52.148 31.1781 50.9063 31.9905 51.6728C31.638 51.2129 31.3467 50.8143 31.1781 50.6457C31.0402 50.4924 30.7796 50.2778 30.473 50.0479V50.0326Z" fill="white"/>
<path d="M25.0935 47.704C24.9708 47.75 25.8599 48.0719 27.2702 47.8726C27.2702 47.8726 27.4541 47.6733 27.5154 47.5354C27.5614 47.4127 27.6687 47.1522 27.6687 46.9989C27.6687 46.8609 27.73 46.7843 27.73 46.585C27.73 46.585 27.73 46.401 27.7913 46.2324C27.638 46.3091 26.795 46.6003 26.795 46.6003C26.565 46.6616 26.4117 46.6923 26.4117 46.6923C26.2891 46.7843 26.1818 46.9069 26.0745 46.9989C25.9979 47.0602 25.8446 47.1981 25.6606 47.3361C25.5686 47.4127 25.1394 47.6733 25.0781 47.7193L25.0935 47.704Z" fill="white"/>
<path d="M30.9949 49.697C31.8686 48.7006 31.5007 47.5203 31.3321 46.9531L29.6153 47.7349C29.6459 47.8115 29.9065 48.3021 29.416 48.8539C29.416 48.8539 31.0869 49.5744 30.9949 49.6817V49.697Z" fill="white"/>
<path d="M27.6531 50.1263C27.6531 50.1263 28.8181 49.0532 29.5539 49.3905L29.3853 49.2372C28.7262 48.7466 27.9137 48.4554 27.1166 48.4247C26.3962 48.3941 25.1545 48.6087 24.8633 49.0839C24.8633 49.0839 25.9363 49.2985 26.6108 49.9883C26.6721 50.0496 26.948 49.973 27.6378 50.1416L27.6531 50.1263Z" fill="white"/>
<path d="M9.91723 23.4063L10.607 22.0267L12.1246 22.2566L11.0362 21.1683L11.726 19.7887L10.3618 20.4938L9.25809 19.4208L9.50335 20.9383L8.13908 21.6435L9.65664 21.8734L9.9019 23.391L9.91723 23.4063ZM20.3869 27.4838H20.3562C19.5591 27.5604 18.5474 27.6524 17.6123 27.8517C17.1678 26.1042 15.8955 23.8508 13.7035 24.1727C11.8333 24.4486 11.0516 26.3648 11.4961 28.0663C8.82888 28.4342 6.59087 26.2728 6.03903 23.8202C5.24192 20.1412 7.92448 16.4316 11.8027 16.4316C17.2598 16.4316 20.2029 23.6209 20.3869 27.4838Z" fill="white"/>
<path d="M37.786 23.4063L38.0313 21.8887L39.5642 21.6588L38.1999 20.9537L38.4452 19.4361L37.3415 20.5091L35.9772 19.804L36.667 21.1836L35.5633 22.2566L37.0962 22.0267L37.786 23.4063ZM27.3164 27.4838C27.5004 23.6362 30.4435 16.447 35.9006 16.4316C39.7941 16.4316 42.4767 20.1412 41.6642 23.8202C41.1277 26.2728 38.8744 28.4342 36.2072 28.0663C36.6517 26.3648 35.8699 24.4333 33.9998 24.1727C31.8231 23.8508 30.5508 26.1042 30.1063 27.8363C29.1712 27.6524 28.1442 27.5604 27.3624 27.4838H27.3164Z" fill="white"/>
<path d="M23.8667 29.9535C27.3924 29.9535 30.2282 29.6316 30.2282 29.4017C30.2282 29.1717 27.377 28.8345 23.8514 28.8345C20.3258 28.8345 17.4593 29.1871 17.4593 29.4017C17.4593 29.6163 20.3411 29.9535 23.8667 29.9535ZM23.8514 30.7506C19.7739 30.7506 16.4629 30.1528 16.4629 29.4017C16.4629 28.6506 19.7739 28.0527 23.8514 28.0527C27.9289 28.0527 31.2246 28.6506 31.2246 29.4017C31.2246 30.1528 27.9136 30.7506 23.8514 30.7506Z" fill="white"/>
<path d="M29.8448 30.9958C29.0937 31.1491 28.2353 31.2717 27.2695 31.3637C27.4535 32.9732 28.7871 36.4529 31.0864 36.4529C32.7726 36.4529 34.0755 34.9813 34.2135 33.3718C32.2361 34.3068 30.228 33.3258 29.8294 30.9805L29.8448 30.9958Z" fill="white"/>
<path d="M20.403 31.3777C19.4679 31.2857 18.6095 31.1631 17.8584 31.0098C17.4751 33.3704 15.4517 34.3668 13.459 33.4317C13.5969 35.0413 14.8999 36.5128 16.5861 36.5128C18.9007 36.5128 20.2497 32.9719 20.403 31.3623V31.3777Z" fill="white"/>
<path fill-rule="evenodd" clip-rule="evenodd" d="M23.8519 5.21094C24.8329 6.26863 26.4731 7.51027 26.795 7.75553C29.3089 9.64098 30.4893 12.2316 30.5046 14.4849C30.5352 18.6697 27.0096 22.3486 26.5651 27.3918C25.8446 27.3152 25.0782 27.2692 24.2964 27.2692C24.3884 22.1493 24.1891 15.19 23.8519 10.1775C23.4993 15.19 23.3 22.134 23.392 27.2692C22.5949 27.2692 21.8284 27.3152 21.1233 27.3918C20.6788 22.3333 17.1531 18.6697 17.1838 14.4849C17.1991 12.2316 18.3794 9.64098 20.9087 7.75553C21.2459 7.51027 22.8708 6.2533 23.8519 5.21094Z" fill="white"/>
<path fill-rule="evenodd" clip-rule="evenodd" d="M23.8514 41.1426C25.8135 40.2842 27.8369 38.4447 28.7107 36.5593C27.4537 34.8271 26.8252 32.957 26.626 31.4395C25.9055 31.4854 25.1391 31.5161 24.342 31.5161C24.2347 32.8804 24.25 35.7622 23.8514 37.3257C23.4529 35.7622 23.4529 32.865 23.3609 31.5161C22.5638 31.5161 21.7974 31.4854 21.0769 31.4395C20.8776 32.957 20.2492 34.8271 18.9922 36.5593C19.8506 38.4447 21.874 40.2689 23.8514 41.1426Z" fill="white"/>
</g>
<path d="M65.7438 36.75C64.1938 36.75 62.8938 36.525 61.8438 36.075C60.8104 35.6083 60.0188 35.0083 59.4688 34.275C58.9354 33.525 58.6521 32.7417 58.6188 31.925C58.6188 31.775 58.6688 31.65 58.7688 31.55C58.8688 31.45 58.9938 31.4 59.1438 31.4H61.3688C61.5854 31.4 61.7438 31.45 61.8438 31.55C61.9604 31.6333 62.0604 31.7417 62.1438 31.875C62.2438 32.1917 62.4354 32.5083 62.7188 32.825C63.0021 33.125 63.3854 33.375 63.8688 33.575C64.3688 33.775 64.9938 33.875 65.7438 33.875C66.9438 33.875 67.8354 33.675 68.4188 33.275C69.0188 32.875 69.3188 32.3333 69.3188 31.65C69.3188 31.1667 69.1604 30.7833 68.8438 30.5C68.5271 30.2 68.0354 29.9333 67.3688 29.7C66.7188 29.45 65.8521 29.1917 64.7688 28.925C63.5188 28.625 62.4688 28.2667 61.6188 27.85C60.7854 27.4167 60.1521 26.875 59.7188 26.225C59.3021 25.575 59.0938 24.75 59.0938 23.75C59.0938 22.7833 59.3521 21.925 59.8688 21.175C60.4021 20.425 61.1521 19.8333 62.1188 19.4C63.1021 18.9667 64.2688 18.75 65.6188 18.75C66.7021 18.75 67.6604 18.9 68.4938 19.2C69.3271 19.4833 70.0188 19.8667 70.5687 20.35C71.1188 20.8167 71.5354 21.325 71.8188 21.875C72.1188 22.4083 72.2771 22.9333 72.2938 23.45C72.2938 23.5833 72.2438 23.7083 72.1438 23.825C72.0604 23.925 71.9354 23.975 71.7688 23.975H69.4438C69.3104 23.975 69.1771 23.9417 69.0438 23.875C68.9104 23.8083 68.8021 23.6833 68.7188 23.5C68.6188 22.9833 68.2938 22.5417 67.7438 22.175C67.1938 21.8083 66.4854 21.625 65.6188 21.625C64.7188 21.625 63.9938 21.7917 63.4438 22.125C62.8938 22.4583 62.6188 22.975 62.6188 23.675C62.6188 24.1417 62.7521 24.5333 63.0188 24.85C63.3021 25.15 63.7438 25.4167 64.3438 25.65C64.9604 25.8833 65.7688 26.1333 66.7688 26.4C68.1854 26.7167 69.3438 27.0833 70.2438 27.5C71.1438 27.9167 71.8021 28.45 72.2188 29.1C72.6354 29.7333 72.8438 30.5417 72.8438 31.525C72.8438 32.625 72.5438 33.5667 71.9438 34.35C71.3604 35.1167 70.5354 35.7083 69.4688 36.125C68.4021 36.5417 67.1604 36.75 65.7438 36.75ZM81.0338 36.75C79.8338 36.75 78.7755 36.525 77.8588 36.075C76.9588 35.625 76.2505 34.975 75.7338 34.125C75.2338 33.2583 74.9588 32.2167 74.9088 31C74.8921 30.75 74.8838 30.425 74.8838 30.025C74.8838 29.6083 74.8921 29.2667 74.9088 29C74.9588 27.7833 75.2338 26.75 75.7338 25.9C76.2505 25.0333 76.9588 24.375 77.8588 23.925C78.7755 23.475 79.8338 23.25 81.0338 23.25C82.1005 23.25 83.0088 23.4 83.7588 23.7C84.5088 24 85.1255 24.375 85.6088 24.825C86.0921 25.275 86.4505 25.75 86.6838 26.25C86.9338 26.7333 87.0671 27.175 87.0838 27.575C87.1005 27.7583 87.0421 27.9083 86.9088 28.025C86.7921 28.125 86.6505 28.175 86.4838 28.175H84.2838C84.1171 28.175 83.9838 28.1333 83.8838 28.05C83.8005 27.9667 83.7171 27.8417 83.6338 27.675C83.3838 27.0083 83.0505 26.5417 82.6338 26.275C82.2338 25.9917 81.7171 25.85 81.0838 25.85C80.2505 25.85 79.5838 26.1167 79.0838 26.65C78.6005 27.1667 78.3421 27.9917 78.3088 29.125C78.2755 29.7583 78.2755 30.3417 78.3088 30.875C78.3421 32.025 78.6005 32.8583 79.0838 33.375C79.5838 33.8917 80.2505 34.15 81.0838 34.15C81.7338 34.15 82.2588 34.0167 82.6588 33.75C83.0588 33.4667 83.3838 32.9917 83.6338 32.325C83.7171 32.1583 83.8005 32.0333 83.8838 31.95C83.9838 31.8667 84.1171 31.825 84.2838 31.825H86.4838C86.6505 31.825 86.7921 31.8833 86.9088 32C87.0421 32.1 87.1005 32.2417 87.0838 32.425C87.0671 32.725 86.9838 33.0667 86.8338 33.45C86.7005 33.8167 86.4755 34.2 86.1588 34.6C85.8588 34.9833 85.4755 35.3417 85.0088 35.675C84.5421 35.9917 83.9755 36.25 83.3088 36.45C82.6588 36.65 81.9005 36.75 81.0338 36.75ZM95.441 36.75C94.1077 36.75 92.9827 36.5167 92.066 36.05C91.166 35.5833 90.4743 34.925 89.991 34.075C89.5243 33.225 89.2577 32.2333 89.191 31.1C89.1743 30.8 89.166 30.4333 89.166 30C89.166 29.5667 89.1743 29.2 89.191 28.9C89.2577 27.75 89.5327 26.7583 90.016 25.925C90.516 25.075 91.216 24.4167 92.116 23.95C93.0327 23.4833 94.141 23.25 95.441 23.25C96.741 23.25 97.841 23.4833 98.741 23.95C99.6577 24.4167 100.358 25.075 100.841 25.925C101.341 26.7583 101.624 27.75 101.691 28.9C101.708 29.2 101.716 29.5667 101.716 30C101.716 30.4333 101.708 30.8 101.691 31.1C101.624 32.2333 101.349 33.225 100.866 34.075C100.399 34.925 99.7077 35.5833 98.791 36.05C97.891 36.5167 96.7743 36.75 95.441 36.75ZM95.441 34.275C96.3243 34.275 97.0077 34 97.491 33.45C97.9743 32.8833 98.241 32.0583 98.291 30.975C98.3077 30.725 98.316 30.4 98.316 30C98.316 29.6 98.3077 29.275 98.291 29.025C98.241 27.9583 97.9743 27.1417 97.491 26.575C97.0077 26.0083 96.3243 25.725 95.441 25.725C94.5577 25.725 93.8743 26.0083 93.391 26.575C92.9077 27.1417 92.641 27.9583 92.591 29.025C92.5743 29.275 92.566 29.6 92.566 30C92.566 30.4 92.5743 30.725 92.591 30.975C92.641 32.0583 92.9077 32.8833 93.391 33.45C93.8743 34 94.5577 34.275 95.441 34.275ZM109.311 36.75C108.294 36.75 107.411 36.525 106.661 36.075C105.928 35.6083 105.361 34.9583 104.961 34.125C104.561 33.275 104.361 32.275 104.361 31.125V24.1C104.361 23.9333 104.419 23.7917 104.536 23.675C104.653 23.5583 104.794 23.5 104.961 23.5H107.161C107.344 23.5 107.486 23.5583 107.586 23.675C107.703 23.7917 107.761 23.9333 107.761 24.1V30.975C107.761 33.0417 108.669 34.075 110.486 34.075C111.353 34.075 112.036 33.8 112.536 33.25C113.053 32.7 113.311 31.9417 113.311 30.975V24.1C113.311 23.9333 113.369 23.7917 113.486 23.675C113.603 23.5583 113.744 23.5 113.911 23.5H116.111C116.278 23.5 116.419 23.5583 116.536 23.675C116.653 23.7917 116.711 23.9333 116.711 24.1V35.9C116.711 36.0667 116.653 36.2083 116.536 36.325C116.419 36.4417 116.278 36.5 116.111 36.5H114.086C113.903 36.5 113.753 36.4417 113.636 36.325C113.536 36.2083 113.486 36.0667 113.486 35.9V34.875C113.036 35.4583 112.478 35.9167 111.811 36.25C111.144 36.5833 110.311 36.75 109.311 36.75ZM125.888 36.5C124.888 36.5 124.047 36.325 123.363 35.975C122.68 35.625 122.172 35.1083 121.838 34.425C121.505 33.725 121.338 32.8583 121.338 31.825V26.15H119.363C119.197 26.15 119.055 26.0917 118.938 25.975C118.822 25.8583 118.763 25.7167 118.763 25.55V24.1C118.763 23.9333 118.822 23.7917 118.938 23.675C119.055 23.5583 119.197 23.5 119.363 23.5H121.338V19.35C121.338 19.1833 121.388 19.0417 121.488 18.925C121.605 18.8083 121.755 18.75 121.938 18.75H123.963C124.13 18.75 124.272 18.8083 124.388 18.925C124.505 19.0417 124.563 19.1833 124.563 19.35V23.5H127.688C127.855 23.5 127.997 23.5583 128.113 23.675C128.23 23.7917 128.288 23.9333 128.288 24.1V25.55C128.288 25.7167 128.23 25.8583 128.113 25.975C127.997 26.0917 127.855 26.15 127.688 26.15H124.563V31.575C124.563 32.2583 124.68 32.7917 124.913 33.175C125.163 33.5583 125.588 33.75 126.188 33.75H127.913C128.08 33.75 128.222 33.8083 128.338 33.925C128.455 34.0417 128.513 34.1833 128.513 34.35V35.9C128.513 36.0667 128.455 36.2083 128.338 36.325C128.222 36.4417 128.08 36.5 127.913 36.5H125.888ZM131.631 36.5C131.464 36.5 131.323 36.4417 131.206 36.325C131.089 36.2083 131.031 36.0667 131.031 35.9V19.625C131.031 19.4417 131.089 19.2917 131.206 19.175C131.323 19.0583 131.464 19 131.631 19H138.331C139.631 19 140.764 19.2083 141.731 19.625C142.698 20.025 143.448 20.6417 143.981 21.475C144.514 22.2917 144.781 23.3167 144.781 24.55C144.781 25.8 144.514 26.8333 143.981 27.65C143.448 28.45 142.698 29.05 141.731 29.45C140.764 29.85 139.631 30.05 138.331 30.05H134.606V35.9C134.606 36.0667 134.548 36.2083 134.431 36.325C134.331 36.4417 134.189 36.5 134.006 36.5H131.631ZM134.556 27.275H138.206C139.173 27.275 139.914 27.05 140.431 26.6C140.948 26.1333 141.206 25.45 141.206 24.55C141.206 23.7167 140.964 23.05 140.481 22.55C139.998 22.0333 139.239 21.775 138.206 21.775H134.556V27.275ZM150.717 36.75C149.85 36.75 149.067 36.5833 148.367 36.25C147.667 35.9 147.109 35.4417 146.692 34.875C146.292 34.2917 146.092 33.6417 146.092 32.925C146.092 31.7583 146.559 30.8333 147.492 30.15C148.442 29.45 149.692 28.9833 151.242 28.75L154.667 28.25V27.725C154.667 27.025 154.492 26.4833 154.142 26.1C153.792 25.7167 153.192 25.525 152.342 25.525C151.742 25.525 151.25 25.65 150.867 25.9C150.5 26.1333 150.225 26.45 150.042 26.85C149.909 27.0667 149.717 27.175 149.467 27.175H147.492C147.309 27.175 147.167 27.125 147.067 27.025C146.984 26.925 146.942 26.7917 146.942 26.625C146.959 26.3583 147.067 26.0333 147.267 25.65C147.467 25.2667 147.784 24.9 148.217 24.55C148.65 24.1833 149.209 23.875 149.892 23.625C150.575 23.375 151.4 23.25 152.367 23.25C153.417 23.25 154.3 23.3833 155.017 23.65C155.75 23.9 156.334 24.2417 156.767 24.675C157.2 25.1083 157.517 25.6167 157.717 26.2C157.917 26.7833 158.017 27.4 158.017 28.05V35.9C158.017 36.0667 157.959 36.2083 157.842 36.325C157.725 36.4417 157.584 36.5 157.417 36.5H155.392C155.209 36.5 155.059 36.4417 154.942 36.325C154.842 36.2083 154.792 36.0667 154.792 35.9V34.925C154.575 35.2417 154.284 35.5417 153.917 35.825C153.55 36.0917 153.1 36.3167 152.567 36.5C152.05 36.6667 151.434 36.75 150.717 36.75ZM151.567 34.375C152.15 34.375 152.675 34.25 153.142 34C153.625 33.75 154 33.3667 154.267 32.85C154.55 32.3167 154.692 31.65 154.692 30.85V30.325L152.192 30.725C151.209 30.875 150.475 31.1167 149.992 31.45C149.509 31.7833 149.267 32.1917 149.267 32.675C149.267 33.0417 149.375 33.3583 149.592 33.625C149.825 33.875 150.117 34.0667 150.467 34.2C150.817 34.3167 151.184 34.375 151.567 34.375ZM166.149 36.75C165.149 36.75 164.291 36.6333 163.574 36.4C162.874 36.1667 162.299 35.875 161.849 35.525C161.399 35.175 161.066 34.825 160.849 34.475C160.633 34.125 160.516 33.8333 160.499 33.6C160.483 33.4167 160.533 33.275 160.649 33.175C160.783 33.0583 160.924 33 161.074 33H163.049C163.116 33 163.174 33.0083 163.224 33.025C163.274 33.0417 163.341 33.0917 163.424 33.175C163.641 33.3583 163.866 33.55 164.099 33.75C164.349 33.95 164.641 34.125 164.974 34.275C165.308 34.4083 165.724 34.475 166.224 34.475C166.874 34.475 167.416 34.35 167.849 34.1C168.299 33.8333 168.524 33.4583 168.524 32.975C168.524 32.625 168.424 32.3417 168.224 32.125C168.041 31.9083 167.691 31.7167 167.174 31.55C166.658 31.3667 165.924 31.175 164.974 30.975C164.041 30.7583 163.266 30.4833 162.649 30.15C162.033 29.8167 161.574 29.4 161.274 28.9C160.974 28.4 160.824 27.8167 160.824 27.15C160.824 26.5 161.016 25.8833 161.399 25.3C161.799 24.7 162.383 24.2083 163.149 23.825C163.933 23.4417 164.899 23.25 166.049 23.25C166.949 23.25 167.733 23.3667 168.399 23.6C169.066 23.8167 169.616 24.0917 170.049 24.425C170.499 24.7583 170.841 25.1 171.074 25.45C171.308 25.7833 171.433 26.075 171.449 26.325C171.466 26.5083 171.416 26.6583 171.299 26.775C171.183 26.875 171.049 26.925 170.899 26.925H169.049C168.966 26.925 168.891 26.9083 168.824 26.875C168.758 26.8417 168.691 26.8 168.624 26.75C168.441 26.5833 168.241 26.4083 168.024 26.225C167.808 26.0417 167.541 25.8833 167.224 25.75C166.924 25.6 166.524 25.525 166.024 25.525C165.391 25.525 164.908 25.6667 164.574 25.95C164.241 26.2167 164.074 26.5583 164.074 26.975C164.074 27.2583 164.149 27.5083 164.299 27.725C164.466 27.925 164.791 28.1167 165.274 28.3C165.758 28.4833 166.491 28.675 167.474 28.875C168.591 29.075 169.474 29.375 170.124 29.775C170.791 30.1583 171.258 30.6083 171.524 31.125C171.808 31.625 171.949 32.1833 171.949 32.8C171.949 33.55 171.724 34.225 171.274 34.825C170.841 35.425 170.191 35.9 169.324 36.25C168.474 36.5833 167.416 36.75 166.149 36.75ZM179.455 36.75C178.455 36.75 177.597 36.6333 176.88 36.4C176.18 36.1667 175.605 35.875 175.155 35.525C174.705 35.175 174.372 34.825 174.155 34.475C173.938 34.125 173.822 33.8333 173.805 33.6C173.788 33.4167 173.838 33.275 173.955 33.175C174.088 33.0583 174.23 33 174.38 33H176.355C176.422 33 176.48 33.0083 176.53 33.025C176.58 33.0417 176.647 33.0917 176.73 33.175C176.947 33.3583 177.172 33.55 177.405 33.75C177.655 33.95 177.947 34.125 178.28 34.275C178.613 34.4083 179.03 34.475 179.53 34.475C180.18 34.475 180.722 34.35 181.155 34.1C181.605 33.8333 181.83 33.4583 181.83 32.975C181.83 32.625 181.73 32.3417 181.53 32.125C181.347 31.9083 180.997 31.7167 180.48 31.55C179.963 31.3667 179.23 31.175 178.28 30.975C177.347 30.7583 176.572 30.4833 175.955 30.15C175.338 29.8167 174.88 29.4 174.58 28.9C174.28 28.4 174.13 27.8167 174.13 27.15C174.13 26.5 174.322 25.8833 174.705 25.3C175.105 24.7 175.688 24.2083 176.455 23.825C177.238 23.4417 178.205 23.25 179.355 23.25C180.255 23.25 181.038 23.3667 181.705 23.6C182.372 23.8167 182.922 24.0917 183.355 24.425C183.805 24.7583 184.147 25.1 184.38 25.45C184.613 25.7833 184.738 26.075 184.755 26.325C184.772 26.5083 184.722 26.6583 184.605 26.775C184.488 26.875 184.355 26.925 184.205 26.925H182.355C182.272 26.925 182.197 26.9083 182.13 26.875C182.063 26.8417 181.997 26.8 181.93 26.75C181.747 26.5833 181.547 26.4083 181.33 26.225C181.113 26.0417 180.847 25.8833 180.53 25.75C180.23 25.6 179.83 25.525 179.33 25.525C178.697 25.525 178.213 25.6667 177.88 25.95C177.547 26.2167 177.38 26.5583 177.38 26.975C177.38 27.2583 177.455 27.5083 177.605 27.725C177.772 27.925 178.097 28.1167 178.58 28.3C179.063 28.4833 179.797 28.675 180.78 28.875C181.897 29.075 182.78 29.375 183.43 29.775C184.097 30.1583 184.563 30.6083 184.83 31.125C185.113 31.625 185.255 32.1833 185.255 32.8C185.255 33.55 185.03 34.225 184.58 34.825C184.147 35.425 183.497 35.9 182.63 36.25C181.78 36.5833 180.722 36.75 179.455 36.75Z" fill="white"/>
<defs>
<clipPath id="clip0_6812_165346">
<rect width="47.7188" height="55" fill="white"/>
</clipPath>
</defs>
</svg>
