<svg width="35" height="35" viewBox="0 0 35 35" fill="none" xmlns="http://www.w3.org/2000/svg">
<rect width="35" height="35" rx="17.5" fill="#EA580C"/>
<g clip-path="url(#clip0_530_5585)">
<path d="M8.64577 7.62424C9.05307 7.55941 9.4371 7.48127 9.82279 7.44137C11.2907 7.29175 12.7155 7.46797 14.1086 7.96837C15.2889 8.3923 16.3646 8.99078 17.3471 9.7605C17.4834 9.86689 17.5765 9.87354 17.7161 9.76881C18.5341 9.1537 19.3836 8.59013 20.3395 8.20943C21.721 7.66082 23.1374 7.28676 24.6419 7.4048C25.1872 7.44802 25.7275 7.52948 26.2927 7.59598C26.2811 7.3383 26.2661 7.05901 26.2562 6.78138C26.2495 6.57523 26.2628 6.36909 26.2395 6.16461C26.203 5.84874 26.4407 5.61267 26.7266 5.59771C27.0159 5.58108 27.2237 5.79055 27.2403 6.1164C27.2819 6.97921 27.3384 7.84202 27.3484 8.70484C27.3534 9.09053 27.4548 9.3266 27.8521 9.43133C28.1414 9.50614 28.4057 9.6674 28.69 9.76382C29.0059 9.87188 29.1455 10.0863 29.1621 10.4089C29.2286 11.6058 29.2951 12.8028 29.3699 13.9998C29.4697 15.599 29.5777 17.1983 29.6792 18.7976C29.7856 20.48 29.8953 22.1607 29.9867 23.8432C30.0299 24.6395 30.005 24.6611 29.2569 24.9121C26.1681 25.9495 23.0759 26.9835 19.9854 28.0143C19.7443 28.0941 19.5581 28.2054 19.4168 28.4382C18.8965 29.2977 17.9672 29.5121 16.9813 29.3492C16.4045 29.2544 15.9356 28.9702 15.643 28.4565C15.51 28.2221 15.3205 28.1123 15.0795 28.0325C12.9914 27.3476 10.905 26.6577 8.82033 25.9628C7.71646 25.5954 6.61592 25.2163 5.51703 24.8373C5.08978 24.691 4.97673 24.4749 5.005 24.0244C5.07316 22.9438 5.12303 21.8615 5.18288 20.7809C5.26933 19.2548 5.3591 17.7303 5.44721 16.2042C5.51038 15.1103 5.57189 14.0147 5.63174 12.9208C5.67995 12.058 5.73149 11.1969 5.77471 10.334C5.78801 10.0631 5.9127 9.89017 6.16206 9.7871C6.57435 9.61919 6.97833 9.43466 7.39062 9.26675C7.50533 9.2202 7.56019 9.16534 7.56518 9.03068C7.60341 8.05149 7.65162 7.07231 7.69651 6.09312C7.71147 5.77393 7.88603 5.59106 8.17696 5.59605C8.46789 5.60103 8.69565 5.82547 8.69066 6.12471C8.68401 6.57025 8.66073 7.01578 8.64411 7.45966C8.64411 7.50621 8.64411 7.55276 8.64411 7.61925L8.64577 7.62424ZM8.08719 20.1542C11.7629 20.5266 14.6539 22.2688 17.0428 25.0085C17.0428 24.7957 17.0428 24.6145 17.0428 24.4333C17.0428 19.9297 17.0412 15.4278 17.0345 10.9242C17.0345 10.8444 16.9846 10.7364 16.9215 10.6898C16.5557 10.4138 16.1917 10.1296 15.8043 9.88684C13.6414 8.53693 11.329 7.97003 8.79872 8.59345C8.69066 8.62005 8.59922 8.6267 8.59257 8.7863C8.51776 10.5053 8.42965 12.2226 8.35152 13.9399C8.28336 15.4328 8.22018 16.924 8.15701 18.4169C8.13207 18.9988 8.11046 19.579 8.08719 20.1525V20.1542ZM26.8995 20.1725C26.8995 20.1043 26.9012 20.0444 26.8995 19.9846C26.8563 19.047 26.8164 18.1093 26.7699 17.1717C26.6801 15.3646 26.5853 13.5592 26.4972 11.7521C26.449 10.7729 26.4108 9.79375 26.3592 8.81622C26.3559 8.75637 26.2927 8.66161 26.2395 8.64831C25.2371 8.379 24.2213 8.26927 23.1873 8.41391C21.3685 8.66826 19.7792 9.43798 18.3346 10.5468C18.1351 10.6998 18.0603 10.8544 18.0603 11.1071C18.0669 15.6921 18.0636 20.2789 18.0636 24.8639C18.0636 24.9021 18.0686 24.9387 18.0736 25.0218C19.2423 23.7002 20.4858 22.5315 22.0102 21.7052C23.5331 20.879 25.1506 20.3271 26.9029 20.1741L26.8995 20.1725ZM15.8292 25.2263C15.8442 25.2163 15.8592 25.2047 15.8741 25.1947C15.5749 24.9071 15.2806 24.6129 14.9747 24.3319C12.8551 22.3985 10.4346 21.1683 7.50034 21.145C7.24765 21.1433 7.0548 20.9305 7.06312 20.6729C7.10634 19.4543 7.1479 18.234 7.2011 17.0155C7.2942 14.8509 7.39561 12.6881 7.49369 10.5252C7.49702 10.4554 7.49369 10.3839 7.49369 10.2941C7.27923 10.3839 7.09138 10.4521 6.91682 10.5435C6.85531 10.5751 6.7938 10.6682 6.78881 10.7364C6.69073 12.3506 6.59597 13.9648 6.50786 15.5791C6.3599 18.2889 6.22191 20.9987 6.06897 23.7068C6.05567 23.9429 6.12217 24.0393 6.34493 24.1125C9.53186 25.1598 12.7171 26.2171 15.9041 27.2645C16.1434 27.3426 16.2981 27.474 16.4144 27.6967C16.5192 27.8979 16.6538 28.114 16.8334 28.237C17.4651 28.6709 18.3595 28.395 18.6554 27.6901C18.7535 27.4573 18.9031 27.331 19.1359 27.2612C19.7327 27.0816 20.3278 26.8987 20.918 26.7009C23.548 25.8248 26.1747 24.942 28.8047 24.0643C28.9194 24.026 28.966 23.9795 28.9576 23.8498C28.8945 22.8523 28.8446 21.8532 28.7798 20.8541C28.68 19.3096 28.5703 17.7652 28.4705 16.2191C28.3542 14.3938 28.2445 12.5684 28.1281 10.743C28.1248 10.6881 28.1031 10.6083 28.0649 10.5884C27.8687 10.482 27.6659 10.3906 27.4382 10.2808C27.4382 10.3922 27.4348 10.467 27.4382 10.5402C27.4698 11.1902 27.5013 11.8402 27.5329 12.4902C27.6643 15.1602 27.7956 17.8301 27.9253 20.4983C27.9485 20.9621 27.779 21.135 27.3118 21.1383C26.5122 21.1467 25.7292 21.2697 24.9644 21.5024C22.9844 22.1042 21.2738 23.1566 19.8075 24.6129C19.5797 24.839 19.362 25.0717 19.1176 25.3244C20.6869 24.6694 22.2181 24.0227 23.7542 23.3893C24.9328 22.9039 26.1265 22.4617 27.4149 22.3536C27.7141 22.3287 27.9785 22.5115 28.015 22.7875C28.0483 23.0485 27.8521 23.2796 27.5479 23.3012C26.8081 23.3511 26.0966 23.5356 25.415 23.8033C23.8655 24.4101 22.3278 25.0468 20.7917 25.6885C19.8308 26.0891 18.8848 26.5214 17.9306 26.937C17.7494 27.0168 17.5748 27.08 17.362 26.9885C15.5433 26.2072 13.7246 25.4275 11.8992 24.6611C10.4412 24.0476 8.98325 23.4259 7.37898 23.2829C7.09138 23.258 6.92513 23.0269 6.95672 22.7725C6.99329 22.4849 7.21772 22.322 7.53193 22.3469C8.60587 22.4334 9.64158 22.6927 10.6374 23.0951C12.3713 23.7949 14.097 24.5131 15.8259 25.223L15.8292 25.2263Z" fill="white"/>
</g>
<defs>
<clipPath id="clip0_530_5585">
<rect width="25" height="23.8047" fill="white" transform="translate(5 5.59766)"/>
</clipPath>
</defs>
</svg>
