<svg width="35" height="35" viewBox="0 0 35 35" fill="none" xmlns="http://www.w3.org/2000/svg">
<rect width="35" height="35" rx="17.5" fill="#6D28D9"/>
<g clip-path="url(#clip0_530_5603)">
<path d="M24.9665 23.2514C24.7931 23.2514 24.6415 23.1422 24.5626 22.9579C24.4413 22.6765 24.6487 22.4909 24.7167 22.4303C25.0162 22.161 25.2709 21.8444 25.4735 21.4891C24.6778 21.3338 24.0641 20.8717 23.5984 20.0785C23.4177 19.7716 23.2903 19.4344 23.1666 19.1082L23.0999 18.9335C23.0489 18.8001 23.0489 18.6703 23.1011 18.5575C23.1496 18.452 23.2418 18.3707 23.3607 18.3295C23.408 18.3125 23.4553 18.304 23.5013 18.304C23.6226 18.304 23.7937 18.361 23.9149 18.6327C23.9574 18.7273 23.9974 18.8219 24.0374 18.9165L24.0423 18.9287C24.1308 19.1373 24.223 19.352 24.3285 19.5509C24.5723 20.0069 24.9204 20.3332 25.3607 20.5188C25.4444 20.5539 25.5378 20.5794 25.6372 20.6049C25.5984 20.3356 25.5305 20.1076 25.425 19.8917C25.0999 19.221 24.5711 18.6339 23.8082 18.0954C23.6275 17.9681 23.4322 17.8565 23.226 17.74C23.226 17.74 23.1423 17.6915 23.1132 17.6757C23.0962 17.7667 23.0805 17.8468 23.0635 17.9268C22.8391 19.0051 22.5238 19.8517 22.0701 20.5903C21.9501 20.7868 21.83 20.9433 21.7026 21.0682C21.5874 21.1822 21.4588 21.2416 21.3291 21.2416C21.1556 21.2416 21.0089 21.1385 20.9167 20.9518C20.799 20.714 20.7214 20.4569 20.6462 20.2095L20.6086 20.0858C20.5795 19.9899 20.5565 19.8917 20.5358 19.7934C20.2605 20.1318 19.8869 20.5297 19.3812 20.7904C19.1762 20.896 18.9421 20.9845 18.6656 21.0585C18.5892 21.0791 18.5164 21.0888 18.4485 21.0888C18.1586 21.0888 17.95 20.902 17.876 20.5745C17.745 19.9924 17.8105 19.398 18.0713 18.8098C18.4109 18.042 18.9348 17.4417 19.665 16.982C19.0003 17.1748 18.4412 17.5217 18.0033 18.0154C17.5364 18.5405 17.3435 19.0839 17.4127 19.6758C17.4272 19.8007 17.3945 19.922 17.3193 20.0166C17.2453 20.1112 17.1361 20.1707 17.0148 20.184C16.9991 20.1864 16.9821 20.1864 16.9651 20.1864C16.7516 20.1864 16.5273 20.0239 16.5224 19.7534C16.5176 19.4757 16.5176 19.1543 16.5758 18.8438C16.6922 18.2276 17.0245 17.683 17.6237 17.1263C18.3526 16.4495 19.272 16.0565 20.4352 15.9268L20.4594 15.9243C20.4922 15.9207 20.5261 15.9159 20.5625 15.9159C20.5625 15.9159 20.5795 15.9159 20.5807 15.9159C20.5965 15.9159 20.6026 15.9159 20.6062 15.9146C20.6062 15.9146 20.6147 15.9049 20.6268 15.8601C20.6814 15.6599 20.7432 15.461 20.8039 15.2682C20.8403 15.1542 20.8755 15.0389 20.9094 14.9249C20.9228 14.8813 20.93 14.8291 20.93 14.7757C20.9434 13.4185 20.5201 12.111 19.6711 10.8897C18.7141 9.5106 17.483 8.43599 16.0118 7.6937L16.0166 7.7034C16.1306 7.96902 16.241 8.22858 16.3538 8.48571C16.6425 9.1431 17.0803 9.75439 17.7741 10.4676C18.047 10.7477 18.3345 11.0243 18.6134 11.2911L18.6425 11.319C18.7711 11.4427 18.8997 11.5664 19.027 11.6902C19.0974 11.7593 19.1786 11.8393 19.2538 11.9267C19.3945 12.0892 19.4103 12.276 19.2987 12.4397C19.2126 12.5671 19.0707 12.6435 18.9203 12.6435C18.8742 12.6435 18.8281 12.6362 18.7844 12.6217C19.2647 13.0037 19.6977 13.4294 20.0786 13.8964C20.4182 14.3112 20.6135 14.7199 20.6765 15.1457C20.6862 15.2136 20.6972 15.3033 20.685 15.3955C20.6559 15.6272 20.4716 15.7946 20.246 15.7946C20.1768 15.7946 20.1089 15.7788 20.0446 15.746C19.9088 15.6781 19.7839 15.5932 19.6686 15.512C18.6158 14.766 17.46 14.1463 16.3405 13.5483L16.1961 13.4707C15.7073 13.2099 15.2028 12.9394 14.771 12.5549C14.7213 12.5101 14.6703 12.4676 14.6194 12.4264C14.6242 12.5004 14.6315 12.5768 14.6436 12.6532C14.8292 13.826 15.5812 14.5101 16.8196 14.6314C17.3896 14.6872 17.8651 14.7466 18.3345 14.857C18.6207 14.9249 18.8815 15.0705 19.1337 15.2112L19.2381 15.2694C19.4709 15.398 19.5655 15.6223 19.4855 15.854C19.4151 16.0553 19.232 16.1718 18.9833 16.1718C18.9664 16.1718 18.9482 16.1718 18.93 16.1706C18.8402 16.1657 18.7505 16.1621 18.6644 16.1621C18.047 16.1621 17.5121 16.2943 17.0306 16.5672C16.2871 16.988 15.9172 17.586 15.9342 18.3465C15.939 18.5599 16.013 18.788 16.0846 19.0087C16.1003 19.0584 16.1173 19.1082 16.1319 19.1567C16.1695 19.2755 16.2677 19.5933 15.9342 19.7534C15.8602 19.7886 15.7862 19.8068 15.7146 19.8068C15.5424 19.8068 15.3981 19.7073 15.3071 19.5278C15.0779 19.0706 14.9881 18.5927 15.0378 18.1063C15.1628 16.891 15.8335 16.0565 17.0876 15.5593C16.7262 15.535 16.2544 15.4865 15.7886 15.3215C14.5697 14.8885 13.7789 13.8091 13.7255 12.5028C13.6867 11.5664 13.8771 10.681 14.0469 10.014C14.2482 9.22436 14.3635 8.5597 14.2689 7.87806C14.2385 7.65489 14.1888 7.4305 14.1403 7.21218L14.1209 7.12486C14.0687 6.88834 14.1027 6.68822 14.2167 6.5451C14.3222 6.41411 14.486 6.34497 14.6897 6.34497C14.7346 6.34497 14.7807 6.34861 14.8292 6.35467C15.2743 6.41532 15.7183 6.55116 16.1876 6.76827C17.5485 7.39897 18.7735 8.35472 19.8299 9.60885C20.6729 10.6095 21.2308 11.638 21.5389 12.7514C21.6165 13.0316 21.6687 13.3203 21.7196 13.6005C21.7402 13.7133 21.7596 13.8248 21.7815 13.9352C21.9331 13.8976 22.0604 13.8806 22.1793 13.8806C22.5711 13.8806 22.8015 14.0929 22.9568 14.3136C23.6384 12.0055 24.9641 10.0649 26.8962 8.54393C27.6033 7.98722 28.3238 7.63669 29.0976 7.47295C29.1922 7.45234 29.2844 7.44263 29.3729 7.44263C29.4251 7.44263 29.476 7.44627 29.5233 7.45355C29.7004 7.48023 29.8435 7.58575 29.9066 7.73615C29.9697 7.88655 29.9454 8.05514 29.8423 8.19826C28.9424 9.43904 28.8938 10.8496 28.9654 12.0662C28.9775 12.2687 28.9981 12.4737 29.0176 12.6714C29.0503 13.0049 29.0843 13.3494 29.0806 13.6902C29.0649 15.2184 28.1904 16.3852 26.7313 16.8364C26.7567 16.8534 26.7822 16.8692 26.8077 16.8862C27.4881 17.341 27.8981 18.0226 27.9623 18.8025C28.0266 19.5873 27.7295 20.3902 27.1873 20.8972C27.0636 21.0136 26.9229 21.1058 26.7871 21.1955C26.7094 21.2477 26.6306 21.2986 26.5578 21.3532C26.4729 21.4163 26.4572 21.4502 26.4535 21.4587C26.2582 22.0349 25.8968 22.5528 25.317 23.0913C25.2103 23.1907 25.089 23.2429 24.9677 23.2429L24.9665 23.2514ZM23.8167 17.0329C25.3073 17.8989 26.1673 18.9541 26.5081 20.3332C27.1788 19.7292 27.1631 18.7576 26.8817 18.2664C26.5736 17.7303 26.0739 17.3798 25.4347 17.2537C24.9071 17.1494 24.3576 17.0899 23.8276 17.0329H23.8179H23.8167ZM20.3745 17.6224C20.2532 17.6879 20.1404 17.7509 20.0361 17.8237C19.3399 18.3101 18.9215 18.8862 18.7553 19.5836C18.7117 19.768 18.6983 19.939 18.7141 20.1149L18.7347 20.1052C18.8706 20.0397 18.9979 19.979 19.1083 19.9026C19.5849 19.5739 19.9828 19.0985 20.3624 18.4071C20.3685 18.3962 20.3733 18.378 20.3733 18.3647C20.3745 18.1233 20.3745 17.8819 20.3745 17.6212V17.6224ZM22.0908 14.7381C22.0556 14.7381 22.0119 14.766 21.9743 14.8158C21.9064 14.9031 21.8458 15.0123 21.7948 15.1432C21.3133 16.3683 21.1617 17.7073 21.3436 19.1239C21.3727 19.3556 21.4249 19.5897 21.4758 19.8165C22.1065 18.5745 22.4146 17.193 22.3928 15.7072C22.3891 15.438 22.3649 15.1251 22.2145 14.8449C22.1793 14.7782 22.132 14.7381 22.0908 14.7381ZM24.2497 16.1839C24.468 16.1972 24.7118 16.2094 24.9592 16.2094C25.4784 16.2094 25.9029 16.1572 26.2958 16.0456C27.1655 15.7982 27.7367 15.3118 28.0424 14.5586C28.0836 14.4568 28.1164 14.3524 28.1406 14.2433C27.5645 14.8048 26.8889 15.2488 26.0812 15.5981C25.556 15.8249 24.9532 16.0177 24.2485 16.1851L24.2497 16.1839ZM28.0472 11.6829C26.8077 12.783 25.505 13.9619 24.3031 15.2548C25.0284 15.068 25.7185 14.8036 26.3589 14.4677C27.0963 14.0808 27.6142 13.6017 27.9429 13.0013C28.0109 12.8788 28.0994 12.6969 28.1006 12.5404C28.1006 12.2651 28.0751 11.9849 28.0497 11.7132L28.0472 11.6817V11.6829ZM28.587 8.57911C28.1237 8.76589 27.6834 9.03515 27.2467 9.40023C25.8628 10.5513 24.8295 11.9497 24.1721 13.5556C24.0593 13.8321 23.9622 14.1232 23.8701 14.407C23.904 14.3706 23.9853 14.2857 23.9853 14.2857C24.257 14.0007 24.5384 13.706 24.8319 13.4294C25.2467 13.0377 25.6761 12.6471 26.0921 12.2699L26.1078 12.2554C26.4196 11.9728 26.7398 11.6805 27.0527 11.3906C27.5257 10.9515 27.9902 10.4518 28.1855 9.77016C28.2037 9.7083 28.2207 9.64523 28.2389 9.58216C28.3323 9.24619 28.4281 8.90416 28.587 8.58032V8.57911ZM14.8923 11.2317C14.9966 11.4973 15.181 11.7326 15.4429 11.9315C15.7037 12.1292 16.0057 12.3233 16.3951 12.5416C16.6983 12.7126 17.01 12.8812 17.312 13.045C17.8238 13.3227 18.3454 13.6065 18.8584 13.911C18.2374 13.3009 17.4866 12.7611 16.5746 12.2723C16.4715 12.2178 16.3684 12.1632 16.2653 12.1098C15.7947 11.8648 15.3107 11.6137 14.8935 11.2317H14.8923ZM15.1943 8.07091C15.2222 8.54757 15.1761 9.04243 15.056 9.54578C15.0051 9.75803 15.0378 9.95088 15.1567 10.1498C15.3544 10.4833 15.654 10.7538 16.0991 11.0012C16.2944 11.1104 16.4945 11.2171 16.6886 11.3214L16.7007 11.3275C17.0718 11.5264 17.4539 11.7326 17.8214 11.9546C18.0106 12.0686 18.195 12.1899 18.3733 12.316C18.3053 12.2517 18.2374 12.1874 18.1683 12.1232C17.6322 11.6174 17.0779 11.0946 16.5903 10.5137C16.0518 9.87083 15.6115 9.1055 15.2064 8.10244C15.2016 8.09153 15.1979 8.08061 15.1931 8.06969L15.1943 8.07091Z" fill="white"/>
<path d="M14.691 6.41178C14.7322 6.41178 14.7771 6.41542 14.8219 6.42149C15.261 6.48213 15.7001 6.61555 16.1634 6.83023C17.5158 7.45729 18.7347 8.40698 19.7839 9.65504C20.6208 10.6496 21.175 11.6696 21.4807 12.7746C21.5571 13.0535 21.6093 13.341 21.6602 13.62C21.6832 13.7461 21.7063 13.8735 21.7318 13.9984C21.7318 14.0044 21.7342 14.0105 21.7354 14.0154C21.9101 13.9681 22.0532 13.9462 22.1805 13.9462C22.5589 13.9462 22.7858 14.1464 22.9786 14.4629C23.6457 12.1111 24.9762 10.1378 26.9338 8.59619C27.6337 8.04554 28.3456 7.69866 29.1097 7.53734C29.2007 7.51794 29.2892 7.50823 29.3729 7.50823C29.4215 7.50823 29.4688 7.51187 29.5136 7.51794C29.6689 7.54098 29.795 7.63316 29.8496 7.76415C29.9042 7.89393 29.8836 8.04069 29.7914 8.16683C28.8805 9.42338 28.832 10.8473 28.9036 12.0735C28.9157 12.2761 28.9363 12.4823 28.9557 12.6812C28.9885 13.0123 29.0224 13.3543 29.0188 13.694C29.003 15.2404 28.0946 16.406 26.5857 16.8208C26.6512 16.862 26.7131 16.9008 26.7725 16.9421C27.4372 17.3872 27.8386 18.0519 27.9005 18.8135C27.9636 19.5801 27.6737 20.3636 27.1449 20.8597C27.0236 20.9725 26.8853 21.0647 26.7507 21.1532C26.6743 21.2041 26.5942 21.2563 26.5202 21.3109C26.4499 21.363 26.4074 21.4091 26.3953 21.4455C26.2037 22.0119 25.8471 22.5225 25.2746 23.0526C25.1788 23.1411 25.072 23.1884 24.9665 23.1884C24.8173 23.1884 24.6876 23.0926 24.6184 22.9313C24.5153 22.6899 24.6912 22.5322 24.7579 22.4728C25.0696 22.1926 25.3328 21.8627 25.5402 21.4928C25.5499 21.4758 25.5584 21.4588 25.5681 21.4419C24.7506 21.306 24.1236 20.8488 23.6518 20.0446C23.4747 19.7414 23.3473 19.4066 23.2248 19.0828C23.203 19.0246 23.1812 18.9664 23.1581 18.9081C23.1132 18.7905 23.1132 18.6765 23.1581 18.5795C23.2006 18.4885 23.2794 18.4194 23.3825 18.3842C23.4237 18.3696 23.4638 18.3623 23.5038 18.3623C23.6069 18.3623 23.7536 18.4133 23.8616 18.6559C23.9052 18.7541 23.9477 18.8524 23.9889 18.9506C24.0775 19.1592 24.1697 19.3763 24.2776 19.5777C24.5287 20.0458 24.8865 20.3806 25.3401 20.5722C25.4371 20.6135 25.5451 20.6414 25.6591 20.6705C25.6761 20.6753 25.693 20.679 25.7112 20.6838C25.6736 20.3697 25.5996 20.1065 25.482 19.8627C25.1521 19.1823 24.6172 18.5879 23.8458 18.0434C23.6627 17.9136 23.4662 17.802 23.2588 17.6843C23.1969 17.6492 23.1351 17.614 23.072 17.5776L23.0623 17.6249C23.0417 17.7304 23.0247 17.8214 23.0053 17.9112C22.7821 18.9821 22.4692 19.8227 22.0204 20.5552C21.9028 20.7469 21.7851 20.8997 21.6614 21.0222C21.5583 21.1241 21.4431 21.1787 21.3303 21.1787C21.1811 21.1787 21.0538 21.0877 20.9725 20.9228C20.8573 20.6887 20.7796 20.4352 20.7057 20.1902L20.6681 20.0665C20.6292 19.9391 20.6026 19.8093 20.5747 19.6723C20.5735 19.6662 20.5722 19.6601 20.571 19.6541C20.565 19.6613 20.5601 19.6674 20.554 19.6747C20.2775 20.0228 19.8906 20.4594 19.3545 20.736C19.1532 20.8403 18.9227 20.9264 18.651 20.9992C18.5807 21.0186 18.5128 21.0283 18.4497 21.0283C18.1865 21.0283 18.0046 20.8621 17.9366 20.5613C17.8081 19.9925 17.8724 19.4115 18.1283 18.8342C18.5164 17.9585 19.1495 17.2999 20.0604 16.8268C20.0034 16.8378 19.9476 16.8487 19.8918 16.862C19.1071 17.0403 18.457 17.4151 17.9585 17.9754C17.4794 18.514 17.2817 19.0731 17.3532 19.6844C17.3666 19.7936 17.3375 19.8979 17.272 19.9803C17.2077 20.0616 17.1143 20.1125 17.0076 20.1247C16.993 20.1259 16.9785 20.1271 16.9651 20.1271C16.7808 20.1271 16.5867 19.9876 16.5831 19.7535C16.5782 19.4794 16.577 19.1604 16.6352 18.856C16.7492 18.2544 17.0755 17.7183 17.665 17.1713C18.3842 16.503 19.2926 16.1161 20.4412 15.9875L20.4655 15.9851C20.4958 15.9815 20.5274 15.9778 20.5613 15.9778H20.5735H20.5807C20.6305 15.9778 20.6571 15.973 20.6838 15.8771C20.7372 15.6782 20.8003 15.4793 20.8597 15.2877C20.8961 15.1725 20.9313 15.0584 20.9664 14.9432C20.981 14.8935 20.9895 14.8365 20.9895 14.7771C21.0028 13.4077 20.5759 12.0881 19.7196 10.8558C18.725 9.42217 17.4369 8.31602 15.8905 7.56766L15.9596 7.72898C16.0712 7.98975 16.1828 8.25173 16.2968 8.5125C16.5879 9.17716 17.0294 9.79331 17.7292 10.5126C18.0021 10.7939 18.2908 11.0705 18.5698 11.3373C18.708 11.4695 18.8463 11.6029 18.9834 11.7364C19.0537 11.8043 19.1338 11.8843 19.2065 11.9692C19.329 12.1111 19.3436 12.2664 19.2478 12.4095C19.1726 12.5199 19.0501 12.5866 18.9191 12.5866C18.8718 12.5866 18.8257 12.5781 18.782 12.5599C18.7092 12.5308 18.6401 12.4883 18.5892 12.4386C18.463 12.3185 18.3369 12.1985 18.2095 12.0796C17.6747 11.575 17.1216 11.0535 16.6364 10.4762C16.1015 9.83819 15.6649 9.07771 15.2634 8.08193C15.2149 7.96185 15.1579 7.84178 15.0985 7.72413C15.1021 7.75081 15.1058 7.77628 15.1082 7.80296C15.1749 8.35725 15.1373 8.93823 14.9966 9.53254C14.942 9.76178 14.976 9.96797 15.1033 10.1814C15.3071 10.5247 15.614 10.8024 16.0676 11.0547C16.2665 11.1663 16.4715 11.2755 16.6704 11.3822C17.0403 11.5811 17.4224 11.7861 17.7887 12.008C18.6595 12.5344 19.4139 13.1845 20.0301 13.9377C20.3624 14.3441 20.554 14.7431 20.6147 15.1579C20.6244 15.2222 20.6341 15.3071 20.6232 15.3908C20.5977 15.5909 20.4388 15.7377 20.2435 15.7377C20.1841 15.7377 20.1259 15.7231 20.0701 15.6964C19.9379 15.6309 19.8154 15.5472 19.7026 15.4672C18.6474 14.7188 17.4891 14.0991 16.3684 13.4987L16.3174 13.472L16.2228 13.4211C15.7377 13.1615 15.2355 12.8934 14.8086 12.5138C14.7237 12.4374 14.6352 12.3671 14.549 12.2979C14.5539 12.4144 14.5612 12.5405 14.5806 12.6666C14.771 13.8698 15.5424 14.5721 16.8099 14.6958C17.3775 14.7516 17.8505 14.811 18.3163 14.9202C18.594 14.9857 18.8524 15.13 19.101 15.2695C19.1362 15.2889 19.1701 15.3083 19.2053 15.3277C19.4139 15.4429 19.4964 15.6334 19.4248 15.8383C19.363 16.0166 19.2053 16.1149 18.9797 16.1149C18.964 16.1149 18.947 16.1149 18.93 16.1137C18.839 16.1088 18.7481 16.1052 18.6607 16.1052C18.0325 16.1052 17.4879 16.2398 16.9967 16.5175C16.2313 16.9493 15.8529 17.5667 15.8687 18.3514C15.8735 18.5746 15.9487 18.8063 16.0227 19.0306C16.0385 19.0804 16.0542 19.1289 16.07 19.1786C16.1294 19.3703 16.1561 19.5813 15.9038 19.7026C15.8383 19.7341 15.7741 19.7499 15.711 19.7499C15.563 19.7499 15.4369 19.6626 15.358 19.5049C15.1349 19.0585 15.0463 18.5916 15.0948 18.1173C15.221 16.8863 15.922 16.053 17.238 15.5703C17.2805 15.5545 17.3241 15.54 17.3678 15.5278C17.2768 15.5181 17.1859 15.5096 17.0949 15.5048C16.7371 15.4817 16.2665 15.4344 15.8056 15.2707C14.6109 14.8462 13.8359 13.7873 13.7825 12.5065C13.7437 11.5787 13.9329 10.6981 14.1027 10.0359C14.3065 9.24023 14.4217 8.5683 14.3259 7.87695C14.2943 7.65257 14.2446 7.42576 14.1973 7.20622L14.1779 7.1189C14.1306 6.90058 14.1597 6.71864 14.2628 6.59008C14.3562 6.47364 14.5042 6.413 14.6885 6.413M23.7306 14.6388C23.8313 14.5357 23.9307 14.4314 24.0302 14.3271C24.3019 14.042 24.5833 13.7473 24.8743 13.472C25.2904 13.079 25.7222 12.6873 26.1382 12.3088C26.4535 12.0226 26.7786 11.7267 27.0951 11.4331C27.5742 10.988 28.0448 10.481 28.245 9.78482C28.2631 9.72054 28.2813 9.65504 28.2995 9.59076C28.4051 9.21355 28.513 8.82421 28.7156 8.46641C28.6961 8.47248 28.6755 8.47976 28.6561 8.48703C28.1528 8.67746 27.6785 8.96127 27.2079 9.35303C25.8168 10.5113 24.7773 11.9171 24.1163 13.5314C23.9914 13.8371 23.8871 14.1597 23.7852 14.4702C23.767 14.526 23.7488 14.5818 23.7306 14.6376M19.2235 14.207C18.5419 13.4514 17.6807 12.7988 16.6025 12.2203C16.4994 12.1645 16.3963 12.1111 16.292 12.0578C15.7595 11.7812 15.2125 11.4962 14.7662 11.0244C14.8462 11.3967 15.0609 11.7182 15.4066 11.9814C15.6698 12.1815 15.9742 12.3768 16.3647 12.5963C16.6704 12.7673 16.9833 12.9383 17.2865 13.1021C17.9294 13.4514 18.5892 13.8092 19.2235 14.207ZM24.1211 15.3617C24.9229 15.1712 25.6846 14.8886 26.3868 14.5211C27.1352 14.1282 27.6616 13.6406 27.9963 13.0305C28.0667 12.9019 28.1613 12.7103 28.1613 12.5417C28.1625 12.2627 28.1358 11.9801 28.1103 11.706C28.1055 11.6563 28.1006 11.6066 28.097 11.5581C26.7094 12.7867 25.3619 14.0093 24.1224 15.3617M24.9592 16.2701C25.4832 16.2701 25.9138 16.2168 26.3128 16.104C27.2019 15.8517 27.7853 15.3532 28.0994 14.5818C28.1649 14.4193 28.2098 14.2482 28.2353 14.0627C27.6361 14.6837 26.9217 15.1688 26.0581 15.5412C25.3195 15.8602 24.5347 16.0651 23.8519 16.2107C23.938 16.2204 24.0241 16.2289 24.109 16.2349C24.3601 16.2519 24.6572 16.2701 24.9592 16.2701ZM21.4516 19.9925C22.1381 18.7032 22.4753 17.261 22.4534 15.7073C22.4498 15.4308 22.4243 15.1082 22.2679 14.8171C22.2205 14.7285 22.1563 14.6788 22.0908 14.6788C22.035 14.6788 21.9768 14.714 21.9258 14.7795C21.8543 14.8717 21.79 14.9869 21.7366 15.1215C21.2515 16.355 21.0986 17.705 21.2818 19.1313C21.3121 19.3666 21.3655 19.6056 21.4164 19.836C21.4285 19.8882 21.4395 19.9403 21.4516 19.9925ZM26.4717 20.4437C27.2443 19.8239 27.2443 18.7796 26.9338 18.2374C26.6173 17.6856 26.103 17.3253 25.4456 17.1956C24.9156 17.0912 24.3649 17.0318 23.8325 16.9736C23.7318 16.9627 23.6299 16.9518 23.528 16.9408C25.1958 17.842 26.1357 18.9591 26.4717 20.4437ZM18.6644 20.2071C18.6971 20.1914 18.7299 20.1756 18.7614 20.1598C18.8997 20.0943 19.0294 20.0325 19.1435 19.9524C19.6274 19.6177 20.0325 19.1362 20.4158 18.4363C20.4267 18.4157 20.434 18.389 20.434 18.366C20.4352 18.1222 20.4352 17.8784 20.4352 17.6164V17.5206C20.4158 17.5303 20.3976 17.5412 20.3782 17.5509C20.2448 17.6237 20.1174 17.6916 20.001 17.7741C19.2926 18.269 18.8657 18.8572 18.6959 19.5704C18.6437 19.7887 18.6328 19.9937 18.6632 20.2071M14.691 6.2905C14.4678 6.2905 14.2883 6.36812 14.1706 6.51367C14.0445 6.67134 14.0069 6.88845 14.0627 7.14437L14.0821 7.2317C14.1294 7.4488 14.1791 7.67319 14.2094 7.89272C14.3028 8.56466 14.1888 9.22325 13.9887 10.0056C13.8177 10.6763 13.626 11.5678 13.6649 12.5114C13.7194 13.8419 14.526 14.9432 15.768 15.3847C16.1391 15.5169 16.5151 15.5751 16.8365 15.6055C15.7061 16.1209 15.0973 16.9421 14.9772 18.1052C14.9263 18.6025 15.0184 19.0925 15.2525 19.5595C15.352 19.7572 15.5194 19.8712 15.7134 19.8712C15.7947 19.8712 15.8772 19.8518 15.9596 19.8117C16.3405 19.6286 16.2265 19.2623 16.1889 19.1422C16.1731 19.0925 16.1573 19.0428 16.1416 18.993C16.0712 18.7772 15.9984 18.5528 15.9936 18.3478C15.9778 17.6116 16.3368 17.0306 17.0597 16.6219C17.5327 16.355 18.0567 16.2252 18.6644 16.2252C18.7493 16.2252 18.8378 16.2277 18.9264 16.2337C18.4206 16.4387 17.9754 16.7213 17.5837 17.084C16.9748 17.6492 16.6364 18.2059 16.5176 18.8342C16.4581 19.1495 16.4581 19.4758 16.463 19.756C16.469 20.064 16.7238 20.2484 16.9663 20.2484C16.9857 20.2484 17.0039 20.2484 17.0233 20.2447C17.1616 20.229 17.2841 20.1611 17.369 20.0543C17.4539 19.9464 17.4915 19.8105 17.4757 19.6686C17.4078 19.0949 17.597 18.5661 18.0506 18.0555C18.3854 17.6783 18.7917 17.3884 19.2647 17.1883C18.7141 17.614 18.3029 18.1416 18.0179 18.7844C17.7511 19.386 17.6844 19.9925 17.819 20.588C17.899 20.9446 18.1295 21.1496 18.4509 21.1496C18.5237 21.1496 18.6025 21.1386 18.6838 21.1168C18.9652 21.0416 19.2029 20.9519 19.4115 20.8439C19.8797 20.6025 20.2351 20.2472 20.5055 19.927C20.5189 19.9864 20.5346 20.0446 20.5528 20.1028L20.5904 20.2266C20.6656 20.4764 20.7445 20.7348 20.8645 20.9773C20.9664 21.1823 21.1362 21.3012 21.3315 21.3012C21.4783 21.3012 21.6214 21.2357 21.7487 21.1095C21.8797 20.9798 22.0022 20.8197 22.1259 20.6195C22.5832 19.8748 22.901 19.0222 23.1266 17.9366C23.1375 17.882 23.1484 17.8263 23.1605 17.768C23.1739 17.7753 23.1872 17.7826 23.2006 17.7899C23.4055 17.9063 23.5996 18.0167 23.7779 18.1428C24.5323 18.6741 25.0539 19.255 25.3753 19.9161C25.465 20.1004 25.5269 20.2957 25.5669 20.5201C25.5038 20.5019 25.4432 20.4837 25.3898 20.4606C24.9629 20.2799 24.6257 19.9634 24.388 19.5194C24.2825 19.323 24.1915 19.1095 24.1042 18.9021C24.0617 18.8026 24.0193 18.7032 23.9756 18.6049C23.8337 18.2871 23.6202 18.2398 23.5062 18.2398C23.4528 18.2398 23.3995 18.2496 23.3449 18.2677C23.2103 18.3138 23.106 18.406 23.0502 18.5273C22.9907 18.6547 22.9895 18.8014 23.0477 18.9506C23.0696 19.0076 23.0914 19.0646 23.1132 19.1216C23.2394 19.4527 23.3679 19.7923 23.5511 20.1041C24.0096 20.8852 24.6099 21.3521 25.3825 21.5268C25.1909 21.847 24.9544 22.1344 24.6803 22.3806C24.4765 22.5638 24.4195 22.7651 24.5105 22.9774C24.599 23.1836 24.7712 23.3073 24.9702 23.3073C25.1072 23.3073 25.2418 23.2491 25.3607 23.1387C25.949 22.5941 26.3153 22.0665 26.513 21.4807C26.513 21.4807 26.5275 21.4552 26.5954 21.4043C26.6658 21.3509 26.7446 21.3 26.8198 21.2502C26.9593 21.1581 27.1024 21.0634 27.231 20.9434C27.7865 20.423 28.0897 19.6019 28.0242 18.799C27.9599 18.0106 27.5512 17.3217 26.8708 16.8559C28.2838 16.3708 29.1267 15.204 29.1425 13.6915C29.1461 13.3459 29.1122 13.0002 29.0782 12.6654C29.0588 12.4677 29.0382 12.2615 29.0261 12.0626C28.9557 10.857 29.003 9.45855 29.8908 8.23354C30.0073 8.07223 30.034 7.88302 29.9624 7.71321C29.8908 7.54341 29.7307 7.42333 29.533 7.39422C29.4821 7.38694 29.4287 7.38331 29.3742 7.38331C29.282 7.38331 29.1849 7.39422 29.0867 7.41484C28.3044 7.58101 27.5754 7.93396 26.8611 8.49795C24.9508 10.0019 23.6311 11.9134 22.9349 14.184C22.7736 13.9887 22.542 13.8213 22.1817 13.8213C22.075 13.8213 21.961 13.8346 21.8312 13.8638C21.8142 13.774 21.7973 13.6842 21.7815 13.5945C21.7305 13.3131 21.6772 13.022 21.5996 12.7382C21.2903 11.6163 20.7275 10.5805 19.8785 9.57257C18.8172 8.31116 17.5849 7.34935 16.2156 6.71501C15.7413 6.49547 15.2913 6.35842 14.8401 6.29656C14.7892 6.28928 14.7395 6.28564 14.6934 6.28564L14.691 6.2905ZM18.9773 12.7042C19.1265 12.6873 19.2623 12.6048 19.3484 12.4774C19.4758 12.2882 19.4576 12.0747 19.2987 11.8904C19.2223 11.8018 19.1398 11.7206 19.0683 11.6502C18.9312 11.5156 18.7929 11.3834 18.6535 11.25C18.3757 10.9832 18.0882 10.7066 17.8153 10.4276C17.1264 9.72054 16.6934 9.11531 16.4072 8.46399C16.3138 8.25173 16.2228 8.03948 16.1319 7.82722C17.5279 8.56102 18.7008 9.60289 19.6189 10.9261C20.4594 12.1378 20.8803 13.4332 20.867 14.7771C20.867 14.8256 20.8597 14.8705 20.8488 14.9093C20.816 15.0208 20.7809 15.1324 20.7457 15.244C20.7433 15.2064 20.7384 15.17 20.7336 15.1397C20.6693 14.7031 20.4691 14.2846 20.1235 13.8601C19.7814 13.4417 19.397 13.0548 18.9761 12.703L18.9773 12.7042ZM17.8384 11.8952C17.4733 11.6757 17.0949 11.4719 16.7274 11.2742C16.5297 11.1675 16.3259 11.0584 16.127 10.948C15.6928 10.7066 15.4005 10.4422 15.2076 10.1184C15.0961 9.93037 15.0669 9.75814 15.1143 9.55922C15.2076 9.16382 15.2574 8.77327 15.261 8.39243C15.6382 9.27177 16.0494 9.96433 16.543 10.5526C16.9457 11.0317 17.3933 11.4719 17.8384 11.894V11.8952ZM24.012 14.1694C24.0787 13.9693 24.1503 13.7704 24.2279 13.5775C24.8804 11.9814 25.9089 10.5914 27.2843 9.44643C27.6713 9.1238 28.0606 8.87758 28.4657 8.69686C28.3432 8.98068 28.2619 9.2742 28.1819 9.55922C28.1637 9.62472 28.1455 9.689 28.1273 9.75329C27.9357 10.4204 27.4784 10.9128 27.0114 11.3458C26.6949 11.6393 26.3698 11.9353 26.0557 12.2203C25.6385 12.5987 25.2079 12.9905 24.7907 13.3847C24.5214 13.6382 24.263 13.9074 24.012 14.1706V14.1694ZM18.406 13.5799C18.0506 13.3786 17.6941 13.1845 17.3447 12.9953C17.0415 12.8304 16.7286 12.6606 16.4242 12.4896C16.0385 12.2724 15.7377 12.0808 15.4793 11.8831C15.318 11.7594 15.187 11.6236 15.0864 11.4744C15.4502 11.7558 15.848 11.962 16.235 12.1633C16.3393 12.2179 16.4424 12.2712 16.5442 12.3258C17.2586 12.7103 17.8748 13.1239 18.4048 13.5799H18.406ZM24.4923 15.1409C25.6215 13.9414 26.8356 12.8401 27.9975 11.8079C28.0206 12.0517 28.0412 12.2991 28.04 12.5417C28.04 12.7006 27.9272 12.9056 27.8896 12.9735C27.5669 13.563 27.0575 14.0336 26.331 14.4144C25.7561 14.7164 25.1388 14.9602 24.4935 15.1409H24.4923ZM18.5734 14.8717C18.4994 14.8438 18.423 14.8195 18.3454 14.8013C17.8724 14.6897 17.3945 14.6303 16.822 14.5745C15.6152 14.4569 14.8814 13.791 14.7007 12.6472C14.697 12.6218 14.6934 12.5963 14.6897 12.5696C14.7031 12.5805 14.7152 12.5914 14.7273 12.6036C15.1652 12.9941 15.6734 13.2646 16.1646 13.5278L16.2592 13.5787L16.3102 13.6054C17.0621 14.0081 17.8311 14.4193 18.5722 14.8717H18.5734ZM24.6585 16.144C25.1994 15.9996 25.6773 15.8371 26.1054 15.6528C26.8465 15.3326 27.4772 14.9335 28.0242 14.4362C28.0133 14.469 28 14.5029 27.9866 14.5357C27.6882 15.2707 27.1291 15.7462 26.2789 15.9875C25.8907 16.0979 25.4723 16.1488 24.9592 16.1488C24.8586 16.1488 24.7579 16.1464 24.6585 16.144ZM21.4965 19.6347C21.4589 19.4624 21.4237 19.2878 21.4019 19.1156C21.2211 17.7086 21.3727 16.3805 21.8494 15.1652C21.8979 15.0403 21.9561 14.9359 22.0204 14.8535C22.0556 14.8086 22.0823 14.7989 22.0896 14.7989C22.0993 14.7989 22.1296 14.8171 22.1599 14.8729C22.303 15.1409 22.3273 15.4454 22.3309 15.7073C22.3515 17.1216 22.0702 18.44 21.4965 19.6335V19.6347ZM19.4333 16.0591C19.4794 16.0081 19.5158 15.9475 19.5413 15.8771C19.5886 15.7413 19.5825 15.6091 19.5304 15.4927C19.5643 15.5169 19.5995 15.5412 19.6335 15.5654C19.7499 15.6479 19.8773 15.734 20.0167 15.8044C20.0895 15.8408 20.1659 15.859 20.2448 15.859C20.3879 15.859 20.5164 15.7995 20.6074 15.7025C20.5929 15.751 20.5795 15.7995 20.5662 15.848C20.5662 15.8517 20.5637 15.8553 20.5637 15.859C20.5213 15.859 20.4837 15.8638 20.4522 15.8674L20.4279 15.8699C20.075 15.9087 19.7451 15.973 19.4346 16.0603L19.4333 16.0591ZM26.5408 20.2181C26.2 18.9457 25.4104 17.9488 24.0848 17.1228C24.5311 17.1725 24.9835 17.2271 25.4214 17.3144C26.0436 17.4369 26.5299 17.7765 26.8283 18.2969C27.0891 18.7517 27.1133 19.6322 26.5408 20.2169V20.2181ZM18.7699 20.0216C18.765 19.8821 18.7808 19.7438 18.8148 19.5971C18.9773 18.9142 19.3885 18.3502 20.0713 17.8723C20.1465 17.819 20.229 17.7717 20.3139 17.7244C20.3139 17.9463 20.3139 18.1562 20.3127 18.366C20.3127 18.3696 20.3103 18.3769 20.309 18.3793C19.9343 19.061 19.5425 19.5304 19.0743 19.853C18.9846 19.9148 18.8803 19.9682 18.7687 20.0216H18.7699Z" fill="white"/>
<path d="M11.1421 27.7475C11.079 27.7475 11.0147 27.7342 10.9517 27.7087C10.8728 27.676 10.8013 27.6384 10.7394 27.5971C9.52531 26.7821 8.57683 25.8761 7.84304 24.8281C7.61137 24.4982 7.39548 24.1259 7.16261 23.6565C7.05709 23.4454 6.99038 23.1847 6.97582 22.9239C6.95884 22.6292 7.05345 22.3575 7.24266 22.1549C7.43914 21.9463 7.72053 21.8311 8.03225 21.8311H8.05529C7.86123 20.9675 7.81029 20.0591 7.90004 19.0572C8.03588 17.5557 8.45069 16.1475 9.13355 14.8728C9.6284 13.9485 10.2082 13.2196 10.9056 12.6471C11.0317 12.5428 11.1494 12.4676 11.2658 12.4155C11.3386 12.3827 11.415 12.3657 11.4914 12.3657C11.7497 12.3657 11.9571 12.5525 11.9935 12.8193C12.0129 12.9637 12.0275 13.108 12.0408 13.2487C12.0578 13.4282 12.076 13.6089 12.1039 13.7824C12.1791 14.2445 12.3465 14.6532 12.6012 14.9965C13.0754 15.6357 13.3132 16.3513 13.3301 17.1809C13.3374 17.5302 13.4114 17.8977 13.5569 18.304C13.6006 18.4277 13.6346 18.5466 13.6564 18.6582C13.6964 18.8619 13.6637 19.0414 13.5618 19.1773C13.4611 19.3107 13.2998 19.3908 13.096 19.4077C12.5903 19.4502 12.1912 19.5557 11.8431 19.7389C10.589 20.3987 9.7788 21.432 9.43677 22.8111C9.40038 22.9554 9.35187 23.1543 9.12142 23.2283C9.07654 23.2429 9.03166 23.2502 8.98679 23.2502C8.82547 23.2502 8.70782 23.1592 8.60352 23.0779L8.50527 23.0003C8.38762 22.9069 8.26633 22.8111 8.14019 22.7335C8.11108 22.7153 8.08076 22.7068 8.05165 22.7068C8.00678 22.7068 7.95947 22.7274 7.91581 22.7662C7.84667 22.8269 7.82969 22.896 7.86487 22.97C7.90611 23.0561 7.94613 23.1434 7.98616 23.2295C8.12079 23.5206 8.25906 23.819 8.42886 24.0846C9.1008 25.1313 10.0129 26.0289 11.2185 26.8294L11.2379 26.8427C11.2973 26.8828 11.3592 26.9228 11.4174 26.9737C11.586 27.1229 11.6248 27.3703 11.5096 27.5498C11.4271 27.6772 11.2949 27.75 11.1445 27.75L11.1421 27.7475ZM11.1591 13.6356C10.3828 14.3791 9.81155 15.3094 9.36521 16.5514C8.76483 18.2203 8.60352 19.7583 8.87399 21.2416C9.07775 20.2762 9.40523 19.3653 9.84672 18.5308C10.3949 17.4962 11.1409 16.5902 12.0651 15.8382C11.5484 15.1117 11.2585 14.407 11.1591 13.6356ZM12.3962 16.7515C11.4865 17.5035 10.7964 18.4738 10.2931 19.7085C11.0814 19.033 11.8516 18.6655 12.6994 18.5599L12.6533 18.3756C12.5842 18.0978 12.5139 17.8176 12.469 17.5314C12.4314 17.2961 12.4156 17.0572 12.4011 16.8267C12.3998 16.8012 12.3974 16.7758 12.3962 16.7515Z" fill="white"/>
<path d="M11.4902 12.4265C11.7182 12.4265 11.8989 12.5914 11.9317 12.8279C11.9511 12.9698 11.9656 13.1142 11.979 13.2549C11.9959 13.4319 12.0141 13.6163 12.0432 13.7934C12.1209 14.2652 12.2919 14.6824 12.5514 15.0342C13.0172 15.6637 13.2525 16.3671 13.2683 17.1834C13.2755 17.5388 13.3507 17.9123 13.4987 18.3259C13.5412 18.446 13.5739 18.5625 13.5957 18.6704C13.6321 18.8572 13.603 19.0197 13.5121 19.141C13.4211 19.2611 13.2755 19.3326 13.0888 19.3484C12.5745 19.3921 12.1694 19.4988 11.8128 19.6868C10.5429 20.3551 9.723 21.4006 9.3749 22.7979C9.34094 22.9361 9.29849 23.1083 9.09957 23.1714C9.06076 23.1835 9.02195 23.1896 8.98314 23.1896C8.84244 23.1896 8.73571 23.1059 8.63746 23.0295C8.60472 23.004 8.57197 22.9786 8.53922 22.9519C8.42036 22.8573 8.29664 22.7603 8.16808 22.6814C8.12927 22.6572 8.08803 22.645 8.048 22.645C7.98857 22.645 7.92793 22.6705 7.87213 22.719C7.78238 22.7979 7.75934 22.8961 7.80542 22.9943C7.84666 23.0805 7.88669 23.1666 7.92671 23.2539C8.06134 23.545 8.20083 23.847 8.37427 24.1163C9.05106 25.1703 9.96921 26.0739 11.1821 26.8792L11.2015 26.8926C11.2597 26.9314 11.3192 26.9702 11.3737 27.0187C11.5193 27.1485 11.5545 27.3619 11.455 27.516C11.3847 27.6251 11.2694 27.6882 11.1409 27.6882C11.0851 27.6882 11.0293 27.6761 10.9747 27.6542C10.8995 27.6227 10.8328 27.5875 10.7734 27.5487C9.56532 26.7385 8.62291 25.8373 7.89275 24.7955C7.66352 24.4692 7.44884 24.0993 7.21718 23.6323C7.11529 23.4286 7.05101 23.1763 7.03646 22.9228C7.01948 22.645 7.10923 22.3891 7.28752 22.1999C7.47309 22.0034 7.7375 21.8942 8.03223 21.8942H8.05043C8.07347 21.8942 8.09652 21.8942 8.12078 21.8942H8.1329C7.9255 21.0149 7.86971 20.0871 7.96189 19.0646C8.09652 17.5715 8.5089 16.1706 9.18811 14.9032C9.67933 13.985 10.2542 13.2634 10.9444 12.6957C11.0669 12.5951 11.1797 12.5223 11.29 12.4726C11.3555 12.4434 11.4235 12.4277 11.4914 12.4277M8.87519 21.551C9.07168 20.48 9.41614 19.4745 9.90129 18.5588C10.4544 17.5145 11.21 16.6024 12.1488 15.8492C11.5933 15.0803 11.2913 14.3307 11.2064 13.5084C10.3792 14.2725 9.77394 15.2379 9.30819 16.5309C8.66536 18.3187 8.52224 19.9658 8.87519 21.551ZM10.1451 19.9221C10.1608 19.9075 10.1766 19.893 10.1924 19.8784C11.0353 19.1192 11.8492 18.7177 12.7528 18.6146C12.7613 18.6146 12.7686 18.6122 12.7734 18.611C12.771 18.5964 12.7661 18.5746 12.7625 18.5625C12.7455 18.4921 12.7285 18.423 12.7103 18.3526C12.6424 18.0822 12.5733 17.802 12.5284 17.5206C12.492 17.2877 12.4762 17.05 12.4605 16.8195C12.4568 16.7565 12.452 16.6922 12.4471 16.6291C11.4283 17.4417 10.6727 18.5224 10.1427 19.9209M11.4902 12.3052C11.4053 12.3052 11.3204 12.3234 11.2391 12.3598C11.119 12.4143 10.9965 12.4932 10.8655 12.5999C10.1621 13.1772 9.57866 13.911 9.07896 14.8437C8.39246 16.1258 7.97523 17.5412 7.83817 19.0512C7.74963 20.0313 7.79572 20.9227 7.97765 21.7705C7.66958 21.7827 7.39304 21.9027 7.19656 22.1126C6.99522 22.326 6.89455 22.6147 6.91274 22.9264C6.92851 23.1957 6.99764 23.4637 7.10559 23.6833C7.34089 24.1563 7.558 24.5299 7.79087 24.8622C8.52952 25.9174 9.48285 26.8283 10.703 27.647C10.7685 27.6906 10.8437 27.7307 10.925 27.7646C10.9953 27.7937 11.0669 27.8083 11.1384 27.8083C11.3095 27.8083 11.4611 27.7258 11.5545 27.5803C11.6867 27.3765 11.6418 27.0951 11.4514 26.9265C11.3907 26.8719 11.3264 26.8307 11.2658 26.7895L11.2464 26.7761C10.0481 25.9817 9.14081 25.089 8.47372 24.0495C8.30513 23.7864 8.16808 23.4892 8.03466 23.2017C7.99464 23.1144 7.95461 23.0271 7.91337 22.941C7.89639 22.9058 7.8879 22.8633 7.94976 22.8088C7.98251 22.7797 8.01525 22.7651 8.04558 22.7651C8.06377 22.7651 8.08318 22.7712 8.10258 22.7833C8.22508 22.8585 8.34516 22.9531 8.4616 23.0453C8.49556 23.072 8.52831 23.0974 8.56105 23.1229C8.66657 23.2054 8.79878 23.3085 8.98192 23.3085C9.03287 23.3085 9.08502 23.3 9.13475 23.2842C9.39794 23.2005 9.45374 22.9737 9.49134 22.8245C9.82973 21.4637 10.629 20.4436 11.8674 19.7911C12.2082 19.6116 12.5987 19.5085 13.096 19.4673C13.318 19.4491 13.4939 19.3605 13.6054 19.2126C13.7182 19.0634 13.7546 18.8669 13.711 18.6461C13.6879 18.5309 13.654 18.4096 13.6091 18.2835C13.466 17.8832 13.3932 17.5218 13.3859 17.1798C13.3689 16.3368 13.1264 15.6103 12.6448 14.9602C12.3962 14.6242 12.2325 14.2252 12.1585 13.7728C12.1306 13.5993 12.1124 13.4186 12.0954 13.2427C12.0821 13.1008 12.0675 12.9553 12.0481 12.8109C12.0069 12.5126 11.7764 12.3052 11.4865 12.3052H11.4902ZM8.88368 20.9239C8.68841 19.5461 8.8667 18.1161 9.42099 16.5733C9.84792 15.3871 10.3889 14.4872 11.1154 13.7643C11.227 14.4835 11.5072 15.147 11.9826 15.8286C11.0729 16.5782 10.3367 17.4781 9.79334 18.5042C9.39552 19.255 9.09108 20.0676 8.88368 20.9252V20.9239ZM10.4459 19.5037C10.9177 18.4266 11.5423 17.5606 12.344 16.8753C12.3586 17.0949 12.3744 17.3192 12.4095 17.5412C12.4544 17.8274 12.526 18.11 12.5939 18.3829C12.6048 18.4254 12.6145 18.4666 12.6254 18.5091C11.8601 18.6182 11.1578 18.9384 10.4471 19.5049L10.4459 19.5037Z" fill="white"/>
<path d="M11.1311 25.3375C10.9225 25.3375 10.7539 25.1859 10.7224 24.9676C10.6872 24.7262 10.8134 24.5261 11.0317 24.4824C11.837 24.3187 12.5175 23.8906 13.1821 23.3981C13.0924 23.4297 13.0038 23.4612 12.9141 23.4939C12.8377 23.5218 12.7625 23.5509 12.6873 23.5813C12.5902 23.6201 12.4993 23.6552 12.4083 23.6868C12.3428 23.7098 12.2785 23.722 12.2179 23.722C12.036 23.722 11.8892 23.6237 11.8188 23.4527C11.7206 23.2162 11.837 22.9736 12.1027 22.8608C12.7516 22.5879 13.392 22.3296 14.0821 22.178C14.56 22.0724 15.0245 22.0191 15.466 22.0191C16.0118 22.0191 16.5455 22.1015 17.0488 22.2629C17.1689 22.3017 17.2793 22.3526 17.3933 22.4072C17.3884 22.2168 17.3448 22.0433 17.2586 21.8784C17.1337 21.6382 16.9481 21.4284 16.6922 21.2392C16.6352 21.1967 16.5746 21.1494 16.5224 21.09C16.3902 20.9408 16.3757 20.754 16.4824 20.5782C16.5709 20.4326 16.6971 20.3562 16.8463 20.3562C16.8863 20.3562 16.9287 20.3623 16.97 20.3744C17.0573 20.3987 17.1458 20.4423 17.2198 20.4969C18.0761 21.1312 18.423 21.9427 18.2508 22.9093C18.0749 23.893 17.4673 24.5394 16.4448 24.8305C16.1185 24.9239 15.7741 24.9688 15.3944 24.9688C15.1021 24.9688 14.7819 24.9409 14.4156 24.8851L14.3695 24.8778C14.2907 24.8669 14.2204 24.856 14.1488 24.8378C13.9208 24.7772 13.7825 24.5661 13.8201 24.3381C13.8541 24.1271 14.019 23.9912 14.2386 23.9912C14.2495 23.9912 14.2604 23.9912 14.2713 23.9912C14.4205 23.9997 14.5709 24.0118 14.7164 24.024C14.9153 24.0397 15.1167 24.0567 15.3144 24.064C15.358 24.0652 15.4017 24.0664 15.4454 24.0664C15.8323 24.0664 16.1695 23.9997 16.4775 23.8627C16.7213 23.7535 16.9202 23.6019 17.067 23.4115C17.1034 23.3646 17.0989 23.3217 17.0537 23.2829C16.8839 23.1373 16.6631 23.0731 16.3368 23.0731C15.6989 23.0743 15.0706 23.2514 14.4714 23.5982C14.1997 23.7547 13.939 23.95 13.6867 24.138L13.6115 24.1938C13.0645 24.6013 12.3962 25.0476 11.586 25.2672C11.4174 25.3133 11.2706 25.3363 11.1384 25.3399H11.1287L11.1311 25.3375Z" fill="white"/>
<path d="M16.8475 20.4157C16.8826 20.4157 16.919 20.4206 16.9554 20.4315C17.0355 20.4545 17.1179 20.4946 17.1859 20.5443C18.0228 21.1641 18.3612 21.9549 18.1926 22.8973C18.0215 23.8567 17.4284 24.4874 16.429 24.7712C16.1076 24.8622 15.7692 24.907 15.3957 24.907C15.107 24.907 14.7904 24.8804 14.4266 24.8233C14.4071 24.8209 14.3877 24.8173 14.3696 24.8149C14.3028 24.8052 14.2349 24.7955 14.167 24.7773C13.9705 24.7239 13.8504 24.5432 13.8832 24.3455C13.9135 24.1623 14.0506 24.0495 14.2422 24.0495C14.2519 24.0495 14.2616 24.0495 14.2713 24.0495C14.4205 24.058 14.5709 24.0701 14.7164 24.0823C14.9129 24.098 15.1167 24.115 15.3156 24.1223C15.3605 24.1235 15.4041 24.1247 15.449 24.1247C15.8444 24.1247 16.1901 24.0568 16.5054 23.9149C16.7589 23.8021 16.9651 23.6444 17.1179 23.4455C17.1956 23.3461 17.1919 23.3157 17.0961 23.2345C16.9142 23.0792 16.6825 23.0101 16.3393 23.0101C15.6904 23.0113 15.0524 23.1908 14.4435 23.5425C14.1682 23.7014 13.9062 23.8979 13.6515 24.0883L13.5787 24.1429C13.0366 24.5468 12.3756 24.9895 11.5738 25.2054C11.4101 25.2503 11.2682 25.2721 11.1408 25.2758H11.1324C10.9541 25.2758 10.8109 25.1448 10.783 24.958C10.7527 24.7494 10.8595 24.5783 11.0438 24.5407C12.0068 24.3455 12.7855 23.7815 13.5302 23.2102C13.318 23.2854 13.1057 23.3594 12.8935 23.4358C12.8134 23.4649 12.7346 23.4952 12.657 23.5268C12.5696 23.5607 12.4799 23.5971 12.3889 23.6287C12.3307 23.6493 12.2725 23.6602 12.2179 23.6602C12.0614 23.6602 11.9365 23.5753 11.8746 23.4273C11.7897 23.2236 11.8941 23.0137 12.1257 22.9155C12.7722 22.6438 13.4089 22.3867 14.0942 22.2351C14.5673 22.1307 15.0281 22.0774 15.4648 22.0774C16.0045 22.0774 16.5309 22.1586 17.0294 22.3175C17.1568 22.3588 17.2744 22.4146 17.3981 22.474C17.4163 22.4825 17.4333 22.491 17.4515 22.4995C17.4624 22.2617 17.4163 22.0471 17.3108 21.8469C17.181 21.5983 16.9906 21.3824 16.7274 21.1871C16.6728 21.1459 16.6158 21.101 16.5673 21.0464C16.4521 20.9166 16.4412 20.7602 16.5333 20.6061C16.6097 20.48 16.7177 20.4133 16.8463 20.4133M16.8475 20.2944C16.6777 20.2944 16.5297 20.3842 16.4315 20.5467C16.3102 20.7468 16.3271 20.9591 16.4775 21.1301C16.5333 21.1932 16.5964 21.2429 16.6571 21.2878C16.9045 21.4721 17.084 21.6747 17.2053 21.9064C17.272 22.0337 17.312 22.1659 17.3266 22.3078C17.2429 22.269 17.158 22.2338 17.067 22.2047C16.5564 22.041 16.0179 21.9585 15.466 21.9585C15.0209 21.9585 14.5515 22.0119 14.0688 22.1186C13.3738 22.2714 12.7309 22.531 12.0796 22.8051C11.7861 22.9288 11.6527 23.2102 11.7631 23.4758C11.8431 23.6687 12.0129 23.7827 12.2179 23.7827C12.2858 23.7827 12.3574 23.7694 12.4289 23.7451C12.5211 23.7123 12.6133 23.676 12.7006 23.642C12.7297 23.6311 12.7576 23.619 12.7855 23.608C12.2385 23.984 11.6685 24.2921 11.0183 24.4243C10.7721 24.474 10.6217 24.7069 10.6618 24.9774C10.6981 25.2248 10.891 25.3983 11.1311 25.3983H11.1408C11.2791 25.3946 11.4307 25.3704 11.6042 25.3243C12.4253 25.1023 13.0997 24.6523 13.6503 24.2412L13.7243 24.1866C13.7837 24.1417 13.8444 24.0968 13.905 24.052C13.831 24.1199 13.7801 24.2145 13.7619 24.3261C13.7194 24.5868 13.8759 24.8258 14.1343 24.8949C14.2094 24.9155 14.281 24.9252 14.3514 24.9349L14.4084 24.9434C14.7783 25.0004 15.1009 25.0283 15.3957 25.0283C15.7813 25.0283 16.1294 24.9822 16.4618 24.8876C17.5085 24.5905 18.1307 23.927 18.3114 22.9191C18.4885 21.9282 18.1343 21.0974 17.2574 20.4473C17.1786 20.389 17.0828 20.3417 16.9882 20.3151C16.9409 20.3017 16.8936 20.2956 16.8475 20.2956V20.2944ZM13.9851 23.9925C14.1537 23.87 14.3271 23.7512 14.5042 23.6481C15.0949 23.306 15.7122 23.1326 16.3405 23.1314C16.651 23.1314 16.8596 23.192 17.0185 23.3266C17.0282 23.3351 17.0355 23.3412 17.0415 23.3473C17.0367 23.3533 17.0306 23.3618 17.0233 23.3715C16.8826 23.5535 16.6922 23.7002 16.4569 23.8045C16.1573 23.9379 15.8274 24.0034 15.449 24.0034C15.4066 24.0034 15.3641 24.0034 15.3205 24.001C15.124 23.9937 14.9214 23.9768 14.7261 23.961C14.5794 23.9489 14.4278 23.9367 14.2786 23.9282C14.2665 23.9282 14.2543 23.9282 14.2422 23.9282C14.1464 23.9282 14.0591 23.9513 13.9863 23.9925H13.9851Z" fill="white"/>
<path d="M15.0208 28.4779C14.7261 28.4779 14.4205 28.4233 14.0869 28.3105C13.1384 27.9891 12.2615 27.4445 11.3288 26.5955C11.1542 26.4366 11.0207 26.2959 10.9092 26.154C10.8012 26.0157 10.7782 25.8374 10.8497 25.6894C10.9177 25.55 11.0535 25.4675 11.2148 25.4675H11.2379C11.4768 25.4796 11.7206 25.4857 11.9559 25.493C12.3804 25.5039 12.8122 25.516 13.244 25.5572C13.0717 25.4845 12.9626 25.3122 12.9832 25.1279C13.0075 24.9071 13.1845 24.741 13.3956 24.741H13.4101C14.3829 24.7774 15.1785 24.8938 15.9063 25.3426C16.4436 25.6749 16.7456 26.1588 16.8026 26.781C16.8596 27.3996 16.5054 28.0145 15.9402 28.2765C15.6515 28.4099 15.3423 28.4779 15.0208 28.4779ZM12.5453 26.4317C13.1033 26.8344 13.7594 27.2759 14.5211 27.4882C14.6655 27.5282 14.8183 27.5476 14.9517 27.5597C14.9517 27.5597 14.9541 27.5597 14.9553 27.5585C15.0051 27.4384 14.9966 27.3268 14.9287 27.2092C14.8171 27.0151 14.6715 26.8708 14.4835 26.7689C14.2179 26.6246 13.9183 26.5397 13.569 26.5081C13.2331 26.4778 12.8922 26.4548 12.5611 26.4329H12.5466L12.5453 26.4317ZM14.2798 25.727C14.4653 25.7731 14.6364 25.8362 14.7892 25.9138C15.1979 26.1212 15.7377 26.4718 15.8492 27.1752C15.9172 27.0479 15.9366 26.906 15.9014 26.7689C15.8056 26.3941 15.5472 26.1285 15.09 25.932C14.8001 25.8071 14.4835 25.7464 14.1694 25.7016C14.2058 25.7101 14.2422 25.7186 14.2786 25.7283L14.2798 25.727Z" fill="white"/>
<path d="M13.3956 24.8005H13.4089C14.3707 24.8369 15.1579 24.9509 15.8735 25.3936C16.3938 25.715 16.6861 26.1832 16.7419 26.786C16.7965 27.3791 16.4569 27.9698 15.9147 28.2208C15.6333 28.3506 15.3325 28.4173 15.0208 28.4173C14.7322 28.4173 14.4338 28.3639 14.1063 28.2524C13.1663 27.9334 12.2967 27.3924 11.37 26.5507C11.1978 26.3942 11.0668 26.256 10.9577 26.1165C10.8631 25.9964 10.8437 25.8424 10.9055 25.7162C10.9625 25.5986 11.079 25.5282 11.216 25.5282C11.2221 25.5282 11.2294 25.5282 11.2354 25.5282C11.4744 25.5403 11.7181 25.5464 11.9547 25.5525C12.7151 25.5731 13.5011 25.5937 14.264 25.7854C14.4447 25.8302 14.6121 25.8921 14.7601 25.9673C15.1955 26.1868 15.7583 26.564 15.8044 27.3403C15.9511 27.1753 16.0118 26.9594 15.9584 26.7532C15.8577 26.359 15.5885 26.0801 15.113 25.8763C14.7322 25.7138 14.3149 25.658 13.911 25.6046L13.7788 25.5864C13.7376 25.5804 13.6951 25.5755 13.6527 25.5707C13.5508 25.5585 13.4453 25.5452 13.341 25.5234C13.1506 25.4833 13.022 25.316 13.0414 25.1328C13.062 24.9424 13.2136 24.7993 13.3931 24.7993M14.9578 27.6229C14.9711 27.6217 14.9978 27.6059 15.0039 27.5986C15.0681 27.4555 15.0609 27.3184 14.9808 27.179C14.8632 26.974 14.7091 26.8224 14.5114 26.7156C14.2385 26.5677 13.9317 26.4803 13.5739 26.4476C13.2379 26.4173 12.8959 26.3942 12.5647 26.3724C12.492 26.3675 12.418 26.3627 12.3452 26.3578C12.3913 26.393 12.4386 26.4294 12.4859 26.4634C13.0535 26.8733 13.723 27.3294 14.5066 27.5477C14.6594 27.5901 14.8207 27.6095 14.959 27.6229M13.3968 24.6792C13.1554 24.6792 12.9517 24.8684 12.9238 25.1207C12.9092 25.2541 12.9529 25.3815 13.0366 25.4773C12.6751 25.4506 12.3137 25.4409 11.9583 25.4312C11.723 25.4251 11.4792 25.4178 11.2415 25.4069C11.233 25.4069 11.2245 25.4069 11.216 25.4069C11.0317 25.4069 10.8752 25.5027 10.7964 25.6628C10.7139 25.8314 10.7393 26.034 10.8631 26.1905C10.9771 26.336 11.1117 26.4779 11.29 26.6392C12.2288 27.4931 13.113 28.0425 14.0699 28.3664C14.4095 28.4816 14.7213 28.5374 15.0233 28.5374C15.3532 28.5374 15.6709 28.467 15.9681 28.33C16.5563 28.0571 16.9251 27.4179 16.8656 26.7739C16.8062 26.131 16.4945 25.6313 15.9402 25.2893C15.2016 24.8332 14.3974 24.7156 13.4162 24.6792H13.4004H13.3968ZM15.8565 26.94C15.7049 26.4549 15.3447 26.1601 15.0111 25.9649C15.0293 25.9721 15.0487 25.9794 15.0669 25.9879C15.5048 26.1759 15.7522 26.4282 15.8432 26.7836C15.8565 26.8357 15.8614 26.8879 15.8577 26.94H15.8565ZM14.9129 27.4967C14.794 27.4846 14.6618 27.4664 14.5369 27.4312C13.8625 27.2432 13.2682 26.8709 12.7539 26.507C13.022 26.5252 13.2949 26.5446 13.5629 26.5689C13.9038 26.6004 14.1949 26.6829 14.4544 26.8236C14.6327 26.9194 14.7698 27.0565 14.8765 27.2408C14.9274 27.3294 14.9396 27.4106 14.9141 27.4967H14.9129Z" fill="white"/>
<path d="M20.3818 28.6463C20.1223 28.6463 19.9331 28.4789 19.9124 28.229C19.893 27.9901 20.0568 27.8009 20.3212 27.7584C20.4752 27.733 20.6293 27.7099 20.7845 27.6869C21.0853 27.642 21.3861 27.5959 21.6784 27.5401C23.5535 27.1811 25.0781 26.571 26.3395 25.6735C26.8174 25.3339 27.2868 24.9166 27.7719 24.4L27.7986 24.3721C27.8326 24.3357 27.8678 24.2969 27.9078 24.2617C27.9951 24.1841 28.097 24.1428 28.2013 24.1428C28.3056 24.1428 28.4136 24.1865 28.5021 24.269C28.5955 24.3551 28.6501 24.4727 28.6513 24.5916C28.6525 24.7032 28.6088 24.8075 28.5264 24.8887C28.4378 24.9761 28.3493 25.0646 28.2619 25.1532L28.245 25.1701C27.9454 25.4697 27.6361 25.7802 27.3038 26.0555C26.194 26.9737 24.8465 27.6335 23.0635 28.132C22.257 28.3576 21.3885 28.5274 20.4837 28.6378L20.4012 28.6475H20.3879H20.3818V28.6463Z" fill="white"/>
<path d="M28.2025 24.2048C28.2947 24.2048 28.3844 24.2424 28.4621 24.3139C28.5433 24.3891 28.5906 24.491 28.5918 24.5929C28.593 24.6875 28.5554 24.7773 28.4851 24.8452C28.3905 24.9386 28.2971 25.032 28.2025 25.1266C27.9041 25.4249 27.5961 25.7342 27.2649 26.0083C26.1612 26.9216 24.821 27.5778 23.0477 28.0727C22.2436 28.2971 21.3788 28.4669 20.4764 28.576L20.4158 28.5833L20.3976 28.5857H20.3927H20.3879H20.3818C20.155 28.5857 19.9913 28.4402 19.9731 28.2243C19.9561 28.0157 20.0968 27.8568 20.3309 27.8192C20.4885 27.7937 20.6462 27.7695 20.8039 27.7464C21.095 27.7027 21.397 27.6579 21.6893 27.6009C23.5729 27.2406 25.106 26.6269 26.3747 25.7233C26.8562 25.3801 27.328 24.9616 27.8156 24.4425L27.8423 24.4134C27.875 24.3782 27.909 24.3418 27.9466 24.3079C28.023 24.24 28.1103 24.2048 28.2001 24.2048M28.2025 24.0835C28.0824 24.0835 27.9672 24.1296 27.869 24.2169C27.8265 24.2545 27.7889 24.2958 27.7549 24.3309L27.7283 24.3588C27.2455 24.8719 26.781 25.2855 26.3055 25.6239C25.0514 26.5165 23.5341 27.1242 21.6675 27.4808C21.3764 27.5366 21.0768 27.5815 20.7869 27.6251C20.628 27.6494 20.4691 27.6724 20.3115 27.6979C20.0143 27.7464 19.8287 27.9611 19.8518 28.2328C19.8748 28.5117 20.0919 28.7058 20.3806 28.7058H20.3879H20.3939H20.4049L20.4279 28.7034L20.4898 28.6961C21.3982 28.5857 22.2703 28.4147 23.0793 28.1891C24.8707 27.6894 26.2243 27.026 27.3413 26.1017C27.6761 25.824 27.9866 25.5135 28.2874 25.2127C28.382 25.1181 28.4754 25.0247 28.5688 24.9325C28.6622 24.8403 28.7131 24.719 28.7119 24.5917C28.7095 24.4571 28.6488 24.3236 28.5433 24.2266C28.4439 24.1332 28.325 24.0847 28.2013 24.0847L28.2025 24.0835Z" fill="white"/>
<path d="M10.0529 23.9476C9.97038 23.9476 9.8879 23.9233 9.81634 23.8773C9.63804 23.762 9.57012 23.551 9.64896 23.3533C9.68171 23.272 9.72537 23.1908 9.77995 23.1131C10.7042 21.7935 11.9704 20.862 13.546 20.3429C14.1852 20.1319 14.7273 20.0324 15.2513 20.0276C15.2877 20.0276 15.3241 20.0276 15.3604 20.0251C15.3993 20.0251 15.4381 20.0227 15.4757 20.0227C15.5339 20.0227 15.5812 20.0251 15.6273 20.0288C15.7704 20.0433 15.8953 20.1076 15.979 20.2119C16.0554 20.3065 16.0894 20.4254 16.076 20.5479C16.0494 20.7771 15.8662 20.9251 15.6091 20.9251C15.5885 20.9251 15.5666 20.9251 15.5448 20.9227C15.4611 20.9154 15.375 20.9118 15.2889 20.9118C14.7237 20.9118 14.1864 21.067 13.7813 21.2028C12.4119 21.6613 11.2997 22.4946 10.4761 23.6808C10.4446 23.7269 10.4082 23.7754 10.3634 23.819C10.2772 23.9027 10.1681 23.9476 10.0553 23.9476H10.0529Z" fill="white"/>
<path d="M15.4757 20.0847C15.5315 20.0847 15.5776 20.0871 15.62 20.0907C15.7474 20.1029 15.8577 20.1599 15.9305 20.2508C15.9972 20.3333 16.0263 20.4364 16.0142 20.5419C15.9911 20.7408 15.8347 20.8645 15.6079 20.8645C15.5885 20.8645 15.5691 20.8645 15.5484 20.8621C15.4623 20.8548 15.375 20.8512 15.2877 20.8512C14.7128 20.8512 14.1706 21.0089 13.7607 21.1447C12.378 21.6068 11.256 22.4486 10.424 23.6457C10.3937 23.6894 10.3597 23.7342 10.3185 23.7755C10.2445 23.8482 10.1499 23.8871 10.0516 23.8871C9.98009 23.8871 9.91095 23.8664 9.8491 23.8264C9.69506 23.727 9.63684 23.5462 9.70476 23.3764C9.73509 23.3 9.77754 23.2224 9.82969 23.1484C10.7454 21.8409 12.0032 20.9167 13.5654 20.4012C14.1985 20.1926 14.7346 20.0931 15.2525 20.0883C15.2889 20.0883 15.3253 20.0883 15.3617 20.0859C15.3993 20.0859 15.4381 20.0834 15.4757 20.0834M15.4757 19.9634C15.4369 19.9634 15.398 19.9634 15.358 19.9658C15.3216 19.9658 15.2865 19.967 15.2513 19.967C14.72 19.9719 14.1718 20.0737 13.5266 20.286C11.9389 20.8088 10.6605 21.7487 9.72902 23.0781C9.67202 23.1605 9.62471 23.2454 9.59075 23.3316C9.501 23.5572 9.57741 23.7973 9.78118 23.9283C9.86244 23.9804 9.95583 24.0083 10.0504 24.0083C10.1802 24.0083 10.3039 23.9562 10.401 23.8616C10.4495 23.8143 10.4883 23.7621 10.521 23.7148C11.3373 22.5408 12.4398 21.7148 13.7958 21.2599C14.1961 21.1265 14.7273 20.9725 15.284 20.9725C15.3689 20.9725 15.4526 20.9761 15.5351 20.9834C15.5594 20.9858 15.5824 20.9858 15.6042 20.9858C15.8941 20.9858 16.1015 20.8172 16.1318 20.5553C16.1476 20.417 16.1088 20.2824 16.0227 20.1744C15.9293 20.058 15.7898 19.9852 15.6297 19.9694C15.5824 19.9646 15.5327 19.9622 15.4732 19.9622L15.4757 19.9634Z" fill="white"/>
<path d="M17.6565 25.9817C17.6225 25.9817 17.5873 25.9817 17.5534 25.9793C17.3096 25.9684 17.1264 25.7889 17.1167 25.5499C17.107 25.3013 17.2768 25.1145 17.5303 25.0975C17.6916 25.0866 17.8554 25.0781 18.0131 25.0696C18.2847 25.0563 18.5601 25.0429 18.8257 25.0138C20.115 24.8731 21.397 24.4935 22.6378 23.8858L22.6717 23.8689C22.6936 23.8579 22.7142 23.847 22.736 23.8373C22.8112 23.8034 22.8876 23.7864 22.9604 23.7864C23.1314 23.7864 23.2758 23.8786 23.3546 24.0399C23.4068 24.1466 23.4152 24.263 23.3776 24.3673C23.3364 24.4801 23.2491 24.5699 23.1229 24.6269L22.8961 24.7288C22.4983 24.9083 22.0859 25.0951 21.6687 25.2515C20.4922 25.6906 19.1968 25.9368 17.8178 25.9829H17.6565V25.9817Z" fill="white"/>
<path d="M22.9616 23.8459C23.1084 23.8459 23.2321 23.9259 23.3013 24.0654C23.3461 24.1576 23.3534 24.2571 23.3207 24.3456C23.2855 24.4426 23.2091 24.5203 23.0975 24.57L22.8707 24.6719C22.4741 24.8514 22.0629 25.037 21.6469 25.1922C20.4764 25.6301 19.1884 25.8738 17.8154 25.9187C17.7887 25.9187 17.7632 25.9187 17.7365 25.9187C17.7098 25.9187 17.6832 25.9187 17.6565 25.9187C17.6225 25.9187 17.5898 25.9187 17.5558 25.9163C17.3448 25.9066 17.1847 25.7513 17.1774 25.5452C17.1689 25.3305 17.3157 25.1704 17.5352 25.1546C17.6977 25.1437 17.8615 25.1352 18.0216 25.1267C18.2884 25.1134 18.5649 25.1 18.8342 25.0709C20.1308 24.929 21.4201 24.5469 22.6657 23.9369C22.6778 23.9308 22.69 23.9247 22.7009 23.9187C22.7215 23.9078 22.7409 23.8981 22.7615 23.8883C22.8294 23.858 22.8961 23.8423 22.9616 23.8423M22.9616 23.7246C22.8792 23.7246 22.7955 23.744 22.7118 23.7816C22.6887 23.7925 22.6669 23.8034 22.6439 23.8156C22.633 23.8216 22.622 23.8265 22.6111 23.8326C21.3776 24.4378 20.1017 24.815 18.8196 24.9557C18.5552 24.9848 18.2799 24.9981 18.0155 25.0115C17.8554 25.02 17.6904 25.0272 17.5267 25.0394C17.2441 25.0588 17.0464 25.2759 17.0573 25.5549C17.067 25.8253 17.2756 26.0303 17.5522 26.0424C17.5873 26.0436 17.6225 26.0449 17.6577 26.0449C17.6844 26.0449 17.7123 26.0449 17.739 26.0449C17.7644 26.0449 17.7899 26.0449 17.8166 26.0449C19.2053 25.9988 20.508 25.7526 21.6905 25.3098C22.1102 25.1534 22.5226 24.9666 22.9216 24.7859L23.1484 24.6828C23.2891 24.6197 23.3886 24.5178 23.4359 24.3893C23.4795 24.2692 23.4698 24.1358 23.4104 24.0145C23.3219 23.835 23.1545 23.727 22.9616 23.727V23.7246Z" fill="white"/>
<path d="M7.41724 22.0422C7.31415 22.0422 7.12736 21.9998 7.02669 21.7135C6.98545 21.5947 6.94422 21.4746 6.90419 21.3545L6.89449 21.3242C6.78533 20.9992 6.67253 20.6632 6.5379 20.3418C6.46513 20.1683 6.34141 20.0034 6.22255 19.8433L6.21163 19.8287C6.18495 19.7935 6.15827 19.7584 6.1328 19.722C6.09277 19.6674 6.01878 19.6189 5.96299 19.5861C5.9545 19.5861 5.94965 19.5874 5.94844 19.5886C5.83928 19.6638 5.71192 19.7062 5.58942 19.7062C5.40385 19.7062 5.24496 19.614 5.14308 19.4467C5.05818 19.3096 5.03756 19.1507 5.08244 19.0003C5.12974 18.8426 5.24375 18.7153 5.40264 18.6413C5.47784 18.6061 5.55304 18.5892 5.61368 18.5758C5.63309 18.571 5.64885 18.5685 5.66098 18.5649L5.68524 18.5576H5.71071C6.07094 18.5807 6.37537 18.7153 6.6701 18.9821C6.93573 19.2235 7.14919 19.5267 7.36388 19.967C7.57734 20.4061 7.73381 20.8924 7.85631 21.4977C7.90603 21.7463 7.7714 21.9646 7.52761 22.0265C7.49002 22.0362 7.45363 22.041 7.41724 22.041V22.0422Z" fill="white"/>
<path d="M5.69376 18.6184H5.70953C6.0552 18.6402 6.3475 18.7688 6.63132 19.0271C6.89088 19.2624 7.10071 19.5608 7.31175 19.9938C7.524 20.4292 7.67804 20.9107 7.79812 21.5099C7.84178 21.7294 7.72777 21.9138 7.51309 21.9683C7.48034 21.9768 7.4488 21.9805 7.41848 21.9805C7.31296 21.9805 7.16863 21.9308 7.08494 21.6918C7.04006 21.562 6.9964 21.4323 6.95273 21.3025C6.84236 20.975 6.72956 20.6378 6.59493 20.3164C6.51973 20.1369 6.39359 19.9683 6.2723 19.8058C6.24198 19.7657 6.21287 19.7257 6.18376 19.6857C6.13404 19.6166 6.04428 19.562 5.98364 19.5268C5.98243 19.5268 5.97636 19.5244 5.96666 19.5244C5.94604 19.5244 5.92785 19.5304 5.92421 19.5329C5.81747 19.6056 5.70225 19.6445 5.59188 19.6445C5.42814 19.6445 5.28865 19.562 5.19648 19.414C5.12128 19.2915 5.10187 19.1508 5.1419 19.0174C5.18435 18.8767 5.28623 18.7615 5.42935 18.696C5.49848 18.6632 5.57004 18.6475 5.62826 18.6341C5.64767 18.6293 5.66465 18.6256 5.6792 18.622L5.69376 18.6184ZM5.68042 18.4971L5.66101 18.5031L5.64646 18.5068C5.63433 18.5104 5.62099 18.5128 5.60522 18.5165C5.54215 18.531 5.46088 18.5492 5.37962 18.5868C5.20497 18.6681 5.07883 18.8088 5.02667 18.9834C4.97573 19.1508 4.99999 19.3267 5.09338 19.4795C5.20618 19.6627 5.38811 19.7682 5.59188 19.7682C5.71559 19.7682 5.84294 19.7294 5.96059 19.6554C6.00062 19.6796 6.05641 19.7184 6.08431 19.7585C6.11342 19.7985 6.14374 19.8397 6.17406 19.8798C6.29171 20.0374 6.413 20.2 6.48213 20.3649C6.61434 20.6827 6.72835 21.0187 6.83751 21.3425C6.88117 21.4723 6.92484 21.6033 6.96971 21.733C7.0813 22.0545 7.29841 22.103 7.41727 22.103C7.45729 22.103 7.49975 22.0969 7.5422 22.0872C7.81873 22.0169 7.97277 21.7694 7.91577 21.488C7.79326 20.878 7.63559 20.3867 7.41848 19.9428C7.20016 19.4953 6.98306 19.186 6.71137 18.9398C6.40572 18.662 6.08916 18.5225 5.71559 18.5007H5.69982L5.6792 18.4983L5.68042 18.4971Z" fill="white"/>
<path d="M22.3746 13.9607C22.3431 13.9607 22.3127 13.957 22.2824 13.951C22.0398 13.8976 21.8967 13.6684 21.9489 13.4185C22.0617 12.8739 22.0823 12.3948 22.0095 11.9558C21.9865 11.8199 21.938 11.6853 21.8846 11.5434C21.8713 11.5058 21.8579 11.4718 21.8458 11.4379C21.7997 11.4536 21.7512 11.4621 21.7027 11.4621C21.5426 11.4621 21.3837 11.3748 21.2782 11.228C21.1423 11.0376 21.1411 10.8108 21.2745 10.6192C21.3885 10.4566 21.5814 10.3596 21.7912 10.3596C21.8773 10.3596 21.9634 10.3754 22.0447 10.4069C22.2654 10.4918 22.4425 10.6531 22.5856 10.9006C22.8682 11.3869 22.9119 11.9303 22.9362 12.5392V12.5562L22.9083 12.7915C22.884 13.0037 22.8501 13.2948 22.8125 13.5762C22.7821 13.7969 22.5941 13.9631 22.3734 13.9631L22.3746 13.9607Z" fill="white"/>
<path d="M21.7912 10.4191C21.8701 10.4191 21.9477 10.4337 22.0241 10.4628C22.2315 10.5429 22.3989 10.6957 22.5347 10.9298C22.81 11.404 22.8525 11.9401 22.8767 12.5405V12.5478V12.555C22.8683 12.623 22.8598 12.7006 22.8501 12.7843C22.8246 13.0099 22.7918 13.2913 22.7542 13.5678C22.7288 13.7582 22.565 13.9013 22.3758 13.9013C22.3491 13.9013 22.3225 13.8989 22.297 13.8928C22.0884 13.8468 21.9647 13.6491 22.0095 13.4319C22.1248 12.8801 22.1442 12.3937 22.0702 11.9462C22.0471 11.8043 21.9962 11.666 21.9416 11.5204C21.9258 11.478 21.9101 11.4355 21.8955 11.3931C21.8882 11.3725 21.8822 11.3664 21.881 11.3664C21.8761 11.3664 21.864 11.3676 21.8409 11.3761C21.7973 11.3931 21.7512 11.4016 21.7039 11.4016C21.5632 11.4016 21.4237 11.324 21.3291 11.193C21.2078 11.0244 21.2078 10.823 21.3267 10.6544C21.4298 10.5077 21.6032 10.4204 21.7936 10.4204M21.7912 10.2979C21.562 10.2979 21.3509 10.4046 21.2248 10.5829C21.0768 10.7927 21.0793 11.0535 21.2284 11.2621C21.3449 11.4246 21.522 11.5217 21.7015 11.5217C21.7366 11.5217 21.7718 11.518 21.807 11.5107C21.813 11.5277 21.8191 11.5447 21.8252 11.5617C21.8773 11.7024 21.9258 11.8346 21.9477 11.9656C22.0192 12.3974 21.9998 12.8692 21.8882 13.4065C21.8288 13.6891 21.9926 13.9486 22.2679 14.0105C22.3018 14.0178 22.3382 14.0226 22.3734 14.0226C22.6233 14.0226 22.8379 13.8334 22.8731 13.5836C22.9107 13.3058 22.9435 13.0244 22.9689 12.7976C22.9786 12.7151 22.9871 12.6375 22.9956 12.5696V12.5623L22.998 12.5526V12.5429V12.5356C22.9738 11.9195 22.9301 11.3676 22.6402 10.8691C22.4898 10.6096 22.3018 10.4398 22.0678 10.35C21.978 10.316 21.8858 10.2979 21.7924 10.2979H21.7912Z" fill="white"/>
<path d="M21.9658 22.873C21.9452 22.8536 21.9234 22.8354 21.9016 22.8172C21.8312 22.759 21.7621 22.7019 21.7099 22.6207C21.608 22.4642 21.6432 22.2714 21.7985 22.1307L22.0083 21.939C22.183 21.7789 22.3576 21.6201 22.5323 21.466C22.622 21.3872 22.7227 21.3447 22.8246 21.3447C22.9337 21.3447 23.038 21.392 23.1254 21.4794C23.2188 21.5727 23.2685 21.6904 23.2673 21.8093C23.2661 21.9221 23.2188 22.0264 23.1314 22.1101C22.8901 22.3405 22.639 22.5613 22.4025 22.7638C22.3479 22.8111 22.2873 22.8354 22.223 22.8608C22.1951 22.8717 22.1648 22.8839 22.1332 22.8984L22.041 22.9409L21.9671 22.8718L21.9658 22.873Z" fill="white"/>
<path d="M22.8245 21.4067C22.9167 21.4067 23.0065 21.4467 23.0829 21.5243C23.1642 21.6068 23.209 21.7075 23.2066 21.8106C23.2066 21.9076 23.1654 21.9962 23.0902 22.0677C22.85 22.2982 22.5989 22.5165 22.3636 22.7202C22.3176 22.7603 22.263 22.7821 22.2011 22.8064C22.1732 22.8173 22.1417 22.8294 22.1077 22.8452L22.0519 22.8706L22.0071 22.8294C21.984 22.8076 21.9598 22.7882 21.9355 22.7675C21.8724 22.7154 21.8081 22.662 21.7608 22.5893C21.6747 22.457 21.7051 22.2994 21.8385 22.1769C21.9088 22.1126 21.9792 22.0495 22.0483 21.9852C22.2181 21.83 22.3952 21.6687 22.5711 21.5134C22.6499 21.4443 22.7372 21.4079 22.8233 21.4079M22.8245 21.2854C22.7081 21.2854 22.5929 21.3327 22.491 21.4212C22.3139 21.5765 22.1381 21.7378 21.967 21.8943C21.8967 21.9586 21.8263 22.0228 21.756 22.0859C21.5777 22.2484 21.5389 22.4704 21.6577 22.6535C21.7148 22.7421 21.79 22.8039 21.8567 22.8597C21.8809 22.8791 21.9028 22.8973 21.9234 22.9167L21.9682 22.958L22.0277 23.0138L22.1017 22.9798L22.1575 22.9543C22.189 22.9398 22.2169 22.9289 22.2436 22.9179C22.3115 22.8913 22.3794 22.8646 22.4413 22.81C22.6778 22.6062 22.9301 22.3855 23.1726 22.1538C23.2721 22.0592 23.3255 21.9404 23.3267 21.8106C23.3279 21.6747 23.2721 21.5425 23.1666 21.4382C23.0671 21.3376 22.9483 21.2854 22.8221 21.2854H22.8245Z" fill="white"/>
<path d="M17.7353 28.6488C17.7122 28.6488 17.6879 28.6476 17.6637 28.6439C17.5557 28.6306 17.4138 28.6136 17.2719 28.5906C17.033 28.553 16.8693 28.3456 16.8923 28.1078C16.9153 27.8628 17.0864 27.7173 17.3496 27.7173C17.3605 27.7173 17.3714 27.7173 17.3823 27.7173L17.4975 27.7294C17.5873 27.7379 17.6892 27.7488 17.7923 27.7658C17.9196 27.7864 18.0288 27.8483 18.1003 27.9392C18.1743 28.0338 18.2046 28.1527 18.184 28.2752C18.1464 28.502 17.9706 28.6476 17.7353 28.6476V28.6488Z" fill="white"/>
<path d="M17.3484 27.7792C17.3581 27.7792 17.369 27.7792 17.3787 27.7792H17.3823H17.386C17.4187 27.7829 17.4539 27.7865 17.4915 27.7902C17.5812 27.7987 17.6819 27.8084 17.7826 27.8253C17.8942 27.8435 17.99 27.8981 18.053 27.9769C18.1161 28.0582 18.1416 28.1601 18.1246 28.2656C18.0919 28.4645 17.9427 28.5882 17.7365 28.5882C17.7159 28.5882 17.694 28.587 17.6722 28.5846C17.5643 28.5713 17.4236 28.5543 17.2829 28.5325C17.0767 28.4997 16.9348 28.3214 16.9542 28.1152C16.9736 27.9017 17.1191 27.7792 17.3508 27.7792M17.3484 27.658C17.0548 27.658 16.8559 27.829 16.8305 28.1031C16.805 28.3736 16.9906 28.6089 17.261 28.6513C17.4042 28.6731 17.5461 28.6913 17.6552 28.7047C17.6819 28.7083 17.7086 28.7095 17.7341 28.7095C17.9997 28.7095 18.1998 28.5434 18.2423 28.2862C18.2653 28.1468 18.2313 28.0109 18.1464 27.903C18.0652 27.7999 17.9427 27.7307 17.8008 27.7065C17.6965 27.6895 17.5934 27.6786 17.5024 27.6701C17.466 27.6664 17.4308 27.6628 17.3981 27.6592H17.3945H17.3872C17.3714 27.6592 17.3605 27.6592 17.3484 27.6592V27.658Z" fill="white"/>
</g>
<defs>
<clipPath id="clip0_530_5603">
<rect width="25" height="22.419" fill="white" transform="translate(5 6.29053)"/>
</clipPath>
</defs>
</svg>
