<svg width="36" height="36" viewBox="0 0 36 36" fill="none" xmlns="http://www.w3.org/2000/svg">
<path d="M9.22389 19.4689L4.28638 28.0209L10.2304 27.9448L13.1375 33.1311L18.1436 24.4603" stroke="#FBFBFC" stroke-width="3" stroke-linecap="round" stroke-linejoin="round"/>
<path d="M9.22363 19.4685L4.28612 28.0205L10.2302 27.9445L13.1373 33.1307L17.6597 25.2976" stroke="#FBFBFC" stroke-width="3" stroke-linecap="round" stroke-linejoin="round"/>
<path d="M26.5172 19.7501L31.2983 28.0313L25.3533 27.9558L22.4472 33.1415C22.4472 33.1415 19.8583 28.6575 17.9444 25.3426" stroke="#FBFBFC" stroke-width="3" stroke-linecap="round" stroke-linejoin="round"/>
<path d="M20.7222 7.5H28.4999" stroke="#FBFBFC" stroke-width="3" stroke-linecap="round" stroke-linejoin="round"/>
<path d="M24.6113 3.61108V11.3889" stroke="#FBFBFC" stroke-width="3" stroke-linecap="round" stroke-linejoin="round"/>
<path d="M16.4748 4.50928C15.4759 4.66795 14.5017 4.98249 13.5892 5.44706C11.7592 6.37871 10.2712 7.86588 9.3385 9.69536C8.40581 11.5248 8.07636 13.6026 8.39737 15.6309C8.71838 17.6592 9.67336 19.5337 11.1254 20.9857C12.5775 22.4378 14.452 23.3928 16.4802 23.7138C18.5085 24.0348 20.5863 23.7054 22.4158 22.7727C24.2453 21.84 25.7324 20.352 26.6641 18.522C27.1295 17.6078 27.4443 16.6317 27.6027 15.6309" stroke="#FBFBFC" stroke-width="3" stroke-linecap="round" stroke-linejoin="round"/>
</svg>
