<svg width="31" height="31" viewBox="0 0 31 31" fill="none" xmlns="http://www.w3.org/2000/svg">
<path d="M25.8134 8.9375H5.18842C4.67065 8.9375 4.25092 9.35723 4.25092 9.875V24.875C4.25092 25.3928 4.67065 25.8125 5.18842 25.8125H25.8134C26.3312 25.8125 26.7509 25.3928 26.7509 24.875V9.875C26.7509 9.35723 26.3312 8.9375 25.8134 8.9375Z" stroke="#80E0C6" stroke-width="2" stroke-linecap="round" stroke-linejoin="round"/>
<path d="M20.1875 8.9375V7.0625C20.1875 6.56522 19.99 6.08831 19.6383 5.73667C19.2867 5.38504 18.8098 5.1875 18.3125 5.1875H12.6875C12.1902 5.1875 11.7133 5.38504 11.3617 5.73667C11.01 6.08831 10.8125 6.56522 10.8125 7.0625V8.9375" stroke="#80E0C6" stroke-width="2" stroke-linecap="round" stroke-linejoin="round"/>
<path d="M26.7509 15.3018C23.3318 17.28 19.4502 18.3187 15.5 18.3125C11.5505 18.3187 7.66954 17.2804 4.25076 15.3028" stroke="#80E0C6" stroke-width="2" stroke-linecap="round" stroke-linejoin="round"/>
<path d="M14.0938 14.5625H16.9062" stroke="#80E0C6" stroke-width="2" stroke-linecap="round" stroke-linejoin="round"/>
</svg>
