<svg width="26" height="26" viewBox="0 0 26 26" fill="none" xmlns="http://www.w3.org/2000/svg">
<path d="M18.4899 12.4475L10.6774 4.63505C10.5682 4.52579 10.4289 4.45139 10.2774 4.42126C10.1258 4.39112 9.96877 4.40659 9.82602 4.46573C9.68326 4.52486 9.56125 4.625 9.47541 4.75347C9.38957 4.88195 9.34375 5.033 9.34375 5.18751V20.8125C9.34375 20.967 9.38957 21.1181 9.47542 21.2465C9.56126 21.375 9.68327 21.4752 9.82602 21.5343C9.96877 21.5934 10.1259 21.6089 10.2774 21.5788C10.4289 21.5486 10.5681 21.4742 10.6774 21.365L18.4899 13.5525C18.5625 13.4799 18.62 13.3938 18.6593 13.299C18.6986 13.2042 18.7188 13.1026 18.7188 13C18.7188 12.8974 18.6986 12.7958 18.6593 12.701C18.62 12.6062 18.5625 12.5201 18.4899 12.4475V12.4475Z" fill="#353E64"/>
</svg>
