<svg width="25" height="24" viewBox="0 0 25 24" fill="none" xmlns="http://www.w3.org/2000/svg">
<path d="M10.6875 12C10.6875 13.0355 11.527 13.875 12.5625 13.875C13.598 13.875 14.4375 13.0355 14.4375 12C14.4375 10.9645 13.598 10.125 12.5625 10.125C11.527 10.125 10.6875 10.9645 10.6875 12Z" fill="#353E64" stroke="#353E64" stroke-width="2" stroke-linecap="round" stroke-linejoin="round"/>
<path d="M10.6875 19.5C10.6875 20.5355 11.527 21.375 12.5625 21.375C13.598 21.375 14.4375 20.5355 14.4375 19.5C14.4375 18.4645 13.598 17.625 12.5625 17.625C11.527 17.625 10.6875 18.4645 10.6875 19.5Z" fill="#353E64" stroke="#353E64" stroke-width="2" stroke-linecap="round" stroke-linejoin="round"/>
<path d="M10.6875 4.5C10.6875 5.53553 11.527 6.375 12.5625 6.375C13.598 6.375 14.4375 5.53553 14.4375 4.5C14.4375 3.46447 13.598 2.625 12.5625 2.625C11.527 2.625 10.6875 3.46447 10.6875 4.5Z" fill="#353E64" stroke="#353E64" stroke-width="2" stroke-linecap="round" stroke-linejoin="round"/>
</svg>
