<svg width="31" height="31" viewBox="0 0 31 31" fill="none" xmlns="http://www.w3.org/2000/svg">
<path d="M27.3625 13.2375L26.1125 12.55L14.8625 6.30001H14.725C14.6484 6.2676 14.5688 6.24249 14.4875 6.22501H14.25H14.025C13.9396 6.24251 13.8559 6.26761 13.775 6.30001H13.6375L2.3875 12.55C2.19513 12.659 2.03512 12.8171 1.92379 13.0082C1.81247 13.1992 1.75381 13.4164 1.75381 13.6375C1.75381 13.8586 1.81247 14.0758 1.92379 14.2668C2.03512 14.4579 2.19513 14.616 2.3875 14.725L5.5 16.45V22.375C5.5 23.3696 5.89509 24.3234 6.59835 25.0267C7.30161 25.7299 8.25544 26.125 9.25 26.125H19.25C20.2446 26.125 21.1984 25.7299 21.9017 25.0267C22.6049 24.3234 23 23.3696 23 22.375V16.45L25.5 15.05V18.625C25.5 18.9565 25.6317 19.2745 25.8661 19.5089C26.1005 19.7433 26.4185 19.875 26.75 19.875C27.0815 19.875 27.3995 19.7433 27.6339 19.5089C27.8683 19.2745 28 18.9565 28 18.625V14.325C27.9996 14.1035 27.9404 13.8861 27.8284 13.695C27.7164 13.5039 27.5556 13.346 27.3625 13.2375ZM20.5 22.375C20.5 22.7065 20.3683 23.0245 20.1339 23.2589C19.8995 23.4933 19.5815 23.625 19.25 23.625H9.25C8.91848 23.625 8.60054 23.4933 8.36612 23.2589C8.1317 23.0245 8 22.7065 8 22.375V17.8375L13.6375 20.9625L13.825 21.0375H13.9375C14.0413 21.0506 14.1462 21.0506 14.25 21.0375C14.3538 21.0506 14.4587 21.0506 14.5625 21.0375H14.675C14.7414 21.0235 14.8048 20.9981 14.8625 20.9625L20.5 17.8375V22.375ZM14.25 18.45L5.575 13.625L14.25 8.80001L22.925 13.625L14.25 18.45Z" fill="#FDA4AF"/>
</svg>
