<svg width="26" height="26" viewBox="0 0 26 26" fill="none" xmlns="http://www.w3.org/2000/svg">
<path d="M22.8854 11.1146L21.8437 10.5417L12.4687 5.33337H12.3542C12.2903 5.30637 12.224 5.28545 12.1562 5.27087H11.9583H11.7708C11.6997 5.28546 11.6299 5.30637 11.5625 5.33337H11.4479L2.07292 10.5417C1.91261 10.6326 1.77926 10.7643 1.68649 10.9235C1.59372 11.0827 1.54485 11.2637 1.54485 11.448C1.54485 11.6322 1.59372 11.8132 1.68649 11.9724C1.77926 12.1316 1.91261 12.2634 2.07292 12.3542L4.66667 13.7917V18.7292C4.66667 19.558 4.99591 20.3529 5.58196 20.9389C6.16801 21.525 6.96286 21.8542 7.79167 21.8542H16.125C16.9538 21.8542 17.7487 21.525 18.3347 20.9389C18.9208 20.3529 19.25 19.558 19.25 18.7292V13.7917L21.3333 12.625V15.6042C21.3333 15.8805 21.4431 16.1454 21.6384 16.3408C21.8338 16.5361 22.0987 16.6459 22.375 16.6459C22.6513 16.6459 22.9162 16.5361 23.1116 16.3408C23.3069 16.1454 23.4167 15.8805 23.4167 15.6042V12.0209C23.4163 11.8363 23.367 11.6551 23.2736 11.4959C23.1803 11.3366 23.0463 11.2051 22.8854 11.1146ZM17.1667 18.7292C17.1667 19.0055 17.0569 19.2704 16.8616 19.4658C16.6662 19.6611 16.4013 19.7709 16.125 19.7709H7.79167C7.5154 19.7709 7.25045 19.6611 7.0551 19.4658C6.85975 19.2704 6.75 19.0055 6.75 18.7292V14.948L11.4479 17.5521L11.6042 17.6146H11.6979C11.7844 17.6255 11.8719 17.6255 11.9583 17.6146C12.0448 17.6255 12.1323 17.6255 12.2188 17.6146H12.3125C12.3678 17.603 12.4207 17.5818 12.4687 17.5521L17.1667 14.948V18.7292ZM11.9583 15.4584L4.72917 11.4375L11.9583 7.41671L19.1875 11.4375L11.9583 15.4584Z" fill="white"/>
</svg>
