<svg width="38" height="23" viewBox="0 0 38 23" fill="none" xmlns="http://www.w3.org/2000/svg">
<path d="M19.638 2.45389C17.629 0.861652 15.1421 -0.00309551 12.5811 8.32635e-06C9.54775 8.32635e-06 6.6386 1.20811 4.49368 3.35853C2.34875 5.50896 1.14374 8.42557 1.14374 11.4667C1.14374 14.5079 2.34875 17.4245 4.49368 19.5749C6.6386 21.7254 9.54775 22.9335 12.5811 22.9335C15.1397 22.9336 17.6244 22.0736 19.638 20.491C18.2789 19.4171 17.1806 18.048 16.4258 16.4868C15.6709 14.9257 15.2793 13.2131 15.2804 11.4782C15.2776 9.74134 15.6684 8.02655 16.4233 6.46325C17.1782 4.89995 18.2774 3.529 19.638 2.45389Z" fill="#AF0014"/>
<path d="M18.4943 2.45389C16.4852 0.861652 13.9984 -0.00309551 11.4374 8.32635e-06C8.40401 8.32635e-06 5.49487 1.20811 3.34994 3.35853C1.20501 5.50896 0 8.42557 0 11.4667C0 14.5079 1.20501 17.4245 3.34994 19.5749C5.49487 21.7254 8.40401 22.9335 11.4374 22.9335C13.996 22.9336 16.4807 22.0736 18.4943 20.491C17.1352 19.4171 16.0368 18.048 15.282 16.4868C14.5272 14.9257 14.1356 13.2131 14.1366 11.4782C14.1338 9.74134 14.5246 8.02655 15.2795 6.46325C16.0344 4.89995 17.1336 3.529 18.4943 2.45389Z" fill="#EB001B"/>
<g filter="url(#filter0_d_547_1495)">
<path d="M25.5626 0C22.9988 0.000582271 20.5095 0.86478 18.4943 2.45388C19.8555 3.52664 20.956 4.89524 21.7128 6.45648C22.4697 8.01773 22.8631 9.73087 22.8634 11.4667C22.8631 13.2026 22.4697 14.9157 21.7128 16.477C20.956 18.0382 19.8555 19.4068 18.4943 20.4796C20.511 22.0646 23.0001 22.9247 25.5626 22.922C28.596 22.922 31.5051 21.7139 33.6501 19.5635C35.795 17.413 37 14.4964 37 11.4553C36.997 8.41608 35.7906 5.50242 33.646 3.35447C31.5014 1.20653 28.594 -1.51959e-06 25.5626 0Z" fill="#F79E1B"/>
</g>
<path d="M18.4943 2.45411H18.506L18.4943 2.44238V2.45411Z" fill="#F79E1B"/>
<path d="M14.1366 11.4667C14.1356 13.2016 14.5272 14.9142 15.282 16.4753C16.0368 18.0365 17.1352 19.4056 18.4943 20.4795C19.8555 19.4068 20.956 18.0382 21.7128 16.4769C22.4697 14.9157 22.8631 13.2026 22.8634 11.4667C22.8631 9.73084 22.4697 8.0177 21.7128 6.45646C20.956 4.89522 19.8555 3.52662 18.4943 2.45386C17.1352 3.52777 16.0368 4.89689 15.282 6.45806C14.5272 8.01924 14.1356 9.73178 14.1366 11.4667Z" fill="#FF5F00"/>
<defs>
<filter id="filter0_d_547_1495" x="18.4943" y="0" width="19.5057" height="22.9219" filterUnits="userSpaceOnUse" color-interpolation-filters="sRGB">
<feFlood flood-opacity="0" result="BackgroundImageFix"/>
<feColorMatrix in="SourceAlpha" type="matrix" values="0 0 0 0 0 0 0 0 0 0 0 0 0 0 0 0 0 0 127 0" result="hardAlpha"/>
<feOffset dx="1"/>
<feComposite in2="hardAlpha" operator="out"/>
<feColorMatrix type="matrix" values="0 0 0 0 0.891667 0 0 0 0 0.530947 0 0 0 0 0 0 0 0 1 0"/>
<feBlend mode="normal" in2="BackgroundImageFix" result="effect1_dropShadow_547_1495"/>
<feBlend mode="normal" in="SourceGraphic" in2="effect1_dropShadow_547_1495" result="shape"/>
</filter>
</defs>
</svg>
