<svg width="21" height="20" viewBox="0 0 21 20" fill="none" xmlns="http://www.w3.org/2000/svg">
<path d="M14.8333 18.3334H4.83333C4.17029 18.3334 3.5344 18.07 3.06556 17.6012C2.59672 17.1324 2.33333 16.4965 2.33333 15.8334V7.50009C2.33333 6.83705 2.59672 6.20117 3.06556 5.73233C3.5344 5.26349 4.17029 5.00009 4.83333 5.00009H5.66666C5.68068 4.29396 5.91862 3.61053 6.34617 3.04837C6.77372 2.48621 7.36878 2.07438 8.04553 1.87229C8.72227 1.67019 9.44571 1.68827 10.1115 1.92392C10.7773 2.15957 11.3511 2.60061 11.75 3.18343C12.1237 3.71605 12.3271 4.34948 12.3333 5.00009H14.8333C15.0543 5.00009 15.2663 5.08789 15.4226 5.24417C15.5789 5.40045 15.6667 5.61241 15.6667 5.83343V8.33343C16.3728 8.34744 17.0562 8.58539 17.6184 9.01294C18.1805 9.44049 18.5924 10.0356 18.7945 10.7123C18.9966 11.389 18.9785 12.1125 18.7428 12.7783C18.5072 13.4441 18.0661 14.0178 17.4833 14.4168C16.9507 14.7905 16.3173 14.9939 15.6667 15.0001V17.5001C15.6667 17.7211 15.5789 17.9331 15.4226 18.0893C15.2663 18.2456 15.0543 18.3334 14.8333 18.3334ZM4.83333 6.66676C4.61231 6.66676 4.40035 6.75456 4.24407 6.91084C4.08779 7.06712 3.99999 7.27908 3.99999 7.50009V15.8334C3.99999 16.0544 4.08779 16.2664 4.24407 16.4227C4.40035 16.579 4.61231 16.6668 4.83333 16.6668H14V14.0168C13.9993 13.8831 14.0307 13.7513 14.0916 13.6324C14.1525 13.5135 14.2411 13.4109 14.35 13.3334C14.4585 13.256 14.584 13.2058 14.716 13.187C14.8479 13.1681 14.9825 13.1812 15.1083 13.2251C15.3458 13.322 15.6045 13.3553 15.8588 13.3216C16.113 13.288 16.3542 13.1887 16.5583 13.0334C16.7615 12.9095 16.9358 12.7435 17.0695 12.5466C17.2032 12.3496 17.2932 12.1264 17.3333 11.8918C17.3655 11.6551 17.3464 11.4144 17.2774 11.1858C17.2084 10.9572 17.091 10.7461 16.9333 10.5668C16.7201 10.3077 16.4296 10.1235 16.1043 10.0411C15.779 9.95862 15.4359 9.98222 15.125 10.1084C14.9991 10.1523 14.8646 10.1654 14.7326 10.1466C14.6007 10.1277 14.4752 10.0775 14.3667 10.0001C14.2578 9.9226 14.1692 9.82006 14.1083 9.70113C14.0474 9.58221 14.0159 9.45038 14.0167 9.31676V6.66676H11.35C11.213 6.67452 11.0763 6.64835 10.9519 6.59058C10.8274 6.5328 10.7192 6.44521 10.6368 6.33556C10.5543 6.22592 10.5002 6.09762 10.4793 5.96205C10.4583 5.82649 10.4712 5.68784 10.5167 5.55843C10.6135 5.32093 10.6468 5.06228 10.6132 4.808C10.5796 4.55371 10.4803 4.31259 10.325 4.10843C10.202 3.8994 10.0335 3.72073 9.83199 3.58567C9.63052 3.45061 9.40125 3.36261 9.16115 3.3282C8.92105 3.29378 8.67628 3.31383 8.44499 3.38687C8.21369 3.4599 8.0018 3.58404 7.825 3.75009C7.66081 3.91294 7.53231 4.10817 7.44766 4.32337C7.36302 4.53857 7.32408 4.76903 7.33333 5.00009C7.33526 5.19124 7.37197 5.38043 7.44166 5.55843C7.48572 5.68444 7.49885 5.8192 7.47997 5.95135C7.46108 6.0835 7.41072 6.20918 7.33313 6.31781C7.25554 6.42644 7.15298 6.51483 7.0341 6.57556C6.91522 6.63629 6.78349 6.66756 6.64999 6.66676H4.83333Z" fill="#4F46E5"/>
</svg>
