<svg width="17" height="18" viewBox="0 0 17 18" fill="none" xmlns="http://www.w3.org/2000/svg">
<path d="M13.8125 6.34375H3.1875C2.8941 6.34375 2.65625 6.5816 2.65625 6.875V14.3125C2.65625 14.6059 2.8941 14.8438 3.1875 14.8438H13.8125C14.1059 14.8438 14.3438 14.6059 14.3438 14.3125V6.875C14.3438 6.5816 14.1059 6.34375 13.8125 6.34375Z" stroke="white" stroke-width="2" stroke-linecap="round" stroke-linejoin="round"/>
<path d="M6.10938 6.34375V3.95312C6.10938 3.31909 6.36124 2.71103 6.80957 2.2627C7.2579 1.81437 7.86597 1.5625 8.5 1.5625C9.13403 1.5625 9.7421 1.81437 10.1904 2.2627C10.6388 2.71103 10.8906 3.31909 10.8906 3.95312V6.34375" stroke="white" stroke-width="2" stroke-linecap="round" stroke-linejoin="round"/>
<path d="M8.5 11.6562C9.0868 11.6562 9.5625 11.1806 9.5625 10.5938C9.5625 10.0069 9.0868 9.53125 8.5 9.53125C7.9132 9.53125 7.4375 10.0069 7.4375 10.5938C7.4375 11.1806 7.9132 11.6562 8.5 11.6562Z" fill="white"/>
</svg>
