<svg width="17" height="18" viewBox="0 0 17 18" fill="none" xmlns="http://www.w3.org/2000/svg">
<path d="M12.0417 16.0833H3.54166C2.97808 16.0833 2.43758 15.8595 2.03906 15.4609C1.64055 15.0624 1.41666 14.5219 1.41666 13.9583V6.87501C1.41666 6.31142 1.64055 5.77092 2.03906 5.3724C2.43758 4.97389 2.97808 4.75001 3.54166 4.75001H4.25C4.26191 4.14979 4.46416 3.56887 4.82758 3.09104C5.191 2.6132 5.6968 2.26315 6.27203 2.09137C6.84726 1.91959 7.46219 1.93496 8.02812 2.13526C8.59405 2.33556 9.08174 2.71045 9.42083 3.20584C9.73848 3.65857 9.91136 4.19698 9.91666 4.75001H12.0417C12.2295 4.75001 12.4097 4.82463 12.5425 4.95747C12.6754 5.09031 12.75 5.27048 12.75 5.45834V7.58334C13.3502 7.59525 13.9311 7.7975 14.409 8.16092C14.8868 8.52434 15.2369 9.03014 15.4086 9.60537C15.5804 10.1806 15.565 10.7955 15.3647 11.3615C15.1644 11.9274 14.7896 12.4151 14.2942 12.7542C13.8414 13.0718 13.303 13.2447 12.75 13.25V13.25V15.375C12.75 15.5629 12.6754 15.743 12.5425 15.8759C12.4097 16.0087 12.2295 16.0833 12.0417 16.0833ZM3.54166 6.16667C3.3538 6.16667 3.17364 6.2413 3.0408 6.37414C2.90796 6.50698 2.83333 6.68714 2.83333 6.87501V13.9583C2.83333 14.1462 2.90796 14.3264 3.0408 14.4592C3.17364 14.592 3.3538 14.6667 3.54166 14.6667H11.3333V12.4142C11.3327 12.3006 11.3594 12.1885 11.4112 12.0875C11.463 11.9864 11.5383 11.8992 11.6308 11.8333C11.7231 11.7676 11.8298 11.7249 11.9419 11.7088C12.0541 11.6928 12.1684 11.7039 12.2754 11.7413C12.4773 11.8236 12.6971 11.8519 12.9133 11.8233C13.1294 11.7948 13.3344 11.7103 13.5079 11.5783C13.6806 11.473 13.8288 11.3319 13.9424 11.1645C14.0561 10.9971 14.1325 10.8073 14.1667 10.6079C14.194 10.4068 14.1778 10.2021 14.1191 10.0078C14.0604 9.81352 13.9607 9.63409 13.8267 9.48167C13.6454 9.26146 13.3985 9.10491 13.122 9.03483C12.8455 8.96475 12.5539 8.98481 12.2896 9.09209C12.1826 9.12941 12.0682 9.14052 11.9561 9.1245C11.8439 9.10848 11.7372 9.06579 11.645 9.00001C11.5525 8.93413 11.4771 8.84698 11.4254 8.74589C11.3736 8.6448 11.3469 8.53275 11.3475 8.41917V6.16667H9.08083C8.96442 6.17327 8.84817 6.15103 8.74242 6.10192C8.63667 6.05281 8.54467 5.97835 8.4746 5.88515C8.40452 5.79196 8.35854 5.6829 8.34073 5.56767C8.32292 5.45244 8.33383 5.33459 8.3725 5.22459C8.45485 5.02272 8.48313 4.80286 8.45456 4.58672C8.42599 4.37058 8.34155 4.16563 8.20958 3.99209C8.105 3.81441 7.96178 3.66255 7.79053 3.54775C7.61928 3.43294 7.42439 3.35815 7.22031 3.32889C7.01623 3.29964 6.80818 3.31669 6.61158 3.37876C6.41497 3.44084 6.23486 3.54636 6.08458 3.68751C5.94502 3.82592 5.83579 3.99187 5.76385 4.17479C5.6919 4.35771 5.6588 4.5536 5.66666 4.75001C5.6683 4.91248 5.69951 5.07329 5.75875 5.22459C5.79619 5.3317 5.80736 5.44624 5.79131 5.55857C5.77525 5.6709 5.73245 5.77773 5.66649 5.87006C5.60054 5.9624 5.51337 6.03753 5.41232 6.08915C5.31127 6.14077 5.1993 6.16736 5.08583 6.16667H3.54166Z" fill="white"/>
</svg>
