<svg width="23" height="22" viewBox="0 0 23 22" fill="none" xmlns="http://www.w3.org/2000/svg">
<path d="M20.0325 9.34074L19.1158 8.83658L10.8658 4.25324H10.765C10.7088 4.22948 10.6505 4.21107 10.5908 4.19824H10.4167H10.2517C10.189 4.21107 10.1277 4.22948 10.0683 4.25324H9.96751L1.71751 8.83658C1.57644 8.91653 1.4591 9.03246 1.37746 9.17257C1.29582 9.31267 1.25281 9.47192 1.25281 9.63408C1.25281 9.79623 1.29582 9.95548 1.37746 10.0956C1.4591 10.2357 1.57644 10.3516 1.71751 10.4316L4.00001 11.6966V16.0416C4.00001 16.7709 4.28974 17.4704 4.80547 17.9861C5.32119 18.5018 6.02066 18.7916 6.75001 18.7916H14.0833C14.8127 18.7916 15.5122 18.5018 16.0279 17.9861C16.5436 17.4704 16.8333 16.7709 16.8333 16.0416V11.6966L18.6667 10.6699V13.2916C18.6667 13.5347 18.7633 13.7678 18.9352 13.9398C19.1071 14.1117 19.3402 14.2082 19.5833 14.2082C19.8265 14.2082 20.0596 14.1117 20.2315 13.9398C20.4034 13.7678 20.5 13.5347 20.5 13.2916V10.1382C20.4997 9.97581 20.4563 9.81637 20.3742 9.67624C20.292 9.53612 20.1741 9.42033 20.0325 9.34074V9.34074ZM15 16.0416C15 16.2847 14.9034 16.5178 14.7315 16.6898C14.5596 16.8617 14.3265 16.9582 14.0833 16.9582H6.75001C6.50689 16.9582 6.27374 16.8617 6.10183 16.6898C5.92992 16.5178 5.83334 16.2847 5.83334 16.0416V12.7141L9.96751 15.0057L10.105 15.0607H10.1875C10.2636 15.0703 10.3406 15.0703 10.4167 15.0607C10.4928 15.0703 10.5698 15.0703 10.6458 15.0607H10.7283C10.777 15.0505 10.8235 15.0319 10.8658 15.0057L15 12.7141V16.0416ZM10.4167 13.1632L4.05501 9.62491L10.4167 6.08658L16.7783 9.62491L10.4167 13.1632Z" fill="#00BA88"/>
</svg>
