<svg width="125" height="126" viewBox="0 0 125 126" fill="none" xmlns="http://www.w3.org/2000/svg">
<g clip-path="url(#clip0_1544_7770)">
<circle cx="62.9988" cy="63.4988" r="60.9988" fill="#F5F5FA"/>
<circle cx="62.9988" cy="63.4987" r="41.8137" fill="white"/>
<path d="M5.3744 86.18C8.35277 93.6162 12.7667 100.393 18.364 106.123C23.9614 111.854 30.6326 116.425 37.9968 119.578C45.3611 122.73 53.274 124.401 61.2839 124.495C69.2939 124.589 77.2439 123.104 84.6801 120.126L77.5625 102.355C72.46 104.399 67.0049 105.417 61.5087 105.353C56.0125 105.288 50.5828 104.142 45.5297 101.979C40.4766 99.8161 35.8989 96.6791 32.0582 92.747C28.2174 88.815 25.1887 84.165 23.145 79.0625L5.3744 86.18Z" fill="#EB80DA"/>
<circle cx="81.3418" cy="111.13" r="9.59255" transform="rotate(158.173 81.3418 111.13)" fill="#EB80DA"/>
<circle cx="14.1878" cy="82.3849" r="9.59255" transform="rotate(158.173 14.1878 82.3849)" fill="#EB80DA"/>
<path d="M22.3808 109.881C28.4716 115.083 35.5276 119.036 43.1458 121.512C50.764 123.988 58.7953 124.939 66.7811 124.311C74.767 123.683 82.5509 121.488 89.6886 117.852C96.8263 114.216 103.178 109.21 108.381 103.119L93.8252 90.6855C90.2552 94.8648 85.8969 98.3001 80.9992 100.795C76.1015 103.29 70.7604 104.796 65.2807 105.227C59.801 105.658 54.2902 105.005 49.0627 103.306C43.8353 101.607 38.9937 98.8951 34.8144 95.325L22.3808 109.881Z" fill="#FECD28"/>
<circle cx="101.247" cy="96.7015" r="9.59255" transform="rotate(130.505 101.247 96.7015)" fill="#FECD28"/>
<circle cx="28.4243" cy="102.427" r="9.59255" transform="rotate(130.505 28.4243 102.427)" fill="#FECD28"/>
<path d="M46.582 122.448C54.3356 124.46 62.4096 124.925 70.3431 123.817C78.2766 122.709 85.9141 120.049 92.8196 115.989C99.7251 111.93 105.763 106.549 110.59 100.156C115.416 93.7628 118.936 86.4815 120.948 78.7279L102.419 73.9191C101.038 79.2394 98.6228 84.2357 95.3112 88.6226C91.9995 93.0095 87.8562 96.7012 83.1178 99.4869C78.3794 102.273 73.1388 104.098 67.695 104.858C62.2513 105.618 56.7111 105.299 51.3908 103.918L46.582 122.448Z" fill="#00FF87"/>
<circle cx="111.725" cy="76.0804" r="9.59255" transform="rotate(104.549 111.725 76.0804)" fill="#00FF87"/>
<circle cx="48.7536" cy="113.101" r="9.59255" transform="rotate(104.549 48.7536 113.101)" fill="#00FF87"/>
<path d="M93.0985 115.824C99.9824 111.728 105.992 106.316 110.784 99.8968C115.576 93.4778 119.057 86.1779 121.028 78.4137C122.999 70.6495 123.422 62.5731 122.272 54.6457C121.121 46.7182 118.421 39.0949 114.325 32.2111L97.8739 42.0004C100.685 46.7239 102.538 51.9548 103.327 57.3944C104.116 62.8341 103.826 68.3759 102.474 73.7035C101.121 79.0311 98.7329 84.0401 95.4446 88.4446C92.1563 92.8491 88.0327 96.5627 83.3092 99.3736L93.0985 115.824Z" fill="#FF7F50"/>
<circle cx="105.955" cy="36.9052" r="9.59255" transform="rotate(59.2442 105.955 36.9052)" fill="#FF7F50"/>
<circle cx="87.9818" cy="107.706" r="9.59255" transform="rotate(59.2442 87.9818 107.706)" fill="#FF7F50"/>
<path d="M116.604 90.4009C120.15 83.2176 122.245 75.4064 122.772 67.4132C123.298 59.4201 122.245 51.4015 119.672 43.8153C117.1 36.2292 113.059 29.224 107.779 23.1997C102.499 17.1754 96.0843 12.2501 88.9011 8.70488L80.4289 25.871C85.3579 28.3037 89.7594 31.6833 93.3823 35.817C97.0051 39.9507 99.7783 44.7575 101.543 49.9629C103.309 55.1684 104.031 60.6705 103.67 66.1552C103.309 71.6399 101.871 76.9997 99.4382 81.9287L116.604 90.4009Z" fill="#EA3869"/>
<circle cx="84.4352" cy="17.1979" r="9.59255" transform="rotate(26.2681 84.4352 17.1979)" fill="#EA3869"/>
<circle cx="107.894" cy="86.3762" r="9.59255" transform="rotate(26.2681 107.894 86.3762)" fill="#EA3869"/>
<path d="M122.807 66.8436C123.258 58.8458 122.13 50.8375 119.487 43.2757C116.844 35.7139 112.737 28.7469 107.401 22.7723C102.065 16.7977 95.6043 11.9326 88.3882 8.45478C81.1721 4.97695 73.3416 2.95449 65.3439 2.50289L64.2647 21.6155C69.7525 21.9253 75.1256 23.3131 80.0771 25.6995C85.0286 28.0859 89.4616 31.4242 93.123 35.5238C96.7843 39.6234 99.6024 44.404 101.416 49.5927C103.23 54.7814 104.004 60.2765 103.694 65.7643L122.807 66.8436Z" fill="#2496EF"/>
<circle cx="64.5575" cy="12.0663" r="9.59255" transform="rotate(3.23187 64.5575 12.0663)" fill="#2496EF"/>
<circle cx="113.216" cy="66.5483" r="9.59255" transform="rotate(3.23187 113.216 66.5483)" fill="#2496EF"/>
</g>
<defs>
<clipPath id="clip0_1544_7770">
<rect width="125" height="125" fill="white" transform="translate(0 0.5)"/>
</clipPath>
</defs>
</svg>
