<svg width="30" height="30" viewBox="0 0 30 30" fill="none" xmlns="http://www.w3.org/2000/svg">
<rect width="30" height="30" rx="15" fill="#FACC15"/>
<path d="M13.2857 16.908L12.4307 8.7H17.5607L16.7057 16.908H13.2857ZM14.9957 22.19C14.261 22.19 13.6594 21.9683 13.1907 21.525C12.722 21.069 12.4877 20.5307 12.4877 19.91C12.4877 19.2767 12.722 18.7447 13.1907 18.314C13.6594 17.8833 14.261 17.668 14.9957 17.668C15.743 17.668 16.3447 17.8833 16.8007 18.314C17.2694 18.7447 17.5037 19.2767 17.5037 19.91C17.5037 20.5307 17.2694 21.069 16.8007 21.525C16.3447 21.9683 15.743 22.19 14.9957 22.19Z" fill="white"/>
</svg>
