<svg width="24" height="24" viewBox="0 0 24 24" fill="none" xmlns="http://www.w3.org/2000/svg">
<path d="M6.31091 2.41992H17.2857V7.90732C17.2857 10.9325 14.8235 13.3947 11.7983 13.3947C8.7731 13.3947 6.31091 10.9325 6.31091 7.90732V2.41992Z" stroke="white" stroke-width="1.5" stroke-miterlimit="10" stroke-linejoin="round"/>
<path d="M17.2857 4.74756V7.90722C17.2857 9.18453 16.8487 10.3526 16.1176 11.2854H17.8487C19.6891 11.2854 21.1765 9.79798 21.1765 7.95764V4.74756H17.2857Z" stroke="white" stroke-width="1.5" stroke-miterlimit="10" stroke-linejoin="round"/>
<path d="M6.31092 7.90722V4.74756H2.42017V7.95764C2.42017 9.79798 3.90756 11.2854 5.7479 11.2854H7.47899C6.7479 10.3526 6.31092 9.18453 6.31092 7.90722Z" stroke="white" stroke-width="1.5" stroke-miterlimit="10" stroke-linejoin="round"/>
<path d="M9.92436 17.4199H13.6723C14.9328 17.4199 15.958 18.4451 15.958 19.7056V21.5796H7.63864V19.7056C7.63864 18.4451 8.66385 17.4199 9.92436 17.4199Z" stroke="white" stroke-width="1.5" stroke-miterlimit="10" stroke-linejoin="round"/>
<path d="M11.7983 13.3945V17.4197" stroke="white" stroke-width="1.5" stroke-miterlimit="10" stroke-linejoin="round"/>
</svg>
