<svg width="20" height="21" viewBox="0 0 20 21" fill="none" xmlns="http://www.w3.org/2000/svg">
<path d="M18.725 16.1834L17.8917 12.9667L15.2667 3.30838C15.2099 3.09533 15.0711 2.91344 14.8805 2.80255C14.69 2.69165 14.4633 2.66079 14.25 2.71671L11.025 3.55005C10.948 3.46475 10.8543 3.39629 10.7496 3.34896C10.6449 3.30164 10.5315 3.27647 10.4167 3.27505H2.08333C1.86232 3.27505 1.65036 3.36284 1.49408 3.51912C1.3378 3.6754 1.25 3.88736 1.25 4.10838V17.4417C1.25 17.6627 1.3378 17.8747 1.49408 18.031C1.65036 18.1872 1.86232 18.275 2.08333 18.275H10.4167C10.6377 18.275 10.8496 18.1872 11.0059 18.031C11.1622 17.8747 11.25 17.6627 11.25 17.4417V10.775L13.0833 17.625C13.1322 17.8068 13.2411 17.9668 13.3924 18.0787C13.5438 18.1907 13.7285 18.2482 13.9167 18.2417C13.9887 18.2499 14.0613 18.2499 14.1333 18.2417L18.1583 17.1667C18.2647 17.1383 18.3645 17.089 18.4517 17.0218C18.539 16.9545 18.612 16.8707 18.6667 16.775C18.7546 16.5907 18.7752 16.3814 18.725 16.1834ZM5.39167 16.6417H2.89167V14.975H5.39167V16.6417ZM5.39167 13.3084H2.89167V8.30838H5.39167V13.3084ZM5.39167 6.64171H2.89167V4.97505H5.39167V6.64171ZM9.55833 16.6417H7.05833V14.975H9.55833V16.6417ZM9.55833 13.3084H7.05833V8.30838H9.55833V13.3084ZM9.55833 6.64171H7.05833V4.97505H9.55833V6.64171ZM11.4333 5.19171L13.85 4.54171L14.2833 6.15005L11.8667 6.80005L11.4333 5.19171ZM13.5917 13.2417L12.3 8.40838L14.7167 7.75838L16.0083 12.5917L13.5917 13.2417ZM14.425 16.4584L13.9917 14.85L16.4083 14.2L16.8417 15.8084L14.425 16.4584Z" fill="#065F46"/>
</svg>

