<svg width="25" height="24" viewBox="0 0 25 24" fill="none" xmlns="http://www.w3.org/2000/svg">
<path d="M12.5 12L21.5 3" stroke="white" stroke-width="1.5" stroke-linecap="round" stroke-linejoin="round"/>
<path d="M15.682 8.81824C14.9731 8.10974 14.0479 7.65825 13.0532 7.5354C12.0585 7.41254 11.0513 7.62537 10.1913 8.1401C9.33133 8.65484 8.66787 9.442 8.30618 10.3767C7.94449 11.3114 7.90528 12.3401 8.19478 13.2997C8.48428 14.2592 9.0859 15.0946 9.9042 15.6733C10.7225 16.252 11.7106 16.5408 12.7118 16.4941C13.7129 16.4473 14.6698 16.0675 15.4306 15.415C16.1913 14.7625 16.7124 13.8747 16.9112 12.8923" stroke="white" stroke-width="1.5" stroke-linecap="round" stroke-linejoin="round"/>
<path d="M18.864 5.63618C17.2944 4.06893 15.201 3.13701 12.986 3.01948C10.771 2.90195 8.59078 3.60711 6.86415 4.99946C5.13752 6.3918 3.98634 8.37311 3.63181 10.5627C3.27728 12.7522 3.7444 14.9956 4.94343 16.8617C6.14246 18.7277 7.9888 20.0849 10.1277 20.6723C12.2665 21.2598 14.5471 21.0361 16.531 20.0442C18.515 19.0523 20.0624 17.3623 20.876 15.2988C21.6896 13.2353 21.7119 10.944 20.9386 8.86502" stroke="white" stroke-width="1.5" stroke-linecap="round" stroke-linejoin="round"/>
</svg>
