<svg width="20" height="21" viewBox="0 0 20 21" fill="none" xmlns="http://www.w3.org/2000/svg">
<path d="M11.875 9.25H15" stroke="white" stroke-width="1.5" stroke-linecap="round" stroke-linejoin="round"/>
<path d="M11.875 11.75H15" stroke="white" stroke-width="1.5" stroke-linecap="round" stroke-linejoin="round"/>
<path d="M7.19531 11.75C8.23085 11.75 9.07031 10.9105 9.07031 9.875C9.07031 8.83947 8.23085 8 7.19531 8C6.15978 8 5.32031 8.83947 5.32031 9.875C5.32031 10.9105 6.15978 11.75 7.19531 11.75Z" stroke="white" stroke-width="1.5" stroke-linecap="round" stroke-linejoin="round"/>
<path d="M4.77441 13.625C4.91313 13.0883 5.2262 12.613 5.66445 12.2736C6.10269 11.9342 6.64127 11.75 7.19556 11.75C7.74985 11.75 8.28844 11.9341 8.7267 12.2735C9.16497 12.6128 9.47808 13.0882 9.61683 13.6248" stroke="white" stroke-width="1.5" stroke-linecap="round" stroke-linejoin="round"/>
<path d="M16.875 4.25H3.125C2.77982 4.25 2.5 4.52982 2.5 4.875V16.125C2.5 16.4702 2.77982 16.75 3.125 16.75H16.875C17.2202 16.75 17.5 16.4702 17.5 16.125V4.875C17.5 4.52982 17.2202 4.25 16.875 4.25Z" stroke="white" stroke-width="1.5" stroke-linecap="round" stroke-linejoin="round"/>
</svg>

