<svg width="25" height="24" viewBox="0 0 25 24" fill="none" xmlns="http://www.w3.org/2000/svg">
<path d="M8.75 15C11.4424 15 13.625 12.8174 13.625 10.125C13.625 7.43261 11.4424 5.25 8.75 5.25C6.05761 5.25 3.875 7.43261 3.875 10.125C3.875 12.8174 6.05761 15 8.75 15Z" stroke="white" stroke-width="1.5" stroke-linecap="round" stroke-linejoin="round"/>
<path d="M15.0699 5.43173C15.7404 5.24281 16.4437 5.19978 17.1322 5.30552C17.8208 5.41126 18.4787 5.66333 19.0616 6.04475C19.6445 6.42616 20.1389 6.92807 20.5116 7.51666C20.8842 8.10525 21.1264 8.76685 21.2218 9.45692C21.3171 10.147 21.2636 10.8495 21.0646 11.5171C20.8656 12.1847 20.5259 12.8019 20.0683 13.3272C19.6107 13.8524 19.0459 14.2735 18.4119 14.5621C17.7778 14.8507 17.0893 15.0001 16.3927 15.0001" stroke="white" stroke-width="1.5" stroke-linecap="round" stroke-linejoin="round"/>
<path d="M2 18.5059C2.76133 17.4229 3.77206 16.539 4.94687 15.9288C6.12167 15.3186 7.42604 15.0001 8.74987 15C10.0737 14.9999 11.3781 15.3184 12.5529 15.9285C13.7278 16.5386 14.7386 17.4225 15.5 18.5054" stroke="white" stroke-width="1.5" stroke-linecap="round" stroke-linejoin="round"/>
<path d="M16.3927 15C17.7167 14.999 19.0214 15.3171 20.1964 15.9273C21.3713 16.5375 22.382 17.4218 23.1427 18.5054" stroke="white" stroke-width="1.5" stroke-linecap="round" stroke-linejoin="round"/>
</svg>
