<svg width="25" height="24" viewBox="0 0 25 24" fill="none" xmlns="http://www.w3.org/2000/svg">
<path d="M6.5 20.25C6.40151 20.25 6.30398 20.2306 6.21299 20.1929C6.12199 20.1552 6.03931 20.1 5.96967 20.0304C5.90002 19.9607 5.84478 19.878 5.80709 19.787C5.7694 19.696 5.75 19.5985 5.75 19.5L5.75005 15.4974C5.34995 15.6869 4.90842 15.7721 4.46653 15.7451C4.02464 15.7182 3.59675 15.5799 3.22267 15.3431C2.84858 15.1064 2.54044 14.7789 2.32692 14.3911C2.1134 14.0033 2.00143 13.5677 2.00143 13.125C2.00143 12.6823 2.1134 12.2468 2.32692 11.859C2.54044 11.4712 2.84858 11.1436 3.22267 10.9069C3.59675 10.6702 4.02464 10.5319 4.46653 10.5049C4.90842 10.4779 5.34995 10.5632 5.75005 10.7527L5.75 6.75003C5.75 6.65154 5.7694 6.55401 5.80709 6.46301C5.84478 6.37202 5.90003 6.28934 5.96967 6.21969C6.03932 6.15005 6.122 6.0948 6.213 6.05711C6.30399 6.01942 6.40152 6.00002 6.50001 6.00002L10.8776 6.00007C10.6881 5.59997 10.6029 5.15844 10.6299 4.71656C10.6568 4.27467 10.7951 3.84678 11.0319 3.47269C11.2686 3.09861 11.5961 2.79047 11.9839 2.57695C12.3718 2.36343 12.8073 2.25146 13.25 2.25146C13.6927 2.25146 14.1282 2.36343 14.516 2.57695C14.9038 2.79047 15.2314 3.09861 15.4681 3.47269C15.7048 3.84678 15.8431 4.27467 15.8701 4.71656C15.8971 5.15844 15.8118 5.59997 15.6223 6.00007L20 6.00002C20.1989 6.00002 20.3896 6.07904 20.5303 6.21969C20.6709 6.36034 20.75 6.5511 20.75 6.75001L20.75 10.7527C20.3499 10.5632 19.9084 10.4779 19.4665 10.5049C19.0246 10.5319 18.5967 10.6702 18.2226 10.9069C17.8485 11.1436 17.5404 11.4712 17.3269 11.859C17.1134 12.2468 17.0014 12.6823 17.0014 13.125C17.0014 13.5677 17.1134 14.0032 17.3269 14.3911C17.5404 14.7789 17.8485 15.1064 18.2226 15.3431C18.5967 15.5799 19.0246 15.7182 19.4665 15.7451C19.9084 15.7721 20.3499 15.6869 20.75 15.4974L20.75 19.5C20.75 19.6989 20.6709 19.8897 20.5303 20.0304C20.3896 20.171 20.1989 20.25 20 20.25L6.5 20.25Z" stroke="white" stroke-width="1.5" stroke-linecap="round" stroke-linejoin="round"/>
</svg>
