<svg width="35" height="35" viewBox="0 0 35 35" fill="none" xmlns="http://www.w3.org/2000/svg">
<rect width="35" height="35" rx="17.5" fill="#14B8A6"/>
<g clip-path="url(#clip0_529_5646)">
<path d="M20.1726 27.8684C17.9834 28.1834 17.4111 28.0586 16.039 27.8559C16.0202 28.0508 16.0187 28.2489 15.9797 28.4391C15.7941 29.3591 15.0348 29.9734 14.0992 29.9719C13.6236 29.9719 13.148 29.9719 12.6725 29.9688C11.74 29.9625 10.8154 29.0815 10.7717 28.1475C10.7545 27.7624 10.7436 27.3741 10.7701 26.9905C10.7857 26.7675 10.6922 26.6584 10.53 26.5414C8.77269 25.2691 7.6656 23.5476 7.10114 21.4738C6.94053 20.8828 6.88596 20.2638 6.78148 19.6416C6.68013 19.6619 6.5398 19.6946 6.3979 19.7165C5.05068 19.9254 3.82508 18.6795 4.06209 17.3354C4.08548 17.2013 4.13694 17.0501 4.22426 16.9534C4.32717 16.8396 4.32405 16.7476 4.29443 16.6135C4.1385 15.89 4.55795 15.1961 5.24091 15.0308C5.93479 14.8624 6.61152 15.2663 6.81111 15.9648C7.06216 16.8521 6.37919 17.7486 5.46077 17.7362C5.41087 17.7362 5.35942 17.7362 5.30952 17.7362C5.33915 18.2788 5.85215 18.6156 6.38387 18.4534C6.43844 18.4363 6.49146 18.4098 6.54447 18.3864C6.73938 18.3038 6.83762 18.1852 6.87348 17.9498C7.21652 15.7044 8.34857 13.8988 10.0186 12.4034C10.6735 11.8171 11.3923 11.3228 12.1828 10.9377C12.306 10.8769 12.3466 10.802 12.3403 10.6695C12.3294 10.445 12.3247 10.2189 12.3372 9.99433C12.3435 9.87114 12.3013 9.83996 12.1906 9.8306C11.3003 9.75576 10.4115 9.66999 9.52115 9.59983C8.85533 9.54837 8.1864 9.51874 7.52059 9.47353C7.04033 9.44078 6.7581 9.16635 6.75965 8.7469C6.75965 8.43036 6.93585 8.19491 7.28201 8.09044C8.38755 7.75519 9.49152 7.41683 10.6017 7.09874C13.0249 6.40329 15.4495 5.71721 17.8773 5.03892C18.052 4.99058 18.2641 4.98591 18.4387 5.03424C20.3972 5.57843 22.3525 6.13354 24.3063 6.69488C25.8406 7.13616 27.3718 7.59147 28.9062 8.03898C29.1213 8.10135 29.3537 8.1263 29.5501 8.22298C30.0257 8.45687 30.2893 8.85761 30.3064 9.39088C30.3267 10.0068 30.3251 10.6258 30.3236 11.2418C30.3236 11.3883 30.3501 11.4866 30.4935 11.5661C30.8007 11.7345 30.9426 12.0198 30.9488 12.3629C30.9566 12.8572 30.9597 13.353 30.9457 13.8473C30.927 14.4757 30.4405 14.8952 29.8527 14.8094C29.4644 14.7533 29.126 14.4102 29.1104 13.9892C29.087 13.3982 29.0917 12.8057 29.112 12.2163C29.1229 11.9154 29.3085 11.6986 29.5673 11.5396C29.6281 11.5022 29.692 11.4086 29.6936 11.3415C29.7045 10.7178 29.7014 10.0957 29.6998 9.47197C29.6998 9.26458 29.6702 9.06343 29.4737 8.91218C29.4316 9.00106 29.4051 9.08682 29.3584 9.15855C29.2055 9.38776 28.9732 9.45949 28.7113 9.48132C27.1676 9.60918 25.6254 9.74172 24.0817 9.86646C23.9461 9.87738 23.9087 9.92728 23.9118 10.0551C23.9196 10.3483 23.9133 10.6414 23.9133 10.9814C24.0131 10.9143 24.0771 10.8706 24.1441 10.8285C24.4638 10.6274 24.7694 10.3966 25.1077 10.2345C25.7252 9.93819 26.3115 10.3265 26.3162 11.0125C26.3193 11.7127 26.3115 12.4143 26.3178 13.1145C26.3178 13.1877 26.3739 13.2797 26.4331 13.3296C27.2299 14.0142 27.902 14.8063 28.4353 15.7091C28.6239 16.0288 28.783 16.3671 28.9389 16.7055C28.995 16.8271 29.0605 16.8614 29.1853 16.8583C29.4426 16.8489 29.6998 16.8552 29.9571 16.8583C30.5995 16.8645 30.9691 17.2154 30.9722 17.8609C30.9785 19.1208 30.9722 20.3807 30.9613 21.6422C30.9582 22.1115 30.5559 22.4951 30.0538 22.5185C29.7388 22.5325 29.4238 22.5356 29.1089 22.5216C28.9389 22.5138 28.8578 22.5762 28.7939 22.7274C28.4805 23.4712 28.0751 24.162 27.5777 24.7982C27.0724 25.4453 26.5002 26.0284 25.8141 26.4822C25.5615 26.6506 25.4555 26.8377 25.4695 27.1449C25.4882 27.5534 25.4913 27.9713 25.4336 28.3752C25.3011 29.2811 24.47 29.9688 23.5547 29.9734C23.0589 29.975 22.5646 29.9734 22.0687 29.9734C21.1784 29.9719 20.3613 29.2655 20.2334 28.3861C20.2085 28.2161 20.196 28.0446 20.1773 27.8731L20.1726 27.8684ZM25.089 11.6721C25.0204 11.7142 24.9924 11.7282 24.969 11.747C24.2034 12.3582 23.6483 13.13 23.2849 14.0329C23.1353 14.4071 23.0495 14.8063 22.9279 15.1914C22.814 15.5501 22.5303 15.7341 22.2184 15.6608C21.8941 15.5844 21.6945 15.2631 21.7568 14.9014C21.7896 14.7049 21.8223 14.5069 21.88 14.3182C21.9907 13.9549 22.1202 13.5963 22.2449 13.2267C22.1794 13.2439 22.1124 13.2595 22.0469 13.2782C20.8041 13.6321 19.5411 13.8348 18.2469 13.8458C17.2521 13.8551 16.2713 13.7319 15.3014 13.5199C14.3768 13.3187 13.4661 13.0708 12.6335 12.6061C12.4963 12.5297 12.3856 12.405 12.2296 12.274C9.61314 13.9861 7.90729 16.2673 8.04295 19.5886C8.13494 21.8386 9.10482 23.6817 10.781 25.2005C10.9354 24.8231 11.1974 24.6516 11.4796 24.7046C11.7618 24.7576 11.9583 25.018 11.9708 25.3595C11.9723 25.411 11.9708 25.4624 11.9708 25.5139C11.9708 26.3044 11.9708 27.0966 11.9723 27.8871C11.9739 28.397 12.3528 28.779 12.858 28.7821C13.2182 28.7853 13.58 28.7603 13.9386 28.7853C14.4812 28.8227 14.8523 28.3362 14.8321 27.8715C14.8118 27.4037 14.8227 26.9328 14.8274 26.4635C14.8321 26.0472 15.1408 25.7805 15.5337 25.8444C15.7926 25.8865 15.9766 26.1033 16.0171 26.4432C16.0312 26.5617 16.0701 26.6101 16.1886 26.6241C16.5956 26.6755 17.001 26.7551 17.4096 26.7894C18.2921 26.8658 19.1684 26.7987 20.0338 26.6038C20.1445 26.5789 20.1929 26.5337 20.1944 26.4105C20.1976 26.1735 20.3067 25.991 20.5297 25.8912C20.9398 25.7072 21.367 25.9801 21.3811 26.4494C21.3967 26.9437 21.3857 27.4396 21.3904 27.9354C21.3951 28.4282 21.7335 28.7697 22.2278 28.7775C22.6129 28.7837 22.9996 28.7806 23.3847 28.7759C23.8977 28.7681 24.2377 28.4297 24.2423 27.9121C24.2486 27.2946 24.2439 26.6771 24.2455 26.0596C24.2455 25.8023 24.2392 25.5451 24.2517 25.2878C24.2657 24.979 24.4544 24.7639 24.732 24.7202C25.0173 24.675 25.2543 24.8122 25.3759 25.0944C25.3947 25.1381 25.4134 25.1818 25.4383 25.2394C25.5007 25.1849 25.549 25.1428 25.5974 25.1007C26.5922 24.2181 27.3219 23.1547 27.8006 21.9135C28.0283 21.3241 28.1515 21.2555 28.7783 21.2555C29.1042 21.2555 29.4301 21.2555 29.756 21.2555V18.1369C29.7326 18.1276 29.7217 18.1198 29.7092 18.1198C29.3755 18.1182 29.0403 18.1166 28.7066 18.1151C28.2887 18.1151 28.1312 18.0075 27.9737 17.6239C27.9394 17.5413 27.9051 17.4586 27.8739 17.3744C27.4669 16.2814 26.8261 15.3473 25.9498 14.5771C25.8858 14.5209 25.786 14.4835 25.6987 14.4773C25.443 14.457 25.2559 14.34 25.1514 14.1124C25.1046 14.0126 25.0922 13.8894 25.0906 13.7756C25.0859 13.0879 25.0875 12.4019 25.0875 11.6706L25.089 11.6721ZM10.1885 8.46935C10.1885 8.48182 10.1885 8.49585 10.187 8.50833C10.2228 8.51301 10.2571 8.5208 10.293 8.52392C11.252 8.6128 12.2125 8.69388 13.1714 8.79056C14.7011 8.94337 16.2074 9.22872 17.6902 9.62945C17.9927 9.71054 18.289 9.71833 18.6024 9.6544C19.9528 9.37529 21.3031 9.08838 22.6628 8.86073C23.5797 8.70792 24.5137 8.65178 25.4399 8.55511C25.6753 8.53016 25.9123 8.51768 26.1494 8.50053C26.1197 8.45843 26.0901 8.44596 26.0605 8.44284C25.3183 8.37735 24.5776 8.27288 23.8354 8.25416C22.3447 8.21518 20.8525 8.2183 19.3602 8.21206C19.2667 8.21206 19.1497 8.26196 19.0827 8.32745C18.6586 8.7469 17.9007 8.82798 17.4064 8.49585C16.9621 8.19647 16.8903 7.6133 17.2521 7.24687C17.7417 6.75257 18.7583 6.83366 19.1528 7.40591C19.2168 7.49791 19.2791 7.52754 19.3883 7.52598C20.2693 7.5213 21.1503 7.5213 22.0313 7.5213C22.2808 7.5213 22.5287 7.5213 22.7782 7.5213C22.7501 7.47764 22.7189 7.46361 22.6846 7.45425C21.4528 7.12057 20.2178 6.79312 18.9876 6.44851C18.4808 6.30662 18.0021 6.24737 17.4704 6.40797C15.7926 6.91318 14.0992 7.36693 12.4121 7.84251C11.6714 8.0499 10.9323 8.2604 10.1916 8.46935H10.1885ZM22.7065 10.0754C22.5692 10.091 22.4414 10.0972 22.3166 10.1237C21.1347 10.3654 19.9512 10.6009 18.7724 10.8582C18.3857 10.9424 18.0177 10.947 17.631 10.8597C16.5551 10.6149 15.4745 10.3841 14.3939 10.1596C14.1148 10.1019 13.8279 10.0832 13.5316 10.0458C13.5316 10.5619 13.5394 11.0437 13.5269 11.524C13.5238 11.6908 13.5722 11.7797 13.7328 11.8343C15.0441 12.2912 16.3929 12.5671 17.7791 12.6467C18.7802 12.7044 19.7656 12.5671 20.7433 12.3598C21.3592 12.2288 21.972 12.0947 22.5505 11.8343C22.6893 11.7719 22.7361 11.6986 22.7314 11.5474C22.7189 11.1045 22.7236 10.6601 22.7205 10.2173C22.7205 10.1752 22.7096 10.1315 22.7033 10.0754H22.7065ZM5.75548 16.3281C5.67283 16.2736 5.61046 16.205 5.58084 16.2174C5.52314 16.2408 5.4826 16.3094 5.43582 16.3593C5.48416 16.3967 5.53406 16.4638 5.5824 16.4607C5.63229 16.4591 5.67907 16.3905 5.75548 16.3281Z" fill="white"/>
<path d="M8.91147 17.7643C8.91926 17.7066 8.92082 17.6489 8.93642 17.5943C9.27322 16.4093 9.83301 15.3474 10.6937 14.4555C10.8886 14.2528 11.1334 14.2434 11.3034 14.4227C11.4734 14.602 11.4703 14.8016 11.2894 15.0043C10.7748 15.5844 10.3382 16.2159 10.0513 16.9379C9.92656 17.2528 9.8408 17.5818 9.72386 17.8999C9.60535 18.2196 9.29973 18.3241 9.07207 18.1182C8.98164 18.0356 8.94109 17.8999 8.87872 17.7877C8.88964 17.7799 8.90055 17.7721 8.91303 17.7643H8.91147Z" fill="white"/>
<path d="M26.2398 19.0944C25.7767 19.0944 25.3651 18.6765 25.3697 18.215C25.3744 17.7238 25.7705 17.334 26.257 17.3387C26.7357 17.3433 27.1177 17.73 27.1224 18.215C27.127 18.6984 26.7263 19.0975 26.2382 19.096L26.2398 19.0944Z" fill="white"/>
<path d="M9.53053 19.2548C9.53521 19.4637 9.33874 19.6602 9.12511 19.6602C8.90682 19.6602 8.7119 19.47 8.70099 19.2439C8.69007 19.0412 8.88966 18.8463 9.10952 18.8416C9.33094 18.8385 9.52585 19.0287 9.53053 19.2532V19.2548Z" fill="white"/>
<path d="M17.0977 23.7769C16.591 23.6117 16.1622 23.278 15.8768 22.8336C15.5182 22.2738 15.9376 21.5394 16.6019 21.5394H16.7048C16.9792 21.5394 17.2225 21.6828 17.3909 21.898C17.5265 22.0726 17.7604 22.1615 18.0083 22.0882C18.1783 22.0383 18.3171 21.9074 18.3748 21.7405C18.5089 21.3523 18.2064 20.9765 17.8321 20.9765C16.5426 20.9765 15.5135 19.9489 15.5135 18.6578C15.5135 17.6302 16.1684 16.7524 17.0962 16.4514V15.9634C17.0962 15.5299 17.4486 15.1775 17.882 15.1775C18.3155 15.1775 18.6679 15.5299 18.6679 15.9634V16.4826C19.1076 16.651 19.4834 16.952 19.7485 17.3355C20.1321 17.8906 19.7204 18.65 19.0453 18.65H18.9626C18.6929 18.65 18.4496 18.5128 18.2828 18.2992C18.1409 18.1183 17.8945 18.0201 17.6419 18.1074C17.4751 18.1651 17.3425 18.3039 17.2926 18.4738C17.1757 18.8621 17.461 19.2145 17.8306 19.2145C18.5666 19.2145 19.2308 19.5669 19.6549 20.1111C19.9777 20.5149 20.1586 21.0186 20.1586 21.5721C20.1586 22.5701 19.5333 23.4058 18.6664 23.7395V24.1481C18.6664 24.5815 18.314 24.9339 17.8805 24.9339C17.447 24.9339 17.0946 24.5815 17.0946 24.1481V23.7801L17.0977 23.7769Z" fill="white"/>
</g>
<defs>
<clipPath id="clip0_529_5646">
<rect width="26.9413" height="25" fill="white" transform="translate(4.02936 5)"/>
</clipPath>
</defs>
</svg>
