<svg width="35" height="35" viewBox="0 0 35 35" fill="none" xmlns="http://www.w3.org/2000/svg">
<rect width="35" height="35" rx="17.5" fill="#16A34A"/>
<g clip-path="url(#clip0_529_5657)">
<path d="M24.8594 15.6791C24.5925 15.5398 24.3919 15.4437 24.0886 15.6011C22.0579 16.6538 20.0106 17.6749 17.9733 18.7177C17.6367 18.8901 17.3384 18.8818 17.0052 18.7094C14.4805 17.4064 11.9491 16.1134 9.42111 14.817C9.16582 14.6861 8.90556 14.5634 8.65359 14.4291C8.34028 14.2617 8.21761 13.9053 8.36183 13.6119C8.50936 13.3118 8.8492 13.2074 9.18571 13.3782C10.6975 14.144 12.2061 14.9132 13.7129 15.6857C14.8435 16.2659 15.9757 16.8444 17.098 17.4396C17.3765 17.5871 17.6169 17.5887 17.8887 17.4462C18.7739 16.987 19.6625 16.5361 20.551 16.0835C21.2075 15.7487 21.8672 15.4171 22.5237 15.0823C22.6198 15.0342 22.7143 14.9828 22.8536 14.9099C22.4425 14.7425 22.0761 14.5883 21.7048 14.4457C20.7234 14.0678 19.7371 13.6997 18.7557 13.3185C18.6032 13.2588 18.4888 13.2671 18.3429 13.3533C17.7064 13.7312 17.0632 13.7296 16.4581 13.2903C15.9724 12.9372 15.7801 12.4333 15.9094 11.8448C16.047 11.2198 16.4382 10.8004 17.0615 10.633C18.0711 10.3611 19.0557 11.0176 19.1983 12.052C19.2165 12.1863 19.2779 12.2343 19.3873 12.2774C20.9024 12.8659 22.4176 13.4577 23.9311 14.0479C24.8478 14.4059 25.7645 14.759 26.6796 15.1204C27.5018 15.4453 27.7902 15.8763 27.7919 16.7615C27.7919 18.1839 27.7969 19.6062 27.7902 21.0268C27.7902 21.2042 27.8416 21.3037 27.9908 21.4048C28.7766 21.9303 29.0269 22.8404 28.6125 23.6261C28.5561 23.7339 28.4799 23.8317 28.4053 23.9461C28.508 24.0605 28.6224 24.1765 28.7235 24.3008C29.0153 24.6606 29.1479 25.0733 29.1446 25.5342C29.1396 26.5603 29.1446 27.5848 29.138 28.6109C29.133 29.4215 28.5743 30.0001 27.8068 30.0017C27.5432 30.0017 27.4007 29.9454 27.0327 29.7C26.8221 29.7962 26.6332 29.9221 26.4276 29.9686C25.6568 30.1426 24.9373 29.5127 24.934 28.6673C24.9307 27.8467 24.944 27.0261 24.9489 26.2072C24.9489 26.1061 24.9489 26.005 24.9489 25.869C24.876 25.9088 24.8246 25.932 24.7782 25.9652C23.0575 27.1753 21.1146 27.7704 19.0475 28.0075C16.856 28.2578 14.7208 27.976 12.657 27.2151C11.4816 26.7824 10.3992 26.1823 9.53217 25.2408C8.67348 24.3091 8.206 23.225 8.19771 21.9601C8.18279 19.9029 8.18611 17.8457 8.19274 15.7868C8.1944 15.2033 8.69503 14.9298 9.23544 15.2033C10.1372 15.6608 11.0357 16.1233 11.9342 16.5875C13.5903 17.4445 15.2447 18.3049 16.8991 19.1652C16.9786 19.2067 17.0615 19.2382 17.1378 19.2829C17.3715 19.4205 17.6019 19.4106 17.839 19.2879C18.4706 18.9647 19.1071 18.648 19.7387 18.3231C21.3484 17.4959 22.958 16.6671 24.566 15.8382C24.6555 15.7918 24.7417 15.7421 24.8544 15.6807L24.8594 15.6791ZM9.43437 16.6405C9.42608 16.6886 9.41613 16.7135 9.41613 16.7383C9.41613 18.5569 9.40287 20.3754 9.4294 22.1939C9.441 22.9813 9.75431 23.6792 10.2583 24.2909C10.8202 24.9739 11.548 25.4314 12.3354 25.7911C14.3097 26.6946 16.3935 27.0195 18.5501 26.867C20.0752 26.7592 21.5423 26.3879 22.9282 25.7248C23.8913 25.264 24.7517 24.6722 25.3352 23.7505C25.3783 23.6842 25.3982 23.5681 25.3716 23.4985C25.1479 22.9233 25.2307 22.3878 25.5374 21.869C25.5888 21.7811 25.6269 21.67 25.6269 21.5689C25.6336 19.9891 25.6352 18.411 25.6352 16.8312C25.6352 16.7715 25.6302 16.7118 25.6253 16.6173C25.3915 16.7367 25.1793 16.8411 24.9705 16.9489C22.6745 18.1325 20.3786 19.3144 18.0876 20.503C17.7163 20.6953 17.3582 20.7102 16.9902 20.5295C16.672 20.3721 16.3553 20.2113 16.0404 20.0471C14.4291 19.2083 12.8194 18.3646 11.2048 17.5274C10.6246 17.2274 10.0361 16.9422 9.43768 16.6422L9.43437 16.6405ZM26.0961 26.9615C26.0961 26.9615 26.0944 26.9615 26.0927 26.9615C26.0927 27.4405 26.0927 27.918 26.0927 28.397C26.0927 28.465 26.0927 28.5346 26.1027 28.6009C26.1375 28.7966 26.2552 28.8413 26.4011 28.7104C26.5171 28.6059 26.6232 28.4882 26.7359 28.3772C26.9067 28.2081 27.0957 28.1998 27.2764 28.3622C27.3891 28.4617 27.4836 28.5827 27.6029 28.6739C27.6759 28.7302 27.7869 28.785 27.8648 28.7667C27.9146 28.7551 27.9643 28.6126 27.966 28.5297C27.9709 27.5384 27.9709 26.547 27.9627 25.5557C27.9577 24.9871 27.525 24.5594 26.978 24.5611C26.4724 24.5628 26.1044 24.9706 26.0977 25.5458C26.0927 26.0166 26.0977 26.489 26.0977 26.9615H26.0961ZM27.0178 23.3825C27.3559 23.3858 27.6013 23.1653 27.6013 22.8603C27.6013 22.5602 27.3327 22.3 27.0161 22.2933C26.721 22.2867 26.4525 22.5536 26.4525 22.8553C26.4525 23.1421 26.7061 23.3791 27.0178 23.3825ZM17.8406 12.052C17.8406 11.8962 17.6765 11.7602 17.4859 11.7586C17.3002 11.7586 17.1427 11.8912 17.1361 12.0586C17.1295 12.2144 17.277 12.3437 17.4643 12.3471C17.66 12.3504 17.839 12.2095 17.839 12.0503L17.8406 12.052Z" fill="white"/>
<path d="M29.7778 12.4249C29.2291 12.1498 28.7368 11.9028 28.2444 11.6541C25.602 10.3097 22.9596 8.9653 20.3172 7.61923C19.5016 7.2048 18.6827 6.79369 17.8738 6.36766C17.587 6.2168 17.3317 6.2168 17.0416 6.36434C14.4274 7.70212 11.8082 9.0316 9.19066 10.3644C7.91256 11.0159 6.63446 11.6674 5.35636 12.3189C5.30829 12.3437 5.26187 12.3719 5.1823 12.4167C5.25524 12.4631 5.30663 12.5012 5.36133 12.531C6.01282 12.8758 6.66596 13.219 7.31744 13.5655C7.44342 13.6318 7.57273 13.6997 7.68545 13.7876C7.9109 13.9666 7.96395 14.333 7.81475 14.57C7.6639 14.8104 7.34562 14.9115 7.07541 14.7723C6.13549 14.2849 5.19722 13.7942 4.26724 13.2903C3.92078 13.1013 3.73512 12.788 3.75169 12.3785C3.76993 11.9707 3.98046 11.6922 4.34018 11.5115C6.8251 10.2533 9.31167 8.99679 11.7949 7.73361C13.4327 6.90144 15.0706 6.06927 16.6968 5.21554C17.2289 4.93539 17.7113 4.92379 18.2484 5.2056C20.1167 6.18696 21.9948 7.1501 23.8764 8.1066C26.0446 9.20898 28.2196 10.2948 30.3895 11.3922C30.5951 11.4966 30.8122 11.6077 30.9697 11.7685C31.4123 12.221 31.3112 12.9057 30.7559 13.2389C30.4177 13.4428 30.053 13.6036 29.6999 13.7843C29.0252 14.1291 28.3489 14.4739 27.6725 14.8154C27.452 14.9264 27.2216 14.9463 27.0128 14.7922C26.8221 14.6513 26.7492 14.4474 26.7807 14.212C26.8171 13.9401 27.0194 13.8075 27.2349 13.6981C27.6974 13.4627 28.1649 13.2356 28.629 13.0035C28.9937 12.8211 29.3584 12.6371 29.7778 12.4249Z" fill="white"/>
</g>
<defs>
<clipPath id="clip0_529_5657">
<rect width="27.4965" height="25" fill="white" transform="translate(3.75171 5)"/>
</clipPath>
</defs>
</svg>
