<svg width="35" height="35" viewBox="0 0 35 35" fill="none" xmlns="http://www.w3.org/2000/svg">
<rect width="35" height="35" rx="17.5" fill="#1D4ED8"/>
<path d="M29.139 17.4823C28.9878 15.4947 28.3212 13.6137 27.1561 11.8916C24.9479 8.62632 21.9867 6.71749 18.3526 6.21752C18.3526 6.16197 18.3526 6.10641 18.3496 6.05086V5.97216C18.3403 5.40893 17.9931 5.00772 17.5055 5H17.4931C17.0086 5 16.6614 5.39812 16.649 5.96908C16.6475 6.0524 16.646 6.13419 16.646 6.21597C15.1584 6.39652 13.7279 6.86717 12.39 7.61558C10.33 8.76674 8.65416 10.4333 7.40578 12.5705C6.73453 13.7201 6.30554 14.7988 6.09259 15.8697C6.00618 16.3018 5.95834 16.7369 5.91205 17.1597C5.89661 17.3048 5.87964 17.4452 5.86267 17.5841C5.81329 17.9884 6.03241 18.3263 6.41819 18.4482C6.49843 18.4729 6.58176 18.4868 6.66509 18.4868C6.97525 18.4868 7.25764 18.3078 7.40115 18.0193C7.45516 17.9112 7.47522 17.8063 7.48911 17.7307C7.49374 17.7091 7.49682 17.6906 7.50145 17.6736C7.51997 17.6042 7.53077 17.5363 7.54158 17.4776C7.55083 17.4252 7.56472 17.348 7.57552 17.3202C7.73446 17.0949 7.92272 16.8419 8.14185 16.6675C8.56003 16.3357 9.10166 16.1536 9.66799 16.1536C10.2112 16.1536 10.7451 16.3141 11.2111 16.6166C11.7929 16.9946 12.1647 17.4529 12.3453 18.0162C12.4857 18.4498 12.8082 18.709 13.211 18.709C13.2264 18.709 13.2434 18.709 13.2588 18.709C13.8622 18.6782 14.0473 18.1412 14.1091 17.9652C14.1878 17.7369 14.285 17.4761 14.4254 17.2801C14.9238 16.5826 15.6198 16.1891 16.6537 16.0256V17.2045V17.2446C16.6552 18.8618 16.6568 20.4805 16.6568 22.0977C16.6568 22.9032 16.6537 23.7072 16.6521 24.5127C16.649 25.5635 16.6475 26.6468 16.6475 27.7116C16.6475 28.6112 17.058 29.3257 17.8002 29.7269C18.1366 29.909 18.49 30 18.848 30C19.4282 30 19.9961 29.75 20.405 29.3118C20.7892 28.9028 20.9898 28.3797 20.959 27.8767C20.9497 27.7285 20.9512 27.5758 20.9543 27.4153C20.9559 27.3057 20.9574 27.1931 20.9543 27.0773C20.9451 26.5681 20.584 26.1931 20.0948 26.1854H20.0825C19.6118 26.1854 19.2384 26.5835 19.2338 27.0928C19.2322 27.2502 19.2322 27.4076 19.2322 27.5634V27.5727C19.2322 27.6992 19.2322 27.8258 19.2322 27.9538C19.2322 28.122 19.152 28.2254 18.9899 28.2733C18.9313 28.2902 18.8758 28.2979 18.8217 28.2979C18.544 28.2979 18.3496 28.0495 18.3496 27.6946C18.3496 23.8044 18.3496 19.9142 18.3496 16.024C18.436 16.0379 18.5193 16.0518 18.5995 16.0688C19.493 16.2555 20.1874 16.7138 20.6596 17.4298C20.7398 17.5502 20.8016 17.7075 20.8401 17.8804C20.9389 18.3341 21.2537 18.6596 21.641 18.709C21.675 18.7137 21.7089 18.7152 21.7444 18.7152C22.1256 18.7152 22.4712 18.4498 22.6055 18.0547C22.9172 17.1381 23.5745 16.5348 24.559 16.2617C24.8013 16.1938 25.0482 16.1598 25.2905 16.1598C26.1485 16.1598 26.9246 16.5872 27.3675 17.3033C27.3814 17.3249 27.4246 17.4082 27.4385 17.5779C27.4817 18.1211 27.8305 18.4868 28.3042 18.4868C28.3196 18.4868 28.3335 18.4868 28.3489 18.4868C28.5789 18.476 28.7856 18.3803 28.9276 18.2183C29.0896 18.0347 29.1622 17.7816 29.1406 17.4838L29.139 17.4823ZM14.7309 8.39022C13.2295 10.3886 12.4425 12.6832 12.336 15.362C11.4981 14.771 10.6185 14.4716 9.71428 14.4716C9.2174 14.4716 8.70663 14.5627 8.19123 14.7432C8.70817 13.4208 9.59392 12.0999 10.7358 10.9657C11.9302 9.77903 13.2958 8.90099 14.7309 8.39022ZM16.6552 10.674C16.6552 10.8469 16.6907 11.0922 16.8527 11.2789C16.9901 11.4379 17.2323 11.6076 17.4962 11.6076C17.5147 11.6076 17.5317 11.6076 17.5487 11.6061C17.8882 11.5768 18.1227 11.3005 18.186 11.2172C18.3233 11.0351 18.3418 10.8175 18.3434 10.6293C18.3434 9.98889 18.3434 9.35004 18.3434 8.70965C19.9652 10.5629 20.8247 12.7341 20.9543 15.3126C20.0084 14.6136 18.8896 14.2726 17.5548 14.2726C17.5286 14.2726 17.5008 14.2726 17.4746 14.2726C16.0735 14.2865 14.9346 14.6321 14.0149 15.3265C14.0628 14.0982 14.3097 12.9193 14.7634 11.7403C15.1815 10.6555 15.8034 9.65249 16.6583 8.68804C16.6568 9.34232 16.6537 10.0136 16.6568 10.6756L16.6552 10.674ZM26.758 14.7263C26.3043 14.5689 25.8306 14.4886 25.3399 14.4886C24.4016 14.4886 23.431 14.8034 22.6394 15.3512C22.5345 12.7217 21.7259 10.3808 20.226 8.37325C21.3308 8.78063 22.8308 9.57225 24.039 10.7558C25.2781 11.9702 26.1731 13.2742 26.7595 14.7263H26.758Z" fill="white"/>
</svg>
