<svg width="35" height="35" viewBox="0 0 35 35" fill="none" xmlns="http://www.w3.org/2000/svg">
<rect width="35" height="35" rx="17.5" fill="#0284C7"/>
<g clip-path="url(#clip0_530_5557)">
<path d="M27.955 11.2002C27.8358 11.0278 27.6587 10.9408 27.4299 10.9408C26.9837 10.9424 26.544 10.9457 26.1026 10.9457C26.0043 10.9457 25.9045 10.9457 25.8062 10.9457C25.8755 10.8345 25.898 10.6879 25.869 10.514C25.861 10.4688 25.8529 10.4254 25.8449 10.3819C25.7144 9.75847 25.7402 9.18824 25.9254 8.63734C26.1558 7.95435 26.3201 7.26331 26.4505 6.67697C26.5134 6.39346 26.5279 6.10029 26.5424 5.81679C26.5472 5.73786 26.5504 5.65893 26.5552 5.58C26.5713 5.3271 26.4425 5.12252 26.2089 5.03393C26.1525 5.01298 26.0945 5.00171 26.0398 5.00171C25.8271 5.00171 25.6854 5.16118 25.6387 5.21434L25.6274 5.22561C25.5759 5.2836 25.5227 5.3432 25.4728 5.40764C24.6545 6.44662 23.5768 7.19404 22.1738 7.69501C22.1061 7.71917 22.0449 7.73045 21.9869 7.73045C21.9225 7.73045 21.8581 7.71595 21.792 7.68695C21.5939 7.59997 21.3732 7.51298 21.0994 7.41472C19.9219 6.98947 18.7218 6.77201 17.533 6.77201C16.842 6.77201 16.1396 6.84449 15.4454 6.98947C14.7398 7.13605 14.023 7.36318 13.253 7.68534C13.1789 7.71595 13.1129 7.73206 13.0517 7.73206C12.9905 7.73206 12.9357 7.71756 12.8761 7.68856C12.7585 7.63219 12.6393 7.58225 12.5217 7.53393C12.4476 7.50332 12.3751 7.47271 12.3027 7.4405C11.6841 7.16666 11.0382 6.84288 10.5001 6.34353C10.2183 6.08257 9.94925 5.79262 9.68829 5.51395C9.59486 5.41408 9.50144 5.3126 9.4064 5.21434C9.31297 5.11608 9.18088 5.00171 8.99725 5.00171C8.94892 5.00171 8.89899 5.00976 8.84905 5.02587C8.70569 5.07259 8.5285 5.19501 8.48662 5.51234C8.47534 5.59933 8.47212 5.6702 8.47856 5.73463C8.48501 5.81356 8.49306 5.89088 8.4995 5.96981C8.51883 6.20016 8.53816 6.43856 8.57521 6.67375C8.6928 7.43244 8.94248 8.1702 9.16477 8.82097C9.31136 9.25268 9.34196 9.65538 9.25981 10.0533C9.22599 10.2159 9.18733 10.3996 9.15994 10.5848C9.139 10.7217 9.16477 10.8442 9.2276 10.9457C8.66542 10.9424 8.10807 10.9424 7.56522 10.9424C7.27044 10.9424 7.05459 11.0938 6.97244 11.3596C6.88707 11.6399 6.97727 11.8654 7.24145 12.0313C7.71181 12.3245 8.22888 12.6451 8.8716 13.0365C8.87805 13.0397 8.88127 13.0429 8.88449 13.0446C8.88449 13.0478 8.88449 13.0542 8.88449 13.0607C8.88127 13.1638 8.87321 13.2685 8.86677 13.3716C8.84744 13.676 8.8265 13.9885 8.87483 14.2962C9.11162 15.7717 9.89931 16.859 11.217 17.5259C11.7727 17.8078 12.409 17.956 13.0565 17.956C14.1213 17.956 15.1168 17.5661 15.8594 16.8574C16.5552 16.1937 16.9821 15.3335 17.1287 14.2978C17.1448 14.1866 17.1931 14.1158 17.301 14.0481C17.3478 14.0191 17.4025 14.0046 17.4637 14.0046C17.6635 14.0046 17.8729 14.1544 17.9116 14.3268L17.9373 14.4411C18.0179 14.7987 18.1 15.1692 18.2482 15.514C18.8958 17.0201 20.2972 17.956 21.9096 17.956C22.1738 17.956 22.4476 17.9318 22.7231 17.8835C23.8249 17.6902 24.7914 17.07 25.4422 16.139C26.0865 15.2176 26.3362 14.1141 26.1445 13.0317C26.1445 13.0284 26.1445 13.0268 26.1445 13.0236C26.1477 13.022 26.1509 13.0204 26.1541 13.0172C26.3523 12.9028 26.5391 12.7884 26.763 12.6515L26.9837 12.5162C27.2543 12.3503 27.533 12.1795 27.8052 12.004C27.947 11.9121 28.0372 11.7865 28.0662 11.6399C28.0952 11.4949 28.0581 11.3403 27.9631 11.2034L27.955 11.2002ZM9.24048 11.9524L9.19216 12.0507L9.02946 11.9524H9.24048ZM10.7128 11.5803C11.3104 10.9634 12.169 10.5752 12.9567 10.5671H12.984C14.4918 10.5671 16.1107 11.8767 16.1171 13.8258C16.1348 15.5091 14.8172 16.9041 13.1806 16.9379C13.1564 16.9379 13.1338 16.9379 13.1097 16.9379C11.3184 16.9379 9.88803 15.5381 9.8526 13.7533C9.83166 12.7143 10.3101 11.9975 10.7144 11.5803H10.7128ZM12.9985 9.56195C11.9869 9.56195 10.9979 9.95016 10.2344 10.6348C10.2344 10.6299 10.2376 10.6251 10.2392 10.6203C10.4422 9.79391 10.4019 9.01911 10.1168 8.24913C9.97502 7.86737 9.86226 7.46466 9.75273 7.07645C9.83166 7.15538 9.91381 7.23431 10.0008 7.3068C10.8255 7.99301 11.8226 8.40699 12.7021 8.77104C12.7956 8.8097 12.8954 8.82903 12.9985 8.82903C13.121 8.82903 13.2514 8.80164 13.3964 8.74527C13.477 8.71466 13.5559 8.68244 13.6348 8.65184C13.8619 8.56163 14.0987 8.46981 14.3323 8.38766C15.4228 8.0059 16.5021 7.81099 17.5395 7.81099C18.2192 7.81099 18.9006 7.89314 19.5643 8.05744C20.1941 8.21208 20.8465 8.43115 21.5568 8.72755C21.7099 8.79037 21.8597 8.82259 22.0063 8.82259C22.1529 8.82259 22.2978 8.79037 22.438 8.72755C22.5378 8.68244 22.6442 8.64056 22.7456 8.59868C22.8197 8.56807 22.8938 8.53908 22.9663 8.50686C23.5688 8.25074 24.3484 7.88347 25.0362 7.32452C25.1168 7.25847 25.1941 7.18921 25.2698 7.11994C25.2666 7.12961 25.265 7.13927 25.2617 7.14894C25.1377 7.56936 25.0088 8.00429 24.8703 8.42632C24.6802 8.99978 24.6287 9.54907 24.7125 10.1032C24.7205 10.158 24.7286 10.2143 24.7366 10.2691C24.7543 10.3931 24.7737 10.5204 24.7962 10.646C24.6706 10.5349 24.5417 10.4221 24.3983 10.3255C23.659 9.82613 22.831 9.56195 22.0014 9.56195C20.3085 9.56195 18.8104 10.6299 18.1838 12.2826C18.1 12.5033 18.0436 12.7353 17.9905 12.9592C17.9824 12.993 17.9744 13.0268 17.9663 13.0607C17.8085 12.9817 17.6506 12.9415 17.4911 12.9415C17.3478 12.9415 17.206 12.9737 17.0675 13.0397C16.8951 12.2069 16.5568 11.5239 16.0317 10.9521C15.2086 10.0549 14.1326 9.56195 12.9985 9.56195ZM21.3813 10.6428C21.6003 10.5961 21.821 10.5719 22.0337 10.5719C22.7102 10.5719 23.3561 10.8087 23.9521 11.2759C24.8961 12.0152 25.2956 12.993 25.1425 14.185C24.9412 15.7379 23.5913 16.9202 22.003 16.9331H21.9692C20.9576 16.9331 20.1425 16.54 19.5482 15.762C19.1454 15.2353 18.9135 14.5829 18.9119 13.974C18.9264 12.3181 19.9428 10.9473 21.3813 10.6412V10.6428ZM25.9496 11.954L25.8175 12.0362L25.774 11.954H25.9496Z" fill="white"/>
<path d="M13.8635 26.9572C13.841 26.8847 13.8007 26.8235 13.7669 26.7703C13.7572 26.7542 13.7459 26.7397 13.7379 26.7236C13.6171 26.5223 13.4946 26.3225 13.3722 26.1228C13.108 25.6927 12.8358 25.2497 12.5958 24.8003C12.0546 23.7935 11.7485 22.8464 11.6583 21.9089C11.61 21.3998 11.6035 20.8747 11.5955 20.3673L11.5906 20.0806C11.5842 19.6924 11.5858 19.2945 11.589 18.9111C11.589 18.692 11.5923 18.473 11.5906 18.2539C11.5906 17.9623 11.4102 17.7417 11.1444 17.703C11.1154 17.6982 11.0865 17.6965 11.0575 17.6965C10.8126 17.6965 10.6129 17.8496 10.5388 18.096C10.5066 18.204 10.5017 18.3135 10.5017 18.3973C10.5017 18.6163 10.5017 18.8354 10.5017 19.0529C10.5001 19.6924 10.4969 20.3544 10.513 21.0068C10.5243 21.4401 10.5694 21.8992 10.6467 22.3744C10.8126 23.3844 11.1928 24.4217 11.8049 25.5461C11.8758 25.6766 11.9482 25.8071 12.0207 25.9359C11.7791 25.8103 11.531 25.6814 11.2942 25.5461C10.2327 24.934 9.48207 24.2655 8.93117 23.4424C8.03716 22.107 8.06616 20.5606 9.0101 19.3042C9.26461 18.9675 9.59161 18.6421 10.0426 18.2829C10.2472 18.1202 10.3181 17.8915 10.2456 17.6369C10.1844 17.4243 9.98948 17.2761 9.77041 17.2761C9.67054 17.2761 9.5755 17.3083 9.49657 17.3696C8.55907 18.0944 7.95501 18.8209 7.59902 19.6537C7.11255 20.7893 7.07872 21.8992 7.50076 22.9543C7.91152 23.9852 8.59451 24.884 9.52879 25.6266C10.2907 26.2323 11.1541 26.7365 12.1673 27.1666C12.2092 27.1843 12.2511 27.2036 12.293 27.2214L12.1979 27.2777C11.8452 27.4888 11.5133 27.6885 11.1783 27.8963C11.0655 27.9656 10.9737 28.0638 10.9254 28.1669C10.8287 28.3715 10.8722 28.5922 11.043 28.7597C11.1428 28.858 11.262 28.9095 11.3877 28.9095C11.4682 28.9095 11.5504 28.8886 11.6293 28.8467C11.8194 28.7468 12.0014 28.6373 12.1738 28.5326L12.2849 28.4649C12.7118 28.2056 13.1548 27.9366 13.5865 27.6659C13.8587 27.4952 13.9537 27.2487 13.8603 26.954L13.8635 26.9572Z" fill="white"/>
<path d="M25.5002 17.363C25.4228 17.305 25.3326 17.2744 25.244 17.2744C25.1345 17.2744 25.0266 17.3179 24.9299 17.4017C24.8075 17.508 24.7399 17.6546 24.7382 17.814C24.7382 17.9832 24.8139 18.1507 24.9493 18.2731C25.0346 18.3504 25.1232 18.4245 25.2086 18.497C25.3133 18.5856 25.4212 18.6774 25.5227 18.7709C26.2814 19.4812 26.6922 20.3334 26.7437 21.3031C26.7824 22.0473 26.5553 22.7673 26.0285 23.5679C25.6097 24.2058 25.0185 24.7615 24.1712 25.314C23.8104 25.5492 23.4254 25.7586 23.0195 25.939C23.0888 25.8198 23.1548 25.699 23.2208 25.5766C24.0295 24.0705 24.4451 22.6159 24.4886 21.1291C24.5095 20.4123 24.5079 19.6826 24.5079 18.9787C24.5079 18.7435 24.5079 18.5083 24.5079 18.2747C24.5079 18.1153 24.4499 17.9687 24.342 17.8608C24.2405 17.7577 24.1036 17.7013 23.9602 17.7013C23.6509 17.7045 23.4383 17.9429 23.4383 18.2812V19.0721C23.4383 19.6149 23.4383 20.1578 23.4383 20.7006C23.4415 21.9667 23.2031 23.1153 22.7118 24.2138C22.3429 25.0386 21.8774 25.8666 21.2895 26.7461C21.1574 26.9426 21.1091 27.1166 21.1429 27.276C21.1751 27.4307 21.2814 27.5611 21.465 27.6787C22.1045 28.0847 22.765 28.4809 23.3465 28.8305C23.4335 28.882 23.5285 28.9094 23.6219 28.9094C23.7879 28.9094 23.9409 28.8256 24.0424 28.6823C24.2002 28.4584 24.1648 28.162 23.9586 27.9751C23.8829 27.9075 23.7975 27.8559 23.7218 27.8092C23.5043 27.6771 23.2853 27.5466 23.0678 27.4162C22.9631 27.3533 22.8568 27.2905 22.7521 27.2261C22.9051 27.1504 23.0598 27.0747 23.2096 27.0006C23.6638 26.7799 24.1326 26.5512 24.5755 26.2886C25.7144 25.6153 26.5891 24.7422 27.1754 23.6984C27.7795 22.6224 27.9534 21.5785 27.7086 20.5073C27.4283 19.2767 26.7067 18.249 25.5018 17.3614L25.5002 17.363Z" fill="white"/>
<path d="M18.6332 23.7725C18.9119 24.0512 19.2792 24.209 19.6706 24.209C20.0105 24.209 20.3439 24.0882 20.5855 23.8788C20.9818 23.5357 21.0865 23.0621 21.1397 22.6014C21.1542 22.4726 21.1123 22.3421 21.0205 22.2358C20.919 22.1182 20.7724 22.0457 20.6258 22.0425H20.6097C20.3343 22.0425 20.1152 22.2535 20.0765 22.5563L20.0701 22.6014C20.0556 22.7158 20.0427 22.8221 20.0089 22.9155C19.9493 23.0782 19.8091 23.1829 19.6513 23.1829C19.5417 23.1829 19.4386 23.1314 19.3629 23.038C19.3017 22.9639 19.2631 22.8592 19.2196 22.7496C19.197 22.6916 19.1745 22.632 19.1471 22.574C19.1342 22.5467 19.1229 22.5177 19.1116 22.4887C19.0778 22.4081 19.0408 22.3147 18.9779 22.2358C18.8748 22.1085 18.7267 22.0344 18.5704 22.0344C18.4142 22.0344 18.2547 22.1134 18.1532 22.2503C18.0888 22.3356 18.0614 22.4371 18.0356 22.5241C18.0276 22.5531 18.0195 22.5805 18.0098 22.6095C17.9889 22.6723 17.9712 22.7367 17.9535 22.798C17.9212 22.9155 17.8922 23.0251 17.8391 23.1121C17.765 23.2313 17.6474 23.3005 17.5169 23.3005C17.3864 23.3005 17.2608 23.2329 17.1738 23.1169C17.0675 22.9751 17.0385 22.7996 17.024 22.6304C16.9934 22.3034 16.7921 22.0715 16.5102 22.0393C16.4908 22.0376 16.4715 22.036 16.4538 22.036C16.196 22.036 15.9818 22.2245 15.8948 22.5257L15.8755 22.5934C15.8529 22.6755 15.8304 22.7545 15.8014 22.8286C15.7192 23.0444 15.5453 23.1781 15.3488 23.1781C15.3375 23.1781 15.3278 23.1781 15.3165 23.1781C15.0975 23.162 15.0089 22.9252 14.975 22.7851C14.9654 22.7432 14.9589 22.6997 14.9509 22.653C14.9412 22.5885 14.9299 22.5209 14.9106 22.4532C14.8381 22.2068 14.6319 22.0425 14.3935 22.0425C14.2631 22.0425 14.139 22.0956 14.044 22.1907C13.8958 22.3421 13.8362 22.5338 13.8781 22.7319C13.9087 22.8721 13.9473 23.0235 14.0037 23.2039C14.189 23.8096 14.7221 24.2155 15.3326 24.2155C15.6951 24.2155 16.0462 24.0705 16.3233 23.8079C16.341 23.7918 16.3571 23.7741 16.3748 23.7564C16.668 24.1124 17.0707 24.3121 17.504 24.3121C17.9373 24.3121 18.3513 24.1124 18.6397 23.7693L18.6332 23.7725Z" fill="white"/>
<path d="M16.1928 19.4444C16.4248 19.8761 16.6906 20.282 17.0192 20.7604C17.1835 20.9988 17.3655 21.0504 17.4895 21.0504C17.6055 21.0504 17.7827 21.0053 17.9647 20.7894C18.0404 20.6992 18.1178 20.5993 18.2096 20.4721C18.7589 19.7069 19.1374 18.8564 19.4789 18.051C19.5079 17.9817 19.5224 17.9109 19.5321 17.8641C19.5353 17.8513 19.5369 17.8416 19.5385 17.8335L19.5433 17.8126V17.7917C19.5401 17.4534 19.35 17.2939 19.1857 17.1924C19.0746 17.1232 18.9618 17.0555 18.8507 16.9862C18.535 16.7929 18.2096 16.5932 17.8971 16.387C17.7585 16.2952 17.6265 16.2517 17.4944 16.2517C17.3623 16.2517 17.2399 16.2936 17.1094 16.3806C16.821 16.5723 16.5246 16.7623 16.2395 16.946C16.1123 17.0281 15.9834 17.1103 15.8562 17.1924C15.4905 17.4292 15.4083 17.6821 15.5727 18.0703C15.6049 18.146 15.6355 18.2217 15.6677 18.2958C15.8272 18.6776 15.9931 19.0723 16.1928 19.446V19.4444ZM16.6455 17.906C16.9096 17.7337 17.1883 17.5597 17.4928 17.3761C17.8085 17.5645 18.0984 17.7433 18.3787 17.9221C18.1371 18.5777 17.8552 19.1528 17.5169 19.6731C17.2463 19.2688 17.0256 18.85 16.842 18.4005C16.8243 18.3571 16.8065 18.3136 16.7888 18.2717C16.7389 18.1525 16.689 18.0301 16.6455 17.9076V17.906Z" fill="white"/>
<path d="M16.6213 27.6997V27.0264C16.6213 26.9475 16.6213 26.8685 16.6213 26.7896C16.6213 26.6076 16.6229 26.4175 16.6181 26.2307C16.61 25.9568 16.4103 25.7426 16.1413 25.7184C16.1252 25.7184 16.1107 25.7168 16.0945 25.7168C15.8416 25.7168 15.6274 25.894 15.571 26.1469C15.5598 26.1984 15.5549 26.2564 15.5533 26.3241V26.3982C15.5533 27.4001 15.5501 28.402 15.5533 29.404C15.5533 29.7326 15.774 29.9758 16.0784 29.979C16.3909 29.979 16.6213 29.731 16.6213 29.4008C16.6213 29.0351 16.6213 28.671 16.6213 28.3054V27.8608V27.6997Z" fill="white"/>
<path d="M19.3565 25.9408C19.2695 25.7974 19.11 25.7104 18.9328 25.7104C18.8796 25.7104 18.8281 25.7185 18.7798 25.733C18.551 25.8039 18.4061 25.9988 18.4045 26.242C18.4012 26.6286 18.4012 27.0217 18.4028 27.4002V27.6966L18.398 27.8528V28.3055C18.398 28.6776 18.398 29.0497 18.398 29.4202C18.3996 29.7343 18.6316 29.9791 18.9248 29.9791C19.2228 29.9775 19.4644 29.7278 19.466 29.425C19.4692 28.1605 19.4692 27.1924 19.466 26.2887C19.466 26.176 19.4273 26.0487 19.3597 25.9376L19.3565 25.9408Z" fill="white"/>
<path d="M21.8919 28.8016C21.6551 28.4714 21.4183 28.1428 21.1815 27.8142L21.1364 27.753C20.9174 27.4517 20.6919 27.1392 20.4599 26.838C20.3568 26.7043 20.2167 26.6318 20.0636 26.6318C19.996 26.6318 19.9283 26.6463 19.8607 26.6737C19.6432 26.7623 19.5192 26.9701 19.5224 27.2439V27.2858L19.5433 27.3213C19.5498 27.3325 19.5562 27.3454 19.5643 27.3615C19.5917 27.4147 19.6303 27.4888 19.6803 27.5581C19.8397 27.782 20.0008 28.0043 20.1635 28.2249C20.2892 28.3989 20.4164 28.5729 20.5421 28.7468C20.6693 28.9224 20.795 29.0996 20.919 29.2768C21.0237 29.425 21.1284 29.5716 21.2331 29.7198C21.3249 29.8487 21.4586 29.9952 21.6825 29.9952C21.6922 29.9952 21.7018 29.9952 21.7131 29.9952C21.9435 29.9824 22.1078 29.8841 22.2012 29.7037C22.2656 29.5796 22.3091 29.3847 22.1448 29.1576L21.8887 28.8016H21.8919Z" fill="white"/>
<path d="M14.9943 26.6334C14.8123 26.6334 14.6367 26.7301 14.5143 26.9008C14.0359 27.5581 13.5591 28.233 13.0968 28.8838L12.8745 29.1963C12.8374 29.2478 12.8165 29.3042 12.7972 29.3574C12.7891 29.3799 12.7795 29.4041 12.7682 29.4298L12.736 29.5039L12.7762 29.5732C12.7891 29.5941 12.8004 29.6167 12.8117 29.6392C12.8439 29.7037 12.8809 29.7778 12.9421 29.839C13.0452 29.9421 13.1709 29.9968 13.303 29.9968C13.4834 29.9968 13.6541 29.897 13.7862 29.7166C14.2131 29.1334 14.6432 28.5374 15.0604 27.9624L15.418 27.4695C15.5372 27.3052 15.5549 27.128 15.4728 26.954C15.3761 26.7526 15.1973 26.6318 14.9927 26.6318L14.9943 26.6334Z" fill="white"/>
<path d="M21.8098 15.8344H21.8194C22.9905 15.8344 23.9119 14.9307 23.9167 13.7774C23.9199 13.1669 23.6977 12.6063 23.2917 12.1988C22.9051 11.8106 22.3848 11.5947 21.8243 11.5947H21.8194C21.2524 11.5947 20.716 11.8186 20.3101 12.2246C19.8993 12.6353 19.6738 13.1798 19.6754 13.7597C19.6754 14.9001 20.6339 15.8312 21.8098 15.836V15.8344ZM22.9019 13.7194C22.9019 14.0239 22.7908 14.3057 22.5846 14.5119C22.3881 14.7101 22.1239 14.818 21.8388 14.818C21.188 14.818 20.7144 14.3621 20.7144 13.7355C20.7144 13.1057 21.1944 12.6128 21.8065 12.6128C22.4187 12.6128 22.9003 13.0992 22.9019 13.7194Z" fill="white"/>
<path d="M13.0791 15.8344H13.1194C14.3162 15.8344 15.2682 14.9243 15.2875 13.7613C15.3069 12.6095 14.3839 11.635 13.2321 11.5883C13.2031 11.5883 13.1741 11.5867 13.1468 11.5867C11.9837 11.5867 11.0591 12.5209 11.043 13.713C11.0237 14.8438 11.9564 15.8167 13.0791 15.8344ZM13.1758 14.8132C12.5282 14.8132 12.0578 14.3396 12.0578 13.6904C12.0578 13.3988 12.1722 13.1282 12.3784 12.9253C12.5862 12.7223 12.8633 12.6095 13.1613 12.6095C13.7863 12.6095 14.2598 13.0896 14.2598 13.7258C14.2598 14.0287 14.1503 14.3041 13.9506 14.5055C13.7524 14.7052 13.477 14.8148 13.1774 14.8148L13.1758 14.8132Z" fill="white"/>
<path d="M21.7775 13.0686H21.7759C21.4602 13.0686 21.1944 13.3537 21.196 13.6888C21.1976 14.027 21.4682 14.3025 21.7984 14.3025C21.9418 14.3025 22.0884 14.2365 22.2028 14.1237C22.3203 14.0061 22.388 13.8515 22.388 13.7C22.388 13.3698 22.0964 13.0686 21.7775 13.0686Z" fill="white"/>
<path d="M13.7749 13.7097C13.7765 13.5454 13.7073 13.3795 13.5832 13.2538C13.4673 13.1363 13.3158 13.0686 13.1676 13.0686C12.8551 13.0686 12.5781 13.3553 12.5749 13.6823C12.5716 14.0125 12.8406 14.2944 13.1612 14.2993C13.4995 14.2993 13.7717 14.0351 13.7749 13.7097Z" fill="white"/>
</g>
<defs>
<clipPath id="clip0_530_5557">
<rect width="21.1324" height="25" fill="white" transform="translate(6.93378 5)"/>
</clipPath>
</defs>
</svg>
