<svg width="35" height="35" viewBox="0 0 35 35" fill="none" xmlns="http://www.w3.org/2000/svg">
<rect width="35" height="35" rx="17.5" fill="#A21CAF"/>
<g clip-path="url(#clip0_527_5626)">
<path d="M11.8156 8.65919C11.8156 7.93722 11.8353 7.23501 11.8095 6.53431C11.7867 5.9309 11.998 5.80626 12.533 5.80626C15.9057 5.81082 19.277 5.80474 22.6497 5.80322C23.0145 5.80322 23.2045 5.99626 23.2045 6.36104C23.2045 7.05717 23.2075 7.75179 23.2091 8.44792C23.2091 8.50872 23.2136 8.57104 23.2182 8.65615C23.3018 8.65615 23.3747 8.65615 23.4477 8.65615C24.7518 8.65767 26.0544 8.66071 27.3585 8.66223C27.433 8.66223 27.509 8.66071 27.5834 8.66375C27.9482 8.68199 28.1352 8.87046 28.1367 9.23373C28.1413 10.1427 28.1443 11.0516 28.1443 11.9605C28.1458 15.9716 28.1473 19.9828 28.1473 23.9939C28.1473 25.2478 28.1473 26.5003 28.1473 27.7542C28.1473 27.9093 28.1473 28.0643 28.1473 28.2436C28.6216 28.2436 29.0654 28.2467 29.5092 28.2436C29.7235 28.2421 29.8679 28.344 29.953 28.5309C30.0397 28.7224 30.0108 28.917 29.8542 29.0462C29.7539 29.1298 29.5989 29.1845 29.4682 29.186C28.1777 29.1982 26.8858 29.1966 25.5954 29.1966C18.9259 29.1966 12.2579 29.1966 5.58837 29.1936C5.47893 29.1936 5.36038 29.1769 5.2631 29.1328C5.05943 29.0386 4.96367 28.8075 5.01687 28.5963C5.07007 28.3835 5.23878 28.2497 5.46982 28.2467C5.91972 28.2436 6.37114 28.2467 6.85144 28.2467C6.85144 28.1646 6.85144 28.0992 6.85144 28.0339C6.85144 21.7854 6.85144 15.5369 6.85144 9.28693C6.85144 9.26261 6.85144 9.23677 6.85144 9.21245C6.856 8.85831 7.04295 8.66527 7.3971 8.66223C7.97316 8.65615 8.55074 8.65615 9.12679 8.65767C9.97948 8.66071 10.8306 8.66679 11.6833 8.66983C11.7198 8.66983 11.7563 8.66375 11.8156 8.65767V8.65919ZM21.6496 9.63652C21.6496 9.75811 21.6496 9.85691 21.6496 9.95722C21.6496 13.3984 21.6496 16.8395 21.6466 20.2807C21.6466 20.4555 21.6511 20.6318 21.642 20.8066C21.6268 21.071 21.4566 21.2306 21.1906 21.2367C21.0021 21.2413 20.8151 21.2367 20.6267 21.2382C18.3574 21.2382 16.0881 21.2382 13.8204 21.2428C13.6486 21.2428 13.5012 21.1957 13.4343 21.0346C13.3902 20.9297 13.3796 20.8035 13.3796 20.688C13.3766 17.0842 13.375 13.4789 13.375 9.87515C13.375 9.79611 13.375 9.71707 13.375 9.63652H7.83636V28.2284H14.2794V24.3359C14.2186 24.3359 14.17 24.3359 14.1213 24.3359C13.7885 24.3328 13.6973 24.2432 13.6957 23.9133C13.6942 23.6504 13.6957 23.3874 13.6957 23.123C13.6957 22.7658 13.8386 22.6259 14.1988 22.6259C16.3556 22.6229 18.5109 22.6199 20.6677 22.6168C20.7741 22.6168 20.8835 22.6168 20.9854 22.6411C21.1678 22.6852 21.2833 22.8083 21.2894 22.9998C21.2985 23.3449 21.3 23.6899 21.2924 24.0334C21.2878 24.2249 21.1708 24.3237 20.9763 24.3344C20.8987 24.3389 20.8197 24.342 20.7452 24.3465V28.2284H27.1776V9.63652H21.6526H21.6496ZM22.2226 6.77751H12.7899V8.65767C13.1486 8.65767 13.4921 8.65463 13.8356 8.65767C14.1411 8.66223 14.3098 8.83095 14.322 9.13645C14.325 9.19269 14.3235 9.24893 14.3235 9.30517C14.3235 12.8466 14.3265 16.3881 14.3265 19.9296C14.3265 20.0466 14.3265 20.1636 14.3265 20.2837H20.6601C20.6601 20.2062 20.6601 20.1454 20.6601 20.0831C20.6647 17.6755 20.6692 15.2694 20.6708 12.8618C20.6708 11.652 20.6662 10.4421 20.6647 9.23221C20.6647 8.80511 20.8106 8.66223 21.2453 8.66071C21.5143 8.66071 21.7849 8.66071 22.0539 8.65767C22.1071 8.65767 22.1618 8.64855 22.2211 8.64247V6.77751H22.2226ZM17.0138 24.3404H15.2704V28.2284H17.0138V24.3404ZM19.7451 28.2315V24.342H18.0154V28.2315H19.7451Z" fill="white"/>
<path d="M10.3973 15.7209C10.7727 15.7209 11.1482 15.7194 11.5251 15.7209C11.8048 15.7224 11.9902 15.8942 11.9932 16.1723C11.9993 16.8487 11.9978 17.5251 11.9932 18.2014C11.9917 18.4644 11.8017 18.6422 11.5342 18.6422C10.7773 18.6437 10.0188 18.6437 9.26039 18.6422C8.94272 18.6422 8.76945 18.472 8.76793 18.1558C8.76337 17.5114 8.76185 16.8654 8.76489 16.221C8.76641 15.8972 8.94424 15.727 9.26951 15.7239C9.64493 15.7209 10.0204 15.7239 10.3973 15.7239V15.7209ZM9.76653 16.6693V17.6725H10.9734V16.6693H9.76653Z" fill="white"/>
<path d="M24.6346 23.2445C24.2714 23.2445 23.9081 23.2445 23.5448 23.2445C23.2469 23.2445 23.0372 23.0667 23.0326 22.7673C23.0235 22.1031 23.025 21.4388 23.0356 20.7746C23.0402 20.495 23.2241 20.3217 23.5068 20.3187C24.2516 20.3111 24.9979 20.3111 25.7442 20.3156C26.0284 20.3156 26.2321 20.5102 26.2366 20.8005C26.2473 21.4708 26.2458 22.1411 26.2366 22.8114C26.2336 23.0652 26.0345 23.2369 25.7822 23.2385C25.4007 23.24 25.0176 23.2385 24.6361 23.2385C24.6361 23.24 24.6361 23.2415 24.6361 23.2445H24.6346ZM24.0388 22.2855H25.2365V21.2717C24.8641 21.2717 24.5024 21.2686 24.1406 21.2762C24.1057 21.2762 24.0434 21.3416 24.0434 21.3781C24.0358 21.6775 24.0388 21.9754 24.0388 22.2855Z" fill="white"/>
<path d="M10.3836 23.2414C10.0204 23.2414 9.6571 23.2414 9.29231 23.2414C8.94273 23.2414 8.76489 23.0636 8.76489 22.7064C8.76489 22.0863 8.76489 21.4646 8.76489 20.8445C8.76489 20.5055 8.94121 20.3231 9.28623 20.3171C9.70574 20.3095 10.1268 20.3155 10.5463 20.3155C10.8594 20.3155 11.1725 20.311 11.4871 20.3155C11.8078 20.3186 11.9887 20.4979 11.9917 20.8186C11.9963 21.4646 11.9948 22.1106 11.9917 22.755C11.9917 23.0529 11.8078 23.2369 11.5129 23.2384C11.1375 23.2414 10.7606 23.2384 10.3852 23.2384L10.3836 23.2414ZM10.9749 22.2823V21.2822H9.76957V22.2823H10.9749Z" fill="white"/>
<path d="M24.6483 18.6452C24.2729 18.6452 23.8959 18.6467 23.5205 18.6452C23.2302 18.6437 23.0964 18.5282 23.0478 18.2439C23.0372 18.1831 23.0296 18.1193 23.0296 18.057C23.0265 17.4551 23.0235 16.8547 23.025 16.2528C23.025 15.8865 23.1907 15.7239 23.5539 15.7239C24.2805 15.7239 25.007 15.7239 25.7335 15.7239C26.0421 15.7239 26.2382 15.9154 26.2397 16.227C26.2427 16.8654 26.2412 17.5052 26.2366 18.1436C26.2336 18.4765 26.0542 18.6452 25.7183 18.6467C25.3612 18.6467 25.004 18.6467 24.6468 18.6467L24.6483 18.6452ZM24.057 16.6693V17.6709H25.2441V16.6693H24.057Z" fill="white"/>
<path d="M24.6057 13.9972C24.2303 13.9972 23.8534 13.9972 23.478 13.9972C23.2348 13.9972 23.0934 13.8817 23.0463 13.6415C23.0356 13.5868 23.0296 13.529 23.0296 13.4743C23.028 12.8663 23.025 12.2584 23.0296 11.6504C23.0311 11.2674 23.2013 11.1032 23.5828 11.1017C24.279 11.1017 24.9736 11.0987 25.6697 11.1017C26.0725 11.1017 26.2412 11.275 26.2412 11.6762C26.2412 12.266 26.2442 12.8542 26.2412 13.4439C26.2397 13.8376 26.0725 13.9987 25.6773 14.0002C25.4949 14.0002 25.314 14.0002 25.1316 14.0002C24.9569 14.0002 24.7805 14.0002 24.6057 14.0002V13.9972ZM25.2396 12.0593H24.0494V13.0138H25.2396V12.0593Z" fill="white"/>
<path d="M10.3745 13.9941C9.99147 13.9941 9.60996 13.9957 9.22694 13.9941C8.95031 13.9926 8.77247 13.8315 8.76943 13.5564C8.76183 12.8983 8.76183 12.2401 8.76943 11.582C8.77399 11.2674 8.95639 11.1047 9.27557 11.1047C10.0021 11.1047 10.7302 11.1047 11.4567 11.1047C11.82 11.1047 11.9902 11.2719 11.9917 11.6322C11.9947 12.2584 11.9947 12.8861 11.9917 13.5123C11.9917 13.83 11.8184 13.9972 11.5008 13.9972C11.1253 13.9972 10.7484 13.9972 10.373 13.9972V13.9941H10.3745ZM10.9749 13.0199V12.0441C10.5903 12.0441 10.2164 12.0425 9.84251 12.0471C9.81211 12.0471 9.75588 12.0927 9.75436 12.1185C9.74828 12.4164 9.7498 12.7128 9.7498 13.0199H10.9733H10.9749Z" fill="white"/>
<path d="M10.3684 25.9516C9.99299 25.9516 9.61605 25.9516 9.24062 25.9516C8.94727 25.9516 8.76184 25.7723 8.76184 25.4941C8.76184 25.1765 8.93511 24.9834 9.2315 24.9819C9.98995 24.9789 10.7484 24.9773 11.5053 24.9789C11.8063 24.9789 12.0008 25.178 12.0008 25.4728C12.0008 25.7632 11.8154 25.9471 11.5145 25.9486C11.1329 25.9516 10.7499 25.9486 10.3684 25.9486V25.9516Z" fill="white"/>
<path d="M24.6407 25.95C24.2713 25.95 23.902 25.95 23.5326 25.95C23.2317 25.95 23.028 25.7616 23.028 25.488C23.028 25.187 23.2302 24.9803 23.5326 24.9788C24.2713 24.9773 25.01 24.9758 25.7487 24.9788C26.039 24.9788 26.2473 25.1931 26.2442 25.4773C26.2412 25.7616 26.0497 25.944 25.7487 25.9455C25.3794 25.947 25.01 25.9455 24.6407 25.9455V25.95Z" fill="white"/>
<path d="M17.4681 18.6437C16.9665 18.6437 16.4649 18.6437 15.9648 18.6437C15.6411 18.6437 15.4891 18.5053 15.4845 18.1786C15.4754 17.5265 15.4724 16.876 15.4769 16.2239C15.4785 15.8789 15.6441 15.7239 15.9922 15.7223C17.0075 15.7208 18.0229 15.7208 19.0367 15.7223C19.3467 15.7223 19.517 15.888 19.5185 16.1966C19.5215 16.8547 19.52 17.5128 19.5154 18.1694C19.5139 18.4704 19.3346 18.6376 19.0275 18.6376C18.5077 18.6376 17.9879 18.6376 17.4681 18.6376C17.4681 18.6391 17.4681 18.6406 17.4681 18.6437ZM16.4239 17.6709H18.5609V16.6708H16.4239V17.6709Z" fill="white"/>
<path d="M17.4848 13.9926C16.965 13.9926 16.4452 13.9926 15.9254 13.9926C15.6502 13.9926 15.4891 13.8649 15.4831 13.5913C15.4679 12.8967 15.4679 12.2006 15.4785 11.506C15.4815 11.2658 15.6594 11.1032 15.9147 11.1016C16.9665 11.0956 18.0183 11.0956 19.0716 11.1047C19.3635 11.1077 19.5215 11.2962 19.5215 11.5941C19.5215 12.2264 19.5215 12.8587 19.517 13.491C19.5155 13.8315 19.3498 13.9926 19.0063 13.9926C18.4986 13.9926 17.9925 13.9926 17.4848 13.9926ZM18.5701 12.0501H16.4133C16.4133 12.3252 16.4209 12.5866 16.4102 12.8481C16.4041 13.0001 16.4604 13.0411 16.6032 13.0381C17.2036 13.0289 17.804 13.0289 18.4044 13.0244C18.4576 13.0244 18.5108 13.0122 18.5701 13.0061V12.0501Z" fill="white"/>
</g>
<defs>
<clipPath id="clip0_527_5626">
<rect width="25" height="23.3934" fill="white" transform="translate(5 5.80322)"/>
</clipPath>
</defs>
</svg>
