<svg width="35" height="35" viewBox="0 0 35 35" fill="none" xmlns="http://www.w3.org/2000/svg">
<rect width="35" height="35" rx="17.5" fill="#EF4444"/>
<g clip-path="url(#clip0_527_5621)">
<path d="M10.7578 27.9425C11.5053 28.7101 12.363 29.3192 13.3892 29.6646C13.4026 29.6696 13.9916 29.9416 14.6591 29.9416C15.7054 29.9416 16.0124 29.6779 16.0124 29.6779C17.0103 28.9771 18.0165 29.0455 19.0077 29.6779C19.0077 29.6779 19.54 29.9983 20.436 29.9983C21.1035 29.9983 21.781 29.6045 21.8811 29.5661C22.4234 29.3576 22.9307 29.0856 23.3846 28.7201C24.9848 27.4336 26.1345 25.8083 26.9555 23.9427C27.6881 22.2774 28.0802 20.5386 27.9534 18.7064C27.8516 17.233 27.4177 15.8614 26.6401 14.6032C25.7507 13.1615 24.4992 12.1853 22.8673 11.7097C22.7655 11.6797 22.6637 11.6513 22.5352 11.6129C23.0909 11.2024 23.5598 10.7552 23.9152 10.1979C24.8029 8.80289 25.1984 7.27606 25.145 5.62908C25.1333 5.24195 24.9014 4.99666 24.5126 5.00166C23.5097 5.01501 22.5336 5.19022 21.5791 5.50226C19.7786 6.09297 18.4486 7.23601 17.5726 8.90968C17.4308 9.18001 17.319 9.46368 17.1838 9.75904C16.8083 9.09824 16.3845 8.49085 15.8589 7.96021C15.7054 7.80503 15.5368 7.65651 15.3499 7.54638C15.0546 7.37117 14.6558 7.46962 14.4589 7.73494C14.2419 8.02863 14.267 8.32565 14.5356 8.60599C14.579 8.65104 14.6207 8.69609 14.6641 8.73948C15.43 9.51708 16.0274 10.4098 16.4479 11.4177C16.5597 11.6864 16.6448 11.9667 16.7483 12.257C16.6932 12.252 16.6782 12.2537 16.6665 12.2487C16.6165 12.227 16.5664 12.2036 16.5163 12.1803C15.6019 11.7548 14.6608 11.4744 13.6345 11.5028C11.8808 11.5529 10.4007 12.2036 9.20422 13.4802C7.73413 15.0521 7.13674 16.9844 7.02828 19.0852C6.96153 20.3835 7.2085 21.65 7.63067 22.8731C8.29313 24.7921 9.33939 26.4858 10.7578 27.9425ZM18.5588 11.3026C18.9893 10.4816 19.6751 9.91756 20.4861 9.49706C20.8081 9.33019 21.1435 9.18502 21.4823 9.04985C21.8194 8.91469 21.9712 8.65104 21.8694 8.32064C21.761 7.97022 21.4623 7.78166 21.1235 7.88345C20.6079 8.03697 20.0973 8.21051 19.6 8.3707C20.7214 7.20097 22.108 6.55019 23.7767 6.43505C23.6432 7.55806 23.3712 8.59764 22.7004 9.50707C22.043 10.3965 21.1702 10.8787 20.0756 10.9822C19.58 11.0289 19.4181 11.2875 19.5683 11.7715C19.1178 11.95 18.6689 12.1302 18.2184 12.3088C18.1983 12.2971 18.18 12.2854 18.16 12.2737C18.2918 11.9483 18.3986 11.6113 18.5605 11.3026H18.5588ZM9.19087 15.9431C9.88337 14.5715 10.8929 13.5152 12.4081 13.0463C13.441 12.7276 14.4572 12.816 15.4484 13.2349C15.8522 13.4051 16.2493 13.5936 16.6582 13.7472C17.3206 13.9941 17.9831 13.9324 18.6289 13.6771C19.0127 13.5269 19.3781 13.33 19.7636 13.1848C21.5207 12.5257 23.1059 12.8744 24.4609 14.1209C25.7057 15.2673 26.3682 16.7374 26.5517 18.4211C26.5851 18.7215 26.5951 19.0235 26.6101 19.2471C26.5751 20.9057 26.1929 22.3925 25.4888 23.8059C24.7946 25.1959 23.8768 26.4124 22.7171 27.4419C22.0947 27.9959 21.3855 28.3881 20.5345 28.4698C20.0856 28.5132 19.6601 28.4114 19.2479 28.2462C18.9993 28.1461 18.764 28.0126 18.5137 27.9208C17.6844 27.6155 16.8851 27.7389 16.0925 28.081C15.7421 28.2312 15.3766 28.3714 15.0045 28.4415C14.3504 28.5649 13.7397 28.3664 13.1656 28.056C12.6467 27.7757 12.1911 27.4119 11.779 26.9931C10.1403 25.321 9.02401 23.357 8.5768 21.0526C8.23473 19.2955 8.37323 17.5651 9.19087 15.9448V15.9431Z" fill="white"/>
<path d="M23.8518 15.7629C23.9536 15.8414 24.0804 15.9031 24.1521 16.0032C24.299 16.2101 24.4175 16.4354 24.5443 16.6557C24.6511 16.8409 24.6177 16.9961 24.4442 17.1446C24.2873 17.2798 24.0337 17.3081 23.9219 17.1579C23.7183 16.8843 23.5281 16.5956 23.3829 16.2886C23.2761 16.065 23.5364 15.7997 23.8518 15.7629Z" fill="white"/>
<path d="M23.0691 14.8786C23.0641 15.199 22.7788 15.3925 22.5202 15.2757C22.2882 15.1723 22.0613 15.0571 21.8393 14.937C21.6641 14.8419 21.6207 14.68 21.6675 14.4948C21.7175 14.3012 21.9011 14.146 22.0746 14.1877C22.4334 14.2745 22.7571 14.438 23.0041 14.7234C23.0458 14.7718 23.0575 14.8469 23.0708 14.8786H23.0691Z" fill="white"/>
<path d="M25.16 18.4795C25.1784 18.9017 24.9414 19.1153 24.6077 18.9835C24.4575 18.9234 24.3457 18.8216 24.3574 18.6447C24.3741 18.4095 24.2656 18.1341 24.556 17.9823C24.8563 17.8254 25.2101 18.0273 25.16 18.336C25.1517 18.3828 25.16 18.4328 25.16 18.4795Z" fill="white"/>
</g>
<defs>
<clipPath id="clip0_527_5621">
<rect width="20.9635" height="25" fill="white" transform="translate(7.01825 5)"/>
</clipPath>
</defs>
</svg>
