<svg width="35" height="35" viewBox="0 0 35 35" fill="none" xmlns="http://www.w3.org/2000/svg">
<g clip-path="url(#clip0_4175_160171)">
<path d="M29.2588 7.32784C21.4782 8.34274 17.5879 14.1782 17.5879 14.1782V31.6782C17.5879 31.6782 21.4782 25.8428 29.2588 24.8278C30.5367 24.6611 31.5879 23.6335 31.5879 22.3449V9.51156C31.5879 8.2229 30.5367 7.16114 29.2588 7.32784Z" fill="#8B91A7"/>
<path d="M5.91695 7.32784C13.6976 8.34274 17.5879 14.1782 17.5879 14.1782V31.6782C17.5879 31.6782 13.6976 25.8428 5.91695 24.8278C4.6391 24.6611 3.58789 23.6335 3.58789 22.3449V9.51156C3.58789 8.2229 4.6391 7.16114 5.91695 7.32784Z" fill="#8B91A7"/>
<path d="M30.7129 9.51201C30.7129 8.72422 30.1305 8.18021 29.4995 8.18754L29.3713 8.19609C25.6821 8.67746 22.9125 10.3011 21.0588 11.8123C20.1323 12.5676 19.438 13.2908 18.979 13.8221C18.7498 14.0875 18.5805 14.3055 18.4697 14.4527C18.4675 14.4556 18.4651 14.4583 18.4629 14.4612V29.3106C18.8785 28.8909 19.3743 28.4273 19.9531 27.9554C21.9896 26.2953 25.0551 24.4934 29.1458 23.9598L29.3132 23.9307C30.1389 23.7511 30.7129 23.0759 30.7129 22.3448V9.51201ZM32.4629 22.3448C32.4629 24.03 31.1888 25.3131 29.6772 25.6431L29.3713 25.6961C25.6821 26.1775 22.9125 27.8011 21.0588 29.3123C20.1323 30.0676 19.438 30.7908 18.979 31.3221C18.7498 31.5874 18.5805 31.8055 18.4697 31.9527C18.4145 32.0261 18.3739 32.0823 18.3484 32.1185C18.336 32.1359 18.3264 32.1482 18.321 32.156C18.3184 32.1598 18.3167 32.1634 18.3159 32.1646L18.2271 32.2757C18.0026 32.5161 17.6576 32.614 17.335 32.5166C16.9662 32.405 16.7132 32.0645 16.7129 31.6792V14.1792C16.7129 14.0067 16.7643 13.8375 16.8599 13.6939L17.5879 14.1792C16.8598 13.6939 16.8596 13.6925 16.8599 13.6922H16.8616V13.6905C16.8626 13.689 16.8652 13.6859 16.8667 13.6836C16.8696 13.6793 16.874 13.6734 16.8787 13.6665C16.8885 13.6523 16.9024 13.633 16.9197 13.6084C16.9549 13.5587 17.0056 13.4879 17.0718 13.3999C17.2041 13.2241 17.3977 12.9761 17.6545 12.6788C18.1682 12.0842 18.9347 11.2856 19.9531 10.4554C21.9896 8.79526 25.0551 6.99335 29.1458 6.45976L29.4927 6.43584C31.1982 6.41187 32.4629 7.88401 32.4629 9.51201V22.3448Z" fill="#353E64"/>
<path d="M25.7511 3.15652C17.5879 4.04187 17.5879 14.1783 17.5879 14.1783V31.6783C17.5879 31.6783 17.5879 22.5142 24.6052 20.8519C25.8591 20.5549 26.9212 19.5503 26.9212 18.2616V4.26162C26.9212 3.61729 26.3916 3.08705 25.7511 3.15652Z" fill="#353E64"/>
<path d="M26.0457 4.26123C26.0455 4.18043 26.0136 4.11312 25.9705 4.07153C25.9506 4.05247 25.9295 4.04115 25.9089 4.03394L25.8457 4.0271C22.211 4.42131 20.3791 6.84187 19.425 9.3147C18.9471 10.5536 18.7041 11.7761 18.5825 12.6951C18.522 13.1525 18.4915 13.5302 18.4766 13.7905C18.4691 13.9206 18.4664 14.0217 18.4646 14.0879C18.4637 14.1209 18.4631 14.1461 18.4629 14.1614V24.7246C19.5698 22.6641 21.3965 20.7133 24.4033 20.001L24.5845 19.9514C25.4717 19.6742 26.0457 18.977 26.0457 18.2612V4.26123ZM27.7957 18.2612C27.7957 19.9619 26.5033 21.1821 25.0903 21.6245L24.8066 21.7031C21.7091 22.4369 20.1182 24.8194 19.29 27.1787C18.878 28.3526 18.6698 29.4856 18.5654 30.3284C18.5135 30.7479 18.4876 31.0918 18.4749 31.3281C18.4685 31.4457 18.4661 31.5367 18.4646 31.5964C18.4638 31.6263 18.4631 31.6494 18.4629 31.6631V31.6785L18.4458 31.8545C18.3643 32.2533 18.0108 32.5535 17.5879 32.5535C17.165 32.5535 16.8115 32.2533 16.73 31.8545L16.7129 31.6785V14.1785H17.5879L16.7129 14.1768V14.1375C16.7132 14.1144 16.7135 14.0812 16.7146 14.04C16.7168 13.9574 16.7215 13.8396 16.73 13.6914C16.747 13.394 16.7809 12.9724 16.8479 12.4661C16.9814 11.4569 17.2489 10.0898 17.7913 8.68408C18.8779 5.86755 21.1282 2.77875 25.656 2.28735L25.8816 2.27539C26.9857 2.28104 27.7954 3.22702 27.7957 4.26123V18.2612Z" fill="#353E64"/>
<path d="M6.03003 6.46099L6.7854 6.57549C10.5002 7.21914 13.3135 8.90026 15.2227 10.4566C16.2411 11.2869 17.0076 12.0854 17.5212 12.68C17.7781 12.9773 17.9717 13.2253 18.104 13.4012C18.1702 13.4892 18.2209 13.5599 18.2561 13.6097C18.2734 13.6342 18.2873 13.6535 18.2971 13.6678C18.3018 13.6746 18.3061 13.6805 18.3091 13.6849C18.3106 13.6871 18.3132 13.6902 18.3142 13.6917V13.6934H18.3159C18.3161 13.6938 18.3159 13.6951 17.5879 14.1805L18.3159 13.6951C18.4115 13.8387 18.4629 14.0079 18.4629 14.1805V31.6805C18.4626 32.0658 18.2096 32.4062 17.8408 32.5179C17.5182 32.6152 17.1732 32.5173 16.9487 32.2769L16.8599 32.1658L16.8547 32.1573C16.8494 32.1495 16.8398 32.1372 16.8274 32.1197C16.8018 32.0835 16.7613 32.0273 16.7061 31.9539C16.5953 31.8067 16.426 31.5887 16.1968 31.3233C15.7378 30.792 15.0435 30.0689 14.1169 29.3135C12.379 27.8967 9.83596 26.3803 6.48462 25.7999L5.80444 25.6973C4.16333 25.4833 2.71289 24.1436 2.71289 22.346V9.51323C2.71289 7.77667 4.15202 6.21613 6.03003 6.46099ZM4.46289 22.346C4.46289 23.1257 5.11552 23.8417 6.03003 23.961L6.7854 24.0755C10.5002 24.7192 13.3135 26.4003 15.2227 27.9566C15.8015 28.4285 16.2973 28.8921 16.7129 29.3118V14.4625C16.7107 14.4596 16.7083 14.4569 16.7061 14.4539C16.5953 14.3067 16.426 14.0887 16.1968 13.8233C15.7378 13.292 15.0435 12.5689 14.1169 11.8135C12.379 10.3967 9.83597 8.8803 6.48462 8.29985L5.80444 8.19732C5.12685 8.10892 4.46289 8.67255 4.46289 9.51323V22.346Z" fill="#353E64"/>
</g>
<defs>
<clipPath id="clip0_4175_160171">
<rect width="35" height="31.6122" fill="white" transform="translate(0 2)"/>
</clipPath>
</defs>
</svg>
