<svg width="28" height="29" viewBox="0 0 28 29" fill="none" xmlns="http://www.w3.org/2000/svg">
<path d="M24.1436 15.739C24.1436 16.2315 24.3392 16.7038 24.6874 17.052C25.0357 17.4003 25.508 17.5959 26.0005 17.5959C26.4929 17.5959 26.9653 17.4003 27.3135 17.052C27.6617 16.7038 27.8574 16.2315 27.8574 15.739C27.8574 15.2465 27.6617 14.7742 27.3135 14.426C26.9653 14.0777 26.4929 13.8821 26.0005 13.8821V13.8821C25.508 13.8821 25.0357 14.0777 24.6874 14.426C24.3392 14.7742 24.1436 15.2465 24.1436 15.739V15.739Z" fill="#818CF8"/>
<path d="M22.9091 5.26959C22.4166 5.26959 21.9443 5.46523 21.5961 5.81347C21.2479 6.1617 21.0522 6.63402 21.0522 7.1265C21.0522 7.61898 20.8566 8.09129 20.5083 8.43953C20.1601 8.78777 19.6878 8.9834 19.1953 8.9834V8.9834C18.7028 8.9834 18.2305 9.17904 17.8823 9.52728C17.534 9.87552 17.3384 10.3478 17.3384 10.8403C17.3384 11.3328 17.1428 11.8051 16.7945 12.1533C16.4463 12.5016 15.974 12.6972 15.4815 12.6972V12.6972C15.2372 12.6966 14.9952 12.7441 14.7694 12.8371C14.5435 12.9302 14.3382 13.0668 14.1652 13.2393C13.9923 13.4118 13.8551 13.6167 13.7614 13.8424C13.6678 14.068 13.6196 14.3099 13.6196 14.5541C13.6196 14.7984 13.5714 15.0403 13.4778 15.2659C13.3842 15.4915 13.2469 15.6964 13.074 15.8689C12.901 16.0414 12.6957 16.1781 12.4699 16.2711C12.244 16.3641 12.002 16.4117 11.7577 16.411V16.411C11.2652 16.411 10.7929 16.2154 10.4447 15.8672C10.0965 15.5189 9.90082 15.0466 9.90082 14.5541C9.90082 14.0616 9.70519 13.5893 9.35695 13.2411C9.00871 12.8929 8.5364 12.6972 8.04392 12.6972C7.55144 12.6972 7.07912 12.8929 6.73089 13.2411C6.38265 13.5893 6.18701 14.0616 6.18701 14.5541V18.2679C6.18701 18.7604 6.38265 19.2327 6.73089 19.581C7.07912 19.9292 7.55144 20.1248 8.04392 20.1248C8.5364 20.1248 9.00871 20.3205 9.35695 20.6687C9.70519 21.017 9.90082 21.4893 9.90082 21.9817C9.90082 22.4742 10.0965 22.9465 10.4447 23.2948C10.7929 23.643 11.2652 23.8387 11.7577 23.8387C12.2502 23.8387 12.7225 23.643 13.0708 23.2948C13.419 22.9465 13.6146 22.4742 13.6146 21.9817C13.6146 21.7375 13.6628 21.4956 13.7565 21.27C13.8501 21.0444 13.9873 20.8394 14.1603 20.667C14.3332 20.4945 14.5385 20.3578 14.7644 20.2648C14.9902 20.1717 15.2322 20.1242 15.4765 20.1248C15.969 20.1248 16.4413 19.9292 16.7896 19.581C17.1378 19.2327 17.3334 18.7604 17.3334 18.2679C17.3334 18.0241 17.3815 17.7826 17.4748 17.5573C17.5681 17.332 17.7049 17.1273 17.8773 16.9549C18.0497 16.7825 18.2544 16.6457 18.4797 16.5524C18.705 16.4591 18.9465 16.411 19.1903 16.411V16.411C19.6828 16.411 20.1551 16.2154 20.5034 15.8672C20.8516 15.5189 21.0472 15.0466 21.0472 14.5541C21.0472 14.0616 21.2429 13.5893 21.5911 13.2411C21.9394 12.8929 22.4117 12.6972 22.9041 12.6972C23.1486 12.6985 23.3909 12.6514 23.6171 12.5586C23.8432 12.4659 24.0488 12.3292 24.2219 12.1566C24.395 11.984 24.5322 11.7788 24.6255 11.5529C24.7189 11.3269 24.7667 11.0848 24.766 10.8403V8.9834V7.1265C24.766 6.63402 24.5704 6.1617 24.2222 5.81347C23.8739 5.46523 23.4016 5.26959 22.9091 5.26959V5.26959Z" fill="#00BA88"/>
<path d="M2.64255 15.9132C2.27529 15.9132 1.91628 16.0221 1.61091 16.2262C1.30554 16.4302 1.06754 16.7202 0.926994 17.0595C0.786449 17.3988 0.749676 17.7722 0.821325 18.1324C0.892974 18.4926 1.06983 18.8235 1.32952 19.0831C1.58921 19.3428 1.92008 19.5197 2.28029 19.5913C2.64049 19.663 3.01385 19.6262 3.35316 19.4857C3.69246 19.3451 3.98247 19.1071 4.18651 18.8018C4.39055 18.4964 4.49946 18.1374 4.49946 17.7701C4.49946 17.2776 4.30382 16.8053 3.95558 16.4571C3.60735 16.1088 3.13503 15.9132 2.64255 15.9132V15.9132Z" fill="#FF9470"/>
<path d="M10.0702 7.45008C9.57769 7.45008 9.10538 7.25444 8.75714 6.9062C8.40891 6.55797 8.21327 6.08566 8.21327 5.59317C8.21327 5.10069 8.01763 4.62838 7.66939 4.28014C7.32116 3.93191 6.84884 3.73627 6.35636 3.73627C5.86388 3.73627 5.39157 3.93191 5.04333 4.28014C4.69509 4.62838 4.49946 5.10069 4.49946 5.59317C4.49946 6.08566 4.30382 6.55797 3.95558 6.9062C3.60734 7.25444 3.13503 7.45008 2.64255 7.45008C2.15007 7.45008 1.67776 7.64572 1.32952 7.99395C0.981282 8.34219 0.785645 8.8145 0.785645 9.30698V13.0208C0.785645 13.5133 0.981282 13.9856 1.32952 14.3338C1.67776 14.6821 2.15007 14.8777 2.64255 14.8777C3.13503 14.8777 3.60734 14.6821 3.95558 14.3338C4.30382 13.9856 4.49946 13.5133 4.49946 13.0208V12.971C4.50947 12.4974 4.70104 12.0458 5.0346 11.7095C5.36815 11.3731 5.81817 11.1778 6.29164 11.1639H10.0702C10.5627 11.1639 11.035 10.9683 11.3832 10.62C11.7314 10.2718 11.9271 9.79947 11.9271 9.30698C11.9271 8.8145 11.7314 8.34219 11.3832 7.99395C11.035 7.64572 10.5627 7.45008 10.0702 7.45008V7.45008Z" fill="#41CEF2"/>
<path d="M17.2436 4.69709V2.84018C17.2436 2.3477 17.048 1.87539 16.6997 1.52715C16.3515 1.17891 15.8792 0.983276 15.3867 0.983276C14.8942 0.983276 14.4219 1.17891 14.0737 1.52715C13.7254 1.87539 13.5298 2.3477 13.5298 2.84018V4.69709H17.2436Z" fill="#FDE047"/>
<path d="M13.5298 4.69708V6.55399C13.5298 7.04647 13.7254 7.51878 14.0737 7.86702C14.4219 8.21526 14.8942 8.41089 15.3867 8.41089C15.8792 8.41089 16.3515 8.21526 16.6997 7.86702C17.048 7.51878 17.2436 7.04647 17.2436 6.55399V4.69708H13.5298Z" fill="#FDE047"/>
<path d="M25.2489 18.8006H21.5351C21.0426 18.8006 20.5703 18.9962 20.2221 19.3445C19.8738 19.6927 19.6782 20.165 19.6782 20.6575V20.7372C19.6625 21.1993 19.4736 21.6386 19.1489 21.9678C18.8243 22.2971 18.3877 22.4922 17.9258 22.5144H17.8213C17.3448 22.5391 16.896 22.7457 16.5674 23.0917C16.2388 23.4377 16.0557 23.8967 16.0557 24.3738C16.0557 24.8509 16.2388 25.3099 16.5674 25.6559C16.896 26.0019 17.3448 26.2085 17.8213 26.2332H21.5351C22.0241 26.228 22.4913 26.03 22.8353 25.6823C23.1792 25.3347 23.3721 24.8653 23.3721 24.3763C23.3715 24.132 23.419 23.89 23.512 23.6642C23.6051 23.4383 23.7417 23.233 23.9142 23.06C24.0867 22.8871 24.2916 22.7499 24.5173 22.6562C24.7429 22.5626 24.9847 22.5144 25.229 22.5144C25.7215 22.5144 26.1938 22.3188 26.542 21.9705C26.8903 21.6223 27.0859 21.15 27.0859 20.6575C27.0859 20.165 26.8903 19.6927 26.542 19.3445C26.1938 18.9962 25.7215 18.8006 25.229 18.8006H25.2489Z" fill="#818CF8"/>
<path d="M10.1098 24.675H10.0351C9.57204 24.6581 9.13212 24.4683 8.80218 24.143C8.47223 23.8176 8.27623 23.3804 8.25287 22.9177V22.8181C8.25287 22.3256 8.05724 21.8533 7.709 21.5051C7.36076 21.1568 6.88845 20.9612 6.39597 20.9612C5.90349 20.9612 5.43117 21.1568 5.08294 21.5051C4.7347 21.8533 4.53906 22.3256 4.53906 22.8181V26.5319C4.53906 27.0244 4.7347 27.4967 5.08294 27.8449C5.43117 28.1932 5.90349 28.3888 6.39597 28.3888H10.1098C10.3536 28.3888 10.5951 28.3408 10.8204 28.2475C11.0457 28.1541 11.2504 28.0174 11.4228 27.8449C11.5952 27.6725 11.732 27.4678 11.8253 27.2425C11.9187 27.0172 11.9667 26.7758 11.9667 26.5319C11.9667 26.288 11.9187 26.0466 11.8253 25.8213C11.732 25.596 11.5952 25.3913 11.4228 25.2189C11.2504 25.0464 11.0457 24.9097 10.8204 24.8163C10.5951 24.723 10.3536 24.675 10.1098 24.675V24.675Z" fill="#F43F5E"/>
</svg>
