<svg width="50" height="50" viewBox="0 0 50 50" fill="none" xmlns="http://www.w3.org/2000/svg">
<path d="M5.56305 30.2253H16.7116C16.7116 30.2253 18.9414 30.2253 18.9414 32.455V43.6036C18.9414 43.6036 18.9414 45.8333 16.7116 45.8333H5.56305C5.56305 45.8333 3.33333 45.8333 3.33333 43.6036V32.455C3.33333 32.455 3.33333 30.2253 5.56305 30.2253Z" fill="#66B8FF"/>
<path d="M5.56305 12.1348H16.7116C16.7116 12.1348 18.9414 12.1348 18.9414 14.3645V25.5131C18.9414 25.5131 18.9414 27.7429 16.7116 27.7429H5.56305C5.56305 27.7429 3.33333 27.7429 3.33333 25.5131V14.3645C3.33333 14.3645 3.33333 12.1348 5.56305 12.1348Z" fill="#E41B39"/>
<path d="M23.4375 30.2253H34.5861C34.5861 30.2253 36.8158 30.2253 36.8158 32.455V43.6036C36.8158 43.6036 36.8158 45.8333 34.5861 45.8333H23.4375C23.4375 45.8333 21.2077 45.8333 21.2077 43.6036V32.455C21.2077 32.455 21.2077 30.2253 23.4375 30.2253Z" fill="#CABDA9"/>
<path d="M33.1652 3.26719L44.1212 5.33097C44.1212 5.33097 46.3123 5.74372 45.8996 7.9349L43.8358 18.8908C43.8358 18.8908 43.423 21.082 41.2319 20.6692L30.2759 18.6055C30.2759 18.6055 28.0848 18.1927 28.4975 16.0015L30.5613 5.04561C30.5613 5.04561 30.9741 2.85443 33.1652 3.26719Z" fill="#6E8D62"/>
</svg>
