<svg width="50" height="50" viewBox="0 0 50 50" fill="none" xmlns="http://www.w3.org/2000/svg">
<path d="M35.8946 11.6332H22.8152C21.8241 11.6332 20.8736 12.0272 20.1728 12.7285C19.4719 13.4297 19.0782 14.3808 19.0782 15.3726V45.2871C19.0782 46.2788 19.4719 47.2299 20.1728 47.9312C20.8736 48.6324 21.8241 49.0264 22.8152 49.0264H45.2371C46.2282 49.0264 47.1787 48.6324 47.8795 47.9312C48.5803 47.2299 48.974 46.2788 48.974 45.2871V24.7208L35.8946 11.6332Z" fill="black" fill-opacity="0.1"/>
<path d="M30.7697 3.89825H17.6902C16.6991 3.89825 15.7486 4.29222 15.0478 4.99347C14.347 5.69473 13.9532 6.64584 13.9532 7.63757V40.0521C13.9532 41.0438 14.347 41.9949 15.0478 42.6962C15.7486 43.3974 16.6991 43.7914 17.6902 43.7914H40.1121C41.1032 43.7914 42.0537 43.3974 42.7545 42.6962C43.4554 41.9949 43.8491 41.0438 43.8491 40.0521V16.9859L30.7697 3.89825Z" fill="white"/>
<path d="M30.7697 3.89838V18.236H43.8491" fill="#CCE7FF"/>
<path d="M30.7697 3.89838V18.236H43.8491" stroke="#0F172A" stroke-width="2" stroke-linecap="round" stroke-linejoin="round"/>
<path d="M12.2844 12.8629C13.061 11.567 14.939 11.567 15.7156 12.8629L16.4213 14.0407C16.8742 14.7965 17.7684 15.1669 18.6231 14.9527L19.9549 14.6189C21.4204 14.2517 22.7483 15.5796 22.3811 17.0451L22.0473 18.377C21.8331 19.2316 22.2035 20.1258 22.9593 20.5787L24.1371 21.2844C25.433 22.061 25.433 23.939 24.1371 24.7156L22.9593 25.4213C22.2035 25.8742 21.8331 26.7684 22.0473 27.6231L22.3811 28.9549C22.7483 30.4204 21.4204 31.7483 19.9549 31.3811L18.6231 31.0473C17.7684 30.8331 16.8742 31.2035 16.4213 31.9593L15.7156 33.1371C14.939 34.433 13.061 34.433 12.2844 33.1371L11.5787 31.9593C11.1258 31.2035 10.2316 30.8331 9.37695 31.0473L8.04509 31.3811C6.57958 31.7483 5.25166 30.4204 5.61892 28.9549L5.95268 27.6231C6.16686 26.7684 5.79649 25.8742 5.04069 25.4213L3.86293 24.7156C2.56696 23.939 2.56696 22.061 3.86293 21.2844L5.0407 20.5787C5.79649 20.1258 6.16686 19.2316 5.95268 18.3769L5.61892 17.0451C5.25166 15.5796 6.57958 14.2517 8.0451 14.6189L9.37695 14.9527C10.2316 15.1669 11.1258 14.7965 11.5787 14.0407L12.2844 12.8629Z" fill="#CCE7FF" stroke="#0F172A" stroke-width="2"/>
<circle cx="14" cy="23" r="4" fill="white" stroke="#0F172A" stroke-width="2"/>
<path d="M14.1667 8.12502V7.63769C14.1667 6.64596 14.5604 5.69485 15.2613 4.9936C15.9621 4.29234 16.9126 3.89838 17.9037 3.89838H30.9831L44.0625 16.986V40.0522C44.0625 41.0439 43.6688 41.9951 42.968 42.6963C42.2672 43.3976 41.3167 43.7915 40.3256 43.7915H17.9037C16.9126 43.7915 15.9621 43.3976 15.2613 42.6963C14.5604 41.9951 14.1667 41.0439 14.1667 40.0522V38.125" stroke="#0F172A" stroke-width="2" stroke-linecap="round" stroke-linejoin="round"/>
<path d="M27.9307 32.8753L28.5429 31.3887C28.5774 31.3048 28.6593 31.25 28.75 31.25C28.8407 31.25 28.9226 31.3048 28.9571 31.3887L29.5692 32.8753C29.813 33.4671 30.2829 33.9371 30.8747 34.1807L32.3613 34.7929C32.4453 34.8274 32.5 34.9092 32.5 35C32.5 35.0908 32.4453 35.1726 32.3613 35.2071L30.8747 35.8193C30.2829 36.0629 29.813 36.5329 29.5692 37.1247L28.9571 38.6113C28.9226 38.6952 28.8407 38.75 28.75 38.75C28.6593 38.75 28.5774 38.6952 28.5429 38.6113L27.9307 37.1247C27.6871 36.5329 27.2171 36.0629 26.6253 35.8193L25.1387 35.2071C25.0548 35.1726 25 35.0908 25 35C25 34.9092 25.0548 34.8274 25.1387 34.7929L26.6253 34.1807C27.2171 33.9371 27.6871 33.4671 27.9307 32.8753Z" fill="#33A0FF"/>
<path d="M33.9077 24.6671L34.7238 22.6849C34.7699 22.573 34.879 22.5 35 22.5C35.121 22.5 35.2301 22.573 35.2762 22.6849L36.0923 24.6671C36.4173 25.4562 37.0438 26.0828 37.833 26.4077L39.815 27.2239C39.927 27.2699 40 27.379 40 27.5C40 27.621 39.927 27.7301 39.815 27.7761L37.833 28.5923C37.0438 28.9172 36.4173 29.5438 36.0923 30.3329L35.2762 32.3151C35.2301 32.427 35.121 32.5 35 32.5C34.879 32.5 34.7699 32.427 34.7238 32.3151L33.9077 30.3329C33.5828 29.5438 32.9562 28.9172 32.1671 28.5923L30.1849 27.7761C30.073 27.7301 30 27.621 30 27.5C30 27.379 30.073 27.2699 30.1849 27.2239L32.1671 26.4077C32.9562 26.0828 33.5828 25.4562 33.9077 24.6671Z" fill="#005299"/>
</svg>
