<svg width="20" height="21" viewBox="0 0 20 21" fill="none" xmlns="http://www.w3.org/2000/svg">
<path d="M6.875 5.8125H16.875" stroke="#18224E" stroke-width="2" stroke-linecap="round" stroke-linejoin="round"/>
<path d="M6.87548 10.5H16.875" stroke="#18224E" stroke-width="2" stroke-linecap="round" stroke-linejoin="round"/>
<path d="M6.87548 15.1875H16.875" stroke="#18224E" stroke-width="2" stroke-linecap="round" stroke-linejoin="round"/>
<path d="M3.4375 7.0625C4.12786 7.0625 4.6875 6.50286 4.6875 5.8125C4.6875 5.12214 4.12786 4.5625 3.4375 4.5625C2.74714 4.5625 2.1875 5.12214 2.1875 5.8125C2.1875 6.50286 2.74714 7.0625 3.4375 7.0625Z" fill="#18224E"/>
<path d="M3.4375 11.75C4.12786 11.75 4.6875 11.1904 4.6875 10.5C4.6875 9.80964 4.12786 9.25 3.4375 9.25C2.74714 9.25 2.1875 9.80964 2.1875 10.5C2.1875 11.1904 2.74714 11.75 3.4375 11.75Z" fill="#18224E"/>
<path d="M3.4375 16.4375C4.12786 16.4375 4.6875 15.8779 4.6875 15.1875C4.6875 14.4971 4.12786 13.9375 3.4375 13.9375C2.74714 13.9375 2.1875 14.4971 2.1875 15.1875C2.1875 15.8779 2.74714 16.4375 3.4375 16.4375Z" fill="#18224E"/>
</svg>

