<svg width="54" height="54" viewBox="0 0 54 54" fill="none" xmlns="http://www.w3.org/2000/svg">
<g clip-path="url(#clip0_180_46171)">
<path d="M15.923 36C14.2185 36 12.6609 36.9657 12.1179 38.5814C11.8308 39.4358 11.5293 40.468 11.2799 41.625H10.4511C8.66727 41.625 7.06614 42.6859 6.58849 44.4046C6.27705 45.5253 5.93846 46.9648 5.65939 48.6862C5.39432 50.3214 6.69676 51.75 8.35326 51.75H44.9364C46.5929 51.75 47.8954 50.3214 47.6303 48.6862C47.3512 46.9648 47.0126 45.5253 46.7012 44.4046C46.2235 42.6859 44.6224 41.625 42.8386 41.625H42.0114C41.7619 40.468 41.4605 39.4358 41.1734 38.5814C40.6303 36.9657 39.0728 36 37.3683 36H15.923Z" fill="#867357"/>
<path d="M24.3444 3.70203C25.5195 1.42175 28.7604 1.42175 29.9356 3.70203L32.6416 8.95294L38.4943 10.1128C40.8926 10.5881 41.8621 13.5125 40.2277 15.3418L36.0418 20.0272L36.8018 26.2244C37.1094 28.7336 34.5174 30.5776 32.2698 29.4485L27.14 26.8716L22.0102 29.4485C19.7625 30.5776 17.1705 28.7336 17.4782 26.2244L18.238 20.0272L14.0521 15.3418C12.4177 13.5125 13.3872 10.5881 15.7855 10.1128L21.6382 8.95294L24.3444 3.70203Z" fill="white" stroke="#867357" stroke-width="3"/>
</g>
<defs>
<clipPath id="clip0_180_46171">
<rect width="54" height="54" fill="white"/>
</clipPath>
</defs>
</svg>
