<svg width="55" height="55" viewBox="0 0 55 55" fill="none" xmlns="http://www.w3.org/2000/svg">
<path d="M31.0125 42.9735C34.0735 41.9916 36.7426 40.0609 38.6334 37.4611C40.5242 34.8613 41.5385 31.7272 41.5296 28.5126C41.5296 24.6773 40.006 20.9991 37.2941 18.2871C34.5821 15.5751 30.9039 14.0516 27.0686 14.0516C23.2333 14.0516 19.5551 15.5751 16.8432 18.2871C14.1312 20.9991 12.6076 24.6773 12.6076 28.5126C12.5987 31.7272 13.6131 34.8613 15.5039 37.4611C17.3946 40.0609 20.0637 41.9916 23.1247 42.9735" fill="white"/>
<path d="M27.0684 12.9058C31.2074 12.9058 35.1774 14.5499 38.1042 17.4766C41.0303 20.4028 42.6751 24.3716 42.6759 28.5097L42.6642 29.157C42.5448 32.3867 41.4664 35.5131 39.5597 38.1347C37.5259 40.9313 34.6552 43.0081 31.3626 44.0644C30.76 44.2577 30.1146 43.9258 29.9213 43.3232C29.7283 42.7208 30.0601 42.0762 30.6625 41.8829C33.4918 40.9752 35.959 39.1905 37.7067 36.7875C39.4544 34.3845 40.3924 31.4873 40.3842 28.516V28.5124L40.3797 28.1821C40.2951 24.7706 38.9028 21.5168 36.4839 19.0978C33.9868 16.6007 30.5998 15.1975 27.0684 15.1975C23.5371 15.1976 20.1508 16.6008 17.6537 19.0978C15.1567 21.5948 13.7535 24.9811 13.7534 28.5124V28.516C13.7452 31.4873 14.6833 34.3845 16.4309 36.7875C18.1786 39.1904 20.6459 40.9752 23.4751 41.8829C24.0773 42.0763 24.4085 42.7209 24.2154 43.3232C24.0221 43.9257 23.3776 44.2576 22.7751 44.0644C19.4824 43.0081 16.6108 40.9313 14.577 38.1347C12.5434 35.3384 11.4522 31.9674 11.4618 28.5097C11.4625 24.3716 13.1064 20.4028 16.0326 17.4766C18.9593 14.5498 22.9293 12.9059 27.0684 12.9058Z" fill="#C3323C"/>
<path d="M25.1377 23.4801L26.5919 19.9485C26.674 19.7491 26.8684 19.619 27.0839 19.619C27.2995 19.619 27.4939 19.7491 27.576 19.9485L29.0302 23.4801C29.6092 24.886 30.7255 26.0025 32.1315 26.5814L35.663 28.0356C35.8626 28.1177 35.9926 28.312 35.9926 28.5276C35.9926 28.7432 35.8626 28.9375 35.663 29.0196L32.1315 30.4739C30.7255 31.0528 29.6092 32.1692 29.0302 33.5751L27.576 37.1068C27.4939 37.3061 27.2995 37.4363 27.0839 37.4363C26.8684 37.4363 26.674 37.3061 26.5919 37.1068L25.1377 33.5751C24.5588 32.1692 23.4424 31.0528 22.0365 30.4739L18.5048 29.0196C18.3054 28.9375 18.1753 28.7432 18.1753 28.5276C18.1753 28.312 18.3054 28.1177 18.5048 28.0356L22.0365 26.5814C23.4424 26.0025 24.5588 24.886 25.1377 23.4801Z" fill="#C3323C"/>
<path d="M33.4048 44.8766C33.4048 45.3551 32.7395 45.8139 31.5554 46.1522C30.3713 46.4905 28.7653 46.6806 27.0908 46.6806C25.4162 46.6806 23.8102 46.4905 22.6261 46.1522C21.442 45.8139 20.7768 45.3551 20.7768 44.8766V41.8699C25.5458 43.1903 28.3074 43.2177 33.4048 41.8699V44.8766Z" fill="#C3323C"/>
<path d="M33.2413 40.7358C33.5457 40.6919 33.8576 40.7724 34.1042 40.9623C34.3857 41.1792 34.5509 41.5146 34.5509 41.87V44.8769L34.5447 45.0246C34.4825 45.7502 33.9715 46.2372 33.5752 46.5106C33.1172 46.8265 32.5218 47.0673 31.8699 47.2536C30.5542 47.6295 28.836 47.8265 27.0905 47.8265C25.345 47.8265 23.6268 47.6295 22.3111 47.2536C21.6593 47.0674 21.0646 46.8264 20.6067 46.5106C20.184 46.2191 19.631 45.6848 19.6309 44.8769V41.87L19.639 41.7366C19.675 41.4294 19.8338 41.1473 20.083 40.9578C20.3678 40.7412 20.738 40.6698 21.0829 40.7653L21.9315 40.9918C23.8577 41.4838 25.4102 41.7222 26.9696 41.725C28.7543 41.7281 30.6118 41.4236 33.1115 40.7626L33.2413 40.7358ZM32.2593 43.3327C30.3067 43.7846 28.6336 44.0196 26.966 44.0166C25.3253 44.0137 23.7308 43.7807 21.9226 43.3479V44.6316C22.0969 44.7482 22.423 44.9025 22.9413 45.0506C23.9937 45.3512 25.4872 45.5348 27.0905 45.5349C28.694 45.5349 30.1881 45.3513 31.2405 45.0506C31.7591 44.9024 32.085 44.7482 32.2593 44.6316V43.3327Z" fill="#C3323C"/>
<path d="M30.9994 49.6865C30.9994 50.165 30.5876 50.6238 29.8546 50.9622C29.1216 51.3005 28.1274 51.4905 27.0907 51.4905C26.0541 51.4905 25.0599 51.3005 24.3269 50.9622C23.5939 50.6238 23.1821 50.165 23.1821 49.6865V46.6799C26.233 47.2887 27.9446 47.2933 30.9994 46.6799V49.6865Z" fill="#C3323C"/>
<path d="M30.7741 45.5564C31.1107 45.4889 31.4601 45.5761 31.7257 45.7936C31.9912 46.0113 32.1455 46.3365 32.1455 46.6799V49.6868L32.1339 49.9025C32.0243 50.9595 31.1213 51.6395 30.3346 52.0026C29.4147 52.4271 28.2474 52.6364 27.0904 52.6364C25.9334 52.6364 24.7661 52.4272 23.8463 52.0026C23.0074 51.6154 22.0364 50.8676 22.0362 49.6868V46.6799C22.0362 46.3367 22.1898 46.0113 22.4552 45.7936C22.7204 45.5761 23.0694 45.4894 23.4059 45.5564L23.9358 45.6585C26.5105 46.1343 28.051 46.1032 30.7741 45.5564ZM24.3279 49.6062C24.3293 49.6079 24.3307 49.6098 24.3324 49.6116C24.3934 49.6796 24.5357 49.7971 24.8068 49.9222C25.3529 50.1742 26.1743 50.3447 27.0904 50.3447C28.0064 50.3447 28.8279 50.1742 29.374 49.9222C29.6452 49.797 29.7884 49.6796 29.8494 49.6116C29.851 49.6098 29.8524 49.6079 29.8539 49.6062V48.0486C27.8586 48.3609 26.3194 48.3589 24.3279 48.0477V49.6062Z" fill="#C3323C"/>
<path d="M26.5175 8.10504V3.89589C26.5175 3.26307 27.0305 2.75006 27.6634 2.75006C28.2962 2.75006 28.8092 3.26307 28.8092 3.89589V8.10504C28.8092 8.73787 28.2962 9.25087 27.6634 9.25087C27.0305 9.25087 26.5175 8.73787 26.5175 8.10504Z" fill="#DF9298"/>
<path d="M49.9124 25.6008L50.0296 25.607C50.6074 25.6657 51.0582 26.1533 51.0582 26.7466C51.0582 27.3399 50.6074 27.8275 50.0296 27.8862L49.9124 27.8924H45.7032C45.0704 27.8924 44.5574 27.3794 44.5574 26.7466C44.5574 26.1138 45.0704 25.6008 45.7032 25.6008H49.9124Z" fill="#DF9298"/>
<path d="M45.5818 9.02034C46.0319 8.65347 46.6958 8.67968 47.1153 9.09911C47.5624 9.54653 47.5624 10.272 47.1153 10.7194L43.5068 14.3279L43.42 14.4058C42.97 14.773 42.3061 14.7472 41.8865 14.3279C41.439 13.8804 41.439 13.1542 41.8865 12.7067L45.4941 9.09911L45.5818 9.02034Z" fill="#DF9298"/>
<path d="M41.951 40.3084C42.4015 39.9223 43.0657 39.9471 43.4862 40.3478L43.5668 40.4329L47.1744 44.642C47.5862 45.1225 47.5304 45.846 47.0499 46.2578C46.5695 46.6694 45.8468 46.6137 45.435 46.1334L41.8265 41.9242L41.7549 41.8311C41.4236 41.3543 41.5006 40.6945 41.951 40.3084Z" fill="#DF9298"/>
<path d="M9.02174 25.6008L9.13901 25.607C9.71683 25.6657 10.1676 26.1533 10.1676 26.7466C10.1676 27.3399 9.71683 27.8275 9.13901 27.8862L9.02174 27.8924H4.8126C4.17977 27.8924 3.66676 27.3794 3.66676 26.7466C3.66676 26.1138 4.17977 25.6008 4.8126 25.6008H9.02174Z" fill="#DF9298"/>
<path d="M12.839 12.7067C13.2865 13.1542 13.2865 13.8804 12.839 14.3279C12.3916 14.7753 11.6653 14.7753 11.2178 14.3279L12.839 12.7067ZM7.61026 9.09912C8.02978 8.6796 8.69365 8.65323 9.14371 9.02034L9.23054 9.09912L12.839 12.7067L12.028 13.5168L11.2178 14.3279L7.61026 10.7194L7.53148 10.6326C7.16437 10.1825 7.19074 9.51864 7.61026 9.09912Z" fill="#DF9298"/>
<path d="M11.1588 40.4329C11.5705 39.9526 12.2933 39.8969 12.7737 40.3084C13.2542 40.7203 13.3099 41.4437 12.8981 41.9242L9.29053 46.1334C8.87869 46.6139 8.1552 46.6696 7.67472 46.2578C7.19426 45.846 7.13846 45.1225 7.55029 44.642L11.1588 40.4329Z" fill="#DF9298"/>
</svg>
