<svg width="55" height="55" viewBox="0 0 55 55" fill="none" xmlns="http://www.w3.org/2000/svg">
<path d="M35.75 22.5496C36.3917 21.8627 36.7564 23.5266 35.75 22.5496L9.90239 48.9809C9.21238 49.7233 8.02136 49.7532 7.29181 49.0449L4.37798 46.2162C3.64842 45.508 3.67918 44.356 4.4439 43.6819L31.625 18.6995C32.337 18.0766 32.2686 19.9225 33.275 20.8996L35.75 22.5496Z" fill="#1E5378"/>
<path d="M31.7406 18.3982L40.8249 9.98448C41.5149 9.36156 43.686 9.59196 44.3409 10.2447C45.0133 10.8805 45.2506 12.9881 44.609 13.658L35.9422 22.477C34.026 22.1613 31.8373 19.5587 31.7406 18.3982Z" fill="white"/>
<path d="M42.4717 8.38843C43.2047 8.40061 44.043 8.59514 44.7491 9.09921H44.81L45.1439 9.42237L45.2835 9.56649C45.9542 10.3011 46.2091 11.2425 46.2235 12.0596C46.2381 12.8976 46.0015 13.8466 45.4115 14.4784L45.4017 14.4891L45.3909 14.4998L10.7196 49.7844L10.7187 49.7835C9.62239 50.9379 7.79449 51.0103 6.60716 49.9714L6.49347 49.8667L3.57965 47.0388C2.36739 45.862 2.42424 43.935 3.68618 42.8225L40.0073 9.18246L40.0189 9.17082L40.0306 9.16097C40.6737 8.59834 41.629 8.37445 42.4717 8.38843ZM42.4341 10.6792C41.9345 10.6709 41.6163 10.8216 41.5425 10.8833L5.22231 44.5225L5.21247 44.5323L5.20173 44.5413C4.93433 44.777 4.92899 45.1548 5.17576 45.3944L8.08958 48.2232L8.1424 48.2688C8.41546 48.4824 8.82722 48.4539 9.06265 48.2008L9.07428 48.1891L9.08503 48.1775L43.7384 12.91C43.7925 12.8475 43.9399 12.5625 43.9318 12.0999C43.9244 11.68 43.789 11.3238 43.5746 11.0973L43.5433 11.0668C43.3072 10.8376 42.9089 10.6872 42.4341 10.6792Z" fill="#1E5378"/>
<path d="M32.8433 18.3459C32.8443 18.3518 32.8526 18.4054 32.8953 18.5124C32.94 18.6247 33.0105 18.7663 33.1101 18.9313C33.31 19.2625 33.5992 19.64 33.948 20.0047C34.6838 20.774 35.4956 21.2908 36.0893 21.3886L35.716 23.6498C34.3938 23.4318 33.1536 22.49 32.2919 21.5891C31.842 21.1188 31.4454 20.6086 31.1479 20.1157C30.869 19.6537 30.605 19.0902 30.5588 18.5357L32.8433 18.3459Z" fill="#1E5378"/>
<path d="M9.4299 8.33329L10.9113 4.73568C10.9949 4.53258 11.193 4.40002 11.4125 4.40002C11.632 4.40002 11.8301 4.53258 11.9137 4.73568L13.3951 8.33329C13.9849 9.76546 15.1221 10.9027 16.5543 11.4924L20.1518 12.9738C20.3551 13.0574 20.4875 13.2554 20.4875 13.475C20.4875 13.6947 20.3551 13.8926 20.1518 13.9762L16.5543 15.4576C15.1221 16.0473 13.9849 17.1846 13.3951 18.6168L11.9137 22.2144C11.8301 22.4175 11.632 22.55 11.4125 22.55C11.193 22.55 10.9949 22.4175 10.9113 22.2144L9.4299 18.6168C8.84019 17.1846 7.70292 16.0473 6.27076 15.4576L2.67314 13.9762C2.47006 13.8926 2.33749 13.6947 2.33749 13.475C2.33749 13.2554 2.47006 13.0574 2.67314 12.9738L6.27076 11.4924C7.70292 10.9027 8.84019 9.76546 9.4299 8.33329Z" fill="#006DCC"/>
<path d="M26.6508 41.553L27.5935 39.2636C27.6468 39.1344 27.7728 39.05 27.9125 39.05C28.0522 39.05 28.1782 39.1344 28.2315 39.2636L29.1741 41.553C29.5495 42.4644 30.2731 43.1881 31.1846 43.5634L33.4739 44.5061C33.6032 44.5593 33.6875 44.6853 33.6875 44.825C33.6875 44.9648 33.6032 45.0908 33.4739 45.144L31.1846 46.0867C30.2731 46.462 29.5495 47.1857 29.1741 48.0971L28.2315 50.3865C28.1782 50.5157 28.0522 50.6 27.9125 50.6C27.7728 50.6 27.6468 50.5157 27.5935 50.3865L26.6508 48.0971C26.2756 47.1857 25.5519 46.462 24.6405 46.0867L22.3511 45.144C22.2219 45.0908 22.1375 44.9648 22.1375 44.825C22.1375 44.6853 22.2219 44.5593 22.3511 44.5061L24.6405 43.5634C25.5519 43.1881 26.2756 42.4644 26.6508 41.553Z" fill="#0088FF"/>
<path d="M41.7851 29.9757L43.1318 26.7052C43.2079 26.5205 43.3879 26.4 43.5875 26.4C43.7871 26.4 43.9671 26.5205 44.0432 26.7052L45.3898 29.9757C45.926 31.2777 46.9598 32.3116 48.2619 32.8477L51.5323 34.1944C51.7171 34.2704 51.8375 34.4503 51.8375 34.65C51.8375 34.8497 51.7171 35.0297 51.5323 35.1057L48.2619 36.4524C46.9598 36.9885 45.926 38.0224 45.3898 39.3243L44.0432 42.5949C43.9671 42.7795 43.7871 42.9 43.5875 42.9C43.3879 42.9 43.2079 42.7795 43.1318 42.5949L41.7851 39.3243C41.249 38.0224 40.2152 36.9885 38.9132 36.4524L35.6426 35.1057C35.458 35.0297 35.3375 34.8497 35.3375 34.65C35.3375 34.4503 35.458 34.2704 35.6426 34.1944L38.9132 32.8477C40.2152 32.3116 41.249 31.2777 41.7851 29.9757Z" fill="#005299"/>
</svg>
