<svg width="55" height="55" viewBox="0 0 55 55" fill="none" xmlns="http://www.w3.org/2000/svg">
<g clip-path="url(#clip0_180_46172)">
<path fill-rule="evenodd" clip-rule="evenodd" d="M27.5 48.0425C38.6378 48.0425 47.6666 39.0136 47.6666 27.8759C47.6666 16.7381 38.6378 7.70917 27.5 7.70917C16.3622 7.70917 7.33331 16.7381 7.33331 27.8759C7.33331 39.0136 16.3622 48.0425 27.5 48.0425ZM27.5 35.4643C31.691 35.4643 35.0884 32.0668 35.0884 27.8759C35.0884 23.6849 31.691 20.2873 27.5 20.2873C23.309 20.2873 19.9115 23.6849 19.9115 27.8759C19.9115 32.0668 23.309 35.4643 27.5 35.4643Z" fill="#C3323C"/>
<path fill-rule="evenodd" clip-rule="evenodd" d="M33.1189 32.976C36.9018 35.5773 38.8516 37.4769 41.5715 41.572V42.3217C37.938 45.8618 32.9736 48.0425 27.4999 48.0425C22.0261 48.0425 17.0618 45.8618 13.4282 42.3217V41.572C16.2903 37.3416 18.2043 35.3005 21.8672 32.961C23.2559 34.4982 25.2651 35.4643 27.4999 35.4643C29.7273 35.4643 31.7307 34.5046 33.1189 32.976ZM32.6731 22.324C35.2811 17.8859 37.2571 15.8264 41.5706 13.4291C37.9371 9.88954 32.9731 7.70917 27.4999 7.70917C22.0266 7.70917 17.0625 9.88957 13.429 13.4291C17.7501 16.2807 19.7406 18.2149 22.3264 22.3242C23.6819 21.0605 25.5005 20.2873 27.4999 20.2873C29.499 20.2873 31.3177 21.0605 32.6731 22.324Z" fill="white"/>
<path d="M33.4391 31.53C37.6552 34.3843 39.7831 36.3932 42.7177 40.8113L41.5709 41.5713L40.4269 42.334C37.7096 38.243 35.8471 36.4812 31.8976 33.8074L33.4391 31.53Z" fill="#C3323C"/>
<path d="M14.1855 12.2818C18.6514 15.2288 20.7908 17.2997 23.4963 21.6006L22.3307 22.3311L21.1679 23.0643C18.6971 19.1364 16.8533 17.3352 12.6708 14.5753L14.1855 12.2818Z" fill="#C3323C"/>
<path d="M23.056 33.8369C19.2854 36.1795 17.4645 38.0594 14.567 42.342L12.2896 40.8005C15.3527 36.2733 17.4369 34.0904 21.6058 31.5005L23.056 33.8369Z" fill="#C3323C"/>
<path d="M42.2402 14.6317C40.1527 15.7917 38.697 16.8331 37.4572 18.0826C36.2122 19.3373 35.1308 20.8519 33.8532 23.0267L31.4846 21.6356C32.8172 19.3671 34.0303 17.6296 35.5048 16.1436C36.9844 14.6527 38.6741 13.4639 40.9028 12.2254L42.2402 14.6317Z" fill="#C3323C"/>
<path d="M46.2925 27.8749C46.292 17.497 37.8772 9.08417 27.4991 9.08417C17.1214 9.08465 8.70882 17.4973 8.70831 27.8749C8.70831 38.2529 17.1211 46.6679 27.4991 46.6684C37.8775 46.6684 46.2925 38.2532 46.2925 27.8749ZM49.0425 27.8749C49.0425 39.772 39.3963 49.4184 27.4991 49.4184C15.6023 49.4179 5.95831 39.7717 5.95831 27.8749C5.95882 15.9785 15.6026 6.33465 27.4991 6.33417C39.3959 6.33417 49.042 15.9782 49.0425 27.8749Z" fill="#C3323C"/>
<path d="M33.7126 27.8767C33.7126 24.4454 30.9321 21.6628 27.5009 21.6624C24.0693 21.6624 21.2866 24.4451 21.2866 27.8767C21.287 31.3079 24.0696 34.0884 27.5009 34.0884C30.9318 34.0879 33.7121 31.3076 33.7126 27.8767ZM36.4626 27.8767C36.4621 32.8263 32.4506 36.8379 27.5009 36.8384C22.5508 36.8384 18.537 32.8266 18.5366 27.8767C18.5366 22.9263 22.5505 18.9124 27.5009 18.9124C32.4509 18.9128 36.4626 22.9266 36.4626 27.8767Z" fill="#C3323C"/>
</g>
<defs>
<clipPath id="clip0_180_46172">
<rect width="44" height="44" fill="white" transform="translate(5.5 5.49988)"/>
</clipPath>
</defs>
</svg>
