<svg width="55" height="55" viewBox="0 0 55 55" fill="none" xmlns="http://www.w3.org/2000/svg">
<path d="M46.595 20.8043C46.0059 20.2672 45.7829 19.4349 46.0245 18.6751L46.7999 16.2372C47.3427 14.5151 46.2947 12.6902 44.5366 12.3106L42.0502 11.7632C41.2684 11.5889 40.6612 10.984 40.4924 10.1994L39.947 7.70041C39.5575 5.93764 37.7416 4.87865 36.0263 5.43161L33.5943 6.20773C32.832 6.45349 32.0057 6.22886 31.4642 5.63747L29.748 3.75302C28.5314 2.41934 26.4279 2.41243 25.2236 3.7517L23.5047 5.64373C22.9691 6.2333 22.1384 6.45588 21.3797 6.21313L18.9452 5.43399C17.2254 4.88861 15.4047 5.93662 15.0275 7.69735L14.4835 10.1874C14.3102 10.9703 13.707 11.578 12.9239 11.7464L10.4297 12.2902C8.67031 12.6786 7.6149 14.4966 8.16862 16.2154L8.94581 18.6523C9.1919 19.4162 8.96846 20.2436 8.37862 20.7855L6.49908 22.5028C5.16886 23.7201 5.16404 25.8272 6.50221 27.0349L8.39272 28.7586C8.9818 29.2957 9.20482 30.128 8.96323 30.8877L8.18783 33.3257C7.64507 35.0478 8.69309 36.8727 10.4512 37.2522L14.1248 38.3205C14.1248 38.3205 11.5014 46.0784 11.6939 49.0764C11.7851 50.4212 13.1837 51.1979 14.3687 50.5588C16.9117 49.1928 22.2583 42.9178 22.2583 42.9178L25.252 45.817C26.4686 47.1507 28.5721 47.1576 29.7764 45.8183L31.4953 43.9263C32.0309 43.3367 32.8616 43.1141 33.6203 43.3569L36.0549 44.136C37.7746 44.6814 39.5953 43.6334 39.9725 41.8726L40.5165 39.3826C40.6898 38.5997 41.293 37.992 42.0761 37.8236L44.5703 37.2798C46.3297 36.8913 47.3851 35.0734 46.8314 33.3546L46.0542 30.9177C45.8081 30.1538 46.0315 29.3263 46.6214 28.7845L48.5009 27.0672C49.8311 25.8498 49.836 23.7428 48.4978 22.5351L46.6073 20.8114L46.595 20.8043Z" fill="#006DCC"/>
<path d="M29.3052 33.4468C28.2359 34.5184 26.5797 34.5184 25.5104 33.4468L19.133 27.0546C14.8667 22.7384 20.4378 13.2023 27.4078 20.2537C34.3656 13.2147 39.9367 22.7509 35.6826 27.0546L29.3052 33.4468Z" fill="white"/>
</svg>
