<svg width="55" height="55" viewBox="0 0 55 55" fill="none" xmlns="http://www.w3.org/2000/svg">
<path d="M27.5 7.5C38.5457 7.5 47.5 16.4543 47.5 27.5C47.5 38.5457 38.5457 47.5 27.5 47.5C16.4543 47.5 7.5 38.5457 7.5 27.5C7.5 16.4543 16.4543 7.5 27.5 7.5Z" fill="#706049" stroke="#5A4D3B" stroke-width="3" stroke-miterlimit="10"/>
<path d="M31.6145 31.3658L39 17.5L22.692 23.7924L16 37.0455L31.6145 31.3658Z" fill="#F7F4EE" stroke="#F7F4EE" stroke-width="3" stroke-linecap="round" stroke-linejoin="round"/>
<path d="M26.5169 24.6671L27.2515 22.6849C27.2929 22.573 27.3911 22.5 27.5 22.5C27.6089 22.5 27.7071 22.573 27.7485 22.6849L28.4831 24.6671C28.7756 25.4562 29.3395 26.0828 30.0497 26.4077L31.8335 27.2239C31.9343 27.2699 32 27.379 32 27.5C32 27.621 31.9343 27.7301 31.8335 27.7761L30.0497 28.5923C29.3395 28.9172 28.7756 29.5438 28.4831 30.3329L27.7485 32.3151C27.7071 32.427 27.6089 32.5 27.5 32.5C27.3911 32.5 27.2929 32.427 27.2515 32.3151L26.5169 30.3329C26.2245 29.5438 25.6605 28.9172 24.9504 28.5923L23.1664 27.7761C23.0657 27.7301 23 27.621 23 27.5C23 27.379 23.0657 27.2699 23.1664 27.2239L24.9504 26.4077C25.6605 26.0828 26.2245 25.4562 26.5169 24.6671Z" fill="#9C8664"/>
</svg>
