<svg width="55" height="55" viewBox="0 0 55 55" fill="none" xmlns="http://www.w3.org/2000/svg">
<path d="M11.1362 36.1413C13.366 32.6701 15.1259 30.4532 16.4159 29.0498C17.9446 27.3869 20.1975 27.3871 21.7262 29.0501C22.7261 30.138 24.0088 31.7149 25.5738 33.9862C25.7959 33.5489 26.0292 33.1028 26.2739 32.6479C29.0067 27.5696 31.0776 24.6006 32.4864 22.8889C33.7496 21.3541 35.7183 21.3543 36.9816 22.8891C38.3902 24.6008 40.461 27.5698 43.1941 32.6479C43.7823 33.7407 44.3246 34.7684 44.8239 35.7327C42.145 38.6847 38.4 42.3065 35.6968 42.8903C32.1466 43.6572 25.3058 38.3454 25.3058 38.3454C25.3058 38.3454 19.0712 42.2843 16.993 41.8803C15.5895 41.6075 12.5274 39.4769 10.207 37.6037C10.5022 37.1337 10.8117 36.6464 11.1362 36.1413Z" fill="white"/>
<path d="M34.5015 11.6555V16.6953C34.5015 16.6953 36.9724 16.2369 41.4197 14.4045C41.9672 14.1789 42.4569 13.9672 42.8948 13.7694C45.1932 12.731 45.1931 10.5801 42.8947 9.5416C42.4568 9.34378 41.9672 9.13207 41.4197 8.90648C39.5092 8.11908 37.9633 7.58542 36.8214 7.23282C35.6267 6.86387 34.5015 7.77494 34.5015 9.03434V11.6555Z" fill="#C3323C"/>
<path d="M49.2977 45.1503C49.8798 46.549 49.175 47.98 47.6885 48.2165C45.4665 48.5698 41.5053 48.9488 34.734 48.9488H23.8991H23.8927H19.0711C13.209 48.9488 9.59246 48.6951 7.43148 48.4377C5.80045 48.2434 5.03589 46.678 5.79432 45.2098C6.66127 43.5315 8.05317 41.0307 10.2069 37.6022C12.5274 39.4754 15.5895 41.606 16.9929 41.8789C19.0711 42.2829 25.3058 38.3439 25.3058 38.3439C25.3058 38.3439 32.1465 43.6557 35.6968 42.8889C38.4 42.305 42.145 38.6833 44.8238 35.7311C47.11 40.1458 48.499 43.2313 49.2977 45.1503Z" fill="#1E5378"/>
<path d="M33.456 8.7231C33.456 6.66189 35.4997 4.98461 37.798 5.6466L38.8159 5.9516C39.9123 6.2929 41.2431 6.74629 42.7911 7.34133L44.3976 7.9858L44.9521 8.25102C46.1938 8.92623 47.079 9.99027 47.079 11.3116C47.0787 12.6324 46.1934 13.6945 44.9521 14.3695L44.3976 14.6348L42.7911 15.2819C40.3888 16.2051 38.509 16.7858 37.2179 17.1384C36.8992 17.2254 36.6137 17.2897 36.3677 17.3506V20.0823C37.2392 20.3273 38.033 20.8278 38.6624 21.541L39.2822 22.2677C40.802 24.1039 42.8396 26.9647 45.3985 31.399L47.133 34.4649L48.7879 37.5123C50.2754 40.322 51.2741 42.4189 51.9214 43.8695L52.0721 44.2567C52.3683 45.171 52.2967 46.1319 51.8418 46.9566C51.3811 47.7912 50.5699 48.4072 49.5528 48.6699L49.1035 48.76C46.652 49.1237 42.3768 49.5 35.1592 49.5H18.5734C13.8904 49.5 10.532 49.358 8.14924 49.1764L6.0792 48.9855C4.76202 48.8391 3.68455 48.1492 3.13338 47.1237C2.58755 46.1076 2.63047 44.8998 3.22437 43.827L4.03476 42.4002C4.95887 40.8212 6.23145 38.7731 7.95588 36.2127L8.94825 34.7567L9.82403 33.5102C11.8146 30.7288 13.4368 28.8429 14.692 27.5693L15.1015 27.1901C16.0932 26.3569 17.3068 25.8987 18.5734 25.8985C20.0209 25.8985 21.4004 26.4967 22.4575 27.5693L23.3447 28.5108C23.9271 29.1512 24.5691 29.9068 25.2754 30.7943C28.0279 26.0903 30.1487 23.246 31.6533 21.541L32.0115 21.175C32.4411 20.776 32.9309 20.4673 33.456 20.252V8.7231ZM45.4781 37.4274C44.375 38.4946 43.1744 39.5886 41.9551 40.541C40.4467 41.7192 38.7711 42.8119 37.1667 43.3099L36.4843 43.4849C35.1553 43.7524 33.6917 43.4723 32.4011 43.0606C31.0732 42.6369 29.7272 42.0069 28.5454 41.3764C27.3565 40.7422 26.2955 40.0842 25.5341 39.5889C25.3752 39.4855 25.2313 39.3855 25.0991 39.2972C25.0194 39.3414 24.9375 39.3917 24.8489 39.4404C24.1803 39.8072 23.2591 40.295 22.2642 40.7718C21.2765 41.245 20.1817 41.7235 19.1676 42.0607C18.6604 42.2293 18.1432 42.3729 17.6521 42.4585C17.2974 42.5204 16.8989 42.5641 16.4976 42.5407L16.0967 42.493C15.5198 42.3884 14.8914 42.1345 14.3053 41.8538C13.6953 41.5617 13.0285 41.1903 12.3519 40.7797C11.4437 40.2286 10.4882 39.5856 9.57665 38.9391C7.79396 41.6457 6.58817 43.6641 5.80907 45.0709V45.0736C5.60151 45.4494 5.64567 45.7393 5.73514 45.9063C5.8198 46.0639 6.01374 46.2427 6.42326 46.2882L8.38809 46.4686C10.6713 46.6425 13.9475 46.7842 18.5734 46.7842H35.1592C42.2795 46.7842 46.3922 46.4104 48.6458 46.0761L48.8761 46.0204C49.075 45.9473 49.1899 45.8294 49.2543 45.7127C49.3234 45.5868 49.366 45.3992 49.3168 45.1637L49.2343 44.9118C48.5197 43.3103 47.3317 40.8526 45.4781 37.4274ZM35.1592 22.6257C34.8363 22.6257 34.443 22.7469 34.0645 23.1004L33.9024 23.2675C32.6643 24.6706 30.8695 27.0299 28.5226 30.9216L27.4819 32.6853C27.2282 33.125 26.9868 33.5574 26.7568 33.9796C26.5242 34.4058 26.0685 34.6876 25.5569 34.7195C25.0447 34.7514 24.5515 34.5276 24.2603 34.1334C23.0412 32.4835 21.997 31.2234 21.1268 30.2666L20.3135 29.4073C19.7523 28.8379 19.1276 28.6143 18.5734 28.6143C18.0886 28.6145 17.5519 28.787 17.0493 29.211L16.836 29.4073C15.701 30.5588 14.1699 32.3293 12.2467 35.0166L11.3965 36.226C11.3038 36.3605 11.2138 36.4945 11.1235 36.6264C12.051 37.291 13.029 37.9495 13.9385 38.5015C14.5651 38.8818 15.1436 39.2019 15.6361 39.4377C16.1516 39.6846 16.4851 39.7974 16.6512 39.8276L16.7763 39.8302C16.8609 39.8269 16.9744 39.8154 17.1175 39.7905C17.4083 39.7397 17.769 39.6438 18.1895 39.504C19.0309 39.2243 19.9968 38.8044 20.9334 38.3556C21.8639 37.9098 22.7351 37.4486 23.3731 37.0985C23.6903 36.9244 23.9485 36.7786 24.1266 36.6768C24.2155 36.626 24.2853 36.5869 24.3314 36.5601C24.3544 36.5468 24.3713 36.5349 24.3825 36.5283C24.3872 36.5256 24.3914 36.5245 24.3939 36.523L24.3968 36.5203C24.9142 36.2154 25.5818 36.2455 26.0659 36.5946H26.0687L26.0829 36.6079C26.0947 36.6163 26.1151 36.6275 26.1398 36.645C26.1894 36.6802 26.264 36.734 26.3616 36.8015C26.5573 36.9367 26.8446 37.1322 27.2004 37.3637C27.9144 37.8282 28.8988 38.4366 29.9898 39.0187C31.0881 39.6047 32.2584 40.1439 33.3451 40.4906C34.4687 40.849 35.32 40.9408 35.8701 40.8301L36.2852 40.7214C37.2987 40.3995 38.6106 39.6099 40.0841 38.4591C41.4553 37.3881 42.8349 36.1018 44.0706 34.8681L42.8337 32.6853C40.3283 28.3436 38.3761 25.616 36.979 23.9279L36.4132 23.2675C35.9873 22.785 35.5283 22.626 35.1592 22.6257ZM36.3677 14.5366C36.3778 14.5339 36.3888 14.5341 36.399 14.5313C37.593 14.2052 39.3763 13.6565 41.6821 12.7703L43.2005 12.1603L43.5019 12.0171C44.1203 11.6838 44.1669 11.37 44.1673 11.3116C44.1673 11.2553 44.1235 10.9384 43.5019 10.6035L43.2005 10.4603L41.6821 9.85027C40.1967 9.2793 38.9283 8.8486 37.8946 8.52684L36.9392 8.24041C36.7815 8.19498 36.6614 8.22674 36.5667 8.2961C36.4639 8.37164 36.3677 8.51443 36.3677 8.7231V14.5366Z" fill="#1E5378"/>
</svg>
