<svg width="55" height="55" viewBox="0 0 55 55" fill="none" xmlns="http://www.w3.org/2000/svg">
<path d="M6.05779 41.3533C6.2961 43.942 8.14917 45.9306 10.6136 46.1547C13.8126 46.4455 19.1529 46.7496 27.5 46.7496C35.8471 46.7496 41.1874 46.4455 44.3864 46.1547C46.8508 45.9306 48.7039 43.942 48.9422 41.3533C49.2149 38.3906 49.5 34.0548 49.5 28.8746C49.5 23.6945 49.2149 19.3587 48.9422 16.396C48.7039 13.8073 46.8508 11.8186 44.3864 11.5946C41.1874 11.3037 35.8471 10.9996 27.5 10.9996C19.1529 10.9996 13.8126 11.3037 10.6136 11.5946C8.14918 11.8186 6.2961 13.8073 6.05779 16.396C5.78506 19.3587 5.5 23.6945 5.5 28.8746C5.5 34.0548 5.78506 38.3906 6.05779 41.3533Z" fill="#751E24"/>
<path d="M42.5001 19.6138L42.7767 19.6406C43.4035 19.7687 43.8751 20.3241 43.8751 20.9888C43.8751 21.6534 43.4035 22.2089 42.7767 22.3369L42.5001 22.3638H34.4999C33.7405 22.3638 33.1249 21.7482 33.1249 20.9888C33.1249 20.2294 33.7405 19.6138 34.4999 19.6138H42.5001Z" fill="white"/>
<path d="M42.5001 27.5004L42.7767 27.5272C43.4035 27.6553 43.8751 28.2107 43.8751 28.8754C43.8751 29.54 43.4035 30.0955 42.7767 30.2235L42.5001 30.2504H34.4999C33.7405 30.2504 33.1249 29.6348 33.1249 28.8754C33.1249 28.116 33.7405 27.5004 34.4999 27.5004H42.5001Z" fill="white"/>
<path d="M42.5001 35.3856L42.7767 35.4125C43.4035 35.5405 43.8751 36.096 43.8751 36.7606C43.8751 37.4252 43.4035 37.9807 42.7767 38.1088L42.5001 38.1356H34.4999C33.7405 38.1356 33.1249 37.52 33.1249 36.7606C33.1249 36.0012 33.7405 35.3856 34.4999 35.3856H42.5001Z" fill="white"/>
<path d="M23.8534 30.8093C26.177 29.561 27.7692 27.0083 27.7692 24.0622C27.7692 19.8858 24.5695 16.5 20.6224 16.5C16.6754 16.5 13.4757 19.8858 13.4757 24.0622C13.4757 27.0092 15.0689 29.5625 17.3935 30.8104C14.3448 31.903 11.9741 34.4982 11.1085 37.7402C10.658 39.4274 11.6531 40.8128 13.3026 40.9795C14.7675 41.1275 17.0576 41.25 20.625 41.25C24.1924 41.25 26.4824 41.1275 27.9475 40.9795C29.5969 40.8128 30.592 39.4274 30.1415 37.7402C29.2756 34.4971 26.9036 31.9013 23.8534 30.8093Z" fill="white"/>
</svg>
