<svg width="55" height="55" viewBox="0 0 55 55" fill="none" xmlns="http://www.w3.org/2000/svg">
<path d="M46.7255 16.3802C35.8026 17.9111 30.3482 26.1068 30.3482 26.1068C28.7959 27.7303 26.2041 27.7303 24.6518 26.1068C24.6518 26.1068 19.1903 17.9182 8.27456 16.3802C6.39474 16.1167 4.71429 17.5693 4.71429 19.4634V37.7275C4.71429 39.5504 6.09568 41.0315 7.89717 41.2593C19.0693 42.655 24.6518 51.0287 24.6518 51.0287C24.6518 51.0287 25.2357 52.1965 27.4074 52.1965C29.5792 52.1965 30.3482 51.0287 30.3482 51.0287C30.3482 51.0287 35.9307 42.655 47.1028 41.2593C48.9115 41.0315 50.2857 39.5433 50.2857 37.7275V19.4634C50.2857 17.5693 48.6053 16.1238 46.7255 16.3873V16.3802Z" fill="#5A4D3B"/>
<path d="M44.2452 13.1848C33.1649 14.6302 27.6246 22.9405 27.6246 22.9405V47.8624C27.6246 47.8624 33.1649 39.5521 44.2452 38.1066C46.0652 37.8693 47.5621 36.4059 47.5621 34.5707V16.2947C47.5621 14.4595 46.0652 12.9475 44.2452 13.1848Z" fill="white"/>
<path d="M11.004 13.1848C22.0844 14.6302 27.6246 22.9405 27.6246 22.9405V47.8624C27.6246 47.8624 22.0844 39.5521 11.004 38.1066C9.18417 37.8693 7.68713 36.4059 7.68713 34.5707V16.2947C7.68713 14.4595 9.18417 12.9475 11.004 13.1848Z" fill="white"/>
<path d="M44.2452 13.1848C33.1649 14.6302 27.6246 22.9405 27.6246 22.9405V47.8624C27.6246 47.8624 33.1649 39.5521 44.2452 38.1066C46.0652 37.8693 47.5621 36.4059 47.5621 34.5707V16.2947C47.5621 14.4595 46.0652 12.9475 44.2452 13.1848Z" stroke="#5A4D3B" stroke-width="3" stroke-linecap="round" stroke-linejoin="round"/>
<path d="M39.2499 7.24354C27.6246 8.50436 27.6246 22.9397 27.6246 22.9397V47.8616C27.6246 47.8616 27.6246 34.811 37.618 32.4437C39.4037 32.0206 40.9163 30.59 40.9163 28.7548V8.81732C40.9163 7.89972 40.162 7.1446 39.2499 7.24354Z" fill="#CABDA9"/>
<path d="M39.2499 7.24354C27.6246 8.50436 27.6246 22.9397 27.6246 22.9397V47.8616C27.6246 47.8616 27.6246 34.811 37.618 32.4437C39.4037 32.0206 40.9163 30.59 40.9163 28.7548V8.81732C40.9163 7.89972 40.162 7.1446 39.2499 7.24354Z" stroke="#5A4D3B" stroke-width="3" stroke-linecap="round" stroke-linejoin="round"/>
<path d="M11.004 13.1848C22.0844 14.6302 27.6246 22.9405 27.6246 22.9405V47.8624C27.6246 47.8624 22.0844 39.5521 11.004 38.1066C9.18417 37.8693 7.68713 36.4059 7.68713 34.5707V16.2947C7.68713 14.4595 9.18417 12.9475 11.004 13.1848Z" stroke="#5A4D3B" stroke-width="3" stroke-linecap="round" stroke-linejoin="round"/>
</svg>
