<svg width="55" height="55" viewBox="0 0 55 55" fill="none" xmlns="http://www.w3.org/2000/svg">
<path d="M20.8449 8.402C20.8449 7.93836 21.217 7.5625 21.676 7.5625C25.3481 7.5625 28.3249 10.5694 28.3249 14.2785C28.3249 14.7422 27.9528 15.118 27.4938 15.118C23.8218 15.118 20.8449 12.1112 20.8449 8.402Z" fill="#485739"/>
<path d="M23.1411 9.87207C23.5944 11.2562 24.6712 12.3394 26.0226 12.8047C25.5676 11.4208 24.4939 10.3355 23.1411 9.87207ZM30.3867 14.2791C30.3864 15.8618 29.1114 17.1792 27.4943 17.1794C22.6641 17.1794 18.783 13.2313 18.7824 8.40308C18.7824 6.82028 20.0579 5.5007 21.6747 5.5L22.1259 5.51074C26.7453 5.74691 30.3867 9.60123 30.3867 14.2791Z" fill="#485739"/>
<path d="M34.8711 19.3965C37.8645 19.3966 40.771 20.3628 42.9258 22.4249C45.0744 24.4812 46.5253 27.6746 46.5254 32.2296C46.5254 36.7925 45.068 40.9096 42.8701 43.876C40.6663 46.8503 37.7609 48.618 34.8711 48.6182C32.5655 48.6182 30.4375 48.0816 28.5459 47.1475L28.3252 47.0381L28.1035 47.1475C26.2119 48.0815 24.0849 48.6182 21.7793 48.6182C18.8893 48.6182 15.9842 46.8505 13.7803 43.876C11.5823 40.9096 10.125 36.7926 10.125 32.2296C10.125 27.6745 11.5759 24.4812 13.7246 22.4249C15.8794 20.3627 18.7857 19.3966 21.7793 19.3965C23.6703 19.3965 25.9273 19.8825 28.1299 20.8165L28.3252 20.8985L28.5205 20.8165C30.7231 19.8825 32.9801 19.3965 34.8711 19.3965Z" fill="#5A7D4D" stroke="#4D6343"/>
<path d="M45.6489 32.2303C45.6489 27.8702 44.2684 24.9197 42.3215 23.0565C40.3581 21.1774 37.682 20.2718 34.8718 20.2715C33.3369 20.2715 31.5042 20.6178 29.6538 21.3055L28.8616 21.6224C28.6046 21.7312 28.3227 21.7573 28.0532 21.7029L27.7874 21.6224C25.6733 20.726 23.5335 20.2716 21.7798 20.2715C18.9695 20.2715 16.2938 21.1775 14.3301 23.0565C12.3831 24.9197 11 27.87 11 32.2303C11.0001 36.6122 12.4007 40.546 14.4832 43.3565C16.5819 46.1887 19.2543 47.7447 21.7798 47.7447C23.9462 47.7446 25.9422 47.2382 27.7175 46.3616L28.0156 46.2569C28.3217 46.1862 28.6467 46.2198 28.9341 46.3616C30.7095 47.2383 32.7053 47.7447 34.8718 47.7447C37.3968 47.7442 40.0674 46.1879 42.1658 43.3565C44.2483 40.546 45.6488 36.6122 45.6489 32.2303ZM48.3989 32.2303C48.3988 37.1811 46.8212 41.6917 44.376 44.992C41.9469 48.2702 38.5421 50.4942 34.8718 50.4947C32.5109 50.4947 30.3105 49.9876 28.3245 49.1063C26.3388 49.9873 24.1402 50.4946 21.7798 50.4947C18.1091 50.4947 14.7022 48.2706 12.2729 44.992C9.82791 41.6917 8.25011 37.1809 8.25 32.2303C8.25 27.2573 9.84762 23.5392 12.4287 21.0692C14.993 18.6156 18.3943 17.5215 21.7798 17.5215C23.8022 17.5216 26.0971 18.0027 28.3245 18.8777C30.5523 18.0024 32.8491 17.5215 34.8718 17.5215C38.2572 17.5218 41.6589 18.6154 44.2229 21.0692C46.8039 23.5392 48.3989 27.2574 48.3989 32.2303Z" fill="#485739"/>
<path d="M26.2625 20.3142V17.3225C26.2625 14.5035 27.0862 11.8168 28.7252 9.79224C30.3944 7.73069 32.8467 6.44626 35.8043 6.44604C36.9433 6.44604 37.8668 7.36946 37.8668 8.50854C37.8668 9.64763 36.9433 10.571 35.8043 10.571C34.1342 10.5713 32.8451 11.2611 31.9317 12.3892C30.9886 13.5545 30.3875 15.2747 30.3875 17.3225V20.3142C30.3874 21.4532 29.464 22.3767 28.325 22.3767C27.186 22.3767 26.2626 21.4532 26.2625 20.3142Z" fill="#485739"/>
</svg>
