<svg width="55" height="55" viewBox="0 0 55 55" fill="none" xmlns="http://www.w3.org/2000/svg">
<path d="M24.394 15.6224C24.3885 14.9929 24.4807 14.3163 24.6734 13.5973C25.6109 10.0987 28.1062 8.65799 31.6048 9.59546C35.1035 10.5329 36.5442 13.0283 35.6067 16.5269C35.4141 17.2459 35.1556 17.878 34.8362 18.4204C36.8332 19.068 38.8159 19.7438 40.2244 20.2311C41.4136 20.6425 42.1765 21.797 42.1161 23.0538L42.0965 23.4687C42.013 25.2257 41.8391 26.9783 41.5767 28.7176C41.697 28.7447 41.8187 28.7747 41.9413 28.8076C45.453 29.7485 46.899 32.2531 45.958 35.7646C45.0171 39.2762 42.5126 40.7223 39.0009 39.7813C38.887 39.7508 38.7754 39.7186 38.6659 39.6848C38.0456 41.286 37.3445 42.8558 36.5645 44.3859L36.3673 44.7729C35.7958 45.8951 34.5606 46.5205 33.3229 46.2881C26.0016 44.914 18.7989 42.984 11.7714 40.5134C10.5836 40.0956 9.82644 38.9363 9.89263 37.679L9.91531 37.2453C10.0088 35.4555 10.099 33.7273 10.3185 31.9081C10.7679 32.1324 11.2702 32.3198 11.824 32.4682C15.3227 33.4057 17.818 31.965 18.7555 28.4663C19.693 24.9676 18.2523 22.4723 14.7536 21.5348C14.2097 21.3891 13.6901 21.3008 13.1968 21.2689C13.9357 19.5589 14.7441 17.9913 15.5832 16.3641L15.7734 15.9952C16.3497 14.8766 17.5876 14.2582 18.8232 14.4965C20.2864 14.7788 22.341 15.1848 24.394 15.6224Z" fill="#5A7D4D" stroke="#4D6343" stroke-width="3" stroke-linecap="round" stroke-linejoin="round"/>
</svg>
