<svg width="40" height="40" viewBox="0 0 40 40" fill="none" xmlns="http://www.w3.org/2000/svg">
<circle cx="20" cy="20" r="18" fill="#E2E8F0"/>
<path d="M28.25 15.3333C28.25 13.2779 27.4335 11.3066 25.9801 9.85324C24.5267 8.39983 22.5554 7.58331 20.5 7.58331C18.4446 7.58331 16.4733 8.39983 15.0199 9.85324C13.5665 11.3066 12.75 13.2779 12.75 15.3333C12.75 24.375 8.875 26.9583 8.875 26.9583H32.125C32.125 26.9583 28.25 24.375 28.25 15.3333Z" fill="white" stroke="#184463" stroke-width="2" stroke-linecap="round" stroke-linejoin="round"/>
<path d="M22.7346 32.125C22.5075 32.5165 22.1815 32.8414 21.7894 33.0673C21.3972 33.2932 20.9526 33.4121 20.5 33.4121C20.0474 33.4121 19.6028 33.2932 19.2106 33.0673C18.8184 32.8414 18.4925 32.5165 18.2654 32.125" stroke="#184463" stroke-width="2" stroke-linecap="round" stroke-linejoin="round"/>
</svg>
