<svg width="40" height="40" viewBox="0 0 40 40" fill="none" xmlns="http://www.w3.org/2000/svg">
<circle cx="20" cy="22" r="18" fill="#E2E8F0"/>
<path d="M11.9659 17.535L11.9646 17.53L7.31102 23.1143C7.19479 23.2538 7.11208 23.418 7.06927 23.5945C7.02646 23.7709 7.02469 23.9549 7.06408 24.1321L8.89919 32.3901C8.94293 32.587 9.03608 32.7694 9.16986 32.9203C9.30364 33.0712 9.47365 33.1856 9.66385 33.2526C9.85405 33.3196 10.0582 33.337 10.257 33.3033C10.4558 33.2696 10.6428 33.1858 10.8002 33.0598L15.25 29.5C12.6323 24.9651 11.7977 20.9614 11.9659 17.535Z" fill="#CCE7FF"/>
<path d="M27.9447 17.4278L27.9461 17.4228L32.5996 23.0071C32.7159 23.1466 32.7986 23.3109 32.8414 23.4873C32.8842 23.6638 32.886 23.8477 32.8466 24.0249L31.0115 32.2829C30.9677 32.4798 30.8746 32.6623 30.7408 32.8131C30.607 32.964 30.437 33.0784 30.2468 33.1454C30.0566 33.2124 29.8525 33.2299 29.6536 33.1961C29.4548 33.1624 29.2679 33.0786 29.1104 32.9526L24.6606 29.3928C27.2783 24.8579 28.1129 20.8542 27.9447 17.4278Z" fill="#CCE7FF"/>
<path d="M22.375 34.25H17.625" stroke="#184463" stroke-width="2" stroke-linecap="round" stroke-linejoin="round"/>
<path d="M19.2534 3.93351C16.4342 6.19186 7.00493 15.2161 15.25 29.5H24.75C32.8236 15.2262 23.5322 6.20463 20.7426 3.93832C20.5323 3.76738 20.2698 3.67367 19.9989 3.6728C19.7279 3.67192 19.4648 3.76394 19.2534 3.93351Z" fill="white" stroke="#184463" stroke-width="2" stroke-linecap="round" stroke-linejoin="round"/>
<path d="M11.9646 17.53L7.31103 23.1143C7.1948 23.2538 7.11209 23.418 7.06928 23.5945C7.02647 23.7709 7.02469 23.9549 7.06407 24.1321L8.8992 32.3901C8.94294 32.587 9.0361 32.7695 9.16988 32.9204C9.30366 33.0712 9.47367 33.1856 9.66387 33.2526C9.85406 33.3196 10.0582 33.337 10.257 33.3033C10.4558 33.2696 10.6428 33.1858 10.8002 33.0598L15.25 29.5" stroke="#184463" stroke-width="2" stroke-linecap="round" stroke-linejoin="round"/>
<path d="M27.9461 17.4228L32.689 23.1143C32.8052 23.2538 32.8879 23.418 32.9307 23.5945C32.9735 23.7709 32.9753 23.9548 32.9359 24.1321L31.1008 32.3901C31.0571 32.587 30.9639 32.7695 30.8301 32.9203C30.6963 33.0712 30.5263 33.1856 30.3361 33.2526C30.1459 33.3196 29.9418 33.337 29.743 33.3033C29.5442 33.2696 29.3572 33.1858 29.1998 33.0598L24.75 29.5" stroke="#184463" stroke-width="2" stroke-linecap="round" stroke-linejoin="round"/>
<path d="M20 17.0312C20.9838 17.0312 21.7812 16.2338 21.7812 15.25C21.7812 14.2662 20.9838 13.4688 20 13.4688C19.0162 13.4688 18.2188 14.2662 18.2188 15.25C18.2188 16.2338 19.0162 17.0312 20 17.0312Z" fill="#184463"/>
</svg>
