<svg width="40" height="40" viewBox="0 0 40 40" fill="none" xmlns="http://www.w3.org/2000/svg">
<circle cx="20" cy="22" r="18" fill="#1E5378"/>
<path d="M29.2683 6.19834V9.17928C28.7851 9.00255 28.2652 8.90639 27.7236 8.90639H9.18699C8.33387 8.90639 7.64227 8.19064 7.64227 7.30774V7.19415C7.64227 6.34204 8.24769 5.61961 9.06278 5.4991L25.742 3.03316C27.6031 2.75799 29.2683 4.25262 29.2683 6.19834Z" fill="#CCE7FF"/>
<path d="M28.4553 6.19833C28.4553 4.75092 27.2201 3.65647 25.8581 3.85784L9.17874 6.32398C8.76954 6.38455 8.45529 6.75061 8.45529 7.19443V7.30771C8.45529 7.73796 8.79025 8.07333 9.18699 8.07333H27.7236C27.9715 8.07333 28.2157 8.09018 28.4553 8.12346V6.19833ZM30.0813 10.3617L28.9952 9.96396C28.5984 9.81882 28.1706 9.74 27.7236 9.74H9.18699C7.8775 9.74 6.82927 8.64326 6.82927 7.30771V7.19443C6.82927 5.93405 7.72599 4.85475 8.9469 4.67424L25.6256 2.2081C27.9858 1.85913 30.0813 3.75431 30.0813 6.19833V10.3617Z" fill="#11354E"/>
<path fill-rule="evenodd" clip-rule="evenodd" d="M7.64227 30.13V7.40247C7.64227 8.29904 8.33387 9.02587 9.18699 9.02587H27.7236C30.283 9.02587 32.3577 11.2063 32.3577 13.8961V30.13C32.3577 32.8199 30.283 35.0003 27.7236 35.0003H12.2764C9.71706 35.0003 7.64227 32.8199 7.64227 30.13Z" fill="white"/>
<path d="M19.0629 20.2123L17.5929 17.614C17.4753 17.4067 17.5623 17.157 17.7693 17.0368C21.6077 14.7942 27.0337 11.6729 31.9117 11.0039C32.1586 10.9709 32.375 11.1664 32.375 11.4161V14.4526C32.375 14.6599 32.2245 14.839 32.0175 14.8625C27.8663 15.3596 22.6896 18.3937 19.6062 20.3749C19.4204 20.4927 19.1711 20.4008 19.0629 20.21V20.2123Z" fill="#C3323C"/>
<path d="M21.4619 23.2866C22.9625 22.1605 28.4237 18.5822 31.9164 18.177C32.161 18.1488 32.375 18.3443 32.375 18.5916V21.6517C32.375 21.8614 32.2198 22.0333 32.0128 22.0639C28.4778 22.5846 25.1568 25.2182 23.2659 26.4785C23.0706 26.6081 22.8049 26.5327 22.6896 26.3278L21.2949 23.8566C21.1797 23.654 21.2737 23.4255 21.4619 23.2866Z" fill="#C3323C"/>
<path d="M14.1073 18.8225L14.9188 21.3219C14.9634 21.4609 15.0928 21.5551 15.2386 21.5551H17.8634C18.1903 21.5551 18.3244 21.9721 18.061 22.1653L15.9372 23.7106C15.8196 23.7954 15.7702 23.9485 15.8149 24.0875L16.6263 26.5869C16.7274 26.8979 16.3723 27.1546 16.1089 26.9638L13.985 25.4185C13.8674 25.3337 13.7075 25.3337 13.5899 25.4185L11.4661 26.9638C11.2027 27.1546 10.8475 26.8979 10.9486 26.5869L11.7601 24.0875C11.8048 23.9485 11.7554 23.7978 11.6378 23.7106L9.51395 22.1653C9.25053 21.9744 9.38694 21.5551 9.71151 21.5551H12.3363C12.4821 21.5551 12.6115 21.4609 12.6562 21.3219L13.4676 18.8225C13.5687 18.5116 14.0062 18.5116 14.1073 18.8225Z" fill="#184463"/>
<path d="M31.5447 13.896C31.5447 11.6467 29.8149 9.8595 27.7236 9.8595H9.18699C8.93044 9.8595 8.68487 9.81624 8.45529 9.7384V30.1303C8.45543 32.3795 10.1852 34.1668 12.2764 34.1668H27.7236C29.8149 34.1668 31.5446 32.3795 31.5447 30.1303V13.896ZM33.1707 30.1303C33.1706 33.2605 30.751 35.8335 27.7236 35.8335H12.2764C9.24912 35.8335 6.82942 33.2605 6.82927 30.1303V7.40247H8.45529C8.45529 7.85856 8.80192 8.19283 9.18699 8.19283H27.7236C30.751 8.19283 33.1707 10.7658 33.1707 13.896V30.1303Z" fill="#11354E"/>
</svg>
