<?xml version="1.0" encoding="UTF-8"?>
<svg width="128pt" height="128pt" version="1.1" viewBox="0 0 128 128" xmlns="http://www.w3.org/2000/svg">
 <path d="m57.09 63.871c0 3.7109 3.0703 6.7852 6.7852 6.7852 3.7109 0 6.7852-3.0703 6.7852-6.7852 0-3.7109-3.0703-6.7852-6.7852-6.7852-3.7148 0.003906-6.7852 3.0742-6.7852 6.7852z" fill="#676767"/>
 <path d="m57.09 33.406c0 3.7109 3.0703 6.7852 6.7852 6.7852 3.7109 0 6.7852-3.0703 6.7852-6.7852 0-3.7109-3.0703-6.7852-6.7852-6.7852-3.7148 0.003906-6.7852 3.0742-6.7852 6.7852z" fill="#676767"/>
 <path d="m57.09 94.207c0 3.7109 3.0703 6.9102 6.7852 6.9102 3.7109 0 6.7852-3.0703 6.7852-6.9102 0-3.7109-3.0703-6.9102-6.7852-6.9102-3.7148 0.12891-6.7852 3.1992-6.7852 6.9102z" fill="#676767"/>
</svg>
