<?xml version="1.0" encoding="UTF-8"?>
<svg width="128pt" height="128pt" version="1.1" viewBox="0 0 128 128" xmlns="http://www.w3.org/2000/svg">
 <path d="m102 2h-60c-6.6289 0-12 5.3711-12 12v18.34l-14.828 14.832c-0.75 0.75-1.1719 1.7656-1.1719 2.8281v64c0 6.6289 5.3711 12 12 12h60c6.6289 0 12-5.3711 12-12v-4h4c6.6289 0 12-5.3711 12-12v-84c0-6.6289-5.3711-12-12-12zm-58 27.66v18.34h-18.34zm46 84.34c0 1.0625-0.42188 2.0781-1.1719 2.8281s-1.7656 1.1719-2.8281 1.1719h-60c-2.2109 0-4-1.7891-4-4v-58h26c1.0625 0 2.0781-0.42188 2.8281-1.1719s1.1719-1.7656 1.1719-2.8281v-26h34c1.0625 0 2.0781 0.42188 2.8281 1.1719s1.1719 1.7656 1.1719 2.8281z" fill="#676767"/>
</svg>
