<?xml version="1.0" encoding="UTF-8"?>
<svg width="128pt" height="128pt" version="1.1" viewBox="0 0 128 128" xmlns="http://www.w3.org/2000/svg">
 <path d="m23.039 46.594v34.816c0 14.461 11.648 26.109 26.113 26.109h19.586l-5.7617 5.7617 7.2969 7.2969 18.047-18.18-18.176-18.047-7.2969 7.2969 5.7617 5.7617-19.457-0.003906c-8.7031-0.125-15.871-7.293-15.871-16v-34.812z" fill="#676767"/>
 <path d="m83.969 20.48h-19.586l5.7617-5.7617-7.2969-7.2969-18.047 18.18 18.047 18.047 7.2969-7.2969-5.7617-5.6328h19.586c8.7031 0 15.871 7.168 15.871 15.875v34.816h10.238v-34.816c0-14.465-11.645-26.113-26.109-26.113z" fill="#676767"/>
</svg>
